<?xml version="1.0" encoding="utf-8"?>
<!-- Generator: Adobe Illustrator 21.0.0, SVG Export Plug-In . SVG Version: 6.00 Build 0)  -->
<svg version="1.1" id="Layer_1" xmlns="http://www.w3.org/2000/svg" xmlns:xlink="http://www.w3.org/1999/xlink" x="0px" y="0px"
	 viewBox="0 0 164 164" style="enable-background:new 0 0 164 164;" xml:space="preserve">
<style type="text/css">
	.st0{fill:#00A4EB;}
	.st1{fill:#FFFFFF;}
	.st2{font-family:'Impact';}
	.st3{font-size:46px;}
	.st4{opacity:0.57;fill:#FFFFFF;enable-background:new    ;}
	.st5{font-family:'ArialMT';}
	.st6{font-size:23px;}
</style>
<path class="st0" d="M2.2,84.4c0-10.9,2.5-21.3,7-30.5C8.8,58.2,8.9,62.6,9.4,67c0.7,5.8,2.4,11.6,4.9,16.9v0.3
	c-0.1,1.8-0.2,3.6-0.2,5.4c0,23.7,11.1,44.8,28.3,58.4C18.6,136.7,2.2,112.4,2.2,84.4z M24.6,21C35.6,8.5,51.3,1.4,67.9,1.4
	c6.4,0,12.9,1,19.2,3.1c0.5,0.2,1,0.3,1.4,0.5c-1.8-0.1-3.6-0.2-5.4-0.2c-15.9,0-31.3,5.5-43.5,15.4c-11.4,5.9-21,14.7-27.9,25.5
	C13.9,36.7,18.2,28.3,24.6,21z M130.4,27.1c1.1,1.1,2.2,2.3,3.3,3.5c-6.6-5.1-14.1-9.1-22.2-11.8c-3.1-3.4-6.7-6.5-10.6-9
	C111.9,12.8,122.1,18.8,130.4,27.1z M72.5,13.9c4.5,0,9,0.4,13.3,1.3C52,16.3,24,40,16.2,71.7c0.6-15.7,6.6-30.4,17.3-42.3
	c3.3-3.6,6.9-6.8,10.8-9.6C52.9,16,62.5,13.9,72.5,13.9z M96.8,8.8c4.5,2.5,8.6,5.6,12.3,9.3c-5-1.4-10.2-2.4-15.6-2.7
	c-6.6-2-13.6-3.1-20.9-3.1s-14.3,1.1-20.9,3.1c9.6-5.1,20.4-7.9,31.5-7.9c2.3,0,4.6,0.1,6.8,0.3C92.2,7.9,94.5,8.3,96.8,8.8
	L96.8,8.8z M10.8,50.7c5.4-10,13.2-18.5,22.6-24.8c-0.6,0.6-1.2,1.2-1.7,1.9C18.7,42,12.4,60.3,13.8,79.5c-1.5-4.1-2.6-8.4-3.2-12.7
	C9.9,61.3,10,55.9,10.8,50.7z M142.9,39.1c-3-5-6.5-9.6-10.7-13.8c-10.6-10.7-24.4-17.6-39-19.7c-1.9-0.8-3.8-1.6-5.7-2.2
	C81,1.3,74.4,0.2,67.9,0.2c-16.9,0-33,7.3-44.2,20c-7.2,8.2-11.9,18.1-13.8,28.7c-6,10.5-9.4,22.6-9.4,35.5
	c0,31.4,20.1,58.1,48.1,68.1c11.5,7.3,25.2,11.6,39.8,11.6c41,0,74.3-33.3,74.3-74.4C162.6,70.1,155.2,52.3,142.9,39.1L142.9,39.1z"
	/>
<text transform="matrix(1 0 0 1 16.3506 106.1667)" class="st1 st2 st3">CHARGE</text>
<text transform="matrix(1 0 0 1 52.9812 63.5833)" class="st4 st5 st6">OVER</text>
</svg>
