<?xml version="1.0" encoding="utf-8"?>
<!-- Generator: Adobe Illustrator 21.0.0, SVG Export Plug-In . SVG Version: 6.00 Build 0)  -->
<svg version="1.2" baseProfile="tiny" id="Layer_1" xmlns="http://www.w3.org/2000/svg" xmlns:xlink="http://www.w3.org/1999/xlink"
	 x="0px" y="0px" viewBox="0 0 1155 866" xml:space="preserve">
<path fill="#DB57B4" stroke="#DB57B4" d="M810.5,231.4v1c-0.3,0-0.7,0-1,0c-0.3-0.3-0.7-0.7-1-1c-13-4.1-40.6-19.8-51-19.8l0,0
	c6.4-1.8,13.3-2.4,20-2c-0.2-0.9,0.1-1.6,1-2l0,0v-1l0,0c-7-16.7-21.5-29.8-28-47c-0.3,0-0.7,0-1,0l0,0v-1h-1l0,0v-1l0,0
	c-0.3,0-0.7,0-1,0l0,0v-1h-1c0-1.3,0-2.7,0-4c0.7,0,1.3,0,2,0v1l0,0c0.3,0,0.7,0,1,0l0,0c0.3,0.3,0.7,0.7,1,1l0,0l0,0
	c0.3,0.3,0.7,0.7,1,1c0.3,0,0.7,0,1,0l0,0v1l0,0h1v1l0,0c0.3,0,0.7,0,1,0c9.2,9,66.5,62.5,74.2,54.8l0,0c5.6,5.6,25.7,13.4,34,19
	l0,0c0.3,0,0.7,0,1,0C859.4,236.5,810.5,228.3,810.5,231.4z"/>
<path fill="#2E70CD" stroke="#2E70CD" d="M1108.6,278.6l-34,4.1l0,0c-3.3-0.7-6.7-1.3-10-2c1.3,0.3,1.9-0.4,2-2l0,0
	c29.4-2,58.7-6.3,88-9.2c0,0.7,0,1.3,0,2C1140.5,274.7,1123.3,276.9,1108.6,278.6z"/>
<path fill="#943192" stroke="#943192" d="M994.6,281.9c-11.8,0-130,1.6-130-13.8h-1l0,0c0-0.7-0.3-1-1-1c-1.3-1.3-2.7-2.7-4-4
	c0-3.4-3.9-4.9-7-5c0-0.7,0-1.3,0-2c-0.9,0.2-1.6-0.1-2-1c3.4-0.7,6.5,0,9,2l0,0c0.3,0,0.7,0,1,0c1.6-0.6,4.5-1.4,3-2l0,0
	c-0.7-0.7-1.3-1.3-2-2l0,0l0,0c1.7-0.2,0.1-1.2-1-2c-0.3,0-0.7,0-1,0l0,0c-0.7-0.7-1.3-1.3-2-2c53.5,5.6,106.9,15.7,161,19.6v-1l0,0
	c46.1,2,91.2-3.6,137-7.4c0,3,0,6,0,9C1101,274.9,1048.4,278.1,994.6,281.9z"/>
<path fill="#9E0C29" stroke="#9E0C29" d="M916.1,98.1c-16-4.7-82.1-36.9-82.1-57.8h-1l0,0c0-0.7-0.3-1-1-1l0,0l0,0c0,0,0-0.3,0-1h-1
	l0,0c0-0.7-0.3-1-1-1l0,0l0,0c0,0,0-0.3,0-1h-1c0.2-0.9-0.1-1.6-1-2l0,0v-1l0,0c-4.9-6.7-9.9-14.2-14-21h-1v-1c-0.3,0-0.7,0-1,0
	c-1.2-2.7-1.7-4.8-2-8c0.3,0,0.7,0,1,0v1h1c0,0.7,0,1.3,0,2h1v1l0,0h1c0,0.7,0,1.3,0,2c0.3,0,0.7,0,1,0v1c0.3,0,0.7,0,1,0
	c0,17.2,41.2,47.5,54.2,58.8c0.3,0,0.7,0,1,0l0,0c0.3,0.3,0.7,0.7,1,1v1c0.3,0,0.7,0,1,0l0,0c0.3,0.3,0.7,0.7,1,1l0,0
	C874.6,72.5,915.3,98.9,916.1,98.1z"/>
<path fill="#E33059" stroke="#E33059" d="M1000.1,87.9c-4.3,1.5-8.4,1.3-12-1l0,0c-0.7-0.7-1.3-1.3-2-2l0,0l0,0v-1l0,0h1v-1l0,0
	c0.3,0,0.7,0,1,0l0,0v-1l0,0c1.7-2.1,3.7-3.7,6-5v-1l0,0h1v-1l0,0c0.3,0,0.7,0,1,0l0,0c-0.2-0.9,0.1-1.6,1-2l0,0c0.7,0,1,0,1,0
	c32.6-18.2,69.1-35,90-68.1c0.3,0,0.7,0,1,0v-1c0.3,0,0.7,0,1,0v-1l0,0c-0.3,0-0.7,0-1,0l0,0c0.4-0.9,1.1-1.2,2-1
	c-0.4-1.1-0.6-1.9-1-3l0,0c14-0.1,28-0.1,42-0.2c0,1,0,2,0,3h-1v1c-0.3,0-0.7,0-1,0l0,0l0,0v1c-0.3,0-0.7,0-1,0v1c-0.3,0-0.7,0-1,0
	l0,0l0,0c-8.4,9.3-19,20.2-28,29c-0.3,0-0.7,0-1,0v1c-0.7,0-1.3,0-2,0v1h-1l0,0v1l0,0C1066,55.6,1039,83.8,1000.1,87.9z M1094,33.6
	v-1c0.3,0,0.7,0,1,0v-1c0.3,0,0.7,0,1,0v-1l0,0l0,0c0.3,0,0.7,0,1,0c0.4-0.9,1.1-1.2,2-1c0.2,0.9-0.1,1.6-1,2l0,0
	C1098,32.5,1094,36.7,1094,33.6z"/>
<path fill="#591D78" stroke="#591D78" d="M712.5,245.6c-33.6-0.8-66.1-29.8-98-29.8l0,0c-42.7-27.8-93.6-50.3-137.1-79.6
	c-0.3,0-0.7,0-1,0l0,0c-0.7-0.7-1.3-1.3-2-2l0,0c-0.3,0-0.7,0-1,0c-17.1-10.3-45.7-23.2-51-39.8l0,0v-1c-0.3,0-0.7,0-1,0
	c-2.7-4.9-7.8-9.3-13-11v-1c-0.3,0-0.7,0-1,0v-1c-0.3,0-0.7,0-1,0l0,0l0,0v-1c-0.9-0.4-1.2-1.1-1-2h1v1
	c54.5,26.9,106.4,70.8,161.2,98.6c-0.4-1.1-0.6-1.9-1-3c-0.9-0.8-1.9-1.1-3-1c0-0.7,0-1.3,0-2c36.6,11.6,101.3,36.3,128.1,61.6
	c4.7,1.6,10,3.7,15,6v1c0.7,0,1.3,0,2,0c0,1.6,0.3,2.7,1,4C710.8,243.5,715.6,245.6,712.5,245.6z"/>
<path fill="#1A6DA0" stroke="#1A6DA0" d="M1.6,664.5v1c-0.3,0-0.7,0-1,0c0-4,0-8,0-12C87.4,555.4,160,458.6,283,402.8c0,1,0,2,0,3
	c0.3,0,0.7,0,1,0l0,0v1c-0.3,0-0.7,0-1,0l0,0c-41.3,30-87.2,63-127.9,96.2l0,0l0,0v1c-0.3,0-0.7,0-1,0v1c-0.3,0-0.7,0-1,0l0,0l0,0v1
	c-0.3,0-0.7,0-1,0v1c-0.7,0-1.3,0-2,0v1h-1v1C92.2,553.4,49.1,611.3,1.6,664.5z"/>
<path fill="#3A236B" stroke="#3A236B" d="M0.9,381.5h-1c-0.1-13-0.1-26-0.1-39c31.6-21.4,59.1-47.1,99-35.2l0,0c0.3,0,0.7,0,1,0v1
	h-1l0,0v1l0,0c-0.3,0-0.7,0-1,0c-0.7,0.7-1.3,1.3-2,2c-0.3,0-0.7,0-1,0l0,0C62.4,333.2,30.3,355.7,0.9,381.5z"/>
<path fill="#024B75" stroke="#024B75" d="M161.1,867.1c-6.3,0-12.7,0-19,0c25.9-30,52.8-60.7,77.8-92.2h1v-1l0,0h1v-1l0,0l0,0l0,0h1
	v-1l0,0c0.9,0.2,1.6-0.1,2-1c0.3,0,0.7,0,1,0l0,0v-1l0,0h1v-1l0,0h1c0,1.3,0,2.7,0,4l0,0c2.5,29.5-30.1,60.8-52.8,80.2
	C169.6,857.4,166.2,862,161.1,867.1z"/>
<path fill="#8F306B" stroke="#8F306B" d="M644.2,122.8h-1l0,0v-1c-0.3,0-0.7,0-1,0l0,0l0,0v-1c-0.3,0-0.7,0-1,0v-1c-0.3,0-0.7,0-1,0
	l0,0l0,0v-1c-0.3,0-0.7,0-1,0v-1c-0.3,0-0.7,0-1,0l0,0c-0.7-0.7-1.3-1.3-2-2l0,0c-0.3,0-0.7,0-1,0l0,0v-1h-1l0,0v-1l0,0
	c-0.3,0-0.7,0-1,0l0,0v-1h-1v-1l0,0c56.3-21.6,24.9-59.5,23.8-105c1,0.8,1.6,1.8,2,3l0,0v1l0,0h1v-1l0,0h1c0-0.7,0-1.3,0-2
	c0.4,1.2,1,2.2,2,3v-1l0,0c0.3,0,0.7,0,1,0c0.3,0.3,0.7,0.7,1,1c12.4,26.9,28.1,55,40.2,80.9c0.3,0,0.7,0,1,0v1h1
	c8.3,14.2,18.4,28.3,28.1,42v1l0,0l0,0c0.3,0,0.7,0,1,0v1c0.3,0,0.7,0,1,0v1l0,0l0,0c0.9,0.4,1.2,1.1,1,2c-1.8-1.2-4-2.3-6-3
	c1.1,4.8-0.1,10.7-3,15l0,0c-0.7-0.7-1.3-1.3-2-2l0,0c-0.3,0-0.7,0-1,0c-2.7-3-5.7-5.7-9-8l0,0v-1c-0.7-0.7-1.3-1.3-2-2l0,0v-1l0,0
	c-0.3,0-0.7,0-1,0l0,0v-1h-1C704.9,172.7,644.2,140.2,644.2,122.8z"/>
<path fill="#10316B" stroke="#10316B" d="M1.6,653.5h-1c-0.1-19-0.1-38-0.2-57h1c0-17.6,60.7-65.6,72.5-76.9
	c40.9-39.2,85.1-75.8,134.1-104.5c67-39.3,147-69.1,225.8-66.5c-4.4,3.4-0.2,4,5,4C387.3,367.8,330,379.5,282.9,403
	C163.1,457,81,551,1.6,653.5z"/>
<path fill="#8748A1" stroke="#8748A1" d="M512.5,239.2c-0.4,0.9-1.1,1.2-2,1c-33.3-10.4-67.3-22.1-102-25.7v-1l0,0
	c16.7,2.1,28.9-9,42-9c-0.6-1.6-1.6-2.2-3-2c3.2-2.5,7.7-3.1,12-2c-18-5.5-39.6-10.8-58-16v-1c0.3,0,0.7,0,1,0
	c35-22.3,4.1-65.9-20-85l0,0c-0.3,0-0.7,0-1,0l0,0v-1h-1l0,0v-1l0,0c-0.3,0-0.7,0-1,0l0,0v-1h-1l0,0v-1c-0.7,0-1.3,0-2,0
	c0-0.7,0-1.3,0-2c0.7,0,1.3,0,2,0v1l0,0h1v1l0,0c0.3,0,0.7,0,1,0l0,0c21,12.7,46.9,29.6,67.1,38.8c49.5,20.7,91.7,60.2,141.2,84.7
	c0.3,0.3,0.7,0.7,1,1v1c0.3,0,0.7,0,1,0v1l0,0h1v1l0,0c0.3,0,0.7,0,1,0l0,0v1l0,0h1v1l0,0c0.3,0,0.7,0,1,0l0,0v1l0,0
	c0.9,0.4,1.2,1.1,1,2c-1.7,0-3.3,0-5,0c0,0.7,0,1.3,0,2c-27,1-57-6.7-82,3v1c-0.3,0-0.7,0-1,0v1C507.8,234,512.5,239,512.5,239.2z
	 M451.2,138.3c-0.7,0-1,0-1,0l0,0C450.9,138.3,451.2,138.3,451.2,138.3z"/>
<path fill="#175F91" stroke="#175F91" d="M2,828.5H1c0-8,0-16,0-24h1c0-12.2,84.1-94.2,95.5-108.9c33.5-43.2,65.3-91.5,104-129.6
	c0-5.4,20.7-18.4,26-23l0,0c0.7-0.7,1.3-1.3,2-2l0,0v-1l0,0h1v-1c0.7,0,1.3,0,2,0c0.2,0.9-0.1,1.6-1,2l0,0l0,0v1c-0.3,0-0.7,0-1,0v1
	c-0.3,0-0.7,0-1,0l0,0l0,0v1c-2.9,3.1-5.2,7.1-6,11c0.7,0,1.3,0,2,0v1l0,0c0,0.7,0,1.3,0,2l0,0v1c1.6-0.6,3.4-1.4,5-2v-1
	c0.3,0,0.7,0,1,0v-1l0,0l0,0c0,1.3,0,2.7,0,4h-1l0,0v1h-1l0,0c-7.9,9-29.7,45-39,45l0,0v1h-1l0,0v1l0,0c-0.3,0-0.7,0-1,0l0,0v1h-1v1
	l0,0c0.8,0.9,1.1,1.9,1,3c0.7,0,1.3,0,2,0c-0.2,0.9,0.1,1.6,1,2c0-0.2,8-1.7,9-2c0.2,0.9-0.1,1.6-1,2l0,0v1l0,0c-0.3,0-0.7,0-1,0
	l0,0v1h-1l0,0v1l0,0c-0.3,0-0.7,0-1,0c-5.7,7.1-12.6,15.6-18,22c0.2-0.9-0.1-1.6-1-2l0,0l0,0v1c-0.3,0-0.7,0-1,0v-1
	c-0.3,0-0.7,0-1,0l0,0l0,0v1c-0.3,0-0.7,0-1,0v1c-30.7,5.4-51.4,50.3-69,72.9C73.3,753.5,39.2,791.3,2,828.5z"/>
<path fill="#BEE66B" stroke="#BEE66B" d="M604.1,864.9v1c-8.7,0-17.3,0-26,0l0,0c0-0.7,0-1.3,0-2c-4,0,131.1-201.8,142.8-214.2
	c92-97.9,213.8-158.3,339.1-202.8v1c-2.5,0,0.9,1.2,2,1c-0.7,1.3-1,2.4-1,4c1.7,0.3,3.1-0.5,4-2l0,0c0,1,0,2,0,3l0,0v1l0,0
	c-0.3,0-0.7,0-1,0l0,0v1c0.3,0,0.7,0,1,0v1l0,0l0,0l0,0v1h-1c-0.3,0-0.7,0-1,0c-79.9,37-163,71.5-235.7,121.6
	c-55.9,38.5-103.8,86.6-143.4,141.6C659.9,754.5,604.1,822.5,604.1,864.9z"/>
<path fill="#FAF20A" stroke="#FAF20A" d="M952.1,860l2,5c-116.7,0.3-233.3,0.7-350,1c83.4-215.6,260.8-316.5,459-408.2
	c0.3,0,0.7,0,1,0h1v-1l0,0c29.8-12.4,61.8-29.6,89.8-44.2c0.1,16.3,0.1,32.7,0.2,49c-0.3,0.3-0.7,0.7-1,1c-0.3,0-0.7,0-1,0l0,0l0,0
	v1c-0.3,0-0.7,0-1,0v1c-0.3,0-0.7,0-1,0l0,0c-0.7,0.7-1.3,1.3-2,2C1006.4,573.6,832.8,663.2,952.1,860z"/>
<path fill="#9457AA" stroke="#9457AA" d="M396,51.5v1c-26.1-12.4-52.5-24.2-80-32.8l0,0c-0.3,0-0.7,0-1,0v-1c-5.9-1.2-11.9-2.2-18-3
	l0,0c0-0.7-0.3-1-1-1l0,0l0,0c0-0.7-0.3-1-1-1v-1c-0.3,0-0.7,0-1,0l0,0l0,0v-1c-0.3,0-0.7,0-1,0v-1c-0.3,0-0.7,0-1,0l0,0l0,0v-1
	c-1.5-2-3.7-3.5-6-4c0-0.7,0-1.3,0-2c-0.9,0.2-1.6-0.1-2-1l0,0c-0.3,0-0.7,0-1,0c-0.7-0.7-1.3-1.3-2-2l0,0l0,0c10,0,20,0,30,0l0,0
	c26.7,11.5,53.5,30,79.1,45.8l0,0C391.1,47.3,396,50.3,396,51.5z"/>
<path fill="#179BC7" stroke="#179BC7" d="M142.1,866.1v1c-13,0.1-26,0.1-39,0.1c39.4-49.7,87.1-103.6,129.7-154.3
	c30.1-10.8,60-64.7,85.9-92.3c45-48,93.3-93.9,150.7-125.2l0,0h1v-1c1.6,0,2.7-0.3,4-1v1c-0.3,0-0.7,0-1,0l0,0l0,0v1
	c-0.3,0-0.7,0-1,0v1c-0.3,0-0.7,0-1,0l0,0l0,0v1l0,0c0,0.7,0,1.3,0,2l0,0v-1l0,0l0,0c0.3,0,0.7,0,1,0c0.8-1,1.8-1.6,3-2l0,0
	c0.3,0,0.7,0,1,0c2.9-2.1,6.5-3.5,10-4v1h-1c0,0.7,0,1.3,0,2c-0.9-0.2-1.6,0.1-2,1l0,0c-0.3,0-0.7,0-1,0c-0.7,0.7-1.3,1.3-2,2
	c-21.9,16.6-99.8,106.2-121.8,106.2l0,0v1h-1l0,0v1l0,0c-0.3,0-0.7,0-1,0l0,0v1h-1l0,0v1l0,0c-0.3,0-0.7,0-1,0l0,0v1h-1l0,0v1l0,0
	c-0.3,0-0.7,0-1,0l0,0c0.8,1,1.8,1.6,3,2l0,0c0.3,0,0.7,0,1,0v-1c0.3,0,0.7,0,1,0v-1c0.7,0,1.3,0,2,0v-1l0,0h1c0-0.7,0-1,0-1
	c0.3,0,0.7,0,1,0l0,0v-1l0,0h1v-1l0,0c0.3,0,0.7,0,1,0l0,0v1l0,0c0.7-0.7,1.3-1.3,2-2v-1c0.7,0,1.3,0,2,0c0,1,0,2,0,3h1v-1
	c0.7,0,1.3,0,2,0c0,0.7,0,1.3,0,2c-0.7,0-1.3,0-2,0v1h-1l0,0v1l0,0c-0.3,0-0.7,0-1,0l0,0v1h-1l0,0v1l0,0c-0.3,0-0.7,0-1,0l0,0v1h-1
	l0,0c-5.7,4.1-22.9,20-29,20v1c-0.3,0-0.7,0-1,0l0,0l0,0v1c-0.3,0-0.7,0-1,0v1c-0.3,0-0.7,0-1,0l0,0l0,0c0.2,0.9-0.1,1.6-1,2l0,0
	c-0.3,0-0.7,0-1,0v1c-0.3,0.3-0.7,0.7-1,1c-43.7,29.7-76.7,89.1-105.6,131.2c-0.3,0.3-0.7,0.7-1,1l0,0c-0.3,0-0.7,0-1,0v1
	c-0.3,0.3-0.7,0.7-1,1C205.7,792.7,142.1,847.2,142.1,866.1z M353.5,613.6c0,0.7,0,1,0,1l0,0C353.5,613.9,353.5,613.6,353.5,613.6z
	 M351.5,613.6c0,0.7,0,1,0,1l0,0C351.5,613.9,351.5,613.6,351.5,613.6z"/>
<path fill="#522467" stroke="#522467" d="M285,36.8v1c-26.6-4.2-53.3-7.2-80-10.8l0,0l0,0c26.8-0.7,58.1,3.9,81,8.7l0,0v1l0,0
	C285.7,36.7,285.3,36.8,285,36.8z"/>
<path fill="#2F4287" stroke="#2F4287" d="M0.9,396.5h-1c0-5,0-10,0-15c30.4-24.3,62.3-48.3,94.9-70.3l0,0c0.3,0,0.7,0,1,0
	c0.7-0.7,1.3-1.3,2-2c0.3,0,0.7,0,1,0l0,0v-1l0,0h1v-1c-0.3,0-0.7,0-1,0l0,0c-10.6-0.8-22.1-1.9-32-3l0,0v-1c7.4-0.4,14.9-1.7,22-4
	c-3.7-1-3-2.5,0-4c0-0.7,0-1.3,0-2c2.1,0.5,3.8-0.2,5-2c0.3,0,0.7,0,1,0c-4-0.7-8-1.3-12-2c1.7,0.3,3.1-0.5,4-2l0,0c0.3,0,0.7,0,1,0
	c15.9-3.6,34.1-4.5,51-6.2c-2.6,0.5-5-0.2-6-2c-1.3,0-2.7,0-4,0c120.4-5.5,234.8-34.8,358-23.9v1c19.2,2.7,38.6,5.2,58,5.9v1
	c-4.7,0.2-9.3,0.5-14,1v1c-0.3,0-0.7,0-1,0v1c2.2,0,4.2,0.7,6,2c0.3,0,0.7,0,1,0l0,0v1l0,0h1c0-0.5,4.7,4,5,5c0.3,0,0.7,0,1,0
	c1.3,1.6,3,2.3,5,2c0,0.7,0,1.3,0,2c-2.4-0.2-4.8-0.8-7-2c-0.3,0-0.7,0-1,0c-96.2-3.4-195.2-14.4-291-1.3
	C199.2,281.6,148,299,102.9,323C86.9,331.5,0.9,378.2,0.9,396.5z"/>
<path fill="#44AB42" stroke="#44AB42" d="M492.1,865.2v1c-9,0-18,0-27,0l0,0c27-27,44.3-83.6,65.3-115.7
	c34.4-52.4,75.8-101.3,123.1-142.8c46.2-40.6,135.4-117,199.7-115.5c-0.3,1.9-0.5,3.1-1,5h-1l0,0c-0.3,0-0.7,0-1,0v1
	c-0.3,0-0.7,0-1,0c-67.6,34.6-134.1,68.7-191.2,121.5C606.2,667.7,492.1,787.8,492.1,865.2z"/>
<path fill="#441D51" stroke="#441D51" d="M0.4,214.5h-1c-0.1-50.3-0.3-100.7-0.4-151c0.3,0,0.7,0,1,0c0.4-0.9,1.1-1.2,2-1v1l0,0
	c0.9,0.4,1.2,1.1,1,2c35.7-8.7,71.4-17.1,108-22.3l0,0c31.2,1.2,161.3,32.2,115.5,82.3c-8,8.7-55.9,24.6-69.5,29.6
	C121.2,168.3,34.1,214.5,0.4,214.5z"/>
<path fill="#D9244C" stroke="#D9244C" d="M916.1,99.1h-1c-8.7-8.7-30.4-16.4-41-27l0,0l0,0v-1c-0.3,0-0.7,0-1,0l0,0
	c-0.3-0.3-0.7-0.7-1-1l0,0l0,0v-1c-0.3,0-0.7,0-1,0l0,0c-0.3-0.3-0.7-0.7-1-1l0,0l0,0v-1c-0.7,0-1.3,0-2,0c0-0.7,0-1.3,0-2
	c0.7,0,1.3,0,2,0v1l0,0h1v1c49.9,23.1,65.7,11.5,111,7.8v1l0,0c0.3,0,0.7,0,1,0l0,0v1c-14.2,2.6-19.5,10.3-17,20
	c28.4,3.7,57,0.7,85-4.3v-1h1c0,1,0,2,0,3C1003.6,109.9,966.1,99.1,916.1,99.1z"/>
<path fill="#6B3287" stroke="#6B3287" d="M473.2,137.3v1c-10.7-7.3-22.1-14.6-33-21c-28.5-17.1-59.1-38-88.1-51.8l0,0v-1l0,0
	c0.7-0.7,1.3-1.3,2-2l0,0l0,0c1.7,1.1,3.8,1.9,6,2v1l0,0h1c0,6,52.3,29.5,62,34.8c0.3,0.3,0.7,0.7,1,1l0,0
	C424.1,114.9,473.2,121.1,473.2,137.3z"/>
<path fill="#3D2D96" stroke="#3D2D96" d="M943.6,287c-11.7,0.2-23.4-0.2-35-1v-1c-6-1.3-12-2.7-18-4c-4.9-1.8-9.8-3.9-14-6l0,0l0,0
	c33.8,2.8,68,4.4,102,6.8v1c3.2,0.1,5.8,1.2,6,2l0,0C971.1,285.7,957,287,943.6,287z"/>
<path fill="#ED2C79" stroke="#ED2C79" d="M1026.6,267.8c-73-2-145.5-18.1-216-35.4c-0.3,0-0.7,0-1,0c-0.3-0.3-0.7-0.7-1-1l0,0
	c10.1-2.3,53.7,12.4,55-0.2c-0.3,0-0.7,0-1,0l0,0c-7.2-4.9-30.2-14.6-34-19c-17.1-12.3-35.1-26-52-38.8v-1c-0.3,0-0.7,0-1,0v-1
	c-0.3,0-0.7,0-1,0l0,0l0,0v-1c-0.3,0-0.7,0-1,0v-1c-0.3,0-0.7,0-1,0l0,0c0-1.3,0-2.7,0-4c0.7,0,1.3,0,2,0c0.4,1.7,2,2.4,4,2v1l0,0h1
	v1c0.7,0,1.3,0,2,0c0.5-1.3,0.1-2.3-1-3l0,0v-1l0,0c-0.3,0-0.7,0-1,0l0,0v-1h-1l0,0v-1l0,0c-0.3,0-0.7,0-1,0l0,0v-1
	c-19.6-19.3-37.2-44.8-53.1-66.9c-0.9-2.4-1.5-4.3-2-7h-1v-1c-0.3,0-0.7,0-1,0c0-0.7,0-1.3,0-2c0.7,0,1.3,0,2,0c0,0.7,0,1.3,0,2
	c0.3,0,0.7,0,1,0c0.7,0,1.3,0,2,0c0.3,0,0.7,0,1,0l0,0c4.8,3.3,9.3,6.8,14,11v1l0,0l0,0c0.3,0,0.7,0,1,0v1c0.3,0,0.7,0,1,0v1l0,0
	l0,0c0.9-0.2,1.6,0.1,2,1v1c0.3,0,0.7,0,1,0l0,0c0.3,0.3,0.7,0.7,1,1c16.7,20.8,107.2,86.5,82.1,16.9c0.3,0,0.7,0,1,0v-1
	c-3.8,0,0-15.1,1-17l0,0l0,0c0.3,0,0.7,0,1,0s0.7,0,1,0l0,0v1l0,0c1.5,0.9,2.3,2.3,2,4h1v1l0,0c4.1,0,77.8,88.4,91.2,96.7
	c50.7,31.5,109.7,44.5,169,42.6c-0.7,0-1.3,0-2,0v-1h-1l0,0v-1l0,0c-0.3,0-0.7,0-1,0l0,0c2.6-1.2,4.7-2.4,7-4c-4.9-1.5-9.6-3.5-14-6
	l0,0c-0.3,0-0.7,0-1,0c-0.4-0.9-1.1-1.2-2-1c-0.2-0.9,0.1-1.6,1-2v-1l0,0l0,0c0.3,0,0.7,0,1,0v-1c0.3,0,0.7,0,1,0v-1l0,0l0,0
	c0.4-1.2,1-2.2,2-3c20.8-3.1,45.6-4.8,68-5.2c0,12.7,0,25.3,0,38C1112.6,264.1,1068.9,272.7,1026.6,267.8z"/>
<path fill="#0C93D6" stroke="#0C93D6" d="M479,418.3h-1c0.4-1.8,1.5-5.1,2-6v-1c0.3,0,0.7,0,1,0v-1l0,0l0,0c0.3,0,0.7,0,1,0v-1
	c0.3,0,0.7,0,1,0v-1l0,0l0,0c0.9,0-9.3,0-12,0l0,0c-0.3,0-0.7,0-1,0l0,0v1h-1c0-0.7,0-1.3,0-2h1v-1c1,0,2,0,3,0c0-1.3,0-2.7,0-4
	c40.7-16.5,83.7-29.1,125.9-42.3l0,0c0-0.7,0-1.3,0-2l0,0v-1h1v-1c-2,0-4,0-6,0v-1c0.3,0,0.7,0,1,0v-1c4-0.7,8-1.3,12-2
	c-102.9-18.8-224.6,29.4-323,53.7c-0.3,0-0.7,0-1,0c0-1,0-2,0-3l0,0c47.2-23.4,104.4-35,155.9-50.4l0,0
	c110.3-11.1,218.9-23.2,330-26.8l0,0c131.3-0.3,255.5-0.9,384-28.9l0,0c0.7,0.7,1.3,1.3,2,2l0,0c0,11.3,0,22.7,0,34
	c-7.2,2-15.8,5.2-22,8c-0.3,0-0.7,0-1,0s-0.7,0-1,0l0,0c0-0.7,0-1.3,0-2c0.9,0.2,1.6-0.1,2-1l0,0c0-2,0-4,0-6l0,0v1l0,0
	c-0.7,0.7-1.3,1.3-2,2c0-1,0-2,0-3c-33.5,5.8-68.8,12.2-103,14.3c0.2-0.9-0.1-1.6-1-2l0,0v-1l0,0l0,0c-59.8,5-130.8,6.4-193,16.5
	c1.3,0,2.7,0,4,0v1h-1l0,0v1c-2.8-0.7-5.2-0.2-7,2c6.7,0,13.3,0,20,0c-26.9,3.6-54.2,4.2-81,8.2l0,0c-0.3,0-0.7,0-1,0
	c-38.5,3.4-78.4,10.4-117,10.4C591.5,380.1,535.6,418.3,479,418.3z M1136.7,333.5h-1c-0.1-1.4,0.6-2.1,2-2c0,0.7,0,1.3,0,2H1136.7z"
	/>
<path fill="#9557B7" stroke="#9557B7" d="M729.6,281.6l4,2c-34.3-4.6-68.7-9.2-103-13.8l0,0c0.7-0.7,1.3-1.3,2-2
	c8.3,0.2,16.7,0.9,25,2c-9.4-3.3-19.4-5.7-29-7c0-0.7,0-1.3,0-2c7.1,0.3,22.2,1.8,14-5c-9.7-9.4-29.2-19.8-38-27v-1l0,0
	c-0.3,0-0.7,0-1,0l0,0v-1h-1l0,0v-1l0,0c-0.3,0-0.7,0-1,0l0,0v-1h-1l0,0v-1l0,0c-0.3,0-0.7,0-1,0v-1
	C639.2,241.2,686.8,270.5,729.6,281.6z M648.5,258.8c-0.3,0-0.7,0-1,0c0.3-0.3,0.7-0.7,1-1V258.8z M640.5,250.8c0,0-0.3,0-1,0
	c0-0.7,0.3-1,1-1C640.5,249.8,640.5,250.2,640.5,250.8z"/>
<path fill="#5C2974" stroke="#5C2974" d="M352,64.6v1c-22.1-9.1-44.8-20.2-67-26.8v-1l0,0v-1c0.3,0,0.7,0,1,0l0,0v-1l0,0
	c0.3,0,0.7,0,1,0c20,5,42.8,14.4,61,23.8l0,0h1v1c1.7,0.3,3.5,1,5,2C353.3,63.3,352.7,63.9,352,64.6L352,64.6z"/>
<path fill="#0687C4" stroke="#0687C4" d="M855.8,363.3c-8.7,0-17.3,0-26,0c1.8-2.2,4.2-2.7,7-2v-1l0,0h1v-1c-1.3,0-2.7,0-4,0
	c62.2-10,133.2-11.5,193-16.5l0,0l0,0v1l0,0c0.9,0.4,1.2,1.1,1,2c0.7,0,1.3,0,2,0v1C972,351.4,913.9,363.3,855.8,363.3z"/>
<path fill="#11ACBB" stroke="#11ACBB" d="M175.1,853.1L175.1,853.1L175.1,853.1c20-20,38.1-43.2,54.8-66.1
	c23,0,90.4-120.7,108.6-144.2c0.3,0,0.7,0,1,0l0,0v-1l0,0h1v-1l0,0h1c0-2,0-4,0-6c-1.4,0-8,1.3-8,3c-0.3,0-0.7,0-1,0v1
	c-0.3,0-0.7,0-1,0l0,0l0,0v1c-0.3,0-0.7,0-1,0v1c-0.7,0-1.3,0-2,0c-0.2-0.9,0.1-1.6,1-2l0,0c0.7-0.7,1.3-1.3,2-2l0,0
	c0.3,0,0.7,0,1,0v-1c0.3,0,0.7,0,1,0v-1l0,0l0,0c0.3,0,0.7,0,1,0v-1c5.5,0,22.2-16.5,29-20l0,0h1v-1l0,0c0.3,0,0.7,0,1,0l0,0v-1l0,0
	h1v-1l0,0c0.3,0,0.7,0,1,0l0,0v-1l0,0c0.9-0.4,1.2-1.1,1-2c-1.1,0.1-2.1-0.2-3-1l0,0c-0.3,0-0.7,0-1,0l0,0v1h-1l0,0v-1l0,0
	c-0.3,0-0.7,0-1,0l0,0v1h-1l0,0v1l0,0c-0.3,0-0.7,0-1,0c0,0,0,0.3,0,1h-1l0,0v1c-0.7,0-1.3,0-2,0v1c-0.3,0-0.7,0-1,0v1
	c-0.3,0-0.7,0-1,0l0,0l0,0v1c-0.3,0-0.7,0-1,0v1c-1.3,0-2.7,0-4,0c0-0.7,0-1.3,0-2c0.7,0,1.3,0,2,0c-0.2-0.9,0.1-1.6,1-2l0,0v-1l0,0
	h1v-1l0,0c0.3,0,0.7,0,1,0l0,0v-1l0,0h1v-1l0,0c0.3,0,0.7,0,1,0l0,0v-1l0,0h1v-1l0,0c24.3,0,97.4-87.8,121.8-106.2
	c0.7-0.7,1.3-1.3,2-2c0.3,0,0.7,0,1,0l0,0c0.4-0.9,1.1-1.2,2-1c0-0.7,0-1.3,0-2h1v-1c-3.5,0.5-7.1,1.9-10,4c-0.3,0-0.7,0-1,0l0,0
	c-1.2,0.4-2.2,1-3,2c-0.3,0-0.7,0-1,0l0,0l0,0v1l0,0c0-0.7,0-1.3,0-2l0,0v-1l0,0l0,0c0.3,0,0.7,0,1,0v-1c0.3,0,0.7,0,1,0v-1l0,0l0,0
	c0.3,0,0.7,0,1,0v-1l0,0h1v-1c33.5-15.4,83.8-47.2,121-50.2c0.3,0,0.7,0,1,0l0,0v1l0,0v1l0,0l0,0l0,0v1c-0.3,0-0.7,0-1,0
	c0,2.4,3.2,2.4-1,5l0,0c-0.3,0-0.7,0-1,0l0,0v1h-1l0,0v1c7.2-2.4,19.8-5.5,24-6l0,0l0,0v1c-0.3,0-0.7,0-1,0v1c-1.7-0.1-4,1.2-4,3h-1
	l0,0v1l0,0c-0.3,0-0.7,0-1,0l0,0v1h-1c0,0.7,0,1.3,0,2h1v-1c0.7,0,1.3,0,2,0c0-0.7,0-1.3,0-2c1.6,0,2.7-0.3,4-1c0,0.7,0,1.3,0,2
	c-0.9-0.2-1.6,0.1-2,1c26.7-10.8,47.8-23.3,77-21.1v1l0,0c-0.3,0-0.7,0-1,0l0,0v1h-1l0,0v1c2,0,4,0,6,0v1l0,0h1v1c0.7,0,1.3,0,2,0
	c0,0.7,0,1.3,0,2c0.7,0,1.3,0,2,0c-0.8,1-1.8,1.6-3,2l0,0c-0.3,0-0.7,0-1,0l0,0v1h-1v1l0,0c-5.8,2.3-26.7,15-35,15v1
	c-2.9,0.4-5.4,1.1-8,2c3.5,2.1,7.7,2.7,12,2c0,0.7,0,1.3,0,2c-0.7,0-1.3,0-2,0c-0.2,0.9,0.1,1.6,1,2c-0.7,0.7-1.3,1.3-2,2l0,0
	c-0.3,0-0.7,0-1,0l0,0v1h-1l0,0c-42.9,27.5-87.5,54.5-125.9,89.2l0,0v1c-0.3,0-0.7,0-1,0v1c-0.3,0-0.7,0-1,0l0,0l0,0v1
	c-0.3,0-0.7,0-1,0v1c-0.3,0-0.7,0-1,0l0,0l0,0v1c-0.3,0-0.7,0-1,0v1c-0.7,0-1.3,0-2,0c-0.2-0.9,0.1-1.6,1-2l0,0c0.7-0.7,1.3-1.3,2-2
	l0,0c0.3,0,0.7,0,1,0v-1c0.3,0,0.7,0,1,0v-1l0,0l0,0c0.3,0,0.7,0,1,0v-1c9,0,40.6-42.5,48.8-51.2l0,0c0.3,0,0.7,0,1,0v-1
	c0.3,0,0.7,0,1,0v-1l0,0l0,0c0.3,0,0.7,0,1,0v-1h-1l0,0v-1l0,0l0,0l0,0c0-1,0-2,0-3h-1v-1c-107.2,19.6-199.1,111.2-266,191.9
	c-19.3,23.3-94.4,157.7-135.3,157.7v1C178.8,852.8,173.5,858.8,175.1,853.1z M367.5,604.6c0,0,0,0.3,0,1
	C367.5,605.6,367.5,605.2,367.5,604.6L367.5,604.6z M607.1,454.9c0,0.7,0,1,0,1l0,0V454.9L607.1,454.9z"/>
<path fill="#3D0F36" stroke="#3D0F36" d="M-0.1,27.5h-1c0-8.7,0-17.3,0-26c24.3-0.1,48.7-0.1,73-0.2C51,12.4,23.6,20.3-0.1,27.5z"/>
<path fill="#1E6BCA" stroke="#1E6BCA" d="M1064.6,298.7l-30,3.1l0,0v-1c-4.1,0-8.1-0.7-12-2l0,0c44.3-4,88.7-9.9,132-18.4
	c0,1,0,2,0,3l0,0c-0.9,0.4-1.2,1.1-1,2C1124.4,290.1,1094.5,296.7,1064.6,298.7z"/>
<path fill="#1786C0" stroke="#1786C0" d="M191.5,614c-0.9-0.4-1.2-1.1-1-2c-0.7,0-1.3,0-2,0c0.1-1.1-0.2-2.1-1-3l0,0v-1h1v-1l0,0
	c0.3,0,0.7,0,1,0l0,0v-1l0,0h1v-1l0,0c9.8,0,32.1-37.1,39-45l0,0h1v-1l0,0h1c0-1.3,0-2.7,0-4l0,0l0,0v1c-0.3,0-0.7,0-1,0v1
	c-1.6,0.6-3.4,1.4-5,2v-1c-0.3,0-0.7,0-1,0v-1c-0.3,0-0.7,0-1,0l0,0v-1h1v-1c-0.3,0-0.7,0-1,0c1.8-3.9,4.1-9,6-13l0,0
	c0.3-0.3,0.7-0.7,1-1h1c0,0,0-0.3,0-1l0,0l0,0c0.3-0.3,0.7-0.7,1-1l0,0c8.5-9.3,19.7-18.3,30-24c0-0.7,0-1.3,0-2c0.7,0,1.3,0,2,0
	c-0.2,1.7,0.5,3.1,2,4c-1.5,0.5-2.5,1.2-1,2c0,0.7,0,1.3,0,2c0.3,0,0.7,0,1,0v-1c0.3,0,0.7,0,1,0v-1c31.4-10.2,57.3-35.5,87.9-48.1
	c0,0.7,0,1.3,0,2c0.3,0,0.7,0,1,0c3.1,0.2,6.2-0.5,9-2v1l0,0h1v-1l0,0h1c-0.2,2.2-0.9,4.3-2,6c4.7-0.2,12.9-1.6,14-2l0,0
	c-0.7,0.7-1.3,1.3-2,2l0,0c-0.3,0-0.7,0-1,0l0,0v1h-1l0,0v1l0,0c-0.3,0-0.7,0-1,0l0,0v1h-1l0,0c-24.1,19.7-52.7,43.9-80.8,57.2
	c-0.3,0-0.7,0-1,0l0,0l0,0v1c-0.3,0-0.7,0-1,0c-7,5-88.9,55.4-88.9,74.1C200.4,612.5,191.5,614,191.5,614z M213.4,600
	C209.6,600,219.6,593.8,213.4,600z M363.1,473.6c0,0.7,0,1,0,1l0,0l0,0C363.1,473.9,363.1,473.6,363.1,473.6z M365.1,472.6
	c0,0,0,0.3,0,1C365.1,473.6,365.1,473.2,365.1,472.6L365.1,472.6z"/>
<path fill="#A762C2" stroke="#A762C2" d="M791.6,290.4h-5l0,0c0,10.1-183.3-65.7-188-67.6c0-1.4-7.7-3.7-9-4l0,0c0-0.7-0.3-1-1-1
	c-14-6.9-142.2-67.2-142.2-86.7c-2.6-3.1-4.9-7.3-6-11c-0.7,0-1.3,0-2,0c0-0.7,0-1.3,0-2c-0.7,0-1.3,0-2,0v-1c-0.3,0-0.7,0-1,0v-1
	c-0.3,0-0.7,0-1,0l0,0l0,0c0.4-0.9,1.1-1.2,2-1v1c1.6,0,2.7,0.3,4,1c10.5,5.7,22.7,13.7,32,21c0.3,0,0.7,0,1,0l0,0l0,0
	c0.7,0.7,1.3,1.3,2,2c0.3,0,0.7,0,1,0l0,0c42.9,30.7,90.3,53.9,138.2,75.7c23.5,0,63.2,22.2,86,29.8l0,0
	c72,25.6,156.6,39.8,234,41.4c46,0,94.9,4.1,140-4.3c26.4-3.1,54.8-5.5,80-11.2c0,3,0,6,0,9C1040.5,303,906.2,314,791.6,290.4z"/>
<path fill="#9550B0" stroke="#9550B0" d="M648.6,266.8l9,3c-8.3-1.1-16.7-1.8-25-2c-37-7.2-76.8-17.6-112-22.8c-3.1-0.6-6.1-1.6-9-3
	c-0.7,0-1.3,0-2,0c0.9-0.4,1.2-1.1,1-2l0,0c-0.6-2.3-2-5-3-6v-1c0.3,0,0.7,0,1,0v-1c24.6-9,53.8-1.9,80-3c1.3-1.7,4.2-2.4,7-2
	c0.2-0.9-0.1-1.6-1-2l0,0v-1l0,0c-0.3,0-0.7,0-1,0l0,0v-1h-1l0,0v-1l0,0c-0.3,0-0.7,0-1,0l0,0v-1h-1l0,0v-1c-0.7,0-1.3,0-2,0
	c0-0.7,0-1.3,0-2c0.7,0,1.3,0,2,0v1l0,0h1v1c1.2,0.2,7,1.8,7,3h1v1c0.3,0,0.7,0,1,0l0,0v1l0,0h1v1l0,0c0.3,0,0.7,0,1,0l0,0v1l0,0h1
	v1l0,0c0.3,0,0.7,0,1,0l0,0v1c8.9,6.4,29,19,38,25c0,0.7,0,1.3,0,2c2.1,0.7,3.9,1.3,6,2v1c-0.3,0-0.7,0-1,0v1c-0.3,0-0.7,0-1,0l0,0
	c-6,0.9-12,1.2-18,1c0,0.7,0,1.3,0,2C635.1,264,642.1,264.9,648.6,266.8z M514.5,241.2v1l0,0l0,0
	C514.5,241.5,514.5,241.2,514.5,241.2z M512.5,239.2c0,0.7-0.3,1-1,1l0,0C511.2,239.2,511.5,238.9,512.5,239.2z"/>
<path fill="#AA2E7C" stroke="#AA2E7C" d="M827.4,213.3c-26.5-14.7-51.5-34.3-73.2-55.8c-0.3,0-0.7,0-1,0l0,0v-1h-1l0,0v-1l0,0
	c-0.3,0-0.7,0-1,0c-0.3-0.3-0.7-0.7-1-1l0,0l0,0c0-0.7,0-1,0-1h-1c-0.3-0.3-0.7-0.7-1-1c-1.6-2-10-10.8-10-12c-0.3-0.3-0.7-0.7-1-1
	l0,0c-0.3-0.3-0.7-0.7-1-1l0,0l0,0c0-0.7,0-1,0-1h-1c-0.3-0.3-0.7-0.7-1-1l0,0c-8.2-14.6-19.6-29.3-28.1-44h-1v-1c-0.3,0-0.7,0-1,0
	c-0.7-2.1-1.3-3.9-2-6l0,0c1.4,1.1,3.1,1.8,5,2c0.7,1.3,1,2.4,1,4c19.5,26.3,41.5,53.8,64.2,77.9l0,0c0.3,0,0.7,0,1,0v1
	c0.3,0,0.7,0,1,0v1l0,0l0,0c0.3,0,0.7,0,1,0v1c0.3,0,0.7,0,1,0v1C792.8,185.5,814.8,201,827.4,213.3z"/>
<path fill="#5D1A40" stroke="#5D1A40" d="M636.2,111.8C596.8,88.3,567.4,25.8,530,8c-1.5-0.9-2.3-2.3-2-4h-1l0,0V3h-1
	c0.3-1.2,0-2.2-1-3l0,0c45-0.1,90-0.3,135-0.4c0.7,3,1.2,5,2,8c0.3,0,0.7,0,1,0v1h1c0,0.7,0,1.3,0,2c-1,0-2,0-3,0
	c0.1-1.1-0.2-2.1-1-3c0,0.7,0,1.3,0,2h-1l0,0v1h-1l0,0v-1l0,0c-0.4-1.2-1-2.2-2-3C656.1,36.8,690,99.4,636.2,111.8z"/>
<path fill="#7B3A9B" stroke="#7B3A9B" d="M614.4,213.9v2c-47.9-21.9-95.3-44.9-138.2-75.7l0,0c-0.3,0-0.7,0-1,0
	c-0.7-0.7-1.3-1.3-2-2l0,0l0,0l0,0c-0.3-0.3-0.7-0.7-1-1l0,0l0,0v-1l0,0c-0.8-0.9-1.1-1.9-1-3c0.9-0.2,1.6,0.1,2,1c0.3,0,0.7,0,1,0
	l0,0c0.7,0.7,1.3,1.3,2,2l0,0c0.3,0,0.7,0,1,0C488,143.5,605.3,223,614.4,213.9z"/>
<path fill="#4D40A2" stroke="#4D40A2" d="M934.6,287.1L934.6,287.1c16.7-0.2,33.4-0.9,50-2.1l0,0c-0.2-0.8-2.9-2-6-2v-1l0,0
	c29.3,0,58.7-2.1,88-3.2c-0.1,1.6-0.7,2.3-2,2c3.3,0.7,6.7,1.3,10,2l0,0C1029.8,292,980.4,286.9,934.6,287.1z"/>
<path fill="#B0408C" stroke="#B0408C" d="M762.4,215.5l1,2c-23.6-8.7-49.5-19.3-71-29.8c-33.6-20.1-56.2-43.1-82.1-71.8l0,0l0,0v-1
	c-0.3,0-0.7,0-1,0v-1c-0.3,0-0.7,0-1,0l0,0l0,0v-1c-0.7-0.7-1.3-1.3-2-2l0,0v-1l0,0c-0.3,0-0.7,0-1,0l0,0v-1c0.3,0,0.7,0,1,0v-1l0,0
	c10.7,3.7,21.8,8.5,32,14l0,0c0.3,0,0.7,0,1,0c1.5,1,3.2,1.3,5,1c0,17.4,61,49.6,68,13.9h1v1l0,0c0.3,0,0.7,0,1,0l0,0v1l0,0
	c0.7,0.7,1.3,1.3,2,2v1l0,0c3.3,2.3,6.3,5,9,8c0.3,0,0.7,0,1,0l0,0c0.7,0.7,1.3,1.3,2,2l0,0c2.9-4.3,4.1-10.2,3-15c1,0,2,0,3,0v1
	l0,0c0.3,0,0.7,0,1,0l0,0c0.3,0.3,0.7,0.7,1,1l0,0v1l0,0c0.3,0,0.7,0,1,0l0,0c0.3,0.3,0.7,0.7,1,1c0,1.4,10,11.7,12,14
	c-1.9-1.3-3.3-0.7-4,2h1v1l0,0c0.3,0,0.7,0,1,0l0,0v1l0,0h1v1l0,0c0.3,0,0.7,0,1,0c6.8,17,21.4,30.1,28,47l0,0v1l0,0
	c-0.9,0.4-1.2,1.1-1,2c-6.7-0.4-13.6,0.2-20,2l0,0C759.7,212,761.4,213.2,762.4,215.5z"/>
<path fill="#E12A54" stroke="#E12A54" d="M1002.1,108.9c15-4.8,34.8-9.2,50-14.1c0-1,0-2,0-3h-1v1c-28,5-56.6,8-85,4.3
	c-2.5-9.6,2.9-17.4,17-20v-1l0,0c4.4-0.7,8.8-1.7,13-3l0,0c0.4-0.9,1.1-1.2,2-1c0,0.7,0,1.3,0,2c-0.9-0.2-1.6,0.1-2,1l0,0
	c-0.3,0-0.7,0-1,0l0,0v1h-1l0,0v1c-2.3,1.3-4.3,2.9-6,5l0,0v1l0,0c-0.3,0-0.7,0-1,0l0,0v1h-1l0,0v1l0,0l0,0c0.7,0.7,1.3,1.3,2,2l0,0
	c38,7.1,81.5-28.3,105.9-54.3l0,0l0,0c0.3,0,0.7,0,1,0v-1c0.3,0,0.7,0,1,0v-1l0,0l0,0c0.3,0,0.7,0,1,0c0.4-0.9,1.1-1.2,2-1
	c0.2,0.9-0.1,1.6-1,2l0,0c-1,0.8-1.6,1.8-2,3l0,0l0,0c0,0.7,0,1.3,0,2l0,0l0,0v-1l0,0h1v-1c0.7,0,1.3,0,2,0v-1c0.3,0,0.7,0,1,0
	c9-8.9,19.4-19.6,28-29l0,0l0,0c0.3,0,0.7,0,1,0v-1c0.3,0,0.7,0,1,0v-1l0,0l0,0c0.3,0,0.7,0,1,0v-1h1c0-1,0-2,0-3c7.3,0,14.7,0,22,0
	c0,8,0,16,0,24c-0.3,0-0.7,0-1,0v1h-1l0,0v1l0,0c-0.7,0.7-1.3,1.3-2,2l0,0l0,0v1c-0.3,0-0.7,0-1,0v1c-0.3,0-0.7,0-1,0
	c-22.7,24.3-47.4,46.2-77,64.1C1071.3,93.2,1012.7,108.9,1002.1,108.9z"/>
<path fill="#FD376E" stroke="#FD376E" d="M1132.3,175.5l-16,7c0-0.7,0-1.3,0-2c-2.1,0.3-7.1-2-5-2v-1h-1l0,0v-1
	c-26.7,2.9-55.7,4.4-80-5.8c0-1.3,0-2.7,0-4c0.3,0,0.7,0,1,0v-1c0.3,0,0.7,0,1,0v-1l0,0l0,0c0.3,0,0.7,0,1,0v-1c0.3,0,0.7,0,1,0
	c40.6-14.1,79.4-30.4,113.8-59.3v-1l0,0h1v-1c0.7,0,1.3,0,2,0c-0.2-0.9,0.1-1.6,1-2l0,0c0.4-0.9,1.1-1.2,2-1
	c0.1,22.3,0.1,44.7,0.2,67C1147.3,169,1140.5,171.9,1132.3,175.5z"/>
<path fill="#A35FBD" stroke="#A35FBD" d="M513.5,241.2l1,1c-0.7,0-1.3,0-2,0c-0.7,0-1.3,0-2,0c0-0.7-0.3-0.7-1,0
	c-32.9-7.5-65.9-15.9-99-21.8l0,0l0,0v-1c-0.3,0-0.7,0-1,0v-1c-0.3,0-0.7,0-1,0c0-0.7,0-1.3,0-2c-1,0-2,0-3,0v-1h-1c0-0.7,0-1.3,0-2
	c1.3,0,2.7,0,4,0v1c34.7,3.6,68.7,15.3,102,25.7c0.7,0,1.3,0,2,0C512.5,240.2,512.8,240.5,513.5,241.2z"/>
<path fill="#FDC42C" stroke="#FDC42C" d="M1156,810.5l0.1,54c-44.3,0.1-88.6,0.3-133,0.4c-70.4,0.2-92.6-7.5-113.8-85.7
	c-40.8-150.4,143.8-241.1,239.6-312.6c0.7-0.7,1.3-1.3,2-2l0,0c0.3,0,0.7,0,1,0v-1c0.3,0,0.7,0,1,0v-1l0,0l0,0c0.3,0,0.7,0,1,0
	c0.3-0.3,0.7-0.7,1-1c0.1,31,0.1,62,0.2,93c-0.3,0-0.7,0-1,0v1h-1l0,0v1l0,0c-0.3,0-0.7,0-1,0l0,0v1h-1c0,1,0,2,0,3h-1l0,0v1
	c-40,0-41.7,104.7-33.7,131C1133.1,747.4,1155.5,750.7,1156,810.5z"/>
<path fill="#9E112C" stroke="#9E112C" d="M833.9,4.3c-2.4-1.6-5-2.6-8-3v-1c-0.3-0.3-0.7-0.7-1-1l0,0c56.9-0.1,124.3-5.1,177,0.6
	l0,0v1C952.6,14.5,882.5,30.5,833.9,4.3z"/>
<path fill="#7D3B9F" stroke="#7D3B9F" d="M908.6,285.1v1c-18.3-1.7-36.8-3.5-55-5.8l0,0c0-2.4,30.8,0.3,37,1
	C896.6,282.7,902.6,284,908.6,285.1z"/>
<path fill="#43A940" stroke="#43A940" d="M455.1,866.3c-33.7,0.1-67.3,0.1-101,0.2l0,0c0-50.2,104.2-155.8,129.8-185.3
	c54.7-62.9,120.6-116,192.3-156.5c0.3,0,0.7,0,1,0v-1c2,0.3,3.7-0.4,5-2l0,0c25.6-12.3,53-26,82-26v1h-1l0,0v1l0,0c-0.3,0-0.7,0-1,0
	l0,0v1h-1l0,0v1l0,0c-0.3,0-0.7,0-1,0c-0.7,0.7-1.3,1.3-2,2C640.2,577.6,484.1,724,455.1,866.3z"/>
<path fill="#024572" stroke="#024572" d="M2.1,849.5h-1c0-7,0-14,0-21c35.4-28.5,65.2-66.1,93.3-102.1c19.1-24.5,47-83.4,80.3-87.2
	v-1c0.3,0,0.7,0,1,0v-1l0,0l0,0c0.3,0,0.7,0,1,0v1c0.3,0,0.7,0,1,0v-1l0,0l0,0c0.9,0.4,1.2,1.1,1,2l0,0l0,0v1h-1l0,0v1l0,0
	c-0.7,0.7-1.3,1.3-2,2l0,0l0,0v1c-34.3,43.6-67.9,88.1-103.3,130.8C65.4,783.6,18.7,849.5,2.1,849.5z"/>
<path fill="#01436F" stroke="#01436F" d="M2,804.5H1c-0.1-46.3-0.3-92.7-0.4-139c0.3,0,0.7,0,1,0c57.7-69.9,129-194.2,237.6-162.6
	l0,0v-1l0,0h1v1l0,0c0.3,0,0.7,0,1,0l0,0v-1l0,0c2.6,1.9,2.6,4,0,6l0,0c-25.8,26.6-45.3,60.7-68.4,90
	c-36.2,46-70.8,93.3-107.9,138.5C56.2,747.1,2,796.8,2,804.5z"/>
<path fill="#0997C8" stroke="#0997C8" d="M232.7,713.9c10.3-24.8,17.3-53.3,25-79c0.3,0,0.7,0,1,0v-1h-1l0,0v-1
	c-7.3,2.2-15,3.7-23,6c-9.8,2.8-52.6,32-56,32l0,0v1h-1l0,0v1l0,0c-0.9,0.4-1.2,1.1-1,2c-0.7,0-1.3,0-2,0v1h-1l0,0v1l0,0
	c-0.7,1.3-1.3,2.7-2,4c-0.9,0.4-1.2,1.1-1,2c-0.7,0-1.3,0-2,0c0,0.7,0,1.3,0,2c-1.6,0-2.7,0.3-4,1c0-0.7,0-1.3,0-2
	c0.9,0.2,1.6-0.1,2-1c0.3,0,0.7,0,1,0l0,0v-1l0,0h1v-1l0,0h1c0.6-2.7,2-5.1,4-7v-1l0,0l0,0c0.3,0,0.7,0,1,0v-1h1c0-0.7,0-1.3,0-2h1
	c0-36.5,90.2-104.8,115.8-129.1v-1c0.3,0,0.7,0,1,0v-1l0,0l0,0c0.3,0,0.7,0,1,0v-1c0.3,0,0.7,0,1,0v-1c0.7,0,1.3,0,2,0v-1l0,0h1v-1
	l0,0l0,0c24.4-18.1,51.1-36.6,74.8-55.2l0,0h1v-1l0,0c0.3,0,0.7,0,1,0l0,0v-1l0,0h1v-1l0,0c0.3,0,0.7,0,1,0l0,0c0.7-0.7,1.3-1.3,2-2
	l0,0c-2.4,1.4-10.5,1.8-16,0l0,0c-0.3,0-0.7,0-1,0l0,0c1.3-1.5,3-2.2,5-2c0-0.7,0-1.3,0-2h-1l0,0v1h-1l0,0v-1c-2.8,1.5-5.9,2.2-9,2
	c-0.3,0-0.7,0-1,0c0-0.7,0-1.3,0-2c-0.7,0-1.3,0-2,0l0,0l0,0c80-43.3,205.4-92.6,297.9-88.9c38.6,0,78.5-7,117-10.4
	c-1.3,0.7-2.7,1.3-4,2c54.6,4.6,131-12.6,179,5.6l0,0c-82,24.8-169.5,35.2-253,52.5v1c-32.3-3-45.2,11.4-80,21.1v1h-1l0,0v1
	c-1,0-2,0-3,0v-1c0.3,0,0.7,0,1,0v-1c0.7,0,1.3,0,2,0v-1l0,0h1v-1l0,0c0.3,0,0.7,0,1,0l0,0v-1l0,0h1c0-1.8,2.3-3.1,4-3v-1
	c0.3,0,0.7,0,1,0v-1l0,0l0,0c-4,0.5-17,3.6-24,6v-1l0,0h1v-1l0,0c0.3,0,0.7,0,1,0l0,0c4.2-2.6,1-2.6,1-5c0.3,0,0.7,0,1,0v-1l0,0l0,0
	l0,0v-1l0,0v-1l0,0c-0.3,0-0.7,0-1,0c-40.4,7.6-83,33.1-121,50.1v1c-1.8,0.4-3.1,0.7-5,1v1h-1l0,0
	C446,507.3,219.3,700.5,232.7,713.9z M615.1,452.9c-2.5,0,0.2-2,1-2c0,0.7,0,1.3,0,2H615.1z"/>
<path fill="#5B3890" stroke="#5B3890" d="M0.8,342.5h-1c0-4,0-8,0-12c59.3-41.4,122.7-81.6,186.8-112.4c0-1.6-0.3-2.7-1-4
	c-38.5-2.2-78-1.1-116,5.2c0.7-1.3,1-2.4,1-4l0,0l0,0c130.3-41.9,273.3-5.4,404,22c0,0.7,0,1.3,0,2h-1v1c0.7,0,1.3,0,2,0
	c0,1,0,2,0,3c-15.3-1.8-31.3-2.8-47-3l0,0c-0.3,0-0.7,0-1,0l0,0c1.3,0.7,2.7,1.3,4,2c-1.7,0-3.3,0-5,0v1l0,0v1l0,0l0,0l0,0
	c1.8,1.6,3.7,2.2,6,2c0,1,0,2,0,3h1v1l0,0c0.3,0,0.7,0,1,0l0,0v1c-104.8-1.9-203.9,24.1-306,27.7c1.3,0,2.7,0,4,0c1,1.8,3.4,2.5,6,2
	c-16.9,1.7-35.1,2.6-51,6.2c-0.3,0-0.7,0-1,0l0,0c-0.9,1.5-2.3,2.3-4,2c4,0.7,8,1.3,12,2c-0.3,0-0.7,0-1,0c-1.2,1.8-2.9,2.5-5,2
	c0,0.7,0,1.3,0,2c-3,1.6-4,3.2,0,4c-7.1,2.4-14.6,3.7-22,4v1C45,310.6,15.7,325.1,0.8,342.5z"/>
<path fill="#A7D358" stroke="#A7D358" d="M578.1,866c-28.7,0.1-57.3,0.1-86,0.2C556,690.1,689.8,580.5,849.2,498.3c0.3,0,0.7,0,1,0
	h1v-1l0,0l0,0c0.3,0,0.7,0,1,0s0.7,0,1,0l0,0c98.7-37.8,199.1-70.9,296.7-110.8v-1c0.3,0,0.7,0,1,0v-1c0.7,0,1.3,0,2,0
	c0.3,0,0.7,0,1,0s0.7,0,1,0l0,0c0,9.3,0,18.7,0,28c-28,14.6-60,31.8-89.8,44.2l0,0v1h-1c-0.3,0-0.7,0-1,0l0,0c-0.2-0.9,0.1-1.6,1-2
	v-1l0,0c0.3,0,0.7,0,1,0l0,0v-1l0,0c0-1,0-2,0-3l0,0c-5.5,5.5-2.9-3-5-3v-1C934.7,491.2,813,551.6,721,649.5
	c-11.8,12.6-146.6,214.2-142.8,214.2C578.2,864.5,578.2,865.2,578.1,866z"/>
<path fill="#0874A2" stroke="#0874A2" d="M103.1,867.2c-34,0.1-68,0.1-102,0.2c0-6,0-12,0-18c70-53.1,120.4-136.6,174.5-205.3v-1
	l0,0l0,0c0.7-0.7,1.3-1.3,2-2l0,0v-1l0,0h1v-1l0,0l0,0c5.4-6.4,12.3-14.9,18-22c0.3,0,0.7,0,1,0l0,0v-1l0,0h1v-1l0,0
	c0.3,0,0.7,0,1,0l0,0v-1l0,0c0.9-0.4,1.2-1.1,1-2h1c0-19.3,78.8-67,88.9-74.1c0.3,0,0.7,0,1,0v-1l0,0l0,0c0.3,0,0.7,0,1,0
	c1.8-1.3,3.8-2,6-2l0,0v1h-1l0,0v1c-0.7,0-1.3,0-2,0v1c-0.3,0-0.7,0-1,0v1c-0.3,0-0.7,0-1,0l0,0l0,0v1c-0.3,0-0.7,0-1,0v1
	c-26.6,25.8-115.8,92.1-115.8,129.1h-1c0,0.7,0,1.3,0,2h-1v1c-0.3,0-0.7,0-1,0l0,0l0,0v1c-1.5,0.9-2.3,2.3-2,4h1v-1l0,0
	c0.3,0,0.7,0,1,0l0,0v-1l0,0h1v-1c0.7,0,1.3,0,2,0c-0.2-0.9,0.1-1.6,1-2l0,0v-1l0,0h1v-1l0,0c11,0,59.2-33.2,79-38v1l0,0h1v1
	c-0.3,0-0.7,0-1,0C224.9,730.4,163.7,787.4,103.1,867.2z M21.1,865.5c-14,0.8-14.7,0.1-2-2C33.1,864,33.8,864.7,21.1,865.5z
	 M165.7,686.1h-1c0-0.7,0-1.3,0-2c0.9,0.2,1.6-0.1,2-1c0.3,0,0.7,0,1,0l0,0v-1l0,0h1v-1l0,0c0.3,0,0.7,0,1,0c-0.2,0.9,0.1,1.6,1,2
	c-0.7,0-1.3,0-2,0c0,0.7,0,1.3,0,2C167.5,684.8,166.5,685.1,165.7,686.1z M212.4,603C208.3,603,219,603,212.4,603z"/>
<path fill="#382078" stroke="#382078" d="M399.4,221.5c-92.5-15-185.2-32.6-279-20.4l0,0c-0.3,0-0.7,0-1,0l0,0
	c27.9-7.6,284-4.8,284,18.4l0,0c-0.3,0-0.7,0-1,0l0,0v1c-1,0-2,0-3,0V221.5z"/>
<path fill="#68347C" stroke="#68347C" d="M-0.5,233.5L-0.5,233.5c0-6.3,0-12.7,0-19c41.6-17.5,82-41.1,125.9-53.3
	c21.3-5.9,78.4-16.2,96-33.2c54.3-52.2-73.2-83.3-110-84.8l0,0l0,0c94.9-9.1,180.8,6.9,265.1,49.4c0.3,0.3,0.7,0.7,1,1v1
	c0.3,0,0.7,0,1,0v1l0,0h1v1l0,0c0.3,0,0.7,0,1,0l0,0v1l0,0h1v1l0,0c0.3,0,0.7,0,1,0l0,0c25.5,18.3,53.9,62.7,20,85c-0.3,0-0.7,0-1,0
	v1c18.5,5.4,40,10.3,58,16c-4.3-1.1-8.8-0.5-12,2c1.4-0.2,2.4,0.4,3,2c-13.9,0-29.2,10.9-46,9c0,0.7,0,1.3,0,2h1v1c1,0,2,0,3,0
	c0,0.7,0,1.3,0,2c0.3,0,0.7,0,1,0v1c0.3,0,0.7,0,1,0v1l0,0c-2.4-0.4-4.5-0.7-7-1l0,0c0-23.7-256.2-25.2-284-18.4l0,0
	c0.3,0,0.7,0,1,0c-16.5,4.8-34.1,9.1-50,14.2l0,0c-13.6,5.5-28.2,10.3-42,14v-1l0,0c2.2-2.1,2.8-4.9,2-8l0,0v-1l0,0
	c-0.3,0-0.7,0-1,0C22.2,221.2,4.5,233.5-0.5,233.5z M32.4,218.4c0,0.7,0,1,0,1l0,0C32.4,218.8,32.4,218.4,32.4,218.4z"/>
<path fill="#284692" stroke="#284692" d="M1.4,596.5h-1c0-8.7,0-17.3,0-26h1c0-35,122.9-120.7,150.9-141.6
	c44.1-32.9,92.5-60.1,144.1-79.1c90-33.2,185.7-33.8,276.5-57.7c-1.6-0.9-3.2-1.6-5-2c-0.3,0-0.7,0-1,0l0,0v-1h1v-1l0,0
	c0.3,0,0.7,0,1,0l0,0v-1l0,0h1c-4.6-1.6-12-4.6-17-7l0,0c-0.3,0-0.7,0-1,0c-0.8-1-1.8-1.6-3-2l0,0l0,0l0,0
	c71.1,4.4,163.9,12,221,43.5c-8.3-1-17.9-0.3-25,2c1.3,0,2.7,0,4,0c-0.7,0.7-1.3,1.3-2,2c7.3,0,14.7,0,22,0
	c-113,3.7-229.5,29-341,26.8c1.6-1.8,3.7-3.2,6-4c-79.3-1.8-158,27.2-225.8,66.5c-49,28.4-93.2,65.4-134.1,104.5
	C62.4,530.6,1.4,579.4,1.4,596.5z"/>
<path fill="#69214F" stroke="#69214F" d="M692.4,189.7v1c-83.1-44-147.2-109.2-202.5-184.5l0,0l0,0v-1c-0.3,0-0.7,0-1,0v-1
	c-0.3,0-0.7,0-1,0c0-1.6-0.3-2.7-1-4c12.7,0,25.3,0,38,0c1,0.8,1.3,1.8,1,3h1v1l0,0h1c-0.3,1.7,0.5,3.1,2,4
	c33.6,13.7,73.3,73.3,102.2,103.8v1h1v1l0,0c0.3,0,0.7,0,1,0l0,0v1l0,0h1v1l0,0c0.3,0,0.7,0,1,0l0,0c0.7,0.7,1.3,1.3,2,2l0,0
	c0.3,0,0.7,0,1,0v1c0.3,0,0.7,0,1,0v1l0,0l0,0c0.3,0,0.7,0,1,0v1c0.3,0,0.7,0,1,0v1l0,0l0,0c0.3,0,0.7,0,1,0v1c-1.5,0.3-2.8,0-4-1
	c-0.3,0-0.7,0-1,0l0,0c-10.2-5.5-21.3-10.4-32-14l0,0v1c-0.3,0-0.7,0-1,0v1l0,0c0.3,0,0.7,0,1,0l0,0v1l0,0c0.7,0.7,1.3,1.3,2,2v1
	l0,0l0,0c0.3,0,0.7,0,1,0v1c0.3,0,0.7,0,1,0v1l0,0l0,0C635.7,144.4,663.2,167.1,692.4,189.7z"/>
<path fill="#0670AF" stroke="#0670AF" d="M201.3,566h-1c11.3-20.5,25.7-40.4,40.9-58l0,0c2.6-1.9,2.6-4,0-6l0,0v1l0,0
	c-0.3,0-0.7,0-1,0l0,0v-1h-1l0,0v1l0,0c-28.8-8.3-62.6-2.4-90,6.2l0,0v-1h1v-1c0.7,0,1.3,0,2,0v-1c0.3,0,0.7,0,1,0v-1l0,0l0,0
	c0.3,0,0.7,0,1,0v-1c0.3,0,0.7,0,1,0v-1l0,0l0,0c40.5-33.4,86.8-66,127.9-96.2l0,0c0.3,0,0.7,0,1,0v-1l0,0
	c99.6-25.2,218.6-69.5,323-53.7c-4,0.7-8,1.3-12,2v1c-0.3,0-0.7,0-1,0v1c2,0,4,0,6,0v1h-1v1l0,0c0,0.7,0,1.3,0,2l0,0
	c-42.2,13.2-85.1,25.8-125.9,42.3c0,1.3,0,2.7,0,4c-1,0-2,0-3,0v1h-1c0,0.7,0,1.3,0,2h1v-1l0,0c0.3,0,0.7,0,1,0l0,0
	c2.7,0,12.9,0,12,0l0,0l0,0v1c-0.3,0-0.7,0-1,0v1c-0.3,0-0.7,0-1,0l0,0l0,0v1c-0.3,0-0.7,0-1,0v1c-28.1,27.1-89.4,38.1-126.9,58.4
	l0,0c-29.8,14.7-56.8,37.6-86.9,50.1c-0.3,0-0.7,0-1,0l0,0c-0.7,0-1.3,0-2,0l0,0l0,0l0,0c0-2.2,0.7-3.7,3-4c-1.3,0-2.7,0-4,0v-1h-1
	l0,0v-1l0,0c-0.3,0-0.7,0-1,0c-9.7,7.6-19,15.6-28,24l0,0c-0.3,0-0.7,0-1,0v1c-0.3,0.3-0.7,0.7-1,1l0,0c-0.3,0-0.7,0-1,0v1
	c-0.4,0.9-1.1,1.2-2,1l0,0C222.7,547.2,201.3,562.8,201.3,566z M265.2,518.8c0,0,0,0.3,0,1C265.2,519.8,265.2,519.5,265.2,518.8
	L265.2,518.8z M264.2,512.8c0,0,0,0.3,0,1c-0.7,0-1-0.3-1-1C263.2,512.8,263.5,512.8,264.2,512.8z"/>
<path fill="#57C157" stroke="#57C157" d="M388,803.5h-1v-1c14.4,0,77.4-118.9,94.7-141.3c0.3-0.3,0.7-0.7,1-1l0,0
	c0.3-0.3,0.7-0.7,1-1v-1l0,0l0,0c0.3,0,0.7,0,1,0v-1c0.3,0,0.7,0,1,0v-1l0,0l0,0c0.3,0,0.7,0,1,0v-1c0.3,0,0.7,0,1,0
	c0-44.4,146.3-124.6,177.7-140.4v1c1.6,0,2.7,0.3,4,1c0,1,0,2,0,3c0.3,0,0.7,0,1,0v-1c0.3,0,0.7,0,1,0v1l0,0l0,0
	c1.6-0.5,3.2-0.9,5-1c0,0.7,0,1.3,0,2c1.9,0.7,3.9,1.1,6,1c-1.3,1.6-3,2.3-5,2v1c-0.3,0-0.7,0-1,0c-49.6,29.3-95.8,61.8-138.5,101.8
	C488.9,672.5,444.5,773.1,388,803.5z"/>
<path fill="#0FC3DF" stroke="#0FC3DF" d="M929.9,398.1c-4,0.5-8,0.9-12,1c1.2-3.7,2.2-4.7,6-6c-7.1-2-16.2-3.5-24-4l0,0
	c14.5-2.2,29.1-5.6,43-10l0,0c-48.8-14.7-124.5-5.8-179-5.6c1.3-0.7,2.7-1.3,4-2l0,0l0,0c0.3,0,0.7,0,1,0l0,0
	c26.8-4.4,54.1-4.5,81-8.2l0,0c60.3-1.9,120-11.7,180-16.4v-1l0,0c30.5-2.7,62.8-13.2,93-13.2c2.6-1,5.3-1.3,8-1c0,1,0,2,0,3
	c0.7-0.7,1.3-1.3,2-2l0,0l0,0c1.9,0.1,3.5-0.2,5-1c0,0.7,0,1.3,0,2c-0.7,0-1.3,0-2,0c0,1,0,2,0,3c-0.7,0-1.3,0-2,0v1h-1c0,1,0,2,0,3
	c-0.3,0-0.7,0-1,0s-0.7,0-1,0l0,0c-37.4,12.6-76.9,18.8-115,28.2c-0.2,0.9,0.1,1.6,1,2l0,0c45.8-3.1,95-18.5,138-32.3
	c0,5.7,0,11.3,0,17c-38,11.9-77,24.8-116,35.3l0,0l0,0v-1l0,0h1v-1c-3,0-6,0-9,0C997.6,386,963,394.6,929.9,398.1z"/>
<path fill="#6AA3BB" stroke="#6AA3BB" d="M21.1,865.5c-14,0.8-14.7,0.1-2-2C33.1,864,33.8,864.7,21.1,865.5z"/>
<path fill="#7A2675" stroke="#7A2675" d="M863.6,267.2v1c-30.5-10.3-76.4-30.3-103-25.8c-11.7,2.2-48.6-7-70-14.8
	c-42.4-16-84.7-35.8-124.1-56.6v-1c-11.6,0-24.4-24-35-24l0,0v-1h-1l0,0v-1c-0.7,0-1.3,0-2,0v-1c-0.3,0-0.7,0-1,0v-1
	c-0.3,0-0.7,0-1,0l0,0l0,0v-1c-0.3,0-0.7,0-1,0v-1l0,0h1c0-0.7,0-1.3,0-2c0.7,0,1.3,0,2,0v1l0,0h1v1c28.8,11.1,60.3,23.4,90,32
	c-0.2-0.9,0.1-1.6,1-2l0,0v-1c-0.3,0-0.7,0-1,0v-1l0,0c0.3,0,0.7,0,1,0l0,0v-1c-0.3,0-0.7,0-1,0v-1c-0.3,0-0.7,0-1,0l0,0l0,0v-1
	c-0.3,0-0.7,0-1,0v-1c-0.3,0-0.7,0-1,0l0,0C560.2,117.9,514.1,65.5,473.9,5.2l0,0v-1l0,0c-1.5-0.9-2.3-2.3-2-4c5,0,10,0,15,0
	c0.7,1.3,1,2.4,1,4c0.3,0,0.7,0,1,0v1c0.3,0,0.7,0,1,0v1l0,0l0,0c55.2,75.3,119.4,140.6,202.5,184.5v1
	c52.5,24.5,110.9,42.6,168.1,57.6c-1.3,0-2.7,0-4,0c0.7,0.7,1.3,1.3,2,2l0,0c0.3,0,0.7,0,1,0c1.1,0.8,2.7,1.8,1,2l0,0l0,0
	c0.7,0.7,1.3,1.3,2,2l0,0c1.5,0.6-1.4,1.4-3,2c-0.3,0-0.7,0-1,0l0,0c-2.5-2-5.6-2.6-9-2c1.2,1,2.5,1.3,4,1c-0.2,0.9,0.1,1.6,1,2v1
	c2.8,0,4,1.4,4,4C859.9,265,861.6,266.3,863.6,267.2z"/>
<path fill="#7F4B91" stroke="#7F4B91" d="M383.1,96.5c-1.2-0.1-2.3-0.8-3-2l0,0c-0.3,0-0.7,0-1,0c-0.4-0.9-1.1-1.2-2-1l0,0
	c0-0.7-0.3-1-1-1C253.5,30.7,132.2,33.5,3,65.5c0.2-0.9-0.1-1.6-1-2l0,0v-1l0,0c63.2-25.7,134-33.8,203-35.6l0,0
	c26.7,3.6,53.4,6.6,80,10.8v1c22.3,6.4,44.9,17.7,67,26.8c28.7,14.4,59,35,88.1,51.8c-1.8,0-2.4,1.1-2,3c0.7,0,1.3,0,2,0
	c0,0.7,0,1.3,0,2c2.9,1.4,5,5,6,9C446.1,145.8,398.8,96.5,383.1,96.5z M436.2,116.4c0,0.8-3.4,0.9,0-1V116.4z"/>
<path fill="#AD1645" stroke="#AD1645" d="M746.1,105.6v-1l0,0c0-0.7,0-1,0-1h-1c-0.3-0.3-0.7-0.7-1-1l0,0c0-0.7,0-1.3,0-2h-1v-1
	c-0.3,0-0.7,0-1,0c0-0.7,0-1.3,0-2h-1c-5.8-10.1-34.6-80-45.1-80c0-5.4-6.4-9.5-10-10c-0.7-2.6-1.3-5.3-2-8
	c36.7-0.1,73.3-0.1,110-0.2c4.8,46.4-0.5,81.5,28.2,123v1l0,0l0,0c0.3,0,0.7,0,1,0v1c0.3,0,0.7,0,1,0v1l0,0l0,0c0.3,0,0.7,0,1,0v1
	c0.3,0,0.7,0,1,0v1l0,0l0,0c0.3,0,0.7,0,1,0v1c0.3,0,0.7,0,1,0l0,0C844.3,194.7,758.5,119,746.1,105.6z"/>
<path fill="#57295E" stroke="#57295E" d="M0,46.5h-1c0-6.3,0-12.7,0-19c24.3-6.9,51.4-15.2,73-26.2c69.7-0.2,139.3-0.4,209-0.6l0,0
	c0.7,0.7,1.3,1.3,2,2c0.3,0,0.7,0,1,0l0,0c0.4,0.9,1.1,1.2,2,1c0,0.7,0,1.3,0,2c2.3,0.5,4.5,2,6,4v1l0,0l0,0c0.3,0,0.7,0,1,0v1
	c0.3,0,0.7,0,1,0v1l0,0l0,0c0.3,0,0.7,0,1,0c0.4,0.9,1.1,1.2,2,1c0,0.7,0,1.3,0,2c-31.1-5.5-65-7.2-97-6.7C158,9.6,29.6,11.9,0,46.5
	z"/>
<path fill="#70186B" stroke="#70186B" d="M1017.6,267.8v1c-112.7-8.3-223.3-27.8-325.1-77.2v-1l0,0c0-1,0-2,0-3l0,0
	c35.9,17.5,76.8,31.3,116,43.6c0.3,0.3,0.7,0.7,1,1c0.3,0,0.7,0,1,0C879.2,249,947.4,259.4,1017.6,267.8z"/>
<path fill="#49C76F" stroke="#49C76F" d="M1021.8,370.8c-1.7,0-3.3,0-5,0l0,0c-0.9-0.4-1.2-1.1-1-2c34.6-8.6,80.2-28.2,115-28.2l0,0
	c0.3,0,0.7,0,1,0s0.7,0,1,0c6.4-2.8,14.8-5.9,22-8c0,2,0,4,0,6C1112.5,352.7,1066.2,363.4,1021.8,370.8z"/>
<path fill="#9559B7" stroke="#9559B7" d="M631.6,268.9c-64.8-0.9-131.4-14.6-197-17.4l0,0v-1l0,0c-0.3,0-0.7,0-1,0l0,0v-1h-1
	c0-1,0-2,0-3c-2.3,0.2-4.2-0.4-6-2l0,0l0,0l0,0v-1l0,0v-1c1.7,0,3.3,0,5,0c-1.3-0.7-2.7-1.3-4-2l0,0c0.3,0,0.7,0,1,0l0,0
	c29.8-0.3,63.1,9.7,92,4.9c0-0.7,0-1,0-1h-1l0,0c36,7.4,76.1,23.8,113,23.8l0,0C632.6,267.9,632.2,268.2,631.6,268.9z"/>
<path fill="#01828A" stroke="#01828A" d="M354.1,866.6c-14.7,0.1-29.3,0.1-44,0.2l0,0c0-31.9,74.6-109.2,91.7-133.1
	c28.5-39.9,59.9-79.5,94.6-113.4v-1c0.3,0,0.7,0,1,0v-1l0,0l0,0c0.3,0,0.7,0,1,0c1.3-1.6,3-2.3,5-2c0-0.7,0-1.3,0-2c0.3,0,0.7,0,1,0
	c0.4-0.9,1.1-1.2,2-1c0.2,0.9-0.1,1.6-1,2l0,0v1l0,0c-0.7,0.7-1.3,1.3-2,2l0,0l0,0v1c-0.7,0.7-1.3,1.3-2,2l0,0v1l0,0
	c-1,0.8-1.6,1.8-2,3c-0.3,0-0.7,0-1,0v1c-0.3,0-0.7,0-1,0c0,0.7,0,1.3,0,2h-1l0,0v1h-1l0,0v1c0.7,0,1.3,0,2,0v-1l0,0h1v-1l0,0
	c0.3,0,0.7,0,1,0l0,0v-1l0,0h1v-1l0,0c0.3,0,0.7,0,1,0l0,0c0.7,0,1.3,0,2,0c-0.3,0-0.7,0-1,0l0,0v1h-1c0,0.7,0,1.3,0,2h-1v1
	c-0.3,0-0.7,0-1,0c0,0.7,0,1.3,0,2h-1l0,0v1c-6,5.6-11.8,14.1-15,22l0,0v1l0,0c-0.3,0-0.7,0-1,0l0,0v1h-1l0,0v1l0,0
	c-1.4,1.4-0.7,1.9,1,2c-13.3,16.5-84,142.3-95.7,142.3C379.5,817.8,354.1,851.9,354.1,866.6z M492.5,635.2h-1c0-0.7,0-1.3,0-2h1v-1
	c1.7,0.1,2.4,0.6,1,2l0,0C493.2,634.5,492.8,634.9,492.5,635.2z"/>
<path fill="#3A1E5F" stroke="#3A1E5F" d="M0.7,330.5h-1c-0.1-32.3-0.1-64.7-0.2-97l0,0c4.5,0,28.2-13.7,31-14v1c-0.3,0-0.7,0-1,0
	c0,2.8,2.8,4.8-1,8l0,0v1c13.9-3.6,28.5-8.4,42-14c0,1.6-0.3,2.7-1,4c37.6-6.8,77.9-8.2,116-5.2c0.7,1.3,1,2.4,1,4
	C127.4,246.6,48.4,282.8,0.7,330.5z"/>
<path fill="#FDA23D" stroke="#FDA23D" d="M1155.6,654.5l0.3,101c-21.5-24.1-38.3-50.5-42.8-83c-3.1-22.1,4.9-111,37.5-111v-1l0,0h1
	c0-1,0-2,0-3h1v-1l0,0c0.3,0,0.7,0,1,0l0,0v-1l0,0h1v-1c0.3,0,0.7,0,1,0L1155.6,654.5z"/>
<path fill="#7C298E" stroke="#7C298E" d="M888.6,280.2l2,1c-6.2-0.7-37-3.4-37-1c-50.9-8.9-104.8-17.6-153-34.6l0,0l0,0
	c3.3,0,6.7,0,10,0v-1l0,0h1v-1c-0.7,0-1.3,0-2,0c-0.7-1.3-1-2.4-1-4c-0.7,0-1.3,0-2,0v-1c-5-2.3-10.3-4.4-15-6c-0.8-1.5-1.1-3-1-5
	l0,0c21.8,8,58,17,70,14.8c-1.1-1.8-1.8-3.9-2-6c0.9-0.2,1.6,0.1,2,1c34.3,8.4,68.6,19.9,102,29.8c0.3,0.3,0.7,0.7,1,1h1
	c0,2,10.1,6.2,12,7l0,0C880.3,277.3,884.1,278.6,888.6,280.2z"/>
<path fill="#2A0C39" stroke="#2A0C39" d="M425.1,100.4l-1,1c-0.3-0.3-0.7-0.7-1-1c-7.1-3.8-62-28.8-62-34.8h-1l0,0v-1
	c-2.2-0.2-4.3-0.9-6-2c-1.5-1-3.3-1.7-5-2v-1h-1l0,0C245.2,7,106,20.9,2,62.5c-0.9-0.2-1.6,0.1-2,1c-0.3,0-0.7,0-1,0
	c0-5.7,0-11.3,0-17C96,13.4,194.4,4,296,14.7c0.3,0.3,0.7,0.7,1,1c6,1,12,2,18,3v1c0.3,0,0.7,0,1,0l0,0v1l0,0c0.3,0,0.7,0,1,0v1
	c0.3,0,0.7,0,1,0v1c-7.7,0-15.3,0-23,0c-0.3,0-0.7,0-1,0l0,0v1h1v1l0,0c0.3,0,0.7,0,1,0l0,0v1l0,0h1v1l0,0c0.3,0,0.7,0,1,0l0,0v1
	l0,0h1v1c36.7,12,75.6,29.8,107,50.8v1l0,0l0,0c0.3,0,0.7,0,1,0v1c0.3,0,0.7,0,1,0v1c5.2,1.7,10.3,6.1,13,11c0.3,0,0.7,0,1,0v1l0,0
	C424,95.9,425.1,97.8,425.1,100.4z M424.1,99.4c0,0-0.3,0-1,0c0-0.7,0.3-1,1-1C424.1,98.4,424.1,98.7,424.1,99.4z"/>
<path fill="#5A1D70" stroke="#5A1D70" d="M567.3,176v1c-55.5-26.6-106-73.3-161.2-98.6v-1c-35.7-16.3-69.2-36.6-107-48.8v-1h-1l0,0
	v-1l0,0c-0.3,0-0.7,0-1,0l0,0v-1h-1l0,0v-1l0,0c-0.3,0-0.7,0-1,0l0,0v-1h-1v-1l0,0c0.3,0,0.7,0,1,0c7.7,0,15.3,0,23,0v-1
	c-0.3,0-0.7,0-1,0v-1c-0.3,0-0.7,0-1,0l0,0v-1c27.5,8.6,53.9,20.5,80,32.8c0,9.6,118,77.6,130.1,85.8c0.3,0.3,0.7,0.7,1,1l0,0
	c-0.4,0.9-1.1,1.2-2,1v1c0.3,0,0.7,0,1,0v1l0,0l0,0c0.3,0,0.7,0,1,0v1c0.3,0,0.7,0,1,0v1c0.7,0,1.3,0,2,0v1l0,0h1v1l0,0
	c10.8,0,23.3,24,35,24v1l0,0C565.7,173.1,566,174.8,567.3,176z"/>
<path fill="#132865" stroke="#132865" d="M1.4,570.5h-1c-0.1-58-0.3-116-0.4-174h1c0-18.8,86.4-65.1,101.8-73.3
	c45.1-24.2,96.2-41.4,146.9-48.3c96.6-13.2,194.3,1.3,291,1.3c0.3,0,0.7,0,1,0c1.9,1,3.9,1.3,6,1v1c0.3,0,0.7,0,1,0l0,0l0,0
	c1.2,0.4,2.2,1,3,2c0.3,0,0.7,0,1,0l0,0c5,2.4,12.4,5.4,17,7h-1l0,0v1l0,0c-0.3,0-0.7,0-1,0l0,0v1h-1v1l0,0c0.3,0,0.7,0,1,0
	c1.8,0.4,3.4,1.1,5,2c-90.6,24.3-186.5,24.5-276.5,57.7c-47.3,17.4-91.7,41.7-132.8,70.8C131,443.7,1.4,530.8,1.4,570.5z"/>
<path fill="#029494" stroke="#029494" d="M294.1,865.7v1c-44.3,0.1-88.7,0.3-133,0.4l0,0c5.1-5.1,8.5-9.7,14-14c1.9-0.8,4-1.6,6-2
	v-1c41.9,0,119.5-139.2,142.5-166.5C388.3,607,478.8,517,582.1,500v1c0.3,0,0.7,0,1,0v1l0,0l0,0c0.3,0,0.7,0,1,0v1h1
	c0,0.7,0,1.3,0,2h-1v1c-0.3,0-0.7,0-1,0l0,0l0,0v1c-0.3,0-0.7,0-1,0v1c-0.3,0-0.7,0-1,0l0,0c-8.4,9-39.2,51.2-48.8,51.2v1
	c-0.3,0-0.7,0-1,0l0,0l0,0v1c-0.3,0-0.7,0-1,0v1c-0.3,0-0.7,0-1,0l0,0l0,0c0.2,0.9-0.1,1.6-1,2l0,0c-0.3,0-0.7,0-1,0v1
	c-0.3,0.3-0.7,0.7-1,1c-43.2,43.9-85.3,86.2-121.7,136.3C379.2,737.5,294.1,824.6,294.1,865.7z"/>
<path fill="#AF1F4F" stroke="#AF1F4F" d="M781.3,167.5v2c-0.7,0-1.3,0-2,0v-1h-1l0,0v-1c-2.1-0.3-4.1,0-6,1
	c-24.2-23.1-45.4-50.3-64.2-76.9c0-1.6-0.3-2.7-1-4c-1.9-0.3-3.5-1-5-2c-14-24.2-26.4-49.7-38.2-74.9l0,0c0-0.7,0-1,0-1h-1
	c-1.2-3.4-2.2-6.5-3-10c8,0,16,0,24,0c0.7,2.6,1.3,5.3,2,8c5-0.2,10,3.5,10,10c10.6,0,39.9,70.7,45.1,79.9h1c0,0.7,0,1.3,0,2
	c0.3,0,0.7,0,1,0v1c0.3,0,0.7,0,1,0v1l0,0l0,0c0.3,0,0.7,0,1,0v1h1c0,0.7,0,1.3,0,2c-0.9,0.2-1.6-0.1-2-1l0,0c-0.7-0.7-1.3-1.3-2-2
	l0,0l0,0v-1c-0.3,0-0.7,0-1,0v-1c-0.3,0-0.7,0-1,0l0,0l0,0v-1c-2.8-3-6.7-5.7-10-7v-1c-0.3,0-0.7,0-1,0v-1c-0.3,0-0.7,0-1,0l0,0
	c-2.1-1.5-4.4-2.2-7-2v1h1c0.5,2.6,1.1,4.6,2,7c16,21.9,33.6,47.4,53.1,66.9v1l0,0c0.3,0,0.7,0,1,0l0,0v1l0,0h1v1l0,0
	c0.3,0,0.7,0,1,0l0,0v1l0,0L781.3,167.5z"/>
<path fill="#B21636" stroke="#B21636" d="M876,69.2c-1.2-0.1-2.3-0.8-3-2c-0.2,1.8,0.1,3.4,1,5c-12.8-10.3-58.2-45.5-58.2-61.8
	c-0.3,0-0.7,0-1,0v-1c-0.3,0-0.7,0-1,0c0-0.7,0-1.3,0-2h-1l0,0v-1h-1c0-0.7,0-1.3,0-2h-1v-1c-0.3,0-0.7,0-1,0c0.2,3.1,0.8,5.4,2,8
	c0.3,0,0.7,0,1,0v1h1c4.1,6.8,9.1,14.3,14,21l0,0v1l0,0h1v1l0,0c0.3,0,0.7,0,1,0l0,0v1l0,0h1v1l0,0c0.3,0,0.7,0,1,0l0,0v1l0,0
	c0.9,0.4,1.2,1.1,1,2c-0.9,0.2-1.6-0.1-2-1c-0.3,0-0.7,0-1,0l0,0l0,0v-1c-0.3,0-0.7,0-1,0v-1c-0.3,0-0.7,0-1,0c0-0.7,0-1.3,0-2h-1
	c-0.8-1-1.8-1.6-3-2c-0.9-1.5-2.3-2.3-4-2v-1c-0.3,0-0.7,0-1,0v-1c-0.3,0-0.7,0-1,0l0,0c-5.1-7.6-10.5-18.7-14-28l0,0
	c-2-0.7-4-1.3-6-2l0,0l0,0c9,0,18,0,27,0c0.3,0.3,0.7,0.7,1,1v1c58.1,20.3,117.1,15.4,176-0.5v-1l0,0c0.3-0.3,0.7-0.7,1-1
	c29-0.1,58-0.1,87-0.2c0.4,1.1,0.6,1.9,1,3c-0.9-0.2-1.6,0.1-2,1l0,0c0.3,0,0.7,0,1,0l0,0v1c-0.3,0-0.7,0-1,0v1c-0.3,0-0.7,0-1,0
	c-19.6,32.3-56.2,52.2-90,67.1c-0.3,0.3-0.7,0.7-1,1c-4.6,1.2-9.3,2.2-14,3c-0.3,0-0.7,0-1,0l0,0v-1c-13,0.7-28.4,13.4-34,14
	C920.9,91.9,899.8,69.2,876,69.2z"/>
<path fill="#472F9C" stroke="#472F9C" d="M478.5,243.3h-3c0-1,0-2,0-3c-0.7,0-1.3,0-2,0v-1h1c0-0.7,0-1.3,0-2
	c-24.7-5-50.7-10.4-75-15.8l0,0v-1c1,0,2,0,3,0v-1l0,0c0.3,0,0.7,0,1,0c36.3,4.8,72.7,16.6,109,22.8l0,0c2.4,0.5,4.7,1.2,7,2
	c0.3,0.3,0.7,0.7,1,1l0,0c1.9,0.5,3.1,0.7,5,1C510.9,247.5,491.6,249.4,478.5,243.3z"/>
<path fill="#5ECF5D" stroke="#5ECF5D" d="M465.1,866.3c-3.3,0-6.7,0-10,0C472.2,727.6,646.7,573.7,758,501.5c0.7-0.7,1.3-1.3,2-2
	c0.3,0,0.7,0,1,0l0,0v-1l0,0h1v-1l0,0c0.3,0,0.7,0,1,0l0,0v-1l0,0h1v-1c-31.9,0.2-58.7,21.1-88,25c0-0.7,0-1.3,0-2
	c-1.8,0.1-3.4,0.5-5,1l0,0l0,0v-1c-0.3,0-0.7,0-1,0v1c-0.3,0-0.7,0-1,0c0-1,0-2,0-3c-1.3-0.7-2.4-1-4-1v-1h-1l0,0v-1
	c58.1-23.6,115.3-54.2,176.3-72.4c65.2-19.5,134-29.2,198.3-50.5l0,0c39-10.5,78.3-22.6,116-35.3c0,9.7,0,19.3,0,29l0,0
	c-0.3,0-0.7,0-1,0s-0.7,0-1,0c-0.7,0-1.3,0-2,0v1c-0.3,0-0.7,0-1,0v1c-97.6,39.9-198,73-296.7,110.8l0,0c-0.3,0-0.7,0-1,0
	s-0.7,0-1,0l0,0l0,0v1h-1l0,0c0-1.5,2-3.1,2-4h1c0-0.7,0-1.3,0-2c-63.5-2.1-153.7,75.1-199.7,115.5c-44.4,39-83.6,84.5-116.7,133.3
	C512.4,776.4,494.5,836.9,465.1,866.3z"/>
<path fill="#C61953" stroke="#C61953" d="M942.4,205l2,2c-6.2-2.6-15.1-3.8-20-3c-17.9-9.7-81.2-94.7-89.2-94.7l0,0v-1h-1
	c0.3-1.7-0.5-3.1-2-4l0,0v-1l0,0c-0.3,0-0.7,0-1,0s-0.7,0-1,0l0,0l0,0c-1,1.9-4.8,17-1,17v1c-0.3,0-0.7,0-1,0c0,2.3,0,4.7,0,7l0,0
	c-0.3,0-0.7,0-1,0v-1c-0.3,0-0.7,0-1,0l0,0l0,0v-1c-0.3,0-0.7,0-1,0v-1c-0.3,0-0.7,0-1,0l0,0l0,0v-1c-0.3,0-0.7,0-1,0v-1
	c-0.3,0-0.7,0-1,0l0,0l0,0v-1C794.1,81.4,799,45,794-0.7c1.3,0,2.7,0,4,0l0,0c2,0.7,4,1.3,6,2l0,0c4.7,8.9,8.8,18.5,12,28l0,0
	c1.4,2.6,2.4,4.5,4,7c0,25.6,29.2,62.6,43.2,83c0.3,0,0.7,0,1,0l0,0v1l0,0h1v1l0,0c0.3,0,0.7,0,1,0c-0.4,0.9-1.1,1.2-2,1l0,0
	c-0.3,0-0.7,0-1,0v-1c-0.3,0-0.7,0-1,0l0,0c-0.4-0.9-1.1-1.2-2-1c0.7,2.1,1.3,3.9,2,6h1v1l0,0h1c17.9,30.9,45.2,55,74.2,75.8l0,0h1
	C939.4,203,940.4,203.7,942.4,205z"/>
<path fill="#541450" stroke="#541450" d="M619.3,170.9v1c-30.4-8.5-63.1-21.5-92-33l0,0c0-0.7-0.3-1-1-1
	c-10.9-7.4-130.1-76.3-130.1-85.8l0,0c-1.1-2.4-3.4-4.6-6-6l0,0c-25.7-15.9-52.4-34.2-79.1-45.8l0,0l0,0c53.7-0.1,107.3-0.3,161-0.4
	c-0.3,1.7,0.5,3.1,2,4l0,0v1l0,0c40.5,60.1,86.1,112.6,142.4,158.7l0,0c0.3,0,0.7,0,1,0v1c0.3,0,0.7,0,1,0v1l0,0l0,0
	c0.3,0,0.7,0,1,0v1c0.3,0,0.7,0,1,0v1l0,0c-0.3,0-0.7,0-1,0l0,0v1c0.3,0,0.7,0,1,0v1l0,0C620.1,170,619.7,170.5,619.3,170.9z"/>
<path fill="#117DAA" stroke="#117DAA" d="M229.9,786.9c-2.5-3.6-3.2-8.9-2-14l0,0c0-1.3,0-2.7,0-4h-1l0,0v1h-1l0,0v1l0,0
	c-0.3,0-0.7,0-1,0c-0.9,2.2-2.7,3.7-5,4c27.4-41,66.1-109.4,109.6-134.3c0,0,0-0.3,0-1l0,0l0,0c0.3-0.3,0.7-0.7,1-1c0.7,0,1.3,0,2,0
	v-1c0.3,0,0.7,0,1,0c0-2.4,8.9-3.1,10-3c-0.7,2.1-1.3,3.9-2,6h-1l0,0v1h-1l0,0v1l0,0c-0.3,0-0.7,0-1,0
	C320,666.7,252.3,786.9,229.9,786.9z"/>
<path fill="#20409E" stroke="#20409E" d="M788.6,294.4c-2.9-1-5.9-1.3-9-1l0,0l0,0c1.8-2.2,4.2-2.7,7-2v-1l0,0
	c78.1,8.6,157.5,11.1,236,8.4c3.9,1.3,7.9,2,12,2v1c-1.3-0.5-2.3-0.1-3,1l0,0c0.3,0,0.7,0,1,0C961.2,310.7,856.9,318.3,788.6,294.4z
	"/>
<path fill="#E6214F" stroke="#E6214F" d="M867.2,126.2v-1c-0.3,0-0.7,0-1,0l0,0l0,0v-1c-0.3,0-0.7,0-1,0v-1c-0.3,0-0.7,0-1,0l0,0v-1
	c0.9,0.2,1.6-0.1,2-1c-0.3,0-0.7,0-1,0l0,0v-1h-1l0,0v-1l0,0c-0.3,0-0.7,0-1,0c-14.1-20.4-43.2-57.4-43.2-83c-1.6-2.5-2.7-4.4-4-7
	l0,0v-1c0.9-0.2,1.6,0.1,2,1l0,0c0.3,0,0.7,0,1,0v1c0.3,0,0.7,0,1,0v1c1.7-0.3,3.1,0.5,4,2c1.2,0.4,2.2,1,3,2c0.3,0,0.7,0,1,0
	c0,0,0,0.3,0,1h1v1c0.3,0,0.7,0,1,0l0,0c0.3,0.3,0.7,0.7,1,1v1c0.3,0,0.7,0,1,0l0,0c0.3,0.3,0.7,0.7,1,1h1
	c0,56,138.6,68.5,168.1,67.6v1c60.3,0,106.6-37.4,146-80.1c0.3,0,0.7,0,1,0v-1c0.3,0,0.7,0,1,0v-1l0,0l0,0c0.7-0.7,1.3-1.3,2-2l0,0
	v-1l0,0h1v-1c0.3,0,0.7,0,1,0c0.1,25.7,0.1,51.3,0.2,77c-0.9-0.2-1.6,0.1-2,1l0,0c-0.9,0.4-1.2,1.1-1,2c-0.7,0-1.3,0-2,0v1h-1l0,0v1
	c-34.1,28.4-73.6,45.6-113.8,59.3c-0.3,0-0.7,0-1,0v1c-0.3,0-0.7,0-1,0l0,0l0,0v1c-0.3,0-0.7,0-1,0v1c-0.3,0-0.7,0-1,0
	c0,1.3,0,2.7,0,4c24.3,10.5,53.2,8.6,80,5.8v1l0,0h1v1l0,0c0.3,0,0.7,0,1,0l0,0c0.9,1.5,2.3,2.3,4,2c0,0.7,0,1.3,0,2
	c-25.6,8.3-54.3,11.9-81.8,10.4c-33.1-1.8-67.7-11.1-98-24.1C919.4,161.5,881.8,126.2,867.2,126.2z"/>
<path fill="#10BEBF" stroke="#10BEBF" d="M310.1,866.7c-5.3,0-10.7,0-16,0c67.7-107,138.8-215.5,233.3-300.6c0,0,0-0.3,0-1l0,0l0,0
	c0.3-0.3,0.7-0.7,1-1c0.7,0,1.3,0,2,0v-1c0.3,0,0.7,0,1,0v-1l0,0l0,0c0.3,0,0.7,0,1,0v-1c0.3,0,0.7,0,1,0v-1l0,0
	c38.4-34.8,82.9-61.5,125.9-89.2l0,0h1v-1l0,0c0.3,0,0.7,0,1,0l0,0c0.7-0.7,1.3-1.3,2-2c-1.1-1.5-1.4-3.1-1-5c-3.6,1.7-7.2,1.5-10-1
	c2.6-1,5.1-1.6,8-2v-1c6.2,0,29.7-12.9,35-15l0,0v-1h1v-1l0,0c0.3,0,0.7,0,1,0l0,0c1.2-0.4,2.2-1,3-2c-0.7,0-1.3,0-2,0
	c0-0.7,0-1.3,0-2c-0.7,0-1.3,0-2,0v-1h-1l0,0v-1c-2,0-4,0-6,0v-1l0,0h1v-1l0,0c0.3,0,0.7,0,1,0l0,0v-1h-1l0,0v-1
	c69.6-14.7,140.5-25.9,210-42.5c8,0.4,16.9,1.8,24,4c-3.5,1.5-4.2,2.2-6,6c37.2-3,75.8-13.5,113-10.2c3,0,6,0,9,0v1h-1l0,0v1l0,0
	l0,0l0,0c-64.7,20.8-133.5,30.4-198.7,50.1c-61,18.5-118.1,48.7-176.3,72.4v1c-35.3,19.4-176.7,93.6-176.7,140.4c-0.3,0-0.7,0-1,0v1
	c-0.3,0-0.7,0-1,0l0,0l0,0v1c-0.3,0-0.7,0-1,0v1c-0.3,0-0.7,0-1,0l0,0l0,0v1c-0.3,0.3-0.7,0.7-1,1l0,0c-0.3,0-0.7,0-1,0l0,0v1l0,0
	l0,0c0-1,0-2,0-3l0,0l0,0v-1l0,0h1v-1l0,0c0.3,0,0.7,0,1,0l0,0v-1l0,0c3.3-8,8.9-16.2,15-22v-1l0,0h1c0-0.7,0-1.3,0-2
	c0.3,0,0.7,0,1,0v-1h1c0-0.7,0-1.3,0-2h1v-1l0,0c0.3,0,0.7,0,1,0c-0.7,0-1.3,0-2,0l0,0c-0.3,0-0.7,0-1,0l0,0v1h-1l0,0v1l0,0
	c-0.3,0-0.7,0-1,0l0,0v1h-1l0,0v1c-0.7,0.7-1.3,1.3-2,2l0,0l0,0v1c-0.3,0-0.7,0-1,0v1c-0.3,0-0.7,0-1,0l0,0c-0.4,0.9-1.1,1.2-2,1
	c0-0.7,0-1.3,0-2h1v-1l0,0c0.3,0,0.7,0,1,0l0,0v-1l0,0h1v-1l0,0c0.3,0,0.7,0,1,0l0,0v-1l0,0h1v-1l0,0h1c0-0.7,0-1.3,0-2
	c0.3,0,0.7,0,1,0v-1c0.3,0,0.7,0,1,0c0.4-1.2,1-2.2,2-3l0,0v-1l0,0c0.7-0.7,1.3-1.3,2-2v-1l0,0l0,0c0.9-0.4,1.2-1.1,1-2
	c-2.3-0.4-4.4,0.2-6,2c-0.3,0-0.7,0-1,0l0,0l0,0v1c-0.3,0-0.7,0-1,0v1c-34.7,33.9-66.2,73.6-94.7,113.4
	C383.2,759.8,310.1,833.7,310.1,866.7z M506.5,613.2c0,0.7,0,1,0,1c-0.7,0-1,0-1,0C505.5,613.5,505.8,613.2,506.5,613.2z"/>
<path fill="#1F388C" stroke="#1F388C" d="M779.6,293.5c-78.2-10.2-156.6-22.2-235-30.4l0,0v-1c-19.4-0.6-38.8-3.2-58-5.9v-1l0,0
	c48,3,96.1,9.7,144,14.6c0.9,0.1,156,18.3,156,20.6l0,0l0,0v1C783.8,290.6,781.3,291.2,779.6,293.5L779.6,293.5z"/>
<path fill="#2D58B0" stroke="#2D58B0" d="M851.7,325.3c-35,0.1-70,0.2-105,0.2c0.7-0.7,1.3-1.3,2-2c-1.3,0-2.7,0-4,0
	c7-2.3,16.8-3,25-2c-54.3-32.1-152.3-40.8-221-43.5l0,0l0,0c0,0,0-0.3,0-1h-1v-1c-0.7,0-1,0-1,0c-1.2-0.4-2.2-1-3-2
	c-0.3,0-0.7,0-1,0c-0.3-1-5-5.5-5-5h-1l0,0v-1l0,0c-0.3,0-0.7,0-1,0c-1.8-1.3-3.8-2-6-2v-1c0.3,0,0.7,0,1,0v-1
	c166.3-14.8,332.1,63,502,38.8c-0.3,0-0.7,0-1,0l0,0c39.9-6,81.9-11,122-17.3c-0.2-0.9,0.1-1.6,1-2l0,0c0,5,0,10,0,15l0,0
	c-0.7-0.7-1.3-1.3-2-2l0,0C1050.9,318.6,956,324.9,851.7,325.3z"/>
<path fill="#F22F7A" stroke="#F22F7A" d="M924.4,205.1v-1l0,0c4.9-0.8,13.8,0.4,20,3c-1.5-2-3.7-3.5-6-4l0,0
	c-28.9-20.9-56.2-44.9-74.2-75.8h-1l0,0v-1h-1c-0.7-2.1-1.3-3.9-2-6c0.9-0.2,1.6,0.1,2,1l0,0c0.3,0,0.7,0,1,0v1c0.3,0,0.7,0,1,0l0,0
	v1l0,0c0.3,0,0.7,0,1,0v1c0.3,0,0.7,0,1,0v1l0,0l0,0c0.3,0,0.7,0,1,0v1c10,0,47.4,32.4,59.8,38.3c32.7,15.4,71.3,26.5,107.6,28.5
	c27.5,1.5,56.2-2.1,81.8-10.4c12.3-5.5,26.2-11.4,38-16c0.1,18.7,0.1,37.3,0.2,56c-22.4,0.4-47.2,2.1-68,5.2c-1,0.8-1.6,1.8-2,3l0,0
	l0,0v1c-0.3,0-0.7,0-1,0v1c-0.3,0-0.7,0-1,0l0,0l0,0v1c-0.9,0.4-1.2,1.1-1,2c0.9-0.2,1.6,0.1,2,1c0.3,0,0.7,0,1,0l0,0
	c4.4,2.5,9.1,4.5,14,6c-2.3,1.7-4.3,2.8-7,4l0,0c0.3,0,0.7,0,1,0l0,0v1l0,0h1v1c0.7,0,1.3,0,2,0
	C1035.5,250.8,975.5,237.5,924.4,205.1z"/>
</svg>
