<?xml version="1.0" encoding="utf-8"?>
<!-- Generator: Adobe Illustrator 21.0.0, SVG Export Plug-In . SVG Version: 6.00 Build 0)  -->
<svg version="1.2" baseProfile="tiny" id="Layer_1" xmlns="http://www.w3.org/2000/svg" xmlns:xlink="http://www.w3.org/1999/xlink"
	 x="0px" y="0px" viewBox="0 0 1265 790" xml:space="preserve">
<path fill="#F5B417" stroke="#F5B417" stroke-width="0.5" d="M886,629v-1c24,3.6,48,7.3,72,11c-22.6,29.5,26.9,36.3,16,3
	c82.8,13.8,173.2,28.5,251,60c53.4,21.7,40,23.1,40,88c-421.7,0-843.3,0-1265,0c0-45.3,0-90.7,0-136c0.4-1,1.1-5.2,1-7
	c44,7.4,35.1,22.4,66,36.5c45.7,20.8,32.3,1.4,64.8-9c25.5-8.2,58.8-10.4,85.2-18.5c3.7,26.1,48.3,44.4,73,25c3.5,0,7.9-0.4,11,0.5
	c12.5,3.8,9.3,19.6,26.5,20.5c-9.6-0.5,59.8-21.8,46-18.5c32.1-7.7,84.7-25.6,115-27.5c70.3-4.4,144.2,19.4,217.2,14
	C715,669.3,886,653.9,886,629z M36.8,700.5C73.6,694.1,33.7,737.1,36.8,700.5z"/>
<path fill="#FFED91" stroke="#FFED91" stroke-width="0.5" d="M1141.8,374.5c42.5-0.7,117.2,0.6,102.2,60.5
	c-50.5-21.8-157.9-52.9-208-26c35.7-0.8,48.4,31.7,16.8,51c-42.5,26.1-41.3-21.8-53.8-44c-9.1-10.1-29-9.9-46-6
	c6-6.2,18.5-18.3,26.2-22.4C1005.4,373.7,1133.3,388.6,1141.8,374.5z"/>
<path fill="#FE5C0E" stroke="#FE5C0E" stroke-width="0.5" d="M612.5,463.8c42.8,13,68.8-8.2,104-14.8c-13.7,24-61.6,53-85.5,57.7
	c-17.3,3.4-39.5-7.4-60.5-12.5c-90.8-22-184.5-40.6-278.4-38.3c-36.6,0.9-59.7,7.4-85.1-20.9C337.3,392.6,481.4,448.1,612.5,463.8z"
	/>
<path fill="#FFF2B5" stroke="#FFF2B5" stroke-width="0.5" d="M226.5,1.2C363.1-13.2,508.1,0,645.9,0C785.3,0,924.6,0,1064,0
	c7.3,110.4-69.8,206.6-126.5,301c-0.2,0.1-0.4,0.3-0.5,0.5c0.7,0.2,1.3,0.4,2,0.5c-4.8,5.9-11.7,11.1-19,14.5
	c20.1-5.4,39.5-15.3,60-19C905.8,337.1,797.5,421.9,716.5,449c-32.7,6.2-60.2,28.2-101.5,15.5c6.7-1.4,13.7-5.7,20-7.5
	c-4.2-3.8-13.4-5-21-3.5c13.7-3.4,27.5-7.5,41-12c-100-4.2-182.5-14.2-253.5-88.5C350.4,299.5,300.7,248.8,268,181.2
	C258.6,161.8,202.7,13.6,226.5,1.2z M723.2,445.8C721.9,443.8,724.4,446.6,723.2,445.8z"/>
<path fill="#FF7B44" stroke="#FF7B44" stroke-width="0.5" d="M678,525.2l1-0.2c-16.8,18.4-34.9,36.1-50,54
	c102.9-6.8,207-28.1,309.1-33c21.9-1,41.4,11.7,64.9,5.5c-1.7-0.3-3.3-0.7-5-1c22-0.3,43.8,3.4,65,9c-1.3,0.3-2.7,0.7-4,1
	c0.7,0.3,1.3,0.7,2,1c-7,0.3-14,0.7-21,1c16.6,1.6,32.3,6.6,45,15.5c-96.1,24.6-201.4,27.7-300.5,26.8
	c-51.9-0.4-156.1-29.5-196.5,6.2c-6.7,0-13.3,0-20,0c3.2-5.4,7.6-11,12-15.5c-24.2-8.8-16.2-13.9,8-16c-3.4-0.2-6.8-0.9-10-2
	C611,554.9,638.4,537.1,678,525.2z"/>
<path fill="#E61F0A" stroke="#E61F0A" stroke-width="0.5" d="M778.5,604.8L836,605c105,16.8,209.2,30.9,312,63.1
	c27.7,8.7,102.1,19.5,117,45.9c-109.3-31-220.6-62.2-331.1-78.4c-114.3-16.8-231.2-11.1-345.9-24.1
	C624.7,575.3,731.5,604.6,778.5,604.8z"/>
<path fill="#FEDC67" stroke="#FEDC67" stroke-width="0.5" d="M43,0.5C104.7-2.1,167.2,0,229,0c-28,129.3,85.5,262.1,168.8,349.2
	c72.7,76,154.2,88.2,257.2,92.2c-13.5,4.5-27.3,8.6-41,12c7.6-1.5,16.8-0.3,21,3.5c-11.9,7-18.6,4.7-32.8,4.5
	C479.8,460.2,325.3,381,209,437c-30.1-25.2-59.3-58.5-83-89c1.9-1.3,5.2-2.3,8-2.5C121.1,314.3,1.4,7.4,43,0.5z"/>
<path fill="#FFE78A" stroke="#FFE78A" stroke-width="0.5" d="M1064,0.2V0c2.3,0,4.7,0,7,0c36.9,45-37,209-62.2,241.6
	c-17.6,22.8-43.7,55.1-73.8,66.4c1.4-1.5,2.7-3.5,4-6c-0.7-0.1-1.3-0.3-2-0.5c0.1-0.2,0.3-0.4,0.5-0.5c23.7-45.4,66.5-83,88.8-132.9
	C1048.7,117.7,1064,50,1064,0.2z"/>
<path fill="#FEC538" stroke="#FEC538" stroke-width="0.5" d="M0,152.5V0c15.3,0,30.7,0,46,0c-49.7,53.9,58,287.4,88,345.5
	c-2.5,0.2-4.8,0.9-7,2c0.7,1,1.1,2.2,1,3.5c-21.3-25.1-38.3-57.2-53.5-87c14.1,54.9,54.8,108.4,92.7,149.2
	c31.4,33.8,84.3,46.7,111.8,76c2.9,3.1,6.9,10.6,1.5,12.3c-23.8,7.4-132.9-69.6-153.5-84.5C96.1,394.7,29.7,351.4,8.8,313.4
	C-13.6,272.8,0,201,0,152.5z"/>
<path fill="#FEB346" stroke="#FEB346" stroke-width="0.5" d="M1211.5,0.8L1208,0c19,0,38,0,57,0c0,92,0,184,0,276
	c-34.9-5.4-69.7-9-105-10.5c2.6,5.5,7.3,10.3,13,13.5c-7.7-7.9-16.3-10.8-24-3c-9.9-16.9-51.2-6.4-76-2c0-0.7,0-1.3,0-2
	c0.7,0,1.3,0,2,0c0.6-2.4,2.8-3.1,5-2.5c20.8-9.1,60.3-11.3,75-23.3c39.6-32.2,67.5-177.1,58.8-225.7
	C1211.1,5.5,1248.4,8.2,1211.5,0.8z M1097.2,265.8C1095.9,263.8,1098.4,266.6,1097.2,265.8z"/>
<path fill="#FFBA3C" stroke="#FFBA3C" stroke-width="0.5" d="M1061.5,496.8c5.9,5.2-89.4,40.6-123.5,49.2
	c-72.6-13.4-200.7,1-281.1,18.2c-8.8,1.9-12.3,1.7-18.9,4.8c15-17.3,61.4-76.5,83-66.5c19.1,6.9,10.4,12.6-7,17
	c34-1.5,70.1-7.2,103-12.5C897.3,496.9,980.4,493.6,1061.5,496.8z"/>
<path fill="#FE4104" stroke="#FE4104" stroke-width="0.5" d="M1149.2,275c-5.3,5.7-8.5,13.7-8.2,21c-21.1,0.8-41.2-10.6-61.8-7.8
	c-22,3-23.8,15.8-34.7,20C975.4,335,906.6,350.6,840,386.1c-15.3,8.2-30.9,17-46,24.9c6.6-6.7,16.8-15.2,25.5-22
	c45.8-35.7,103.4-68.7,158-89.8C983.2,297,1156.1,252.1,1149.2,275z"/>
<path fill="#F6B617" stroke="#F6B617" stroke-width="0.5" d="M209,654c21.3,10.5-59.3,12.6-74,17c-12.9,3.8-17.6,22.8-33.5,25
	c-37.6,5.3-61-42.3-100.5-49c0.1,1.8-0.6,6-1,7c0-26.7,0-53.3,0-80C71.7,588,136.2,635.8,209,654z"/>
<path fill="#FEA549" stroke="#FEA549" stroke-width="0.5" d="M0,555v-19c25.4,19.5,214.5,145.9,228,90c-1.2,16.2-1.7,32.7-2,49
	c-0.2,0-0.3,0-0.5,0c-1.2-22.4-3.2-16.2-19.9-21.8C162.3,638.9-3.9,602.8,0,555z"/>
<path fill="#FEC934" stroke="#FEC934" stroke-width="0.5" d="M567,598.8l10,0.2c-3.6,3.5-6.9,7.8-9,12c6.7,0,13.3,0,20,0
	c96.1,18.2,202.3-0.6,299,18.2c0,28.2-184,41.2-205.8,42.1c-64.1,2.8-130.5-9.6-190.2-14.3c-2.3-0.7-3.5-0.9-6-1
	c8.1-6.1,17-13,25-19.5c-73.5,24.9-151,26.3-222,46.5c7.7-5.7,11.1-14.3,8-24.5c2.4,0.5,4-0.1,4-2C392,650.4,477.2,596.1,567,598.8z
	"/>
<path fill="#FE8906" stroke="#FE8906" stroke-width="0.5" d="M1258.2,554.8c1.5,1.7,3.5,2.8,5.8,3.2c-0.1-1.2,0.3-2.5,1-3
	c0,8.7,0,17.3,0,26c-15.2,1.5-31.8,13.9-43.8,17.5c-12.8,3.8-17.1,6.4-43.9,7.8c-41.2,2-96.2-9.5-136.3-20.3
	c51.6-4.9,98.2-27.6,147.6-40.8C1216.7,537.8,1229.4,511.6,1258.2,554.8z"/>
<path fill="#FEDC6C" stroke="#FEDC6C" stroke-width="0.5" d="M1071,0.2V0c13,0,159-4.5,159,5c0,1.7-9.3,9.2-9.2,9.8
	c8.7,38.6-29.9,190-59.8,220.9c-20.5,21.2-59.3,25.5-88,36.3c-27.2,9.8-63.2,15.4-93,26c0-0.2,0-0.3,0-0.5
	c-20.5,3.7-39.9,13.6-60,19c14.6-8.9,33.2-15.3,46.5-26.7c22-18.8,46.7-49,56.5-64.6C1060.6,165.6,1071,62,1071,0.2z"/>
<path fill="#FE4704" stroke="#FE4704" stroke-width="0.5" d="M0,515.5V495c61.4,62.1,134.6,127.9,228,130c0,0.3,0,0.7,0,1
	C218.1,667.4-9,572.7,0,515.5z"/>
<path fill="#FFDBA2" stroke="#FFDBA2" stroke-width="0.5" d="M1080,492.2c48.2,6.6,91.7,17.2,136,38.3c0,0.2,0,0.3,0,0.5
	c-39.9,24-86.2,35.4-131,47c-12.7-8.9-28.4-13.8-45-15.5c7-0.3,14-0.7,21-1c-0.7-0.3-1.3-0.7-2-1c1.3-0.3,2.7-0.7,4-1
	c-21.2-5.6-43-9.3-65-9c1.7,0.3,3.3,0.7,5,1c-18.8,4.8-38.7,0.6-52-9C994.7,528.3,1036.6,505.2,1080,492.2z"/>
<path fill="#FFF2AF" stroke="#FFF2AF" stroke-width="0.5" d="M1158,345.2V345c23.2,2.1,92.9-2.9,107,13c8.2,9.2,0,76.8,0,90
	c-18.4-2.3-13.8-5.8-21.5-16.5c-7.4-10.3,3.8-28.2-6-39c-16.6-18.3-71.9-18-94.5-18.5c7.3-8.6,10.4-20.9,16-27.5
	C1158.5,346.2,1158.1,345.7,1158,345.2z"/>
<path fill="#FE7E0F" stroke="#FE7E0F" stroke-width="0.5" d="M1264.8,581h0.2c0,18.4,15.6,142.2-34.2,105.2
	c-6.9-5.1-17.3-69.7-14.3-77C1224.3,590.3,1242.9,581,1264.8,581z"/>
<path fill="#FFED91" stroke="#FFED91" stroke-width="0.5" d="M13,375.5C39.1,409.2,47,480,93,502c-0.2-1.9,0.4-3.4,2-4
	c25.8,12.8,12.7,44.9,46,51c-5-1.1-10-2.1-15-3c16.4,18.5,42.7,33.8,64,46c-1.3,0.3-0.9,0.8,0,1.5c-16.4-5-32-16.5-46.5-26.8
	C109.7,542.7,30.8,425.7,0,427c0-25.1-0.7-51.1,1-75.8C6,358.8,10,366.9,13,375.5z"/>
<path fill="#FED119" stroke="#FED119" stroke-width="0.5" d="M1046,321.2l2-0.2c14.3,51.3-100.4,36.5-132,46.8
	c-21.9,7.2-47.8,24.1-70,34.2c-0.4-1.7,0.3-2.5,2-2.5c-1.1-1.2-1-2.8,0-4.5c-1-0.1-2-0.3-3-0.5C907.5,361.3,975.4,331.8,1046,321.2z
	"/>
<path fill="#FEDD62" stroke="#FEDD62" stroke-width="0.5" d="M334,457v-1c93.1,5.6,207.1,16.7,291,54c-15.3,9-33.1,18.6-49,27
	c0.5-1.8,1.9-3,4-3.5c-56-3.1-154.5,13.1-202.8-16.5C368.5,511.7,334,464.4,334,457z"/>
<path fill="#FEB136" stroke="#FEB136" stroke-width="0.5" d="M130,421l-3-4c20.5,13.6,151.3,101.6,156.8,76.2
	c7.2,31.8,49.5,48,46.2-4.2c-29.2-25.1-53.9,1.2-91-30c25-1.8,72.7-14.1,94.5-3.2c14.7,7.4,20.5,34.4,31.3,44.7
	c45.8,43.6,148,29.2,215.2,33c-32.4,21.5-76.3,42.9-117,41c3.8,0.7,7.5,1.7,11,3c-35.9,1.1-83.1,7.4-112-5.5
	c-1.8-0.8,1.9-14.8,0.9-15.5c0.6,0.4-14.4-13-17.6-15.7C315.3,515.5,253,508.3,216,490C196.2,473.6,149.3,446.8,130,421z M223,490.8
	c3.2,1,6.4,2.7,9,4.7C227.7,494.9,221.3,490.1,223,490.8z"/>
<path fill="#FFEB8B" stroke="#FFEB8B" stroke-width="0.5" d="M1044.5,308.2l3.5-0.2c-0.6,6.8-8.4,8.2,0,13
	c-71.8,12.3-138.9,39.9-203,73.5c1,0.2,2,0.4,3,0.5c-19,24.4-75.9,49.9-105,64c2.4-3.7,6.8-8.7,11-12.5c-2.4-0.4-2.7-2.1-2-4.5
	c-1,0-2,0-3,0c0-0.7,0-1.3,0-2c-14.5,5.9-29.4,15.2-43,23c26-32.7,77.1-62.9,116-76c-9,5.9-19.3,15.1-25.5,23
	C870.4,367.4,958,315.6,1044.5,308.2z M721.2,448.8C719.9,446.8,722.4,449.6,721.2,448.8z"/>
<path fill="#FFE595" stroke="#FFE595" stroke-width="0.5" d="M1175,302.8v-0.3c63.4,5.1,90-10.5,90,55.5c-32.1-4.5-77.3-0.9-107-13
	c-17.9-7.3-22.5-29.9-47-29.5c21.5-0.6,49.3,4.6,66-7C1173.1,307.6,1172.5,305.7,1175,302.8z"/>
<path fill="#FFB511" stroke="#FFB511" stroke-width="0.5" d="M1100.2,336.8c5.9,0.1,39.5,9,39,8.4c43.9,46.8-92.7,29-108.2,30.8
	c-36.8,4.2-68.2,47.1-102,29.5c2-0.3,4-0.7,6-1c-37.9-7.4-79.9,20.1-112.5,17.5c-1.2,0.7-2.9,1.1-4.5,1
	c8.6-11.6,23.3-17.8,37.7-25.5C887.9,380.6,1086,315.5,1100.2,336.8z"/>
<path fill="#E68F17" stroke="#E68F17" stroke-width="0.5" d="M1004.5,428.2c-6.5,27.2,12.4,38.3,35.5,35.8c0,0.2,0,0.3,0,0.5
	c-76.6,10.2-154.3,21.8-230,42c9.7,4.3-76.5,12.3-96,13c17.3-4.4,26.1-10.1,7-17c0.8-1.2,0.4-2.1-1-2.5c2.4-1.7,5.9-3.7,9-5
	c21.1,9.5,46,2.7,66-9c1.6,0.3,2,2.2,5.2,2.2c19.3,0.3,45.1-15.7,63.3-21.8C902.3,453.5,969.7,449.1,1004.5,428.2z"/>
<path fill="#FEE6A5" stroke="#FEE6A5" stroke-width="0.5" d="M74.5,265.5V264c47.8,93.9,116.9,165.3,202.5,220.5
	c0.9-0.2,1.5-0.4,2.5-0.5C248.2,534.4,85.4,300,74.5,265.5z"/>
<path fill="#FE6614" stroke="#FE6614" stroke-width="0.5" d="M26.2,366.2c30.3,22,88.6,52.8,105.8,80.8c0,1.3,0,2.7,0,4
	c-33.1-1.5-59.4,18.6-91.2-16C23,415.6,15.3,388.9,26.2,366.2z M127.2,442.2c0.4-0.3,0.8,0.2-0.2,0.3L127.2,442.2z"/>
<path fill="#9D0905" stroke="#9D0905" stroke-width="0.5" d="M1223.2,492l-13.2-20c62.6,13.2,55,6.9,55,69
	C1215.8,531.6,1241.1,518.9,1223.2,492z"/>
<path fill="#EC8D15" stroke="#EC8D15" stroke-width="0.5" d="M1149,409v-1c44.7,10.6,132,18.4,116,77c-63.9-18.7-51.4-8.1-88.5-62
	c-15.3,14.6-33.3,30.1-50.5,41c-21.9-0.5-87.6,9.7-86,0c21.2-4.8,30.4-26.5,28-46C1077.6,416.9,1149,411,1149,409z"/>
<path fill="#FE6D0E" stroke="#FE6D0E" stroke-width="0.5" d="M939,544.8c-96.7,28.9-208.9,27.5-310,34.2
	C663.5,527.9,939,562.7,939,544.8z"/>
<path fill="#FE5B16" stroke="#FE5B16" stroke-width="0.5" d="M1040.5,586.2l0.5-0.2c39.3,10.2,83.5,14.3,124.5,19
	c48,5.5,38-3.2,55.1,32.4c12.9,26.7-2.8,66.1,44.4,47.6c0,8.3,0,16.7,0,25c-132-63.5-284.8-86.9-429-104.5c0-0.2,0-0.3,0-0.5
	C891.3,600.8,993.8,614.2,1040.5,586.2z"/>
<path fill="#A70A05" stroke="#A70A05" stroke-width="0.5" d="M1126,463.8c-15.5,10.2-37.4,28.3-57,33.2c-58.7,14.8-136-0.4-197,4.5
	c-20.8,1.7-41.5,5.2-62,5C797,510,1126,447,1126,463.8z"/>
<path fill="#FFCD00" stroke="#FFCD00" stroke-width="0.5" d="M182,591c2.6,1.6,5.2,2.4,8,2.5c10.5,1.5,40.3,17.9,56,24
	c-66,5-152.8-49.8-198.1-94.5c-8.8-8.7-71.6-76.8-47.4-96.2C-1.8,428.6,156.6,578.3,182,591z"/>
<path fill="#FEC329" stroke="#FEC329" stroke-width="0.5" d="M126.2,547l-0.2-1c28.8,5.6,123,20.2,123,23.5
	c30.4,13.6,68.8,12.2,99,3.5c33-0.1,63.5,3.6,101,5c-7.7,1.4-17.4,2.4-26,2.5c10.4,3.8,21.8,6.2,33,7C387.4,625,317.5,613.2,246,617
	c-0.3,0-0.7,0-1,0C203.5,601.2,158.8,577.9,126.2,547z M227.2,565.2C229.2,563.9,226.4,566.4,227.2,565.2z"/>
<path fill="#FFB83A" stroke="#FFB83A" stroke-width="0.5" d="M0,329v-24c67.7,65.9,147.6,146.3,232,190.5
	c-35.6-10.2-70.9-33.6-101.9-53.5C113.8,431.5,28.6,332.3,20,383c-7.8-7.9-17.4-23.4-20-30V329z"/>
<path fill="#FDE7F2" stroke="#FDE7F2" stroke-width="0.5" d="M1209.5,495C1154.1,519.7,1209.5,439.3,1209.5,495z"/>
<path fill="#FD6614" stroke="#FD6614" stroke-width="0.5" d="M168.2,468l-0.2-3c52.3,27.7,118,42.2,166.6,72.3
	c9.7,6,45.9,15.3,25.9,35.7C341,592.9,204.9,535.9,177,527c9.4-12.8,1.4-19.1-0.7-29c-0.8-3.8-18.1-3.9-18.1-7.8
	C158.1,481.2,169,475.6,168.2,468z M186.2,503.2C188.2,501.9,185.4,504.4,186.2,503.2z"/>
<path fill="#D97213" stroke="#D97213" stroke-width="0.5" d="M998.5,415.8c2.5,3.5,5.5,7.4,6.5,12.2c-59.3,12.2-155.4,67.3-210,58
	C824.9,473.8,970.9,399.3,998.5,415.8z"/>
<path fill="#FED3A6" stroke="#FED3A6" stroke-width="0.5" d="M1175.8,423.8c10.1,11.3,24.1,31.6,32.2,47.7
	c-24.3,0.9-53.3-5.7-79-8.5C1143.7,450.5,1161.2,437.2,1175.8,423.8z"/>
<path fill="#D26A12" stroke="#D26A12" stroke-width="0.5" d="M1146.5,407.8c-18.3,10.3-80.6,14.6-110.5,1.2
	C1064.1,393.6,1115,404,1146.5,407.8z"/>
<path fill="#FFF09D" stroke="#FFF09D" stroke-width="0.5" d="M1171.5,278.8c0.2,4.5,2.3,20.2,3.5,24.2c-2.7,2.9-1.9,4.7,2,5.5
	c-16.5,12.8-44.6,6.5-66,7c21.8,0,35.7,19.4,48,31c-2.1,6.2-9.4,19.5-16,27.5c-0.3,0-0.7,0-1,0c6.2-29-13.9-33.9-38-34
	C1095.7,315.2,1159.7,271.7,1171.5,278.8z M1165.2,313.8C1163.9,311.8,1166.4,314.6,1165.2,313.8z"/>
<path fill="#FFF0A3" stroke="#FFF0A3" stroke-width="0.5" d="M800,426.2l1-0.2c-4.1,3.2-7.2,7.5-8.5,12c4.6,0.1,10.5-0.2,15.5,1
	c-1.7,7.4-7.3,12.2-14,16.5c2,0.3,4,0.7,6,1c-14.2,14.2-31.1,23.5-52,29c2.7,0.3,5.3,0.7,8,1c-35.3,9.3-63.9,29.6-96.3,45.1
	C589.5,565.2,504.4,592.4,426,613c110.3-53.1,225.8-98.5,321-175c0.7,0,1.3,0,2,0c0,1.3,0,2.7,0,4c1,0,2,0,3,0
	c-0.7,2.4-0.4,4.1,2,4.5c-4.1,2.9-7.3,6.9-9,11.5C763.1,449,780.8,431.9,800,426.2z"/>
<path fill="#FEE49B" stroke="#FEE49B" stroke-width="0.5" d="M506,637c1.2-0.6,2.6-0.7,4-0.5c-48,41.2-180.7,84.9-210,44.5
	C363.5,656.5,438.9,670,506,637z"/>
<path fill="#E8B3B0" stroke="#E8B3B0" stroke-width="0.5" d="M1128,463.2c25.6,2,56.9,10.1,80,7.8c0.8,1,57.1,89.1,57,84
	c-0.7,0.5-1.1,1.8-1,3c-15.6-8.7-31.4-19.7-48-27c-40.2-25.3-88.9-31-135-39C1095.3,483.1,1111.9,468,1128,463.2z M1209.5,495
	C1154.1,519.7,1209.5,439.3,1209.5,495z"/>
<path fill="#FEE19D" stroke="#FEE19D" stroke-width="0.5" d="M973.8,641c12.5,36.2-40.5,25.5-15.8-2
	C961.4,638.8,973,638.2,973.8,641z"/>
<path fill="#FEC635" stroke="#FEC635" stroke-width="0.5" d="M97.2,496.5L98,496c83.4,33.7,168.7,53.8,255,77c-1.7,0-3.3,0-5,0
	c-30.2,8.7-68.6,10.1-99-3.5c-18.9-12.7-84-3.1-116-24C124,539.6,96.3,497.1,97.2,496.5z"/>
<path fill="#FEAF5E" stroke="#FEAF5E" stroke-width="0.5" d="M49.2,449.5L41,435c17.9,9.3,36.9,24.4,55.7,25.5
	c8.7,0.5,22.2-10.1,35.3-9.5c0-1.3,0-2.7,0-4c-1.7-0.9-3.4-2.4-5-4.5c22.1,5.3,32.7,28.7,37.4,34.2c-12.4-14.7,27.9,56.2,22.1,27
	c1.5,7.4-5,17.7-9.5,23.2C131.2,508.9,74.2,493.2,49.2,449.5z"/>
<path fill="#FE4405" stroke="#FE4405" stroke-width="0.5" d="M1160.2,267.2l-0.2-1.7c41.2,1.8,119.2-12.3,105,46.5
	c-29.6-5.5-60-7.1-90-9.5c0,0.2,0,0.3,0,0.5c-1.5-4.1-3.1-19.3-3-24c0.3,0,0.7,0,1,0C1170.1,277.1,1160.9,271.3,1160.2,267.2z"/>
<path fill="#FEB469" stroke="#FEB469" stroke-width="0.5" d="M227.8,628l0.2-1c84,5,18.5,0.4,32,50c-7.3,0.1-14.7,0.3-22,0.5
	c0.6,0.7,1,1.5,1,2.5C213.2,679.2,226.3,649.8,227.8,628z"/>
<path fill="#FFBB58" stroke="#FFBB58" stroke-width="0.5" d="M610.5,551.2l1.5-0.2c-8,7.6-22.2,18.8-34,26.5c3.2,1.1,6.6,1.8,10,2
	c-23.9,2-32.4,7-8,16c-12,5.1-27.2,0.2-42.5,3c-80.7,14.5-153.3,52.4-237.5,58c0,1.9-1.6,2.5-4,2c4.3,8.8,1.5,16.9-6,22.5
	c-14.5,12.4-36,2.2-52-3.5c7.3-0.2,14.7-0.4,22-0.5c-11.3-50.6,51.1-44.6-32-50c0.1-0.1,0-2,0-2c5.6-0.7,11.4-0.8,17-1.5
	c-5.9-1.9-11.9-3.4-18-4.5c5.2-3.2,12.9-3.6,19-1.5c18.8-2.1,43.2,2,64,4.5c0,0.2,0,0.3,0,0.5c-6,0.3-12,0.7-18,1
	C412.5,639.7,496.7,574,610.5,551.2z"/>
<path fill="#FEE278" stroke="#FEE278" stroke-width="0.5" d="M1000,415.5v1.5c-38.6,2.3-79.6,20.1-117,33c-1.7-3.9-6.5-5.9-12-5.5
	c1-1.6,2.4-3,4-4c-6.7-0.2-13.4-0.8-20-2C860.6,435.6,1000,388.2,1000,415.5z"/>
<path fill="#FFF0A2" stroke="#FFF0A2" stroke-width="0.5" d="M1140,296.2l1-0.2c-10.9,11.6-49.9,7.1-37,44c-19-7.9-34.3,0.4-55,7
	C1031,272.9,1090,311.2,1140,296.2z"/>
<path fill="#FFF9D7" stroke="#FFF9D7" stroke-width="0.5" d="M36.8,700.5C73.6,694.1,33.7,737.1,36.8,700.5z"/>
<path fill="#FFEB8B" stroke="#FFEB8B" stroke-width="0.5" d="M932,404l3,0.5c-2,0.3-4,0.7-6,1c4.6,1.4,10.4,4.1,15,5.7
	c0-1.5-77.7,21.6-89,27.3c6.6,1.2,13.3,1.9,20,2c-1.6,1-3,2.4-4,4c5-0.5,10.4,1.2,13,4.5c-32.8,14.7-116,62.1-155,46.5
	c0-0.2,0-0.3,0-0.5c9-2,18.6-6.9,27-8.5c-2.7-0.3-5.3-0.7-8-1c20.8-5.2,38.4-14.7,52-29c-2-0.3-4-0.7-6-1c6.7-4.3,12.2-9.1,14-16.5
	c-5-1.2-10.9-0.8-15.5-1c6.4-12.1,20.1-21.8,34.5-26c-4.9,4.1-6.6,8.3-2,12C858.7,416,896.2,398,932,404z M819,421c2.5,0-0.2,2-1,2
	c0-0.7,0-1.3,0-2H819z"/>
<path fill="#F8B519" stroke="#F8B519" stroke-width="0.5" d="M49.8,526.5L48,523c68.4,32.2,120.5,81.7,197,100.5
	c-62.1,10.4-159.5-34.3-196-87C53.1,533.4,51.9,530.9,49.8,526.5z"/>
<path fill="#FFE562" stroke="#FFE562" stroke-width="0.5" d="M687,474.2l1-0.2c-39.6,73.7-183.3,114.4-259,136.5
	c-42.1,12.3-91.4,18.8-137,13c53.2-3.6,116.9-10,164-36c-11.2-0.8-22.6-3.2-33-7c8.6-0.1,18.3-1.1,26-2.5c8.3-0.1,16.7-0.3,25-0.5
	c-3.5-1.3-7.2-2.3-11-3C554.8,577,606.9,498.2,687,474.2z"/>
<path fill="#FECF73" stroke="#FECF73" stroke-width="0.5" d="M328.5,488.8l1.5,0.2c5,69.9-40.9,13.2-54-6
	C297.6,465.6,304.6,484,328.5,488.8z"/>
<path fill="#FEA94B" stroke="#FEA94B" stroke-width="0.5" d="M0,479v-16c20,22.1,51.8,46.7,49,73.5c7.2,6,13.2,13.5,17,21.5
	C42.5,540.2-0.8,510.3,0,479z"/>
<path fill="#A21E0B" stroke="#A21E0B" stroke-width="0.5" d="M59.8,467l-1.8-3c18,6.8,34.4,16.7,42,33c-4.2-0.5-6.7,1.1-7,5
	C78.2,494.6,68.2,481.8,59.8,467z"/>
</svg>
