<?xml version="1.0" encoding="utf-8"?>
<!-- Generator: Adobe Illustrator 21.0.0, SVG Export Plug-In . SVG Version: 6.00 Build 0)  -->
<svg version="1.2" baseProfile="tiny" id="Layer_1" xmlns="http://www.w3.org/2000/svg" xmlns:xlink="http://www.w3.org/1999/xlink"
	 x="0px" y="0px" viewBox="0 0 1333 750" xml:space="preserve">
<path fill="#78D7F4" stroke="#78D7F4" stroke-width="0.5" d="M669,3.5C673.4-15.9,984.5,0,996.8,0c89.9,0,179.8,0.6,269.7,0
	c20.2-0.1,57.5-8.8,68.7,10c10,16.8-2.2,57.7-2.2,76c-34.1-4.3-99.6,69-125.9,88.3c-42.3,31-75,58.7-127.9,53.2
	c-15.2-1.6-151.9-7.7-139.2,15.6c-29.8-15.6-36.4-10.7-56-42c1.8,1.6,3.8,2.8,6,3.5c-8.4-11.4-22.6-20.4-29-32.5
	c0.3-0.2,5.5-0.8,5.5-1c0.2,0.2-2.3-3.9-2.5-3.5c1.8-1.2,2.4,0.6,3.5,0.5c-10.8-9.4-18.3-34.2-28.5-46.5
	c-13-15.7-27.1-30.9-42.2-44.6C763.7,46.7,731.2,31,691,14.5c1.3,2.3,2.9,4.1,5,6c-3.1,0.2-5,1.4-4,4C680.1,25.9,669,16.2,669,3.5z
	 M693.2,12.8C691.9,10.8,694.4,13.6,693.2,12.8z M695.2,13.8C693.9,11.8,696.4,14.6,695.2,13.8z M697,15C697,11.4,697,18.6,697,15z
	 M682,21C682,17.4,682,24.6,682,21z M748.2,36.8C746.9,34.8,749.4,37.6,748.2,36.8z M867.2,179C866.7,176.6,869,184.9,867.2,179z
	 M891,208C891,204.4,891,211.6,891,208z M936.2,236.8C934.9,234.8,937.4,237.6,936.2,236.8z"/>
<path fill="#7EDBF5" stroke="#7EDBF5" stroke-width="0.5" d="M1076,467.5V466c3.1,1.7,6.6,2.4,10,2c15.6,29.1,36.2,59.4,64.6,77.5
	c13.6,8.7,58.6,12,63.4,28.5c-2.7,0.5-5.3,2.1-8,2.5c3,3.1,6.9,5.6,11,7c-3.6,0.9-7.3,1.6-11,2c22.4,23.1,40.2,50.1,60.4,75
	c16.9,20.8,51.7,48.5,59.3,74.7c5.6,19.5,6.9,14-17.9,16.7c-25.2,2.7-54.4-1.9-79.7-1.9c-147.5,0-302.6,13.9-449.1-2.5
	c-58.2-6.5-64.6-55.9-74.8-108.4c-11.9-61.6,45.2-87.1,94.3-111.1c59.8-29.3,121.4-46.3,187.5-53.9C992,473.3,1076,462.2,1076,467.5
	z M1079.8,468.5C1081.6,467.8,1076.6,469.7,1079.8,468.5z"/>
<path fill="#56CBEE" stroke="#56CBEE" stroke-width="0.5" d="M226,562.8l6-3.8c-5.3,8.4-70.2,68.1-65.7,72.3
	c12.6,11.7,191.6,7.7,191.6,13.3c-4.2,4.8-9.5,7.1-15.9,6.8c2.5,0,5.1,0.7,7,2c-1,0.3-2,0.7-3,1c27.1,20.6,105.5-14.1,132-22.9
	c8.4-2.8,85.6-39.4,87.5-23.6c-1.1,0.7-1.5,1.8-1,3c6.2-1.6,12.7-1.1,18.5-3c-0.2,1.7-0.9,3.3-2,4.5c1.7,0,3.3,0,5,0
	c-39.5,22-80.5,38.9-120.1,60.2c-25,13.5-57.9,43.5-35.9,75.8c-24,11.7-73.7,1.5-98.9,1.5c-41.4,0-82.9,0-124.3,0
	c-39.6,0-188.3,20.1-206.9-12.2c-13.4-23.2,7.2-44.1,24.9-53.4c11.2-5.9,27.1-7.3,36.4-16.8c9.5-9.6,7.3-21.7,14.9-30.1
	c21.5-24,35.5-12.2,61.6-15.8C174.8,616.4,196.2,581.2,226,562.8z M561.2,604.2C563.2,602.9,560.4,605.4,561.2,604.2z M574.5,612.2
	l-2.5,0.3C574.3,611.5,580,611.8,574.5,612.2z M571,622c-1.2,0.6-2.6,0.7-4,0.5C579.1,614.7,572.9,621.1,571,622z"/>
<path fill="#6AD4F2" stroke="#6AD4F2" stroke-width="0.5" d="M875.5,461.2c9.5,4.1-20.8,28.6-28.5,34.3c2.7,0,5.3,0,8,0
	c-44.9,29.3-150.8,58.1-156.3,120.1c-2.2,24.7,14.1,61.7,22.6,84.9c14.8,40.3,26.4,37,65.7,49c0,0.2,0,0.3,0,0.5
	c-119.3,0-238.7,0-358,0c0.2-0.6,0.5-1.1,1-1.5c-58.8-70.3,129.1-91.3,144.5-128.5c-2.1,1.8-4.7,2.7-7.5,2.5c5.9-3.9,13.2-6,19-10
	c-1.7,0-3.3,0-5,0c0.1-1.4,1-2.3-0.5-3.5c-2.5,1.5-6.1,1.9-8.5,3.5c-0.9-2.2-7-5.5-6.2-4.3c-12.7-7.5,43.7-29.7,50.8-33
	c29.6-13.8,55.3-30.7,83.1-47.5C750.4,497.1,816.4,468.3,875.5,461.2z M562.2,602.2C564.2,600.9,561.4,603.4,562.2,602.2z"/>
<path fill="#4FCAED" stroke="#4FCAED" stroke-width="0.5" d="M321.2,236l-1.2-4c60.4,39.2,126.3,87.8,199.8,90.5
	c42.5,1.6,71.3-3.9,109.4,16.9c42.1,23,81.8,47.8,127.8,63.1c-0.7,2.1-1.9,3.8-4,5c55.4,13.9-63.9,23.7-71.5,24.4
	c-47.7,4.2-112.6,30.8-159.5,22.1c4.9-9.1,18.3-11.4,26-18.5c-63.3-2.2-138.8,5.2-201,16.5c-2-4.9,0.8-3.7,4-5.5
	c-9.7-7.6,42.2-15.9,48-17.4c17.4-4.6,85.5-23.5,87.4-44.3c2.1-23.3-75.7-60.2-90.5-71.2C369.1,293.7,332,269.3,321.2,236z
	 M592.2,326.8C590.9,324.8,593.4,327.6,592.2,326.8z"/>
<path fill="#6AD4F2" stroke="#6AD4F2" stroke-width="0.5" d="M804.5,408.2c11.2,0,23.1,2.2,33.5,6.8c-3.4,4.7-0.3,5.5,5,5.5
	c0.7,6.2-7.5,4.3-14,2c15.4,19.5-111.9,47-126,51c-8,2.3-70.7,24.4-57,28c-0.7,0.3-1.3,0.7-2,1c27,0,54.2,0.3,81,3
	c-2,1.2-2.2,2.2,0,3c-0.7,0.7-1.3,1.3-2,2c1.6,0.4,3.3,0.7,5,1c0,0.2,0,0.3,0,0.5c-43.5,21.7-86.4,23.9-132.7,37.4
	c-48.9,14.3-96.9,30.6-146.7,41.6c-50.6,11.2-101.2,16.2-152.9,18.5c-24.9,1.1-51.9-1.5-76.1,5.4c-18,5.1-36.3,23.3-56.6,16.1
	c22.4-41.2,75.3-78,105.6-114.3c11.6-13.9,56.5-93.4,82.4-70.2c-1.5,1.6-2.6,3.3-4,5c66.6-3.5,134.4-17.4,201-16
	c-7.6,7.1-21.1,9.4-26,18.5c51.8,8.4,115.7-18.7,169.2-21.2c12.5-0.6,114.9-12.5,61.8-25.3c2.2-1.2,3.4-2.8,4-5
	c-5.9-1.3-11.2-3.8-16-7.5C741,395,798.1,412,804.5,408.2z M731.2,428.8C729.9,426.8,732.4,429.6,731.2,428.8z"/>
<path fill="#61D1F0" stroke="#61D1F0" stroke-width="0.5" d="M303,217.5V216c30.8,23.4,50.1,60.9,79.7,86.5
	c23.8,20.6,73.2,39.5,91.5,64.2c22.6,30.6-8.4,36.7-36.9,47.4c-31,11.7-74.8,32.4-108.3,28.8c3.3-7.4,10.8-13.3,12.5-21
	c-15.6,4-98.5,35.2-107.9,6.1c-6.7-20.9,65.8-41.7,78.4-48.1c44.5-22.6,19-47.8-0.9-84c-4.1-7.5-24.8-28.6-25.7-33.4
	C282.4,247.3,300.6,231.7,303,217.5z"/>
<path fill="#59CFEF" stroke="#59CFEF" stroke-width="0.5" d="M677.5,532.8c2.8,0.1,5.7,0.1,8.5,0.2c-10.8,22.6-45.4,30.1-65.9,39.6
	c-39.3,18.2-76.7,36.9-117.8,51.1c-35.1,12-120.7,55.4-156.3,30.9c1-0.3,2-0.7,3-1c-1.9-1.3-4.5-2-7-2c6.5,0.2,11.8-2.1,16-7
	c-0.1-1.3-178.3-11.2-185-12.5c0-0.2,0-0.3,0-0.5c21.4-3,37.9-18,59.9-20.8c14.8-1.9,30.6,0.5,45.5,0.2c46-1,92.2-5.5,137.6-12.9
	c44.3-7.2,88.6-16,131.3-30C589.9,554,631.5,531.2,677.5,532.8z"/>
<path fill="#50CAED" stroke="#50CAED" stroke-width="0.5" d="M336.8,422.8c1.4-0.1,3.4-0.4,4.7-0.8c-7.6,39.9-183,247.8-233.5,196
	c-0.4-4.7,1.1-6,4.5-4c8.3-16.9,20.4-28.3,29.8-42.9c9.7-14.9,11.5-32,18.9-48.7c3.6-8.1,25.7-52.1,28.3-50.4
	c16.1-33,10.9-34.5,49.4-32.7C265.9,440.6,315,442.9,336.8,422.8z"/>
<path fill="#56CBEE" stroke="#56CBEE" stroke-width="0.5" d="M194.8,0.5C207-0.9,221.3,0,234,0C161.3,40.4,96.1,97.2,52,168.5
	c2.9,0.7,6.1,0.2,9-1c-5.8,10.7-33.8,67.9-50,61.5c-0.1-1.3,0.3-2.5,1-3.5C8.2,219,23.3,204,24.5,193c-2.5,2.4-5.5,4.6-8.5,6
	c18.8-45.4,46.2-89.1,81-123.7c16.9-16.8,35.4-31.9,54.9-45.7C162.5,22.1,187.8,12.1,194.8,0.5z M23.2,217.2
	C25.2,215.9,22.4,218.4,23.2,217.2z M18.2,224.2C20.2,222.9,17.4,225.4,18.2,224.2z"/>
<path fill="#53CCEE" stroke="#53CCEE" stroke-width="0.5" d="M107,1.5C113.7-4,143.4,0,154,0c-17.4,14.6-61.7,30-69.5,54
	c1.7-1.8,3.3-2.7,5.5-3C70.5,93.5,14.3,115.3,3.5,164C2,164.5,1,162.1,0,165c0-51,0.6-75.7,42.1-111.4C54.7,42.8,107,18.6,107,1.5z
	 M85,55C88.6,55,81.4,55,85,55z M23.5,124.8C25.1,120.6,22.2,127.9,23.5,124.8z"/>
<path fill="#52CCEE" stroke="#52CCEE" stroke-width="0.5" d="M0,50.5C0,21.1-10.9,7.4,18.9-1.2C42.6-8.1,84,0,109,0
	C80.1,36.1,20.7,54,2,101c-0.7,0-1.3,0-2,0C0,84.2,0,67.3,0,50.5z"/>
<path fill="#56CBEE" stroke="#56CBEE" stroke-width="0.5" d="M97.8,434.5L99,431c9.3,12.2-3.3,65-2.7,81.5
	c0.7,18.8,1.5,39.9,4.3,58.3c1.1,7.3,8.7,26,7.8,31.4c-3.3,21.1-21.4,28.2-34.8,44.3c-8,9.7-11.5,20.4-22.6,28
	c-14.3,9.9-35.5,9.1-47.6,22.4c-0.9-1.1-2.1-1-3.5,0c0-46.8,0.6-93.5,1-140.3c0.1-11.9-3.3-30.2,0.5-41.7c3.2-9.8,41.9-38,36.5-51
	c16.8,2.7,5.4-32.8,23-28c-2.2,7.1-3,15.4-5,22.5c2.1,0.7,2.1,1.3,0,2c7.9,3.9,14.8-3.7,15.5,7.5c1-0.8,1.7-0.9,3-1c0.3,1,0.7,2,1,3
	C83.2,460.3,93.5,446,97.8,434.5z"/>
<path fill="#53CCEE" stroke="#53CCEE" stroke-width="0.5" d="M153.8,0.5C166.6-0.9,181.6,0,195,0c-25.8,33.4-75.2,50.9-105.2,82.6
	c-29.3,31-61.1,72.6-72.3,114.4c0.2,0.1,0.4,0.3,0.5,0.5c2.5-1.7,6.6-3.5,9-5.5c-5.2,9-14.5,24.1-16,37c0.7,0,1.3,0,2,0
	c0.2,9.2-4.7,23.2-12,29.5c3.5,2.7,2.8,5.3-1,7.5c0-12.9-4-101.4,3.5-102c1.7-8.7,19.7-35.5,19.7-35c-0.1-0.8,0.7-5,0.8-6
	c5.7,3.2,57.5-57.8,62-70.5c-0.5,0.5-1,1-1.5,1.5C92.5,29.4,140.9,22.1,153.8,0.5z M88.2,53L88,51c0.7,0,1.3,0,2,0
	C89.9,52.1,88.8,57.3,88.2,53z"/>
<path fill="#7FDBF5" stroke="#7FDBF5" stroke-width="0.5" d="M862.5,419c28.8,1.5,75.4,10,103.5,1c9,6.7-9.4,12.4-16,14.5
	c1.5,2.5,3,4.9,4.5,7.4c-1.8,8.4-76.6,22-87.3,24.5c-47.7,11.2-93.5,28-139.2,45.6c-1-0.7-3.3-1.4-5-1.5c0.7-0.7,1.3-1.3,2-2
	c-2.2-0.8-2-1.8,0-3c-26.8-2.7-54-3-81-3c0.7-0.3,1.3-0.7,2-1c-13.5-3.5,49-25.8,57-28c14.9-4.2,141.5-31.3,126-51
	c6.5,2.3,14.7,4.3,14-2c-2.3-0.5-4.7-1-7-1.5C841.2,421.6,855.7,417.6,862.5,419z"/>
<path fill="#6BD5F2" stroke="#6BD5F2" stroke-width="0.5" d="M1331.5,86c10.9,25.3,1.4,56.9,1.5,83.5c0,20.1,8.9,49.3,0.6,68.1
	c-9.8,22.4-32.1,22.3-52.5,34.3c-29.3,17.3-51.5,44.3-82.1,60c0.1-7.7,10.9-9.9,12.7-17c-3.6-4.6-7.9-8.6-12.8-11.8
	c3.6-4.7,6.5-9.7,8.7-15.2c-14.7-18.5-64.7-30.8-84.4-36.8c-26.5-8-53.7-12.2-81.2-13.8c-25.2-1.4-60.1,8.6-83.9,3.1
	c-22.7-5.2-21.7-5.6,2.2-13.4c48.1-15.7,101.7,9.8,149.3,4.4c40.7-4.6,84.5-47.2,115.6-70.5C1249.9,142.3,1298.5,86,1331.5,86z"/>
<path fill="#53CCEE" stroke="#53CCEE" stroke-width="0.5" d="M1186.5,303c4.7,7.9,27.3-7.8,19.5,20.5c-3.5,12.6-41.2,42.2-51,45.5
	c2,2.7,5,7,8,11c-20.3,19.4-53.6,6.8-77.5,10.2C1051.3,395,1041,409,1030,363c-0.5,1-3.1,3.9-4,6
	C910.8,306.2,1186.5,224.4,1186.5,303z M1017,346c2.2,1,4,1,6,0c0,1-0.4,1.8-1,2.5c1.4,1.6,3.6-0.9,3,2.5c-6,1.8-10.4,0.2-13.2-4.8
	C1013,344.6,1014.7,344.6,1017,346z M1032,361.5C1033.1,360.4,1029.9,363.6,1032,361.5z M1111.2,389.8
	C1109.9,387.8,1112.4,390.6,1111.2,389.8z"/>
<path fill="#53CCEE" stroke="#53CCEE" stroke-width="0.5" d="M234.5,420c-13.2,17.8,50.9,15.5,61.5,16c0,0.2,0,0.3,0,0.5
	c-16.6,2.4-76.2-8.6-90,0.5c17.5-46,37.3-91.9,60.9-135.2c22.4-41,23.5-41.6,46.6,0.5c18.8,34.4,43.5,51.8,5.1,76.5
	C303.2,388.8,251.8,420,234.5,420z"/>
<path fill="#68D3F1" stroke="#68D3F1" stroke-width="0.5" d="M335.5,171.8C348.1,173.1,483.6,237,479,245c1.4,0.8,2.5,1.1,3,2.5
	c-41.7,15.5-26.4,63.7-82.2,35.3C380.5,273,309.7,210.3,294,216c3.8-8,3.2-24.2,10-30.5c-1.1-0.9-1-2.1,0-3.5c-3.4,0.8-6.2,0.5-7-2
	c4.3,0.5,8.7-0.9,12-3.5c-2.2-1.1-4.5-1.8-6-4C318.9,169.4,317.6,161.1,335.5,171.8z M303.2,199.8c-0.3-0.4,0.2-0.8,0.3,0.2
	L303.2,199.8z"/>
<path fill="#78D7F4" stroke="#78D7F4" stroke-width="0.5" d="M1250.2,541c-1.3-1.3,16.8,7,16.8,6c0,8.1,58.3,26.3,64.8,39.4
	c7.4,15.1,1.2,45.1,1.2,61.3c0,31.8,0,63.5,0,95.3c-51.5-39.5-81.5-110.7-127-157.5c3.7-0.4,7.4-1.1,11-2c-4.1-1.4-8-3.9-11-7
	c2.7-0.3,5.3-2,8-2.5c-1.6-1.9-2.2-5.2-4-7c11.7,2.9,14.4-9.2,3-9.5c5.3-5.9,18.6-7.8,14-13C1234.1,541,1243.8,543.5,1250.2,541z"/>
<path fill="#58CCEE" stroke="#58CCEE" stroke-width="0.5" d="M116,429.2c1.7-0.4,3.3-0.8,5-1.2c5.8,12.8,4.2,23.3,3.5,37
	c6.4-7.4,5.9-24.3,17.5-27c-0.8,9.2-5.7,18.2-6.5,28c12-5.3-7.1,67.4-7.4,75.7c-0.2,9,12.2,13.5,10.9,22.3
	c-2.6,16.9-19.3,34.9-26.5,50c-0.3-2.3-1.7-2.3-3.5-1c4.7-26.7-12.7-65.3-13.5-94.1c-0.8-28.2,9.1-62.5,3.5-89.9
	C104.5,436.7,107.3,431.5,116,429.2z"/>
<path fill="#5BCEEF" stroke="#5BCEEF" stroke-width="0.5" d="M331,0.2C345.2-0.6,360.5,0,375,0c-47.6,29.1-88.9,49.5-128.5,90.2
	c-15.2,15.6-33.3,26.8-48.4,41.6c-11.8,11.5-19.2,34.7-38.1,36.7c-1.6-1.8-8.4,5.5-15,6.5c14.1-44.2,53.9-86.3,88.8-114.5
	C241.3,54.4,331,5,331,0.2z"/>
<path fill="#5BCEEF" stroke="#5BCEEF" stroke-width="0.5" d="M273.8,0.5C287.7-1.4,304.4,0,319,0c-47.6,32.4-98.9,59.9-142.3,98
	c-31.9,28.1-52.6,85.6-94.7,95c21.9-47.4,52.1-88.9,91.5-123.1c16.5-14.3,33.8-29.2,52.3-41C238.8,20.7,265.8,13.8,273.8,0.5z
	 M94.2,186.2C96.2,184.9,93.4,187.4,94.2,186.2z"/>
<path fill="#58CCEE" stroke="#58CCEE" stroke-width="0.5" d="M318.8,0.5C322.2,0,327-0.2,331,0c-47,28.2-98.3,53.4-133.8,96.6
	C169.9,130,156.1,182,106,186.5c26.9-47.4,56.4-79.4,99.3-113c20-15.7,41-32.3,63.2-44.9C282.4,20.7,309.9,15.4,318.8,0.5z
	 M177.2,116.8C175.9,114.8,178.4,117.6,177.2,116.8z"/>
<path fill="#58CCEE" stroke="#58CCEE" stroke-width="0.5" d="M250.8,0.5C257.9-0.1,266.4,0,274,0c-44.2,29.3-91.2,56.3-127.9,95.2
	C117.4,125.5,100.4,189.8,57,201c-7.5-29.4,58.2-96,77.2-114.8c17.4-17.3,36.8-34.1,56.7-48.5C206.1,26.7,240.9,16.9,250.8,0.5z
	 M130,97.2l1-0.2c-1.2,1.7-12.6,7-12.8,8C122.1,102.4,126.1,99.8,130,97.2z M83,187C86.6,187,80,187,83,187z"/>
<path fill="#67D2F1" stroke="#67D2F1" stroke-width="0.5" d="M478.8,245c24.8,31.1,86.5,54.2,119.2,79
	c-40.9-10.7-104.9,12.4-146.2-12.2C429.9,298.7,453.6,245,478.8,245z M590.2,323.8C588.9,321.8,591.4,324.6,590.2,323.8z"/>
<path fill="#71D6F3" stroke="#71D6F3" stroke-width="0.5" d="M1045,257c7,11.2-4.4,17.7,15,22c-32.3,22.4-67.8,76.8-92,21
	c4.8,0.6,7.3,2.7,6-5c-29.5,2.8-15.7-35.4,1.1-42.7C987,247.1,1037.4,241.8,1045,257z M982.2,317.8
	C980.9,315.8,983.4,318.6,982.2,317.8z"/>
<path fill="#70D7F3" stroke="#70D7F3" stroke-width="0.5" d="M1053.8,441.8c0.1,4.7,29.7,14.3,21.2,27.4c-8.6,13.3-26.2-6.7-34.3-7
	c-10.1-0.3-25.7,9.4-37.4,11.1c-46.1,6.6-89.6,11.7-134,27c-45.5,15.7-84.4,42.2-128.3,60.6c24.9-29.5,80.8-43.9,114-65.5
	c-2.7,0-5.3,0-8,0c16-12.2,26.6-24.3,40.5-32.3c9.7-5.5,64.9-14.3,67.1-21.4c-1.5-2.4-3-4.9-4.6-7.3c7.7-2.7,21.7-6.4,16-15
	c14,4.9,22.9,2.6,37.8,4.1c-2.2-0.2,16.6,2.5,11.2,4.6c8.5-3.2,9.6-12.9,21.4-12.4C1047.4,416.2,1062.4,428.9,1053.8,441.8z"/>
<path fill="#7BD9F5" stroke="#7BD9F5" stroke-width="0.5" d="M1206.8,287.2c8.6,36.8-55.8-8.4-61.3-9.6c-18.1-4-95.8,11.3-104.5-6.6
	c31.5-10.9-88.9-41.6-83-9c-11.4-9-23.2-9-30-24c1.9,0.1,3,1.1,3.5,3c2.5-1.3,5.3-0.6,8.5,1.5c-1.8-1.8-3.2-4.1-4-6.5
	c12.4,16,109.2,0.9,130.4,3.4C1115.7,245.2,1165.2,259.5,1206.8,287.2z"/>
<path fill="#56CBEE" stroke="#56CBEE" stroke-width="0.5" d="M185,451h3c1.8-9.5-8.7,31-8.5,29c0.4-3.6,1.6,14.4,2.3,11
	c-3.8,12.5-17.6,27.6-22.8,41.8c-3.7,10.1-7.5,44.4-24,43.2c5.2-16.9,12.4-34.5,15.5-52c-1.5,1.8-3.4,3.2-5.5,4
	C146.8,512.6,166.2,451,185,451z"/>
<path fill="#50CAED" stroke="#50CAED" stroke-width="0.5" d="M234,319.5c1.4,0.2,2.8,0,4-0.5c-12.6,28.1-19.9,60.4-32.4,87.2
	C197,425,189.8,430.5,188,451c-9.7-2.8-9.2,10.5-17.8,7.8c-20-6.2,6.9-79.4,11.1-88.2c6.1-12.9,16.2-38.3,29-46.2
	C225.3,315.1,218.1,319.5,234,319.5z M203.2,397C202.8,394.8,204.1,399.8,203.2,397z"/>
<path fill="#65D2F1" stroke="#65D2F1" stroke-width="0.5" d="M1331,248.2l2-0.2c0,25.6-20.6,40.6-40.7,53.5
	c-10.2,6.5-23.1,10-32.7,16.4c-14.6,9.6-22,23.8-35.8,34.2c-9.9,7.4-60.9,44.1-66.8,19c-1.3,0.3-2.7,0.7-4,1
	C1191.2,329.5,1272.8,256.9,1331,248.2z"/>
<path fill="#4BC7EC" stroke="#4BC7EC" stroke-width="0.5" d="M204.8,277l2.2-2c13.1,6.3-30.4,93.5-39,111.5c2.2,0.6,3.1-1,3.5-3.5
	c0.3,1,0.7,2,1,3c1.9-2.2,4.3-4.4,6.5-6c-7,24.1-18.2,43.3-32.5,63c-2.7-0.4-4.7-1.8-6.5-5c-9.8,3.5-9.2,20.6-15.5,27
	c0.6-13.7,2.5-24.3-3.5-37c-8.4,2.9-13.2,6.3-21,5c0.1-1.4-0.4-3.3-1-4c20.1-24,40.5-33.3,55.5-62.9
	C169.9,335.7,177.9,300.4,204.8,277z M190.2,308c1.9,2.1,2.6,4.5,2,7.2c-0.9,3.2-7.5-3.2-7.6-2.7C184.5,313.3,188.8,301,190.2,308z"
	/>
<path fill="#4DA7C3" stroke="#4DA7C3" stroke-width="0.5" d="M374.8,0.5C386.6-0.9,400.6,0,413,0c-38.1,23.5-80.2,38.1-115,67
	c-29.2,24.1-65.2,83-106,86.5c5.8-5.7,10.3-13.9,12-21.5c-1.5-0.5-3.4-0.2-5-0.5c5-10.3,31.6-25.9,39.8-34
	c16.7-16.4,31-34.6,49.5-49C306.7,34.3,363.3,19.7,374.8,0.5z M212,140h1C210.8,143.3,209.5,144.9,212,140z"/>
<path fill="#4AC7EC" stroke="#4AC7EC" stroke-width="0.5" d="M295,213.8c12.6-1.1-4.1,34.6-7.2,43.2c-7.7,21.1-19,66.3-41.3,78
	c-0.7-0.7-1.3-1.3-2-2c0.9,2.3,0.1,3.7-2.5,4c-2-10.4,6.4-18.3,9-28c-3.2,0.3-5.7,1-8,2C257.3,280.2,274.2,240.5,295,213.8z"/>
<path fill="#67D2F1" stroke="#67D2F1" stroke-width="0.5" d="M1331.5,268.2l1.5-0.2c0,20.3,9,51.7-2.8,69.5
	c-9.8,14.8-33.8,21.9-49.7,30.1c-14.2,7.3-124.4,34.8-124.5,31.4c1.7-0.4,3.3-1.1,5-1.5c-2.4-0.1-4.7,0-7,0.5
	c4.1-8.2,13.6-12.3,22-16.5c-0.7-0.3-1.3-0.7-2-1c28.3-18.6,52.9-38.6,80.4-58.3C1274.1,308.1,1308.4,272.8,1331.5,268.2z"/>
<path fill="#7EDBF5" stroke="#7EDBF5" stroke-width="0.5" d="M583,177.8c17.8-2.6,62,25.5,79.4,33.9c7.2,3.4,48.9,23.4,43.6,26.3
	c0,16.9,95.9,49.1,109,62c-3.6-0.9-6.9-0.3-8.5,2c-9.6-2.8-29.3-12.1-38.5-9.5c1.8,1.6,2.7,3.8,4,5.5c-14.7-6.8-92-48.7-85-56.5
	C673.4,231.4,576.8,194.1,583,177.8z M759.2,267C760.1,264.1,758.5,270.4,759.2,267z"/>
<path fill="#73D7F3" stroke="#73D7F3" stroke-width="0.5" d="M510.5,215.8c34.7,10.1,62.5,36.3,92.4,55.3
	c28.2,18,60.2,31.5,85.1,54.4c-3,0.3-6,0.9-9,1c1.3,1.7,1.2,2.8,3.5,3.5c0,0.3,0,0.7,0,1c-39.3-13.3-78.6-42.5-114.7-62.9
	c-4.9-2.8-73.2-41.8-69.7-43.7c2.9-1.5,4.9-3.9,7.4-4.4c0.2-0.9,0.2-1.8-0.5-2C506,215.6,508.1,214.4,510.5,215.8z"/>
<path fill="#61D1F0" stroke="#61D1F0" stroke-width="0.5" d="M293,155.8c-0.2,0.3-0.6,0.6-1,0.7c12.4-2.2,10.2,10.9,24,9.5
	c-3.1,3.3-8.3,5.7-13,6.5c1.5,2.2,3.8,2.9,6,4c-3,1.9-6.5,3.7-10,5c1.7,0.2,3.3,0.4,5,0.5c-1,1.4-1.1,2.6,0,3.5
	c-5.1,4.8-6.9,11.4,0,14c-4.2,3.1-6.7,4.7-8,10.5c-7.6-3.5-6.7,2.4-12.2,6.2c6.6-4.5-10.3,11-9,9.6c-17,18.2-29.3,40.7-42.7,66.2
	c-14.5,27.5-36.7,75.6-59.6,94c-0.3-1-0.7-2-1-3c-0.4,2.5-1.3,4-3.5,3.5c24.4-51.6,45.9-106.8,63-160.5C191.7,230,293,144,293,155.8
	z M214.2,278.2C216.2,276.9,213.4,279.4,214.2,278.2z"/>
<path fill="#90E0F8" stroke="#90E0F8" stroke-width="0.5" d="M1161.5,487.8c2.1,1.7,4.5,2.9,7.5,3.7c-2.1-4.9,7.9-1.5,12,3.5
	c-6.4,7.3,43.1,35.7,53,36.5c-0.1,0.3-2,3.5-2,3.5c0,1.5,16.3,0.8,20,1c-1.3,11.5-16.4,4.3-25,8.5c4.8,5.4-8.8,7.4-14,13
	c2.5,0.8,5.1,1.6,7.6,2.4c5,17.4-58.2-6.2-61.9-8.4c-21.2-12.5-37.5-30-52.1-49.6c-4.2-5.7-31-39-10.5-37.2
	c8.5,0.7,12.7,15.7,20,19.5C1131.8,492.2,1145.1,484.5,1161.5,487.8z M1093.2,464c3.1,1.3,5.6,3.3,7.6,6
	C1097.7,468.7,1095.2,466.7,1093.2,464z M1157.2,487.8C1155.9,485.8,1158.4,488.6,1157.2,487.8z M1229.5,534l-1.5,0.5
	C1228.7,533.9,1230.6,533.6,1229.5,534z"/>
<path fill="#86DCF6" stroke="#86DCF6" stroke-width="0.5" d="M330,68.2c1,0.2,30.5,33.2,32.8,21.8c-5.4,17.9-40.4,33.1-55.8,37.5
	c2,0.3,4,0.7,6,1c-2,0.5-4.2,0.6-6,1.5c-7.2,3.6-18.8,28.6-31.2,36.2c-14.2,8.7-48.2,18.8-64.8,18.8c-0.2-1.5-0.3-3-0.2-4.5
	c-5.9-3.7-56.3,90.9-68.8,95.5c0-2.3-1-3.7-2-5.5c18.4-3.9-7-20.9-16-21.5c0.5-6.7-13.4,1.2-19,2c0.7-2.9,1.7-5.9,3-8.5
	c-1.7,0.8-3.4,1.8-5,2.5c2.5-4.6,6.5-8.8,8.5-14c-2.5,2.9-5.5,5.3-9,7c-0.1-2.3,0.1-4.6,0.5-6.5c-7.2,1-11.7,6.5-16.5,10.5
	c0.4-2.4,1.7-4.6,3.5-6.5c-2.5,0.7-4.6,2-6,3.5c2.9-4.3,7.2-8.6,9.5-13c-1.2,1.4-2.8,2.5-4.5,3c5.4-8,19.7-26.6,21.5-37
	c-3.1,0-6-0.6-8.5-3c1.2-2,3.5-6.1,5.5-8c-0.6,1.8-0.7,3.6-1.5,5.5c14.1-1.3,32.3-6.6,41-16.5c0.2,11.9,13-3.5,15.5-8
	c-0.3,2.3-1.2,4.7-2.5,6.5c8.9-1,38-42.7,44-36.5c-1.8,8.4-5.8,15.5-12,21.5c9-0.3,15.5-9.2,21-13.5c-0.9,1.9-1.4,3.9-1.5,6
	c8.9-5.4,16.2-13.8,24-19c-0.5,3.2-2.7,3.9-4.5,6.5c10.4-1.8,20.5-12.7,28-19.5C270.3,118.8,313.8,73.1,330,68.2z M257,117.2
	c0.1-0.2,0.6-0.3,1-0.2C257.6,117.7,257.2,118.1,257,117.2z M110.8,200.8C108.9,197.7,112,202.9,110.8,200.8z M106.5,205.8
	c6.2-2.1,8.2,14.2,4.5,14.2C103,220,105.5,209.3,106.5,205.8z M103,207.2C106.5,206.5,96.7,209.1,103,207.2z M99.8,213.8
	C100.2,211.1,99.7,214.3,99.8,213.8z M102.2,228.2C104.2,226.9,101.4,229.4,102.2,228.2z M104,231C104,227.4,104,234.6,104,231z
	 M108.2,239.2C110.2,237.9,107.4,240.4,108.2,239.2z"/>
<path fill="#7895A3" stroke="#7895A3" stroke-width="0.5" d="M1013,358c5.5,1.1,8.8,7.5,13,11c1.7-2.6,3.8-4.6,6.5-6
	c-17.4,52.3,54.3,27.9,72.3,25.6c8.1-1,66.6,0.1,69.2-8.1c0.7,0.3,1.3,0.7,2,1c-8.4,4.8-16.9,8.8-22,16.5c2.3-0.5,4.6-0.6,7-0.5
	c-1.6,0.7-3.3,1.1-5,1.5c0.4,3.6,2,2.1,5,2c-0.7,1.1-1.8,2-3,2.5c1.9,1,3.9,1.7,6,2c-2.1-1-2.3,2.4-2,3.5c2.5-0.6,5.7,0.2,8,0
	c-7.2,14-8.1,15.6-26,17c2.8,6.3,2.8,13.5-4,16c5.9,5.7,6,15.9,1,21.5c9.4,8.6,22.4,21.8,28,28c-22.2-15.3-62.8-5.9-85.9-23.4
	c-5.1-3.9-21.4-17.2-24.3-21.8c0,0-5.1-18.5-7.4-19.9c-18.2-11.7-11-6-30.3-4.6c2.3-0.2-14.1,1.5-17.4,1.9
	c-32.6,3.8-63.7-3.6-97.8-5.6c1-0.1,2-0.3,3-0.5c-13.7-1.6-5.1-9,4-4c-0.8-0.8-1.7-1.7-2.5-2.5c0.8-1.3,1.9-2.1,3-1
	c0.2-1,0.4-2,0.5-3c-3.3-0.4-4.4-2.3-5-6c19.4,2.7,25.3-7.1,37.8-7.9c19.1-1.3,38.1,16.5,57.2,6.4c-1.9-1.4-3.7-3-5-5
	c9-5.4,9.4-16.5,17-22.5c-3.3-4.5-8-8.4-12-12.5C1009,362.6,1009.1,358,1013,358z M1005.2,401.8c-0.2-0.4-0.1-0.7,0.3-0.8
	C1005.6,401.4,1005.5,401.6,1005.2,401.8z M1094.5,464c-12.2-10.9,5.2,5.1,6.3,5.5C1098.7,467.7,1096.6,465.8,1094.5,464z
	 M1154.2,487.8C1152.9,485.8,1155.4,488.6,1154.2,487.8z"/>
<path fill="#95E3F9" stroke="#95E3F9" stroke-width="0.5" d="M678.8,194c0.1-1.3,0.1-2.7,0.2-4c11.9-0.4,6.5,9,12.2,11.7
	c5.4,2.5,14.1-1.7,19.9,0.6c8.6,3.3,39.4,24.6,39.3,1.8c17,16.4,32.4,34.5,49,52c24.6,25.8,61.8,51.9,83.5,80.5
	c-26-6.1-56.4-29.6-79-45.5c2.2-3.9-54.9-44.9-60.1-49C725.7,227.4,677.4,213.1,678.8,194z M749.2,210.8
	C747.9,208.8,750.4,211.6,749.2,210.8z M754,210.2c0.9,0.6,8,5.8,6.2,7C756.4,222.9,749.1,209.2,754,210.2z M760,222
	C760,218.4,760,225.6,760,222z M795.2,254.8c0.1,5,1.9,11.9-7.2-2.3c0.9-0.2,1.8-0.1,2.5,0.5C791.7,251.7,793.7,252.6,795.2,254.8z
	 M795,252C795,248.4,795,255.6,795,252z M854.2,315.8C852.9,313.8,855.4,316.6,854.2,315.8z"/>
<path fill="#52CCEE" stroke="#52CCEE" stroke-width="0.5" d="M248,309.2l3-0.2c-1.2,3.9-6.5,24.3-7.2,24.8c1-1.5,1.7,0.4,2.7,1.2
	c1-2.1,3-3.4,5.5-4c-22.5,46.5-40.1,95-62.5,141c-2.5-1.1-4.4-2.1-6.5-3.5c10.3-21.8,13.9-48.3,21.8-71
	C209.9,382.7,228.1,311.2,248,309.2z M205.2,395.2C207.2,393.9,204.4,396.4,205.2,395.2z"/>
<path fill="#4FCAED" stroke="#4FCAED" stroke-width="0.5" d="M103.2,231.2c-0.7,2.1-0.9,4.3-0.7,6.8c3.5-1.7,6.5-4.1,9-7
	c-7.3,18.9-34.6,70.2-53,79c0-1.7,0.1-3.4,0.5-5c-6.6,5.4-10.8,16.6-17.5,22c0.4-2.3,0.8-4.7,1-7c-6.3,10-13.4,23.4-19.5,31
	c0.3-2,0.1-4.1-0.5-6c-6.2,4.6-7.3,15.3-14.5,16c0.4-1.3,0.6-2.6,0.5-4c-0.9,2.1-2.3,3.4-4.5,3.5c1.3-3.7,1.7-8.3,1-12.5
	c-1.3-0.1-2.5,0.3-3.5,1c-6.1-21.1-3.6-32.7,7.7-50.5c3.5-5.4,20.9-28.1,21.3-17.5c11-14,29.1-31.3,44.5-40c-0.8,11,12.6-5.4,16-8
	c-1.8,2.9-3.4,6.1-4.5,9C90.7,237.5,100.4,233,103.2,231.2z M71.2,246.2C73.2,244.9,70.4,247.4,71.2,246.2z M53.2,260.2l0.3-0.2
	c-0.2,3.1-1.7,5.4-4.5,6.8C49.9,264.3,51.3,262.1,53.2,260.2z M60.2,301.2c1.2,0.2,1.6,1.3,1.3,2.8c-0.7-0.6-1.6-1.1-2.5-1.5
	C59.5,302.1,59.9,301.7,60.2,301.2z"/>
<path fill="#7EDBF5" stroke="#7EDBF5" stroke-width="0.5" d="M642,234.8l-1-2.8c11.2,6.3,25.2,16.8,38,20c-0.4-4.1,0-7.9,3.5-5
	c4.9-2.7,63.7,32.6,69.4,37.2c6.2,2.9,11.7,6.7,16.6,11.5c0.7,5.5,0.5,10.9-0.5,16.4c9,8.9,20.9,12,32,17.5c0,0.2,0,0.3,0,0.5
	c-4.9-1-1.3,2.2-3.5,4c-46.6-36.8-118.4-47.6-155.5-97C642.5,237.6,642.8,236.9,642,234.8z M647.5,238.2
	C646.3,235.4,648.2,240,647.5,238.2z"/>
<path fill="#6FD4F2" stroke="#6FD4F2" stroke-width="0.5" d="M517,205.2c45.7,20.9,87.6,53.1,130.9,79.2
	c22.6,13.6,45.6,26.7,69.1,38.8c14.8,7.7,59.5,19,65.1,37.8c-49.2-0.9-116.6-46.2-155-73.7c-27.7-19.8-56.1-37.8-85.6-54.9
	C536.8,229.7,496.2,211.4,517,205.2z M517,210.2c2.1,0,3.3,0.8,3,2.8C518.2,212.9,515.2,209.8,517,210.2z M703.2,330.8
	C701.9,328.8,704.4,331.6,703.2,330.8z"/>
<path fill="#5CCEEF" stroke="#5CCEEF" stroke-width="0.5" d="M412.8,0.5C415.6,0,419.7-0.2,423,0c-37.3,19.1-74.1,39.8-107.8,64.8
	c-26.3,19.5-53.9,61-85.2,69.7c20-37.8,71.2-74.3,106.8-96C353.5,28.3,402.9,16.9,412.8,0.5z"/>
<path fill="#70D7F3" stroke="#70D7F3" stroke-width="0.5" d="M520.8,200.5l0.2-0.5c90.2,46.3,185.7,93.1,263,154.5
	c-15.3,2.6-49-21.1-62.2-27.8c-28.6-14.5-56.3-31.2-83.4-48.3C626.7,271,518.5,203.2,520.8,200.5z"/>
<path fill="#82DDF6" stroke="#82DDF6" stroke-width="0.5" d="M867.5,167v1c-1.3-0.6-1.9-1.6-3.5-0.5c2.3,1.7,1.7,3.3,3,5.5
	c-27.3-6.9-61.9-43.6-84.7-60c-25.4-18.3-45.8-40.3-69.8-59c0.9,2.6,2.5,5,4.5,7c-17.4-8.4-27.8-31.2-42-41.5c6.3,0.9,14,2.6,21,1
	c-2.4-1.5-4-3.3-5-6C736.1-3.1,867.5,125.7,867.5,167z M694.2,14.8C692.9,12.8,695.4,15.6,694.2,14.8z M696,16c2.4-0.6,4.4,0.1,6,2
	C699.6,18.6,697.6,17.9,696,16z M708.2,19.8C706.9,17.8,709.4,20.6,708.2,19.8z M710.2,20.8C708.9,18.8,711.4,21.6,710.2,20.8z
	 M717.2,21.8C715.9,19.8,718.4,22.6,717.2,21.8z M691,23.5c0.4,0.3,0.7,0.6,1,1C689.4,24.9,691.2,23.7,691,23.5z M694,38
	C694,34.4,694,41.6,694,38z M730.2,73.8c-0.2-0.4-0.1-0.7,0.3-0.8C730.6,73.4,730.5,73.6,730.2,73.8z M732,76
	C732,72.4,732,79.6,732,76z M744,81C744,77.4,744,84.6,744,81z M760.5,93.2C758.3,91.7,766.6,97.6,760.5,93.2z M813.2,135.8
	C811.9,133.8,814.4,136.6,813.2,135.8z M860,154C863.6,154,856.4,154,860,154z M864.2,170.8C862.9,168.8,865.4,171.6,864.2,170.8z"
	/>
<path fill="#59CFEF" stroke="#59CFEF" stroke-width="0.5" d="M768.8,291.8c10.9,1.1,30.1,4.8,37.7,10.2
	c25.2-21.7,104.8,67.3,125.5,75.5c-0.3,0.3-0.7,0.7-1,1c2.2,0.7,3.6,2.3,4,4.5c-41.2-16.5-82.4-25.1-123.2-47.2
	c-10.8-5.9-34.2-12.9-40.4-24.3C768.9,307,772.4,297.6,768.8,291.8z"/>
<path fill="#6AD4F2" stroke="#6AD4F2" stroke-width="0.5" d="M389.8,158.5c9.2,1.6,21.3,7,32.7,10.5c-6.2,14.9,72,36,85.5,52
	c-4.7-1-5-2.5-5,3c0,18.8-67.1-17.6-69.8-18.7c-32-13.5-65.3-19.3-97.2-33.3c6.9-10.2,33.7,4.2,26-11.5
	C367.7,160.9,386,164.9,389.8,158.5z M379.2,187.8C377.9,185.8,380.4,188.6,379.2,187.8z"/>
<path fill="#73D7F3" stroke="#73D7F3" stroke-width="0.5" d="M450.8,155c6.9,6.8,42.4,12,53.2,16.1c26.4,10.1,53,17,78.7,28.5
	c21.9,9.9,92.3,37.8,93.3,68.4c-40.6-23.9-82.4-45.5-124.4-66.7c-17.5-8.8-35-18.1-53.1-25.7c-13.1-5.5-48.7-8.8-57.5-20.6
	c3.1,1.6,6.3,2.4,10,2.5C449.6,156.7,450.4,156.3,450.8,155z M644.2,235.8C642.9,233.8,645.4,236.6,644.2,235.8z M641,238v-1
	C647.4,240.3,648.1,241,641,238z"/>
<path fill="#4AC7EC" stroke="#4AC7EC" stroke-width="0.5" d="M47,350.2c13-2.1-14.2,81.5-13.8,98.4c0.2,10.7-2.6,69.9-31.7,66.4
	C-7.7,495.7,0,449.3,0,427c0.2,0,0.3,0,0.5,0c0.3,2,0.6,4,1,6C5.6,415.8,30.2,351.2,47,350.2z"/>
<path fill="#50CAED" stroke="#50CAED" stroke-width="0.5" d="M122.8,250.5c11-4.6,34.6,16.3,17.2,20c1.2,1.7,2,3.3,2,5.5
	c14.8-2.4-4.6,40.5-5.8,44c-10.6,30.6-18.3,61.4-26.2,93c0.7,0,1.3,0,2,0c-9.8,18.6-23.7,40.3-36.5,57c-0.3-1-0.7-2-1-3
	c-1.3,0-1.9,0.2-3,1c-0.7-11.1-7.6-3.8-15.5-7.5c2.1-0.7,2.1-1.3,0-2c9.5-35.4,16.6-71.3,31.9-104.8c5.2-11.4,24.4-67.8,35.1-73.2
	c0.1,1-1.5,3.1-1.5,4.5C134.3,280.4,114.2,260.4,122.8,250.5z M145.2,283.2C147.2,281.9,144.4,284.4,145.2,283.2z"/>
<path fill="#A0E7FB" stroke="#A0E7FB" stroke-width="0.5" d="M916.5,296.8c10.5-0.3,50.4,39.4,53.5,7.2c6.6,12.4,37,45.3,53,42
	c0,1-0.4,1.8-1,2.5c1.5,1.5,3.5-0.8,3,2.5c-5.8,1.5-9.5,0.5-12.5-4c-1.4,4,0.9,6.5,3.5,11c-8.2,1.7-4.3,9.5,0,14
	c-8.5,4.6-8.7,16.4-17,22.5c2,2.3,4.4,5.5,7,7c-27.3-3.3-64-0.2-86-21c5,1.6,15.9,3.7,11-2c0.3-0.3,0.7-0.7,1-1
	c-7.2-3.2-45.6-41.6-23-35.5c-4.2-12.7,5.6-11.3,15.5-9c1.4-7.3-4-18.6,5.5-17.5c-5.2-5.5-18.5-14.8-18.5-21
	C913.2,295.3,914.8,296,916.5,296.8z M920,299C920,295.4,920,302.6,920,299z M981.2,318.8C979.9,316.8,982.4,319.6,981.2,318.8z
	 M983.2,321.8C981.9,319.8,984.4,322.6,983.2,321.8z M1004.2,359.8l-0.2-0.3C1009.5,362.5,1009.6,362.6,1004.2,359.8z"/>
<path fill="#63D0F0" stroke="#63D0F0" stroke-width="0.5" d="M387.8,191c26.7,18.7,60.3,25.9,89.3,40.1
	c38.3,18.7,73.8,43.7,109,67.5C655.1,345.2,729.3,378.7,807,408c0,0.2,0,0.3,0,0.5c-14.6,0.7-57.1-19.8-65-11.5
	c-89.9-30.7-187.3-95.5-263-152c7.1-13-93.2-45.4-106-58C378.9,189,382.9,191,387.8,191z"/>
<path fill="#67D2F1" stroke="#67D2F1" stroke-width="0.5" d="M491,231.2V231c119.8,73,239.6,160.8,380,186
	c-19.8,14.4-80.5-13.7-99.4-20.8c-45.2-17.1-89.1-39.4-130.5-64.4c-42.9-25.9-83.9-55-127.2-80.2c-39.1-22.8-89.7-34.9-125.9-60.6
	C399.2,190.4,491,224.3,491,231.2z"/>
<path fill="#96E4F9" stroke="#96E4F9" stroke-width="0.5" d="M857,244c1.4,1.1,3.7,3.2,5.5,5c1.3-1.9,2.5-3.8,3.8-5.7
	c13,1,36.2,34.8,46.7,42.2c-2,0-4,0-6,0c4.3,5.7,16.6,17.6,19,24.8c2.4,7-2.5,17.5,1,23.7c-7.4-2.9-21-2.2-18,8
	c-3.9,0.2-6.9,1.1-11,3c0,0.7,0,1.3,0,2c1,0,1.9,0.3,2.8,0.8c-6.9,1.9-19.3-9.7-27.8-12.8c0-0.7,0-1.3,0-2c3,1.3,6.5,2,10,3.5
	c-13.8-18.9-27.6-27.3-37.7-48.3c-4.9-10.2-4.5-33.2-8.3-41.2c0.7,0,1.3,0,2,0c2.1,4.4,5.2,5.3,8,7.5c-1.5-2.1-3.2-4.1-5-6
	c1.3,0,2.7,0,4,0C831,233,857,242.1,857,244z M849.2,287.8c0.7-0.3,1.3,0,1.8,0.7C850.9,288.5,847.7,288.2,849.2,287.8z M910.2,294
	c2.4,0.5,4.3,1.9,5.6,4C913.4,297.5,911.5,296.1,910.2,294z M851.2,305.8c-0.2-0.4-0.1-0.7,0.3-0.8
	C851.6,305.4,851.5,305.6,851.2,305.8z M926.2,314.8C924.9,312.8,927.4,315.6,926.2,314.8z M857.2,316.8
	C855.9,314.8,858.4,317.6,857.2,316.8z"/>
<path fill="#66BCD6" stroke="#66BCD6" stroke-width="0.5" d="M554.2,174.8l-0.2-0.3c7.8-0.6,23.9,11.5,26,3.5c0.7,0,1.3,0,2,0
	c-1.7,21.3,89.9,52.3,105,63.5c-2.2,1.7-3.2,3-4.5,5.5c-3.5-3-3.8,1.1-3.5,5C642.3,242.8,572.7,205,554.2,174.8z M561.2,183l0.3-1
	c0.5,0.5,1,1,1.5,1.5C562.2,184.1,561.6,183.9,561.2,183z"/>
<path fill="#A0E7FB" stroke="#A0E7FB" stroke-width="0.5" d="M1332,464.2l1-0.2c0,45.9-62.3,80.8-105,70.5c1.7-1.4,3.8-2.4,6-3
	c-13-1-50.1-23.6-55-36.5c26.3-3.7,49.6-5,76.2-4.8c28.8,0.2,31.5-3.7,54.3-17.4c-0.3,0.2,10.8-1.4,9-0.6
	C1325,469.3,1325.6,466.1,1332,464.2z M1329.2,470.8C1327.9,468.8,1330.4,471.6,1329.2,470.8z M1185,502
	C1185,498.4,1185,505.6,1185,502z M1233.2,533.8C1231.9,531.8,1234.4,534.6,1233.2,533.8z"/>
<path fill="#4FCAED" stroke="#4FCAED" stroke-width="0.5" d="M220.8,219c1.1,5.2,4.6,7.9,10.2,7c-10.2,33.1-35.9,51.2-49,81
	c15.8-2,9.8,16.9-0.5,2c-22.9,34.9-26.2,91.7-71.5,104c2.5-10.1,12.5-70.7,20.5-66c0.5-3,2.7-4.5,6-5c-7.9,27.2,13.8,7.3,18.6,1.9
	c7.9-8.8,14.4-33.6,15-44.7c0.5-8.9-9.4-13.5-8.6-23.4c1.3-16.4,10.5-29.7,16-44.8C179.8,234.2,213.2,219,220.8,219z M200.8,229
	c-0.3,1.4-1.3,1.9-2.8,1.5C198.3,229.8,201.3,226.7,200.8,229z"/>
<path fill="#7BD9F5" stroke="#7BD9F5" stroke-width="0.5" d="M800,284c1.9,1.6,3.8,3.1,5.8,4.7c-0.2,0.7-67-27.3-75.5-32
	c-8.5-4.7-52-35.9-45.2-48.7C731.1,217.7,759.7,263.8,800,284z"/>
<path fill="#77D9F4" stroke="#77D9F4" stroke-width="0.5" d="M416.5,83.2L422,83c0.7-0.9,88-0.9,77,21c28.5,5.7,56.3,17.1,84.5,24.5
	c4.3,1.1,39.5,13.6,29.5,16.5c13.8,14.1,11.5,32.7-11,21c-2.4,15-31.3-6.1-31.5-14c-14,8.5-59.7-21.4-71.3-26
	c-34-13.6-64-25.4-103.2-27c0.5-3.2-0.9-5.1-4-5.5c1.6-3.1,3.9-5.4,7-7c-3-0.3-6-0.7-9-1C398.7,83.8,407.6,83.7,416.5,83.2z
	 M558.5,147.2l1.5,0.3C557.7,149.1,556.9,147,558.5,147.2z M591,164.5C596.3,161.9,588.6,165.7,591,164.5z"/>
<path fill="#70D7F3" stroke="#70D7F3" stroke-width="0.5" d="M573,164v-2c1.9,0.3,20.1,3.1,20.2,2.8C592,175.1,601,177,602,166
	c16.2,8.3,30.9-1.8,48.3,8c8.4,4.7,18.5,20.2,25,27.3c2.3,2.4,23.5,26.1,22.7,26.7c-10,7.7-103.3-46.2-113-51
	C587.6,170.5,577.4,167.2,573,164z M638.2,170.8C636.9,168.8,639.4,171.6,638.2,170.8z M640.2,171.8
	C638.9,169.8,641.4,172.6,640.2,171.8z"/>
<path fill="#50CAED" stroke="#50CAED" stroke-width="0.5" d="M124.2,248.5c-3.8,10-0.3,28.4-3,37.8c-1.7,5.7-9.4,18.6-12.8,26.6
	C96,342.6,83.2,371,72.8,401.5c-5.1,14.9-31.1,82.7-40.5,50.2c-2.5-8.7,3.8-43,5.7-51.7c2.8-12.8,12-23.5,16-36.1
	c1.6-5-2.1-11.7-1.5-13.8c8-23.8,24.1-47.9,36-70.1c3.5-6.5,9.6-25.2,16.4-29.2C108.2,249.2,125.5,246.4,124.2,248.5z M120.8,280.8
	c0.5-0.4,1.4-0.5,2.2-0.3C121.6,282.4,117.8,288.4,120.8,280.8z M37.2,408.2C39.2,406.9,36.4,409.4,37.2,408.2z"/>
<path fill="#FFFFFF" stroke="#FFFFFF" stroke-width="0.5" d="M1219,453.8c9.6,0.3,18.4,3.3,28,3.7c-2.7,0.4-4.5,1.8-5,4
	c2.7,0.6,5.3,1.2,8,1.5c0,0.7,0,1.3,0,2c-7.1-0.8-9,0.9-4,6.5c-2.6,0.9-5.3,1.5-8,2c2,0.3,4,0.7,6,1c-3,0.4-5.9,1.3-9,1.5
	c0,0.7,0,1.3,0,2c3.8,0.4,5.7,1.7,9,2.5c-4.8,1.4-64,10.7-64,16.5c-3.1-2.5-7-5.7-10-8c-1.6,0.9-2.4,1.7-4,2c0.1-1.7,0.9-2.1,2-3.5
	C1153.8,469.3,1207.6,452.7,1219,453.8z"/>
<path fill="#75D8F4" stroke="#75D8F4" stroke-width="0.5" d="M459,165v-3c46.5,12.7,89.8,41.7,131.3,65.4
	c47.5,27.2,98.3,53.3,143.7,83.6c-2.5,1.4-3.1,0.1-4.5,0c-0.2,0.7-0.4,1.3-0.5,2c1.8-0.4,2.4,0.2,2,2
	c-50.3-22.6-96.3-53.6-144.3-80.5c-40-22.4-85.5-55.9-131.7-62.5C455.9,169.7,459,167.3,459,165z"/>
<path fill="#63D0F0" stroke="#63D0F0" stroke-width="0.5" d="M497.5,228.2c31.8,10.4,57.3,33.5,85.7,50.4
	c29.7,17.7,61.7,31.3,91.5,48.8c25,14.7,46.7,31.7,73.5,43.4c18.8,8.3,65.2,14.4,77.8,32.2c-43.6,11.2-127-45.8-162.7-66
	c-58.6-33.2-114.8-70.8-172.3-106C493.1,228.6,495.1,229.6,497.5,228.2z"/>
<path fill="#6FD4F2" stroke="#6FD4F2" stroke-width="0.5" d="M429,41.8c9.3,14.7,62.9,13,78.9,16.3c24.9,5.1,107.2,4.9,118.1,30.4
	c1.7,0,2.4,0.8,2,2.5c-2-0.8-3.9-1.3-6-1.5c0.9,3.5-63.2-6.2-69-7c-29.6-3.8-102.4-16.7-129-1c4.3,0.3,8.7,0.7,13,1
	c-21.2,0.5-40.8,7.8-60,5.5C384.8,77.1,414.1,38.9,429,41.8z M416.8,79.8c6.1,1.7,5.3,1.8-0.8,0.7C416.2,80.2,416.5,80,416.8,79.8z
	 M564.2,83.8C562.9,81.8,565.4,84.6,564.2,83.8z M392,85c8.9-0.3,4.1,0-2,0.5L392,85z"/>
<path fill="#86DCF6" stroke="#86DCF6" stroke-width="0.5" d="M577.5,2.8C584.8-8.8,684.3-8.5,675,19.5c7.3,4.1,60.6,55.8,54.2,59.3
	c-2.6-1.6-5.1-3.2-7.7-4.8c0.9,1.6,1.9,4.3,3,6C716.8,79.3,577.1,4.8,577.5,2.8z M672.5,10.2C674.7,10.6,667.6,9.5,672.5,10.2z
	 M601,16C601,13.6,601,19.5,601,16z M661.2,41.8C659.9,39.8,662.4,42.6,661.2,41.8z M692.2,42.8C690.9,40.8,693.4,43.6,692.2,42.8z
	 M712.2,55.8c2.3,1.2,3.9,2.9,4.8,5.2C708.2,56.5,706.6,54.7,712.2,55.8z M729.2,74.8C727.9,72.8,730.4,75.6,729.2,74.8z"/>
<path fill="#4AC7EC" stroke="#4AC7EC" stroke-width="0.5" d="M106.8,239c10.3,19.7-41.7,90-53.8,105.4C32.4,370.5,9,397.2,1.5,433
	c-7-25.8-1.5-61.7-1.5-89c0.2,0,0.3,0,0.5,0c0.3,1.7,0.6,3.4,1,5c1-0.7,2.2-1.1,3.5-1c1.6,4.1,1.2,8.6-1,12.5
	c2.2-0.1,3.6-1.4,4.5-3.5c4.3,9.7,8-7.7,14-12c7.4,6.1,16-18.7,20-25c9.5,10,13-24.1,19-16c-0.3-0.3-0.7-0.7-1-1
	c-1.3,2.3-1.2,4.7,0,7C63.4,306.1,97.8,239,106.8,239z M101.2,259.2C103.2,257.9,100.4,260.4,101.2,259.2z M58.2,309.2
	c0.4-0.2,0.7-0.1,0.8,0.3C58.6,309.6,58.4,309.5,58.2,309.2z M42,324h1c-0.1,1.2-0.6,2.3-1.5,3C40.9,325.9,41.1,324.9,42,324z
	 M18.2,392.2C20.2,390.9,17.4,393.4,18.2,392.2z"/>
<path fill="#86DCF6" stroke="#86DCF6" stroke-width="0.5" d="M580,5.5c49.2,15.7,94.5,41.4,132,77c-4.2-1.8-9-2.3-14-2
	c0.4,2.4,1.7,3.3,3,5c-5.8-2.1-10.4-1.5-11.5,4.5c-3-2-5.7-4.3-8-7c0.1,5.5,18.4,26.5,11.2,30.2c-14.1,7.2-55.7-36.2-67.6-44.5
	c-11.9-8.3-23.3-13.2-32-24.8C591.1,41.3,580.7,5.5,580,5.5z M592.2,14.8C590.9,12.8,593.4,15.6,592.2,14.8z M583.5,20
	c2.6,0.4,4.7,1.8,6.3,4C587.2,23.6,585.1,22.2,583.5,20z M678.2,53.8C676.9,51.8,679.4,54.6,678.2,53.8z M621,63
	C621,59.4,621,66.6,621,63z M692.8,81.2l-0.3-1.2C694,81.6,693,82.7,692.8,81.2z M688,103C688,99.4,688,106.6,688,103z M692.2,111.8
	C690.9,109.8,693.4,112.6,692.2,111.8z"/>
<path fill="#61D1F0" stroke="#61D1F0" stroke-width="0.5" d="M1332.5,341.2l0.5-0.2c0,23-6.9,26.8-23.9,39.9
	c-12.5,9.6-40.8,36.8-56.1,39.1c-1.2,7.9-82.1-12.6-91-11c-1-3.3,0.9-2.1,2-3.5c-2.1-0.3-4.1-1-6-2c20-18.4,57.5-12.9,81.7-19.2
	C1270.5,376.3,1305.3,357.5,1332.5,341.2z"/>
<path fill="#6ED4F2" stroke="#6ED4F2" stroke-width="0.5" d="M391,117c25.5-8.6,88.2,36.9,109,12c12.4,2.4,48.6,23.2,60,18.5
	c-11.2,10.1,1.4,9.9,10.5,4.5c0.1,7.2,7.1,9.2,12.5,12c-3.3-0.8-6.6-1.5-10-2c1,5.4,6.5,7.3,13,8c1.7,17.5-65.2-6.6-75.7-8.5
	c-40.8-7.6-86.2-21.5-125.3-37c7.1-2,16.8,1.6,21-3.5C403.5,120.3,391,117.6,391,117z M545.2,162.8
	C543.9,160.8,546.4,163.6,545.2,162.8z M583.2,171.8C581.9,169.8,584.4,172.6,583.2,171.8z"/>
<path fill="#8BDDF7" stroke="#8BDDF7" stroke-width="0.5" d="M1330.5,430.8c12.4,7.3-3.6,32.3-3.3,34.7c10.5,4-14.7,7.3-16.2,8
	c-18.1,8.4-20.8,16.6-42.9,18.4c-14.7,1.2-28.7-5.5-43.1-3.9c1.6-9.6,11.6-5.2,19-7.5c-3.5-0.8-4.9-2.1-9-2.5c0-0.7,0-1.3,0-2
	c3.1-0.2,6-1.2,9-1.5c-2-0.3-4-0.7-6-1c2.7-0.5,5.4-1.1,8-2c-4.8-5.6-3.2-7.4,4-6.5c0-0.7,0-1.3,0-2c-2.7-0.3-5.3-0.9-8-1.5
	c0.4-2.3,2.1-3.6,5-4c-8.6-0.4-16.5-2.3-25-3.5c0-0.2,0-0.3,0-0.5c9.5-0.9,39.4-8.7,39-14c6-2.1,70-11.8,70-12.5
	C1331,428.2,1323.2,429.9,1330.5,430.8z M1297.8,433.8C1299.3,432.8,1298.4,432.9,1297.8,433.8z M1267.2,439.8
	c-0.3-0.4,0.2-0.8,0.3,0.2L1267.2,439.8z"/>
<path fill="#5FD0F0" stroke="#5FD0F0" stroke-width="0.5" d="M423,0.2C428,0,433.7,0,439,0c-63.3,33.4-117.8,88.1-182,117.5
	c19.5-35.4,68.6-67,102.8-86.3C366.6,27.3,423,5.9,423,0.2z"/>
<path fill="#76D9F4" stroke="#76D9F4" stroke-width="0.5" d="M530.2,193l0.8-2c45.2,22.5,103.5,43.6,142.5,76c0.9-1.8,1.6-3.9,2-6
	c13.7,19.9,53.8,43,78.5,48.5c-6.1,2-1.6,4.3-2,8C736.5,314.8,526.7,203.1,530.2,193z"/>
<path fill="#59CFEF" stroke="#59CFEF" stroke-width="0.5" d="M750.8,310.8c12.3-0.9,35.1,14.9,45.7,23.2
	c3-7.3,135.7,53.2,144.5,58.5c-11.5,38.4-156-40-157-38c-13.2-10.4-49-26.2-54.5-43.5c6.7,0.3,14.8,5.2,22.5,6.5
	C750.2,315.7,749.9,313.2,750.8,310.8z"/>
<path fill="#4DA7C3" stroke="#4DA7C3" stroke-width="0.5" d="M234,0.2C239.3,0,245.4,0,251,0c-34.2,22.2-116.4,60.5-130,102
	c3.5-1.6,6.5-3.1,10-5c-16.8,20.9-37.2,36.2-51.7,59.9C72,168.7,60.8,205.1,44,204.5c4.2-12.4,10.6-25.2,17-37c-3.1,0.7-6.2,2-9,3.5
	c8.3-40.1,72.1-93.7,102.8-117.8C166,44.3,234,10.9,234,0.2z M118.2,103.8c-0.3-0.4,0.2-0.8,0.3,0.2L118.2,103.8z"/>
<path fill="#97E1F9" stroke="#97E1F9" stroke-width="0.5" d="M882,232l0.5-1c13.8,5,30.5,5.6,45.5,7c6.5,13.4,19.2,16.4,30,24
	c-8.4,7.8,5.6,33.8,16,33c1.6,5.7-1,5.7-5,7.5c8.5,30.2-56.3-8.9-62-17c2,0,4,0,6,0c-12.7-10.4-25.2-28.3-40-35.5
	c0.1-0.7,0.3-1.3,0.5-2c2.7,2.6,3.1,0.2,6.5,0.5c-0.3-0.3-0.7-0.7-1-1c0.7-0.3,1.3-0.7,2-1C879.7,239.9,880.8,234.3,882,232z
	 M967.2,307.8C965.9,305.8,968.4,308.6,967.2,307.8z"/>
<path fill="#8BDDF7" stroke="#8BDDF7" stroke-width="0.5" d="M706.8,75.5c13.2,4.1,20.3,25,36.2,30c-9.1,9.5,44.5,57.5,14,61
	c2.7,1.9,4.9,4.6,6,7.5c-3-2.7-6.3-3.9-8.5-8c0,0.1-1.4,1.5-1.5,1.5c2.9,2.1,3.3,4.8,5,7.5c-1-0.5-1.8-1.2-2.5-2
	c-1.9,0.1-6.6-1.8-10.5-4.5c3,2.9,5.7,6.6,7,9.5c-1,0-1.8-0.4-2.5-1c-0.2,0.7-0.4,1.3-0.5,2c-12.1-9.7-28.6-15-38.7-27.1
	c-8.7-10.4-11.9-25.7-20.3-36.9c1.5-2.7,3-3.9,6-2.5c-5.7-9.7-11.4-21.8-17-29.5c3.8,1.6,7.4,4,10.5,7c-0.1-2.7-1-5.1-2.5-7
	c3.9,2,6.2,1.5,5.5-3c2,3.4,4.9,5.4,8.5,5.5c-1.5-1.4-2.7-2.8-3-5c3,0.2,4.2-2.9,5.5-3.5c2.2,3,5.2,5,8.5,5.5
	C709.5,80.8,705.5,77.7,706.8,75.5z M691.5,102.8C690,101,695.4,107.2,691.5,102.8z"/>
<path fill="#65D2F1" stroke="#65D2F1" stroke-width="0.5" d="M100,189.2c3.2,1.1,7.2,2.2,10.5,2.8c0.8,2.1-3,28,0.5,28
	c-23.2,0-15.6,19-40,27c1.6-1.7,3.1-3.8,4-6c-9.8,5.5-21.5,14-28,23.5c2.6-0.4,4.9-2.1,6.5-4.5c-1.4,10.3-16.5,14.2-23,21
	c-3.7-2-25.3,15.5-30.5,24c0-10.8-5.1-34.7,3.5-42c-0.6-2.2-1.6-0.4-3.5,0c2-4.3,12.7-18.5,11.8-23c-1-0.2-2-0.3-3-0.2
	C4.4,228,41.8,202.1,48,194c-0.8,3.6-2.2,7.3-4,10.5c7.4,0.2,11.8-4.9,14.5-10.5c-0.2,2.4-0.7,4.7-1.5,7c9.8-2.6,20.3-5.8,26.5-14
	c0.2,0.7,0.4,1.3,0.5,2c-1.3,1-2,2.3-2,4C89.1,190.2,93.6,190.2,100,189.2z M97,214.8l-1,0.2c0.2-0.4,13-12.4,13-9
	C106,210.3,102,213.2,97,214.8z M108.2,214.2C110.2,212.9,107.4,215.4,108.2,214.2z M90,227C93,227,86.3,227,90,227z M17.8,230.2
	l1.7-0.2C18.9,230.5,16.8,230.4,17.8,230.2z"/>
<path fill="#53CCEE" stroke="#53CCEE" stroke-width="0.5" d="M158.5,427.2l3.5-6.2c15.9,14.7,5,53.3-1.4,71
	c-0.8,2.4-21.3,35.7-10.1,32c-2,12.9-8.5,29-12,40c0.5-8.8-6.5-5.2-8.7-12.2c-4-12.7,4.1-24.8,6-36.9c1.5-9.6,8.6-52.9-0.3-48.9
	c0.5-6.7,4.9-26.1,11-23C150.5,438.1,155.4,432.9,158.5,427.2z"/>
<path fill="#78D7F4" stroke="#78D7F4" stroke-width="0.5" d="M377,84.2c4.1,3.9,9.5,7.5,18,4.8c-0.5,1.7-1.6,3.3-3,4.5
	c4.2,6.9,12.8,13.8,2,19c1.2,0.4,9,3.8,9,3.3c-3.6-0.2-8.1,0.5-12,0.2c3.8,1.9,9.9,3.7,15,5c-3.9,5.3-14.1,1.6-21,3.5
	c5.5,2.2,81.5,15.2,65,32c0.3,0.3,0.7,0.7,1,1c-3.7-0.1-6.9-0.9-10-2.5c0,0.7,0,1.3,0,2c-18-3.1-33.6,2.2-51-1
	c-3.5,9.2-19.6,5.1-28,4.5c7.8,15.7-19.1,1.2-26,11.5c-12.6-4-31-14.3-44-15.5c9.1-8.8,8.2-24.6,21-28c-2-0.3-4-0.7-6-1
	C334.3,121.5,351.4,88,377,84.2z M326,117C329.6,117,322.4,117,326,117z"/>
<path fill="#A0E7FB" stroke="#A0E7FB" stroke-width="0.5" d="M1170,409.2c1.7,0.2,60,19.9,60,9.8c-1,0.7-2,1.3-3,2
	c0,1.6,24.6-6.3,27-2.2c-1.8,1.7-4,2.6-6.5,2.7c-0.8,1.7-4.1,2.9-2.5,7c-0.7,0.3-1.3,0.7-2,1c0.7,0.3,1.3,0.7,2,1
	c-0.3,0.3-0.7,0.7-1,1c8,2,19.9-1.1,23,6.5c-2.2-0.3-4.4,0.2-6,1.5c2.3,0,4.7,0,7,0c-9.2,1.1-124.4,30.2-98,50
	c-10.2,1.6-22.4-19.6-29-26c5-5.6,4.9-15.8-1-21.5c6.6-2.6,6.6-9.6,4-16C1160.8,424.7,1163.9,423,1170,409.2z M1166.5,488.8
	c-0.6-0.4-0.2-1.1,0.5,0.2L1166.5,488.8z"/>
<path fill="#78D7F4" stroke="#78D7F4" stroke-width="0.5" d="M577,8.2V8c10.8,14.2,10.4,24.1,17,39c-38.3-5.4-91.7-5.4-130-1
	c0,0.7,0,1.3,0,2c7.3,0.1,14.7,0.3,22,0.5c-9.9,2.2-60.7,0.3-55-8c-1-0.3-2-0.7-3-1c18.7-15.2,31.8-10.4,55-18
	c-1,1.1-2.5,1.5-3.5,2.5c2.7-2.7,2.5,7,1.5,4.5C495.8,33.4,577,38.4,577,8.2z M581.5,21.2c-1.7-4,6.7,3.3,4.5,2
	C584.3,24,582.8,23.3,581.5,21.2z M563,25.2c0.8,0.2,1.5,0.6,2,1.3C562.6,26.9,562,25,563,25.2z M587.5,44.5
	C586.6,43.9,591.8,47.4,587.5,44.5z"/>
<path fill="#79D8F4" stroke="#79D8F4" stroke-width="0.5" d="M493,0.2c27.8-1,56.8-0.2,85-0.2c1.4,12.3-21.1,20.2-13,26.5
	c-28.5-0.8-55.1,11.7-84,2c1.9-1.7,0.7-3.9-1.5-6.5c-10.3,4.8-24.8,5.4-36.5,6.5C451.9,24.2,493,4.1,493,0.2z M482.2,21.8
	c-0.3-0.4,0.2-0.8,0.3,0.2L482.2,21.8z M555,22C558.1,22,552.1,22,555,22z M557.2,23.8C557.5,24.3,560,25.7,557.2,23.8z"/>
<path fill="#9DE4FA" stroke="#9DE4FA" stroke-width="0.5" d="M1330.8,483.8c0.6-0.5,1.4-0.8,2.2-0.8c0,33,0,66,0,99
	c-18.7-15-45.9-17.6-63.5-31.5c-15.8-12.5-20.2-6.3-7.7-21.3c5.4-6.5,27.8-6.3,36-10.7C1315.5,509.1,1316.3,493.4,1330.8,483.8z
	 M1328.2,487.8C1326.9,485.8,1329.4,488.6,1328.2,487.8z M1326.2,492C1325.8,489.8,1327.1,494.8,1326.2,492z M1319.2,503.8
	C1317.9,501.8,1320.4,504.6,1319.2,503.8z"/>
<path fill="#66BCD6" stroke="#66BCD6" stroke-width="0.5" d="M439,0.2C456.5-0.7,475.2,0,493,0c-21.8,8.9-47.6,24.7-65,39.5
	c1,0.3,2,0.7,3,1c-19.5,7.1-29.2,25.5-47.2,36.3c-12.3,7.4-16.2,17-33.2,12.2c-8.5-2.4-9.3-16.2-19.6-17
	C330.5,35.2,439,19.9,439,0.2z M333.2,69.8C331.9,67.8,334.4,70.6,333.2,69.8z"/>
<path fill="#65D2F1" stroke="#65D2F1" stroke-width="0.5" d="M1332.5,364.2l0.5-0.2c0,22.3,0,44.7,0,67c-26-11.7-60.6,8.7-89,0.5
	c0.3-0.3,0.7-0.7,1-1c-0.7-0.3-1.3-0.7-2-1c0.7-0.3,1.3-0.7,2-1C1241,417.7,1321.1,371.1,1332.5,364.2z M1329.5,427.2
	C1327.7,426.4,1332.8,429,1329.5,427.2z"/>
<path fill="#57CCEE" stroke="#57CCEE" stroke-width="0.5" d="M688,325.2V325c38.2,17.1,75.9,26.6,110.6,36.2
	c32.7,9.1,80.7,43.8,110.4,39.8c0.9,3,2.8,5.2,5,6c-0.1,1-0.3,2-0.5,3c-1-1.1-2.1-0.4-3,1c0.8,0.8,1.7,1.7,2.5,2.5
	c-9.1-5-17.7,2.4-4,4c-16.7,6.4-73.9-1.9-88-13.5c1.5-0.6,3.2-0.6,5-1c-12.2-17.2-47.5-20-65.8-27.8c-13.1-5.6-74.5-30.2-77.2-44.7
	c-2-0.5-3.3-1.9-4-4C682,326.3,685.5,325.8,688,325.2z"/>
<path fill="#90E0F8" stroke="#90E0F8" stroke-width="0.5" d="M792,124.2l-2-2.2c31.8,19.2,65.9,37.8,89.3,67.5
	c9.5,12.1,41.1,54.8,3.2,41.5c-0.3,1.3-1.2,2.2-2.5,2.5c-1.2,4.3-1.1,9.3,1,13c-0.7,0.3-1.3,0.7-2,1c0.3,0.3,0.7,0.7,1,1
	c-7.1,2.3-15.9-5.2-21-9c1.4,1.2,2.5,2.8,3,4.5c-44.9-25-47.9-85.1-73-119C790.1,125.6,794.8,127.4,792,124.2z M824.2,143.8
	C822.9,141.8,825.4,144.6,824.2,143.8z M840,158C840,154.4,840,161.6,840,158z M817.2,185.8C815.9,183.8,818.4,186.6,817.2,185.8z
	 M884.2,202l-0.2-1c1.1,1.3,3.3,1.5,4.2,3.8C887.1,204.1,885.9,203.7,884.2,202z M878.2,230.8C876.9,228.8,879.4,231.6,878.2,230.8z
	"/>
<path fill="#8BDDF7" stroke="#8BDDF7" stroke-width="0.5" d="M720.2,73.5c19.9,9,112,59,84.4,93.1c-16.3,20.1-73-49.1-61.6-61.1
	c-12.7-3.5-29.8-20.4-35-31c5,2,11,4.6,17,5C723.9,78.7,718.6,72.8,720.2,73.5z M712,79C712,75.4,712,82.6,712,79z M757.2,93
	c1.6-0.4,2.8,0.3,3.6,2C759.2,95.4,758,94.7,757.2,93z M789.2,125.8C787.9,123.8,790.4,126.6,789.2,125.8z M769,153
	C769,149.4,769,156.6,769,153z M796.2,168.8C794.9,166.8,797.4,169.6,796.2,168.8z"/>
<path fill="#85DCF6" stroke="#85DCF6" stroke-width="0.5" d="M767.8,152.5l0.2-1.5c10.4,11.2,23.1,22.6,37,17
	c13.7,26.1,41.3,55.5,59,76c-0.7,1.6-1.2,3.3-1.5,5c-11.2-13-36.6-14.4-47-28c0.7,3.9,2,6.8,4.5,10c-25.1-13.6-49.7-41.8-67-63.5
	C760.3,166.9,767.1,156,767.8,152.5z M770.2,155.8C768.9,153.8,771.4,156.6,770.2,155.8z M760.8,170.2c1.2,1,1.9,2.2,2.2,3.8
	C760,172.8,757.4,168,760.8,170.2z M797.2,171.8C795.9,169.8,798.4,172.6,797.2,171.8z M816.2,186.8
	C814.9,184.8,817.4,187.6,816.2,186.8z M860,243C860,240,860,246.7,860,243z"/>
<path fill="#71D6F3" stroke="#71D6F3" stroke-width="0.5" d="M439.5,156.8c6.9,2.8,12.4,7.5,19.5,5.2c-0.6,3.7-1.8,7.2-4,10
	c23,3.5,45.1,18.5,66,28c-0.5,2.3-6.9,8.1-7,9c4.2,0.4,4.4,3.1,6,4c-6.7-2.9-11.8-4.1-7,3c-11.4,3.9-95.5-35-90.5-47
	c-9.4-1.7-27.5-6.3-32.5-13C407.4,158.3,421.9,153.3,439.5,156.8z"/>
<path fill="#71D6F3" stroke="#71D6F3" stroke-width="0.5" d="M499.2,94l-0.2-1c19.7,6.6,127,17,127,49c-2.6,0.5-5.4,1.9-8,2
	C597.4,112,511.1,133.8,499.2,94z M572.5,116.2C571.3,113.4,573.2,118,572.5,116.2z"/>
<path fill="#95E3F9" stroke="#95E3F9" stroke-width="0.5" d="M825.8,251.2c10.1-7,8.9-0.1,11.2,3.8c3.4,5.8,8.7,24.1,14,33.5
	c-12.3-2-4.8,11.8,1,17c-1.8-0.6-3.4-0.6-4,0.5c-20.2-16.2-44.2-32.4-60-53.5c0.9-0.2,1.8-0.1,2.5,0.5c0.3-0.7,0.7-1.3,1-2
	c2.5,2.6,5.2,4.9,8,7c-3.7-9-18.4-12.8-18.5-23C792.6,232.1,815.6,244.4,825.8,251.2z M794.2,249c2.4,0.5,4.3,1.9,5.6,4
	C797.4,252.5,795.5,251.1,794.2,249z M795.5,257.8C790.7,252.5,802.9,265.8,795.5,257.8z"/>
<path fill="#78D7F4" stroke="#78D7F4" stroke-width="0.5" d="M619.5,92.5c3.7,0.4,4.9-0.5,2.5-3c13.2-7.7,29,17.6,29,23.5
	c1,0.7,2,1.3,3,2c0,0.1-3.3,9.4-4,11c-2.8-0.1-6-0.5-8.5-1c-0.1,1.7,0,3.4,0.5,5c-8.7,0.3-50.9-6.6-57-14.5
	c-4.5-5.9,3.9-15.4,1.2-20.4c-3.4-6.3-8-2-13.2-8.1C589.2,85.1,603.8,92.5,619.5,92.5z M626,90C626,86.1,626,94,626,90z
	 M649.5,108.8C648.7,106.8,651.8,114.2,649.5,108.8z M643.2,124.8c-0.3-0.4,0.2-0.8,0.3,0.2L643.2,124.8z"/>
<path fill="#90E0F8" stroke="#90E0F8" stroke-width="0.5" d="M745.2,168.8l-0.2-0.3c21.4,7.7,35.6,26.5,52.9,40
	c16.2,12.8,37.6,21.1,48.1,40c-1.3,0-2.7,0-4,0c1.8,1.9,3.5,3.9,5,6c-2.8-1-5-2.7-7.5-5.5c-3.1,3.4-4.1-0.1-10.5,4
	c-16.3-8.4-77.6-18.1-77-44c3.9,2.3,7.4,5.3,10.5,9c-1-2.9-2.9-5.7-5.5-8c1.4-4.8,0.1-35.8-7.5-33
	C749.5,173.5,748,170.7,745.2,168.8z M759.2,206.8C757.9,204.8,760.4,207.6,759.2,206.8z M815,223c2,2.7,3.4,4.9,5,8
	C812.6,227.3,813.3,218.4,815,223z M802,238C805.5,238,799.6,238,802,238z M804.2,240.8C802.9,238.8,805.4,241.6,804.2,240.8z"/>
<path fill="#53CCEE" stroke="#53CCEE" stroke-width="0.5" d="M168.8,246.5l1.2-1.5c-2.9,10.2-5.4,20.6-7.5,31
	c1.2,6.6,3.7,12.7,7.6,18.2c-0.3,10.7-1.5,16.3-4.5,27.1c-1.1,3.9-9,29.3-13.6,31.5c-7.8,3.9-20.4,5.4-15.5-10.8c-3.3,0.5-5.5,2-6,5
	c-1-1.6-2.1-2.2-3.5-1C134.3,314,147.3,271.3,168.8,246.5z"/>
<path fill="#6AD4F2" stroke="#6AD4F2" stroke-width="0.5" d="M705,176c1.3,0.5,2.5,1.2,3.5,2c-0.1-1.3-3.8-27.3,0.5-27.5
	c7.2-0.3,17.6,15.2,21,20.5c-7.4,3.7-38.5,17.2-42,24c-0.8-1.7-4.2-4.2-4-4c-1.5,0-3.3-1-5-1c0.2,6.3-1.8,8.5-4,12
	c-6.7-5.5-15.4-12.7-22-19.5c1.5-0.1-33-23.1-40-37.5C643.2,136.3,678.5,162.8,705,176z M634.2,167
	C635.1,164.1,633.5,170.4,634.2,167z M716.2,178.8C714.9,176.8,717.4,179.6,716.2,178.8z"/>
<path fill="#70D7F3" stroke="#70D7F3" stroke-width="0.5" d="M572.5,89c23.9,0,6.1,12.7,13.5,27.5c-37.7,3.9-71.8-29.7-109-29
	c1.7-0.3,3.3-0.7,5-1c-20.7,0-41.3-0.1-62-1c3.9-3.4,10.4-3,17-3c-7.1-0.4-14.1-0.6-21-2C465.9,68.6,523.9,89,572.5,89z M563.2,85.8
	C561.9,83.8,564.4,86.6,563.2,85.8z"/>
<path fill="#76D9F4" stroke="#76D9F4" stroke-width="0.5" d="M504.8,55.8c30.6,0.9,112.8-3.3,125.7,30.2c-1-0.6-2-1.3-3-2
	c-0.2,1.1,0,2.1,0.5,3c-28.2-11.8-55.8-18.1-86-23.1C538.5,63.4,504.7,55.9,504.8,55.8z"/>
<path fill="#76D9F4" stroke="#76D9F4" stroke-width="0.5" d="M592.5,46.2L593,46c7.2,7.1,20.2,18.3,29,16.5c0.1,0.2,0.3,0.4,0.5,0.5
	c-1.6,2.1-0.4,2.6-0.5,5c-45.4-2.3-98.9-21.5-143-18c0-0.2,0-0.3,0-0.5c2.3-0.3,4.7-0.7,7-1c-7.3-0.2-14.7-0.4-22-0.5
	c0-0.7,0-1.3,0-2C499.4,42,562.7,63.1,592.5,46.2z M603,55C603,51.4,603,58.6,603,55z"/>
<path fill="#85DCF6" stroke="#85DCF6" stroke-width="0.5" d="M450.2,146l-0.2-1c23,4.5,42.1,15,64.9,16.3c22,1.2,25.8,2.6,46.1,14.2
	c-2.4,0-4.6-0.6-7-1c2.9,3.1,5.9,6.1,9,9c-3.5-0.1-5.7-0.9-8,2c1.8,1.1,4.4,3.1,6,4c-19.9-6.1-36.8-9.6-56.4-18.2
	c-10.7-4.7-47.2-9.7-53.6-17.3c1.2-2.6,1.4-4.7-1-5.5C450.8,147.8,450.5,147.1,450.2,146z"/>
<path fill="#63D0F0" stroke="#63D0F0" stroke-width="0.5" d="M246.5,176.8c1.5-0.2,2.6,0.2,3.5,1.2c-5.4,14.6-27.3,26.7-29,41
	c-4.8-0.5-18.5,7.9-23,11.5c0-19.5-12,12.3-20.5,0.5c1.6-0.6,12.7-25.7,15.9-29.5C208.1,183.8,222.4,173.9,246.5,176.8z
	 M216.2,181.8C214.9,179.8,217.4,182.6,216.2,181.8z M211,183C214.6,183,207.4,183,211,183z M203.2,190.8
	C201.9,188.8,204.4,191.6,203.2,190.8z"/>
<path fill="#8EC7DC" stroke="#8EC7DC" stroke-width="0.5" d="M714.5,158c11-0.1,38.8,18.3,43.7,29.2c3,6.6,1.9,28.8-7.7,16.8
	c0.1,1.8,0.6,3.3,1.5,5c-14,14.3-58.8-8.2-68-17.5c0,0,0-1,0-1c18.5,1.5,28.6-14.9,44-18C725.4,169.1,713.7,159.6,714.5,158z
	 M727.2,167.8C731,169.9,727.9,167.6,727.2,167.8z"/>
<path fill="#66BCD6" stroke="#66BCD6" stroke-width="0.5" d="M636.5,129.8c23.7,3.8,50.7,19.6,74.5,26.2c-3,3.8-1.3,21.2,0,23
	c-22.1-10-45.8-17.6-67.2-29.1c-12.1-6.5-29.1-26-41.8-28.9C613.5,115.5,624.9,128.8,636.5,129.8z M689.2,149.8
	C687.9,147.8,690.4,150.6,689.2,149.8z"/>
<path fill="#90E0F8" stroke="#90E0F8" stroke-width="0.5" d="M626,75.5V72c33.4,18.5,83.3,39.8,82,84c-3.1-2.9-65-26.5-66-26
	c-0.5-1.6-0.6-3.3-0.5-5c1,0.6,1.8,0.6,2,0c2.2,0.1,4.4,0.5,6.5,1c6.2-23.2-13.1-26.7-25-43c2,0.7,3.9,1.7,5.5,3
	C629.6,82.9,626,78.5,626,75.5z M628.2,77.8C626.9,75.8,629.4,78.6,628.2,77.8z M639,82C639,78.4,639,85.6,639,82z M654,108
	c2-0.8-5,7.3-5-2C651,105.6,652.7,106.2,654,108z M690.2,115.8C688.9,113.8,691.4,116.6,690.2,115.8z M698.2,124.8
	C696.9,122.8,699.4,125.6,698.2,124.8z"/>
<path fill="#53CCEE" stroke="#53CCEE" stroke-width="0.5" d="M295.5,209.8c-0.2,20.3-23.8,55.8-33.9,73.6
	c-6.1,10.7-13.3,28.2-25.7,32.8c-6.8,2.5-9.9-6.1-17.9-0.2C222.2,304.6,273.9,196.8,295.5,209.8z"/>
<path fill="#66BCD6" stroke="#66BCD6" stroke-width="0.5" d="M395.5,100.5c13.3-5.8,112.3,17.4,105.3,30
	c-9.7,17.6-97.8-13.2-106.8-18C401.5,107.8,393.5,106.6,395.5,100.5z"/>
</svg>
