<?xml version="1.0" encoding="utf-8"?>
<!-- Generator: Adobe Illustrator 21.0.0, SVG Export Plug-In . SVG Version: 6.00 Build 0)  -->
<svg version="1.2" baseProfile="tiny" id="Layer_1" xmlns="http://www.w3.org/2000/svg" xmlns:xlink="http://www.w3.org/1999/xlink"
	 x="0px" y="0px" viewBox="0 0 1333 750" xml:space="preserve">
<path fill="#B15CB4" stroke="#B15CB4" stroke-width="0.5" d="M669,3.5V0c221.3,0,442.7,0,664,0c0,28.7,0,57.3,0,86
	c-60.2,18.2-115.1,84.9-168.9,118.9c-61.6,38.9-81,17.1-155.7,19.3c-25.7,0.8-68.9-8.7-68.3,18.7c-4.9-2.5-8.4-3.6-12-4
	c0.3-0.2,0.3-0.6,0-1c-22.8,1.3-36.9-15-44-37c1.8,1.6,3.8,2.8,6,3.5c-9-10.9-19.4-22.5-29-32.5c5-4.1,2.9-3.4,6.5-4
	C843.1,105.2,758.5,23.8,691,14.5c1.3,2.3,2.9,4.1,5,6c-3.1,0.2-5,1.4-4,4c-6.7,0.9-12.3-1-16-5.5C674.5,15.5,669,7.4,669,3.5z
	 M693.2,12.8C692.2,10.9,694.3,13.3,693.2,12.8z M695.2,13.8C694.2,11.9,696.3,14.3,695.2,13.8z M697,15C697,11.4,697,18.6,697,15z
	 M682,21C682,17.4,682,24.6,682,21z M748.2,36.8C747.2,34.9,749.3,37.3,748.2,36.8z M867.2,179C866.8,176,869,185.3,867.2,179z
	 M891,208C891,204.4,891,211.6,891,208z M936.2,236.8C935.2,234.9,937.3,237.3,936.2,236.8z"/>
<path fill="#B666B9" stroke="#B666B9" stroke-width="0.5" d="M1076,467.5V466c3.1,1.7,6.6,2.5,10,2c19.8,32.2,39.4,64.1,74.2,83
	c17.8,9.7,43.1,6.5,53.8,23c-2.7,0.5-5.5,1.3-8,2.5c3,3.1,6.9,5.6,11,7c-3.6,0.9-7.3,1.5-11,2c38.4,44.3,110.4,110.1,127,164.5
	c-182,0-364,0-546,0c-56.7-12.3-76.5-53.1-83-113c-4.6-42.6,8.4-56.3,42-78.5c61.6-40.8,132.1-66.2,204.4-79.2
	C959.5,477.6,1076,458.8,1076,467.5z M1079.8,468.5C1081.6,467.8,1076.7,469.5,1079.8,468.5z"/>
<path fill="#901794" stroke="#901794" stroke-width="0.5" d="M226,562.8l6-3.8c-18.6,22.4-59.6,46.5-67,73c4.6,0.4,9.3-0.5,14,0
	c54.8,11.7,119.5,8.7,178,10c0,8.2-6.8,6.9-15,9.5c2.5-0.1,5.1,0.6,7,2c-1,0.3-2,0.7-3,1c61.6,20,156.9-30.6,215-53.5
	c2.6,1.5,4.5,4.3,4.5,7c-1.1,0.7-1.5,1.8-1,3c6-0.1,12.8-1.2,18.5-3c-0.2,1.7-0.9,3.3-2,4.5c1.7,0,3.3,0,5,0
	c-48.8,40.3-186.9,58.2-156,136C295.8,768.4,137,750,0,750c0-16-0.2-43.8,3.5-53c29.9-16,50.7-32.5,70.5-50c10-8.9,14.8-21,34.1-29
	c1.4-0.6,20.4,4.2,24.4,3C173.1,609.2,191.7,584.3,226,562.8z M561.2,604.2C563.1,603.2,560.7,605.3,561.2,604.2z M574.5,612.2
	l-2.5,0.3C575.2,611.1,578.8,611.9,574.5,612.2z M571,622c-1.2,0.6-2.6,0.7-4,0.5C570,620.6,577.7,619.1,571,622z"/>
<path fill="#A23DA6" stroke="#A23DA6" stroke-width="0.5" d="M875.5,461.2c0.1,10.8-14.4,25.9-28.5,34.3c2.7,0,5.3,0,8,0
	c-35.7,21.5-76.8,38.9-111,63.3c-35.5,25.3-44.6,36.1-40,78.2c6.6,61.2,25.7,100.6,83,113c-119.3,0-238.7,0-358,0
	c0.2-0.6,0.5-1.1,1-1.5c-29.6-69.6,95.8-101.8,145-126.5c-0.1-0.7-0.3-1.3-0.5-2c-2.1,1.8-4.7,2.7-7.5,2.5c6.2-3.2,12.9-6.7,19-10
	c-1.7,0-3.3,0-5,0c0.6-5.4-4.1-3.4-9,0c-0.8-2.2-5-2.5-10-0.5c3.8-3,5.1-5.7-1-7c21-26.7,94.7-54.1,125-71.8
	C740.7,501.3,814.1,468.4,875.5,461.2z M562.2,602.2C564.1,601.2,561.7,603.3,562.2,602.2z"/>
<path fill="#8A0A8E" stroke="#8A0A8E" stroke-width="0.5" d="M321.2,236l-1.2-4c82.5,53.8,133.9,87.3,228.5,90.5
	c76.7,2.6,134.8,52.9,208.5,80c-0.7,2.1-1.9,3.8-4,5c44.6,14.2-6.9,17.4-28.2,20.3c-63.3,8.5-141,27.1-202.8,26.2
	c7-6.6,17-13.6,26-18.5c-64.5,9.1-133.4,6.8-201,16.5c-1.4-3.6-0.1-5.5,4-5.5c1.2-22.2,108.3-20.7,125.6-49.2
	C504.5,351.1,341.4,296.5,321.2,236z M592.2,326.8C591.2,324.9,593.3,327.3,592.2,326.8z"/>
<path fill="#A23DA6" stroke="#A23DA6" stroke-width="0.5" d="M804.5,408.2l0.5-0.2c0.4,0.4,1.2,0.6,2,0.5c8.6,0.3,22.3,3.2,31,6.5
	c-3.6,4.6,0,5.7,5,5.5c-0.1,5.9-6.8,4.9-14,2c9.7,38.5-209.1,57.5-183,79c-0.7,0.3-1.3,0.7-2,1c27.1-0.4,53.9,2,81,3
	c-2,1.2-2.2,2.2,0,3c-0.7,0.7-1.3,1.3-2,2c4.4,14.4-295.7,85.6-314.4,88.5c-74.5,11.6-148.9,10.7-220.1,27.7
	c-11.6,2.8-15,5.8-25.5,4.3c19.3-25.1,46.9-47.5,68.8-71.5C255.4,533.4,303.5,432.6,348,444c0.7,0.7,2,1.7,3,2.5
	c-1.5,1.6-2.8,3.2-4,5c67.6-6.4,136.8-7.2,201-16c-9,4.9-19,11.9-26,18.5c59,0.4,127.7-18.4,188.4-25.5c19.2-2.2,93.9-4.7,42.6-21
	c2.2-1.2,3.4-2.8,4-5c-5.5-1.5-11.4-3.8-16-6.5C751.1,395.9,794.3,415,804.5,408.2z M731.2,428.8
	C730.2,426.9,732.3,429.3,731.2,428.8z"/>
<path fill="#9A2B9E" stroke="#9A2B9E" stroke-width="0.5" d="M303,217.5V216c9.7,9.4,13.7,17.7,21.8,27
	c40.1,46.4,93.4,74.2,136,115.8c64.3,62.8-69.5,59.6-112.8,85.2c-6.4-0.4-13.3-0.8-19-1c4.7-6.2,9.5-14.3,12.5-21
	c-20.2,9-88.9,29.8-106.9,7.1c-12.1-15.4,37.6-29.5,43.1-32.3c54.2-27.5,75.3-21.1,43.9-78.8c-9.1-16.8-22.7-42.9-33.9-53
	C282.4,265,298.5,224.5,303,217.5L303,217.5z"/>
<path fill="#941F98" stroke="#941F98" stroke-width="0.5" d="M677.5,532.8c16.3,12-89.3,56.7-114.5,67.7
	c-58.6,25.5-154.1,70.7-217,54c1-0.3,2-0.7,3-1c-1.8-1.5-4.5-2.2-7-2c8.1-2.8,15-1.2,15-9.5c-56.4-1.5-125.5,4.5-178-10
	c-2,0-4,0-6,0c60.3-19.8,114.8-19.6,179.9-25.6c68.7-6.3,138.6-19.6,203.9-41.6C596.6,551.4,634.3,531.3,677.5,532.8z"/>
<path fill="#8B0D90" stroke="#8B0D90" stroke-width="0.5" d="M336.8,422.8c1.4-0.1,3.4-0.4,4.7-0.8c-31,58.2-152.9,225.5-233.5,196
	c-0.2-3.2,0.9-5.5,4-6c0.1,0.7,0.3,1.3,0.5,2c5.7-23.9,26-28.9,32.9-40.9c16.9-29.8,34-82.8,44.2-101.1
	C198.9,401.2,290.5,455.1,336.8,422.8z"/>
<path fill="#901794" stroke="#901794" stroke-width="0.5" d="M194.8,0.5C207.3,0,221-0.2,234,0C154.6,39,108.7,105.9,52,168.5
	c2.9,0.9,6.1,0.4,9-1c-7.5,23.4-34.5,59.4-50,61.5c-0.1-1.3,0.3-2.5,1-3.5c1.5-4.1,8.6-22.8,12.5-32.5c-2.5,2.4-5.5,4.6-8.5,6
	c6.1-13.8,13.6-27.7,21-41.1C60.9,114.8,89.3,79.2,127.6,48C145.6,33.3,181.7,20.1,194.8,0.5z M23.2,217.2
	C25.1,216.2,22.7,218.3,23.2,217.2z M18.2,224.2C20.1,223.2,17.7,225.3,18.2,224.2z"/>
<path fill="#8E1292" stroke="#8E1292" stroke-width="0.5" d="M107,1.5V0c15.7,0,31.3,0,47,0c-21.8,16.1-53.5,32.9-69.5,54
	c1.7-1.8,3.3-2.7,5.5-3C64.3,86.6,15,120.9,3.5,164c-0.7-0.6-1.5-1-2.5-1c0.1,0.9-0.2,1.8-1,2c0-21.3,0-42.7,0-64
	C12.7,86.5,107,10.5,107,1.5z M85,55C88.6,55,81.4,55,85,55z M23.5,124.8C24.9,120.6,22.3,128,23.5,124.8z"/>
<path fill="#8C0F91" stroke="#8C0F91" stroke-width="0.5" d="M0,50.5V0c36.3,0,72.7,0,109,0C73.5,32.4,30.9,65.4,0,101V50.5z"/>
<path fill="#901794" stroke="#901794" stroke-width="0.5" d="M97.8,434.5L99,431c7,23.7-3.4,56.3-3.2,82.5c0.2,23.4,19.1,75.4,13,93
	c-12.1,34.8-71.3,73-105.3,90.5c-0.9-1.1-2.1-1-3.5,0c0-61.3,0-122.7,0-184c0.8,0.2,1.3,1.1,1.5,2c18.7-3.7,34.6-36.4,36.5-51
	c3.5-5.9,18.1-23.1,23-28c-2,7.1-3.6,15.3-5,22.5c2.1,0.7,2.1,1.3,0,2c7.6,1,11.1,2,15.5,7.5c1-0.8,1.7-0.9,3-1c0.3,1,0.7,2,1,3
	C81,460.2,93.3,446,97.8,434.5z"/>
<path fill="#8F1493" stroke="#8F1493" stroke-width="0.5" d="M153.8,0.5C166.9,0,181.3-0.2,195,0C124,61.7,53.5,103.8,17.5,197
	c2.7-0.9,6.2-3.5,9.5-5c0,0.7,0,1.3,0,2c-6.8,8.1-13.3,22.7-16,35c0.7,0,1.3,0,2,0c-0.5,10.6-4.7,21.1-12,29.5
	c3.5,2.7,2.8,5.3-1,7.5c0-33.7,0-67.3,0-101c0.8-0.2,1.1-1.1,1-2c1,0,1.8,0.4,2.5,1c5.2-15.5,15.9-31,20.5-41
	c20.1-9.4,46.6-48,62-70.5c-0.5,0.5-1,1-1.5,1.5C100.5,32.7,139.1,22.6,153.8,0.5z M88.2,53L88,51c0.7,0,1.3,0,2,0
	C89.9,52.1,88.9,57.2,88.2,53z"/>
<path fill="#B769BA" stroke="#B769BA" stroke-width="0.5" d="M862.5,419c12.7-1.2,24.7-0.9,39.5,1c18.6-3,43.5,1.9,64,0
	c0.2,0.9,1,1.2,2,1c-1.4,7-8.9,12-18,13.5c7.5,17.8-43.8,26.2-56.8,29.7c-47.7,13-112.3,27.4-165.2,47.8c-0.8-0.6-3.5-1.4-5-1.5
	c0.7-0.7,1.3-1.3,2-2c-2.2-0.8-2-1.8,0-3c-27.1-1-53.9-3.4-81-3c0.7-0.3,1.3-0.7,2-1c-26.2-21.3,193-40.9,183-79
	c7.2,2.9,13.9,3.9,14-2C826.5,409.8,853.1,417.3,862.5,419z"/>
<path fill="#A542A8" stroke="#A542A8" stroke-width="0.5" d="M1331.5,86h1.5c0,54,0,108,0,162c-48.4,18.6-86.8,54.7-134,84
	c12.8-15.4,2.9-14.5-0.2-28.8c-0.5-2.3,11.2-11.4,8.7-14.7c-48.4-64.8-178.2-40.3-242.5-49c3.1,0.4-42.6,4.6-22.5-8.5
	c49-31.8,126.5,11.1,177.5-0.5C1194.6,213.5,1259.2,86,1331.5,86z"/>
<path fill="#8F1493" stroke="#8F1493" stroke-width="0.5" d="M1186.5,303c54.8-6.2-18,54.2-31.5,68c0.7,0,1.3,0,2,0
	c1.6,2.4,4.2,6.2,6,9c-14.8,7.1-34,10.2-50.5,13c-32.3,5.4-77.7,17.3-82.5-30c-2.6,0.8-4,3-4,6c-23.4-30.7-33.8-25.9-13.3-55.4
	C1039,275.5,1186.5,249.5,1186.5,303z M1017,346c2.2,1.1,4,1.1,6,0c0,1-0.4,1.8-1,2.5C1024.5,347.5,1006.4,344.4,1017,346z
	 M1032,361.5C1033.1,360.4,1029.9,363.6,1032,361.5z M1111.2,389.8C1110.2,387.9,1112.3,390.3,1111.2,389.8z"/>
<path fill="#8E1292" stroke="#8E1292" stroke-width="0.5" d="M234.5,420c-2.1,22.7,39.8,15,61.5,16c0,0.2,0,0.3,0,0.5
	c-28.8,3.9-59.8,5.4-88-1.5c0,0.7,0,1.3,0,2c-0.7,0-1.3,0-2,0c25.4-60.3,50.5-116.9,83-173c12.4,15.1,61.6,79.9,52.8,100.8
	C336.3,377.7,246.7,420,234.5,420z"/>
<path fill="#A13BA5" stroke="#A13BA5" stroke-width="0.5" d="M335.5,171.8c33.3,20.8,128,37.3,143.5,73.2c1.4,0.4,2.6,1.3,3,2.5
	c-31.9,18.9-28.4,46-67.6,40.8c-35.3-4.8-83.1-47.6-111.4-68.2c-0.1-6.4-3.9-6.9-9-4c-0.1-0.9,0.2-1.8,1-2c2-8.8,5.6-20.1,9-28.5
	c-1.1-0.9-1-2.1,0-3.5c-2.3,0-4.7,0-7,0c0-0.7,0-1.3,0-2c4.3,0.5,8.7-0.8,12-3.5C307.2,166.6,319.4,161,335.5,171.8z M303.2,199.8
	c-0.3-0.6,0.2-0.6,0.3,0.2L303.2,199.8z"/>
<path fill="#B15CB4" stroke="#B15CB4" stroke-width="0.5" d="M1250.2,541c12.5,5.3,33.3,10.4,51.3,23c33.2,23.3,24.6,7,31.5,49.7
	c6.5,40.3,0,88.7,0,129.3c-47-45.9-83.6-107.6-127-157.5c3.7-0.5,7.4-1.1,11-2c-4.1-1.4-8-3.9-11-7c2.5-1.2,5.3-2,8-2.5
	c-0.9-2.7-2.2-5.1-4-7c12.3-1,13.5-4.2,3-9.5c6.6-4.4,13.5-11.7,14-13C1233.9,542.2,1243.9,540.8,1250.2,541z"/>
<path fill="#931C97" stroke="#931C97" stroke-width="0.5" d="M116,429.2l5-1.2c5.1,11.7,6.2,24.2,3.5,37c3.1-9,10.7-20.9,17.5-27
	c-0.1,1.4,0.4,3.3,1,4c-3,7.8-5.6,16-7.5,24c20.9,13.6-22.6,69.7,3.5,92c-0.5,1.6-0.7,4.1-0.5,6c0.2,0,0.3,0,0.5,0
	c-8.2,17.6-21.4,30.6-26.5,50c-0.2-0.7-0.4-1.3-0.5-2c-1.1,0.2-2.1,0.5-3,1c-15.7-61.3,3.6-129-10-184
	C104.5,436.6,107.3,431.6,116,429.2z"/>
<path fill="#952199" stroke="#952199" stroke-width="0.5" d="M331,0.2V0c14.7,0,29.3,0,44,0c-71.6,33.8-114.5,90.4-176,131
	c-11.1,14.5-22.7,29.6-39,37.5c1.7-0.4-10.5,4.4-15,6.5c7-17.8,26.6-51.8,32.4-59.5C185.4,104.9,331-6.6,331,0.2z"/>
<path fill="#952199" stroke="#952199" stroke-width="0.5" d="M273.8,0.5C288.3,0,304-0.2,319,0c-83.7,46.2-160.6,100.9-211,183
	c-5.5,6.4-15.7,10-26,10c0.1-1.8,0.8-3,2-4c13-23.2,26.4-49.1,42.9-70.7c19.2-25.1,43-46.3,67.6-65.9
	C214.7,36.4,260.9,19.8,273.8,0.5z M94.2,186.2C96.1,185.2,93.7,187.3,94.2,186.2z"/>
<path fill="#931C97" stroke="#931C97" stroke-width="0.5" d="M318.8,0.5C322-0.1,327.3-0.3,331,0c-32.6,15.6-64.9,34.4-93,57
	c-40.5,32.5-54,81.1-90.6,111.5c-10.5,8.7-25.3,16.4-41.4,18c1-1.8,2.1-3.4,3.2-5.3c23.3-39.4,48.7-67.6,83.8-96.2
	C224,59.7,298.8,30.5,318.8,0.5z M177.2,116.8C176.2,114.9,178.3,117.3,177.2,116.8z"/>
<path fill="#931C97" stroke="#931C97" stroke-width="0.5" d="M250.8,0.5C257.9,0,266.4-0.2,274,0C189.8,46.7,153.5,104.9,92.6,173.6
	C80.2,187.7,79.4,198.1,57,201c3.8-34.8,42.2-77.2,65-102.5C154.6,62.3,226.3,37.3,250.8,0.5z M130,97.2l1-0.2
	c-0.5,0.3-13.2,11-12.8,8C121.7,102.2,126.4,100,130,97.2z M83,187c0.9,0.4,1.2,1.1,1,2C83.2,189,80.5,187,83,187z"/>
<path fill="#A038A4" stroke="#A038A4" stroke-width="0.5" d="M478.8,245c1,1.3,2.2,2.1,3.2,2c40.1,20.5,80.2,50.7,116,77
	c-1.7,0-3.3,0-5,0c0,1,0,2,0,3c-37.8-11.8-80.4,1.5-118.7-10c-15-4.5-34.1-1.5-38.6-19.3C435,295.5,472.8,245,478.8,245z
	 M590.2,323.8C589.2,321.9,591.3,324.3,590.2,323.8z"/>
<path fill="#AA4DAD" stroke="#AA4DAD" stroke-width="0.5" d="M1045,257c7.7,8.2-1.3,17.7,15,22c-22.3,14.6-46.8,32.7-65,51
	c-10.8-7.5-21.4-18.1-27-30c5.3,3.1,7,0.8,6-5C905.8,260.7,1031.5,225.4,1045,257z M982.2,317.8
	C981.2,315.9,983.3,318.3,982.2,317.8z"/>
<path fill="#A84AAC" stroke="#A84AAC" stroke-width="0.5" d="M1053.8,441.8c36,25.8,12.5,26-23.8,27.2c-106,3.5-197.9,42.4-289,92
	c31.1-25.1,78.5-43.7,114-65.5c-2.7,0-5.3,0-8,0c15.2-8.9,24.6-28.1,36.2-35.3c9.6-5.9,76.8-1.8,66.8-25.8c10.1-1.8,18.6-6.8,16-15
	c14.3,10.1,26.6,4.3,45,4.4C1019.7,424,1069.7,410.1,1053.8,441.8z"/>
<path fill="#B563B7" stroke="#B563B7" stroke-width="0.5" d="M1206.8,287.2c-4.5,11.8-9.4,16.4-20.3,17.8c7.5-1-44.8-26-51.5-27.2
	c-21.8-4-46.2,4-67.5,0.3c-10.9-1.9-18.3-1.9-26.5-7.1c26.1-32.9-75.2-21.2-83-9c-12.9-2.6-24.6-11.5-30-24c1.9,0.1,3,1.1,3.5,3
	c2.5-1.3,5.3-0.6,8.5,1.5c-1.8-1.8-3.2-4.1-4-6.5c1.8,1.2,5.1,6,7,6.5c28.1,7.3,75-7.4,104.5-5.1
	C1105.1,241.9,1155.6,261.6,1206.8,287.2z"/>
<path fill="#901794" stroke="#901794" stroke-width="0.5" d="M185,451h3c-0.8,6-2.6,12.1-5,17.5c0.9,0.2,1.8,0.7,2,1.5
	c-1.2,23.7-25.6,100-50,106c3-5.7,4.6-12.3,4-18c4.6-10.7,8.6-22.6,11.5-34c-1.5,1.8-3.4,3.2-5.5,4C151.7,508.7,159.4,451,185,451z"
	/>
<path fill="#8B0D90" stroke="#8B0D90" stroke-width="0.5" d="M234,319.5c1.8,0.3,2.7,0.1,4-0.5c-17.2,38-52,102.6-50,132
	c-5.7,4.4-12.8,7.2-20,7C170.9,412.4,179,319.5,234,319.5z M203.2,397C202.9,394.6,204.1,400,203.2,397z"/>
<path fill="#9F36A2" stroke="#9F36A2" stroke-width="0.5" d="M1331,248.2l2-0.2c4.5,24.1-149.8,153-176,123c-1.3,0.3-2.7,0.7-4,1
	C1199.1,330.6,1269.4,257.7,1331,248.2z"/>
<path fill="#88058C" stroke="#88058C" stroke-width="0.5" d="M204.8,277l2.2-2c7,27.2-26.5,78.3-39,111.5c0.7,0.2,1.3,0.4,2,0.5
	c0.2-1.4,0.7-2.8,1.5-4c0.3,1,0.7,2,1,3c1.9-2.2,4.3-4.4,6.5-6c-7.7,23.2-16.9,44.4-32.5,63c-2.7-0.4-4.7-1.8-6.5-5
	c-5,7-12,19.1-15.5,27c2.9-12.8,1.8-25.3-3.5-37c-7.5,4.4-13.6,5.7-21,5c0.1-1.4-0.4-3.3-1-4c11-15.9,24.2-14.1,31.5-22.5
	C162.6,369.4,168.4,308.6,204.8,277z M190.2,308c-1.4,3.3,7.9,6.5-2.2,7.5C180.5,309.1,190.3,308.5,190.2,308z"/>
<path fill="#97269B" stroke="#97269B" stroke-width="0.5" d="M374.8,0.5C386.9,0,400.3-0.2,413,0c-70.2,31.4-132.7,74-182,132
	c-10.4,9.9-25.1,18-39,21.5c5.7-6,10-13.8,12-21.5C184.6,115.4,368.3,10.3,374.8,0.5z M212,140h1C209.8,144.9,210.4,143.2,212,140z"
	/>
<path fill="#86038B" stroke="#86038B" stroke-width="0.5" d="M295,213.8c22.1,10.5-34.4,106.8-48.5,121.2c-0.7-0.7-1.3-1.3-2-2
	c0.9,2.3,0.1,3.7-2.5,4c0.3-9.6,3.7-19.6,9-28c-2.6-0.5-5,0.2-6,2c-0.7,0-1.3,0-2,0C259.2,278.4,281.4,245.4,295,213.8L295,213.8z"
	/>
<path fill="#A038A4" stroke="#A038A4" stroke-width="0.5" d="M1331.5,268.2l1.5-0.2c0,82.5-8.7,92.1-96,118c-25,7.4-53.2,6-78,16
	c-1.9-0.1-2.9-1.1-3-3c1.7-0.4,3.4-0.9,5-1.5c-2.4-0.1-4.7,0-7,0.5c4.7-7.4,13-13.4,22-16.5c-0.7-0.3-1.3-0.7-2-1
	C1228.7,358.5,1271.2,280.3,1331.5,268.2z"/>
<path fill="#B666B9" stroke="#B666B9" stroke-width="0.5" d="M583,177.8c36.9,12.9,76.8,41.3,115,50.2c26,29.2,78.1,43.3,117,72
	c-3.5-1-7-0.7-8.5,2c-11.8-5-40.7-19.9-34.5-4c-26-12.3-77.1-34.7-85-56.5C662.5,225.6,587.7,204.9,583,177.8z M759.2,267
	C760.1,263.8,758.7,270.8,759.2,267z"/>
<path fill="#AB4FAE" stroke="#AB4FAE" stroke-width="0.5" d="M510.5,215.8c0.8,0.2,1.7,0.3,2.5,0.2c45.4,27,87,56.8,130.3,82.8
	c12.4,7.4,58.9,22,35.7,27.7c1.4,1.7,2.4,2.9,3.5,4.5c-22.6-10.9-184.8-84.1-184.3-103c0.2-5.5,3.3-6.3,7.3-8c0-0.7,0-1.3,0-2
	c-0.2,0-0.3,0-0.5,0C506,215.7,508.2,214.2,510.5,215.8z"/>
<path fill="#9A2B9E" stroke="#9A2B9E" stroke-width="0.5" d="M293,155.8c-0.2,0.3-0.6,0.6-1,0.7c9.3,3.8,13.1,5.3,24,9.5
	c-7.4,1.9-17.7,5-7,10.5c-3,1.9-6.5,3.7-10,5c1.7,0.2,3.3,0.4,5,0.5c-1,1.4-1.1,2.6,0,3.5c-5.2,5.3-6.6,10.9,0,14
	c-34.8,34.3-52.3,58.6-84.3,112c-14,23.4-26.3,54.5-47.2,74.5c-0.3-1-0.7-2-1-3c-0.8,1.2-1.3,2.6-1.5,4c-0.7-0.1-1.3-0.3-2-0.5
	c20.7-55.9,35.8-110.3,63-160.5C192,200.6,293,166,293,155.8z M214.2,278.2C216.1,277.2,213.7,279.3,214.2,278.2z"/>
<path fill="#C88CCA" stroke="#C88CCA" stroke-width="0.5" d="M1161.5,487.8c2.1,1.7,4.5,2.9,7.5,3.7c-1.2,0-2.1-0.3-2-1.5
	c5-1.7,9.9,0.3,14,5c-0.7,0-1.3,0-2,0c9.6,13.4,53,31.9,53,40c0,1.1,18.5,1.1,20,1c-0.2,1.5-0.5,2.8-1,4c-5.6,1-16.7,3.1-24,4.5
	c-0.6,3.2-6.5,8.7-14,13c23.9,27.4-67.5-14.4-78.8-24.6c-20.9-19-41.4-48.6-44.1-71.4C1092,492.8,1146.4,484.8,1161.5,487.8z
	 M1093.2,464C1093.6,466.6,1097,477.3,1093.2,464z M1157.2,487.8C1156.2,485.9,1158.3,488.3,1157.2,487.8z M1229.5,534l-1.5,0.5
	C1228.7,533.9,1230.5,533.7,1229.5,534z"/>
<path fill="#BD75C0" stroke="#BD75C0" stroke-width="0.5" d="M330,68.2c1.4,2.1,31.5,31.1,32.8,21.8c-5.2,18.2-40,30-55.8,37.5
	c2,0.3,4,0.7,6,1c-6.8,4.2-14.6,14.8-20,27.5c-21.1,8.6-67.1,33.6-82.2,24.5c-5.9-3.5-32.6,45.5-34.3,52.5c0.2,0,0.3,0,0.5,0
	c-10.3,17.2-21.7,30.3-35,43c0-2-0.7-4-2-5.5c10.3-11.5,0.2-18.2-16-21.5c-2-0.9-12.2-0.5-19,2c0.6-2.9,1.6-5.9,3-8.5
	c-1.6,0.9-3.4,1.8-5,2.5c2.9-4.1,6-9.3,8.5-14c-2.5,2.9-5.5,5.3-9,7c-0.1-2.3,0.1-4.6,0.5-6.5c-6.5,1.9-12.4,5.8-16.5,10.5
	c0.4-2.4,1.7-4.6,3.5-6.5c-2.5,0.7-4.6,2-6,3.5c3.1-3.9,6.9-9.1,9.5-13c-1.2,1.4-2.8,2.5-4.5,3c6.4-12.1,13-23.5,21.5-37
	c-9.9-0.8-8.9-5-3-11c0.6,2.2,0,4.1-1.5,5.5c15.1-1.4,30.5-7.7,41-16.5c4,7.2,10.1,0.2,15.5-8c-0.3,2.3-1.2,4.7-2.5,6.5
	c16-8.7,27.2-23.2,39-37.5c-0.1,0.4,0.1,0.8,0.5,1c0-1.7,0.8-2.4,2.5-2c0,0.7,0,1.3,0,2c0.7,0,1.3,0,2,0c-1.7,8-5.9,15.6-12,21.5
	c7.9-2,16.7-7.9,21-13.5c-0.9,1.9-1.4,3.9-1.5,6c8.1-6,17-13,24-19c-0.4,2.6-2.1,4.9-4.5,6.5c10-3.2,21-11.2,28-19.5
	C277.1,111.1,307.1,74.8,330,68.2z M257,117.2V117c0.3,0,0.7,0,1,0C257.6,117.7,257.2,118.1,257,117.2L257,117.2z M110.8,200.8
	C108.5,196.6,112.7,203.8,110.8,200.8z M106.5,205.8c-2.2-6.8,14.3,14.2,4.5,14.2C103,220,105.6,209.2,106.5,205.8z M103,207.2
	C107,206.6,96.4,209.1,103,207.2z M99.8,213.8C100.1,211.4,99.8,214,99.8,213.8z M102.2,228.2C104.1,227.2,101.7,229.3,102.2,228.2z
	 M104,231C104,227.4,104,234.6,104,231z M108.2,239.2C110.1,238.2,107.7,240.3,108.2,239.2z"/>
<path fill="#DEBADF" stroke="#DEBADF" stroke-width="0.5" d="M1013,358c3.6,2.8,9.2,7.5,13,11c7.6-10.9,12.2,26.4,34,32
	c6.7,1.7,66.8-12,78-13c12.7-1.1,31.7-8.1,36-7.5c0.7,0.3,1.3,0.7,2,1c-8.9,3.4-17,9.4-22,16.5c2.3-0.5,4.6-0.6,7-0.5
	c-1.6,0.6-3.3,1.1-5,1.5c0.3,2.9,2.2,3.3,5,2c-0.7,1.1-1.8,2-3,2.5c1.9,1,3.9,1.7,6,2c-2.1,0.2-2.6,1.5-2,3.5c17.4,6.5-2.7,13-18,17
	c3.2,7,2.3,12.9-4,16c5.4,6.6,5.9,15.1,1,21.5c7.6,9.7,16.5,18.4,26,25.5c-0.6,0.1-1,0.4-1,1c0.3,0,0.7,0,1,0
	c-0.1,1.2,0.8,1.5,2,1.5c-38.9-13.3-88.5-17.9-114.7-44.6c-5.1-5.2,9.5-15.3-2.6-21.7c-33.1-17.5-17.8,3.7-34.3,3.3
	c-13.7-0.3-37.6-0.2-51.5-8.5c-19.6,2.2-40-0.9-60-2c1-0.1,2-0.3,3-0.5c-11.9-5.7-6.4-5.7,4-4c-0.8-0.8-1.7-1.7-2.5-2.5
	c0.8-1.3,1.9-2.1,3-1c0.2-1,0.4-2,0.5-3c-3.3-0.4-4.4-2.3-5-6c14.6,1.9,27.2-7.9,31.9-8c20.5-0.2,42.2,12.4,63.1,6.5
	c-1.9-1.3-3.7-3-5-5c5.6-7.2,12-15.6,17-22.5c-3.4-4.1-7.8-8.7-12-12.5C1009,362.6,1009.1,358,1013,358z M1005.2,401.8
	c-0.2-0.4-0.1-0.7,0.3-0.8C1005.6,401.4,1005.5,401.6,1005.2,401.8z M1094.5,464C1078.9,453.6,1115.6,478.1,1094.5,464z
	 M1154.2,487.8C1153.2,485.9,1155.3,488.3,1154.2,487.8z"/>
<path fill="#B361B6" stroke="#B361B6" stroke-width="0.5" d="M678.8,194l0.2-4c2.1,0.3,4,0.6,6,1c1.2,1.3,2.1,2.5,3,4
	c4.6,12.5,56.1,23.4,62.5,9c39.4,45.7,82.5,90.2,132.5,132.5c-76.4-26.8-119.4-99.4-198-127.5C669.8,204.4,678.2,202.4,678.8,194z
	 M749.2,210.8C748.2,208.9,750.3,211.3,749.2,210.8z M754,210.2C764,224.1,752.6,210,754,210.2z M760,222
	C760,218.4,760,225.6,760,222z M795.2,254.8c0,7.5-3.6,3.1-7.2-2.3c0.9-0.2,1.8-0.1,2.5,0.5C791.6,251.9,794,252.4,795.2,254.8z
	 M795,252C795,248.4,795,255.6,795,252z M854.2,315.8C853.2,313.9,855.3,316.3,854.2,315.8z"/>
<path fill="#8C0F91" stroke="#8C0F91" stroke-width="0.5" d="M248,309.2l3-0.2c-5.6,8.6-8.4,19.4-4.5,26c1-2.1,3-3.4,5.5-4
	c-21.3,46.7-37.7,96.4-62.5,141c-1.4-0.8-3-1.6-4.5-2c-0.2-0.8-1.1-1.3-2-1.5C187.7,443.4,218.1,312.2,248,309.2z M205.2,395.2
	C207.1,394.2,204.7,396.3,205.2,395.2z"/>
<path fill="#8A0A8E" stroke="#8A0A8E" stroke-width="0.5" d="M103.2,231.2c-0.7,2.1-0.9,4.3-0.7,6.8c3.5-1.7,6.5-4.1,9-7
	c-14.9,25.1-34.9,58.1-53,79c0-1.7,0.1-3.4,0.5-5c-4.7,6.7-12,15.9-17.5,22c0.4-2.3,0.8-4.7,1-7c-5.8,10.2-14,23.2-19.5,31
	c0.3-2,0.1-4.1-0.5-6c-4.1,6.3-9.8,12.6-14.5,16c0.4-1.3,0.6-2.6,0.5-4c-0.9,2.1-2.3,3.4-4.5,3.5c1.4-3.7,1.7-8.4,1-12.5
	c-1.3-0.1-2.5,0.3-3.5,1c-0.1-1.5-0.9-4.2-1.5-5c0-13,0-26,0-39c10-11.8,26-25.7,30.5-24c11.9-12.1,25.7-29.8,44.5-40
	c3.6,2.2,10.3-1.7,16-8c-1.8,2.9-3.4,6.1-4.5,9c2.3-0.7,3.4-2.3,3.5-5C93,235.1,107.4,229.1,103.2,231.2z M71.2,246.2
	C73.1,245.2,70.7,247.3,71.2,246.2z M53.2,260.2l0.3-0.2C50,266.4,48.8,268.5,53.2,260.2z M60.2,301.2c1.2,0.2,1.6,1.3,1.3,2.8
	c-0.7-0.6-1.6-1.1-2.5-1.5C59.5,302.1,59.9,301.7,60.2,301.2z"/>
<path fill="#B666B9" stroke="#B666B9" stroke-width="0.5" d="M642,234.8l-1-2.8c0.8,0,1.6,0.4,2,1c11,6.3,24.1,13.2,36,19
	c-0.4-4.1,0.1-8,3.5-5c20.1,10.1,65.6,31.4,87.5,49.2c8.1,6.6,3.8,26.6,30,33.8c-3-0.6-3.9,1-3.5,4c-13.2-8.3-29.2-15.8-42.5-24
	c-26.1-11.7-60.7-25.4-78.5-49c-2.7-2.2-26.8-19.7-34.5-24C642.5,237.6,642.8,236.9,642,234.8z M647.5,238.2
	C646.4,235.4,648.1,239.9,647.5,238.2z"/>
<path fill="#A747AB" stroke="#A747AB" stroke-width="0.5" d="M517,205.2l1-0.2c0.3,0.9,1.1,1.2,2,1c33.8,18,68.3,36.4,100.5,57.5
	c45.2,29.6,106.7,51.7,147.7,85.4c6.8,5.6,8.8,3.5,13.8,12.1c-99.8-21.8-184.1-95.2-269-145C510,213.1,510.8,207,517,205.2z
	 M517,210.2c2.1,0,3.3,0.8,3,2.8C518.4,212.9,514.9,209.9,517,210.2z M703.2,330.8C702.2,328.9,704.3,331.3,703.2,330.8z"/>
<path fill="#96249A" stroke="#96249A" stroke-width="0.5" d="M412.8,0.5c2.6-0.6,7.1-0.8,10.2-0.5c-50.6,20.7-137.9,63.3-164,116
	c-0.3,0-0.7,0-1,0c0,0.3,0,0.7,0,1c-6.8,5.8-18.6,13.4-28,17.5c1.3-2,2.6-3.6,4-5.5c8.8-11.8,22.8-24.9,34-35.6
	c22.1-20.9,45.5-40.7,71.4-56.7C353.2,28.2,404.3,13.3,412.8,0.5z"/>
<path fill="#A84AAC" stroke="#A84AAC" stroke-width="0.5" d="M520.8,200.5l0.2-0.5c92.2,47.1,181.5,96.5,263,154.5
	c-0.9,0.2-1.8,0.7-2,1.5c-0.3,0-0.7,0-1,0C751.3,336.1,517.3,232.5,520.8,200.5z"/>
<path fill="#BA6EBC" stroke="#BA6EBC" stroke-width="0.5" d="M867.5,167v1c-4.7-2-2.5,1.7-0.5,5c-9.5-3.8-21-13.5-26-14.2
	C808,149.4,729.5,83.2,712.5,54c0.9,2.6,2.5,5,4.5,7c-13.5-10.4-27.1-25.5-36.5-38c-2-0.6-3.9-1.8-5.5-3.5c6.2,1.4,14.1,1.8,21,1
	c-2.4-1.5-4-3.3-5-6C746.3,16.5,867.5,112.3,867.5,167z M694.2,14.8C693.2,12.9,695.3,15.3,694.2,14.8z M696,16
	C696,14.9,696,21.6,696,16z M708.2,19.8C707.2,17.9,709.3,20.3,708.2,19.8z M710.2,20.8C709.2,18.9,711.3,21.3,710.2,20.8z
	 M717.2,21.8C716.2,19.9,718.3,22.3,717.2,21.8z M691,23.5c0.4,0.3,0.7,0.6,1,1C689.4,24.9,691.2,23.7,691,23.5z M694,38
	C694,34.4,694,41.6,694,38z M730.2,73.8c-0.2-0.4-0.1-0.7,0.3-0.8C730.6,73.4,730.5,73.6,730.2,73.8z M732,76
	C732,72.4,732,79.6,732,76z M744,81C744,77.4,744,84.6,744,81z M760.5,93.2C758.4,91.8,766.5,97.5,760.5,93.2z M813.2,135.8
	C812.2,133.9,814.3,136.3,813.2,135.8z M860,154C863.6,154,856.4,154,860,154z M864.2,170.8C863.2,168.9,865.3,171.3,864.2,170.8z"
	/>
<path fill="#941F98" stroke="#941F98" stroke-width="0.5" d="M768.8,291.8c12.3,2.5,27.4,6.6,37.7,10.2
	c40.4-2.5,93.9,52.1,125.5,75.5c-0.3,0.3-0.7,0.7-1,1c2.2,0.7,3.6,2.3,4,4.5c-4.6-1.9-10.5-2.2-14-1
	C889.5,372.4,762.7,334.4,768.8,291.8z"/>
<path fill="#A23DA6" stroke="#A23DA6" stroke-width="0.5" d="M389.8,158.5c8.8,2,21.8,6.2,32.7,10.5c8.4,22.6,63.7,32.9,85.5,52
	c-5.9-1.3-9.4,1.1-10,7c-19,5.8-135.7-37.4-162-56c6.9-1.1,31.4-12.7,26-11.5C367.8,161.7,385.8,164.5,389.8,158.5z M379.2,187.8
	C378.2,185.9,380.3,188.3,379.2,187.8z"/>
<path fill="#AB4FAE" stroke="#AB4FAE" stroke-width="0.5" d="M450.8,155c30.8,2.7,75,27.8,110.2,34.5c0-0.2,0-0.3,0-0.5
	c28.2,14.6,59,29.7,85,46c12.5,7.1,25,19.4,30,33c-75.7-42-156.5-84.7-235-111c0-0.7,0-1.3,0-2c3.1,1.6,6.3,2.4,10,2.5
	C449.6,156.7,450.4,156.3,450.8,155z M644.2,235.8C643.2,233.9,645.3,236.3,644.2,235.8z M641,238v-1
	C648.7,241.2,646.2,240.3,641,238z"/>
<path fill="#85008A" stroke="#85008A" stroke-width="0.5" d="M47,350.2c16.4,9.8-7.3,64.6-8.8,90.6c0.2-3.7-0.4,31.3,1,26.2
	c-3.5,13.2-20.4,44.5-37.7,48c-0.2-0.9-0.7-1.8-1.5-2c0-28.7,0-57.3,0-86c0.5,0.9,1.4,4.4,1.5,6C8.8,413.8,26.9,351.4,47,350.2z"/>
<path fill="#8B0D90" stroke="#8B0D90" stroke-width="0.5" d="M122.8,250.5c15.8,1.2,26.2,7.2,17.2,20c1.3,1.5,2,3.5,2,5.5
	c14.3,13.5-26.5,109.6-32,137c0.7,0,1.3,0,2,0c-13.9,18.2-24.6,39.6-36.5,57c-0.3-1-0.7-2-1-3c-1.3,0-1.9,0.2-3,1
	c-4.4-5.5-7.9-6.5-15.5-7.5c2.1-0.7,2.1-1.3,0-2c10.9-62.7,37.3-125.3,67-178C129.2,295.6,119.3,254.4,122.8,250.5z M145.2,283.2
	C147.1,282.2,144.7,284.3,145.2,283.2z"/>
<path fill="#D3A3D5" stroke="#D3A3D5" stroke-width="0.5" d="M916.5,296.8c16.4,13.7,42.2,28,53.5,7.2c8,8.5,20,21.7,26,28.5
	c6.1,9.2,16.3,14.6,27,13.5c0,1-0.4,1.8-1,2.5c8.1,3.7-5.8,0.9-9.5-1.5c-1.6,4.3,1.2,5.9,3.5,11c-7.4,3.3-5.1,8.6,0,14
	c-4.6,6.9-11.2,15.6-17,22.5c2.2,2.5,4.5,4.8,7,7c-22.7,1.8-43.8-2.2-65-8.5c-7.5-3.8-14.5-7.8-21-12c0-0.2,0-0.3,0-0.5
	c5.8,1.4,15.6,3.8,11-2c0.3-0.3,0.7-0.7,1-1c-16.4-12.4-47.4-29.7-23-35.5c-2.2-11.4,4-13.5,15.5-9c-1.8-8.5-1.5-16,5.5-17.5
	C922.1,308.1,915.3,298.8,916.5,296.8z M920,299C920,295.4,920,302.6,920,299z M981.2,318.8C980.2,316.9,982.3,319.3,981.2,318.8z
	 M983.2,321.8C982.2,319.9,984.3,322.3,983.2,321.8z M1004.2,359.8l-0.2-0.3C1008.2,361.9,1008.8,362.3,1004.2,359.8z"/>
<path fill="#9C30A0" stroke="#9C30A0" stroke-width="0.5" d="M387.8,191h0.2c141.5,67.9,274.2,155.3,419,217.5
	c-20.7-2.3-48-12.7-65-11.5c-97.6-38-176-97.6-263-152c-9.2-28.5-79.8-38.4-106-58C378.3,189.4,383.5,191,387.8,191z"/>
<path fill="#A038A4" stroke="#A038A4" stroke-width="0.5" d="M491,231.2V231c125.5,68,237.5,157.8,380,186c-17.5,2.7-46.2-4.6-66-9
	c-144.6-60.8-278.1-146.5-417-217C399.4,193.2,491,222.2,491,231.2z"/>
<path fill="#CC94CE" stroke="#CC94CE" stroke-width="0.5" d="M857,244c1.4,1.1,3.7,3.2,5.5,5c14.2-6.4,33,22,50.5,36.5c-2,0-4,0-6,0
	c16.1,12.2,24.9,31.5,20,46.5c0,0.7,0,1.3,0,2c-9.5-3.1-17.6-1.7-18,8c-3.8,0.1-7,1-11,3c1.4,1.1,3.4,2.8,1,4
	c-7.9-3.8-20-11.1-26-16c3,1.4,6.2,2.5,10,3.5c-34.8-31.3-43.7-45.5-44.5-84.5c0-0.3,0-0.7,0-1c-1.8-0.4-2.2-2-1.5-4
	c2.6,2.5,6.9,5.7,10,7.5c-1.5-2.1-3.2-4.1-5-6c1.3,0,2.7,0,4,0c-0.7-1-7.3-7.5-4.5-9.3C843.5,239.4,857,241.7,857,244z M849.2,287.8
	c0.7-0.3,1.3,0,1.8,0.7C850.9,288.5,847.8,288.1,849.2,287.8z M910.2,294C910.3,294.6,913.1,304.2,910.2,294z M851.2,305.8
	c-0.2-0.4-0.1-0.7,0.3-0.8C851.6,305.4,851.5,305.6,851.2,305.8z M926.2,314.8C925.2,312.9,927.3,315.3,926.2,314.8z M857.2,316.8
	C856.2,314.9,858.3,317.3,857.2,316.8z"/>
<path fill="#AC52AF" stroke="#AC52AF" stroke-width="0.5" d="M554.2,174.8l-0.2-0.3c3.2-0.5,5.8-0.3,7,0.5c8.5,1.9,14.3,10.5,19,3
	c14.7,28.7,77.3,43.7,107,63.5c-2.1,0.2-2.6,1.5-2,3.5c-1.7-0.4-2.5,0.3-2.5,2c-3.3-3.1-3.9,0.6-3.5,5c-10.6-5.3-22.8-11.6-33-17
	c-1-0.6-2-1.3-3-2C618.6,218.1,554.7,204.5,554.2,174.8z M561.2,183l0.3-1c0.5,0.5,1,1,1.5,1.5C562.2,184.1,561.6,183.9,561.2,183z"
	/>
<path fill="#D3A3D5" stroke="#D3A3D5" stroke-width="0.5" d="M1332,464.2l1-0.2c2.7,50.3-63.3,74-105,70.5c1.7-1.4,3.8-2.4,6-3
	c-20-9-40.9-18.5-55-35.5c0-0.3,0-0.7,0-1c19.2-5.5,37.6-6.3,57.1-6.8C1280.7,487.3,1294.6,474.9,1332,464.2z M1329.2,470.8
	C1328.2,468.9,1330.3,471.3,1329.2,470.8z M1185,502C1185,498.4,1185,505.6,1185,502z M1233.2,533.8
	C1232.2,531.9,1234.3,534.3,1233.2,533.8z"/>
<path fill="#8A0A8E" stroke="#8A0A8E" stroke-width="0.5" d="M220.8,219c1.2,5.4,4.7,8,10.2,7c-13.8,32.2-29.4,55.4-49,81
	c6.8,1.2,10.8,0.6,10.5,8c-0.2,0.1-0.4,0.3-0.5,0.5c-3.8-1.9-6.3-4.5-10.5-6.5c-17.7,35.9-32.9,100.1-71.5,104
	c3.9-18.9,9.4-59.7,20.5-66c0.5-3,2.7-4.5,6-5c15.3,58.9,34.6-98.7,41-111C184.8,228.8,209.5,219,220.8,219z M200.8,229
	c-0.3,1.4-1.3,1.9-2.8,1.5C198.2,229.9,201.1,226.6,200.8,229z"/>
<path fill="#B563B7" stroke="#B563B7" stroke-width="0.5" d="M800,284c2.6,3.8,8.2,1.7,5,6.8c-51.5-16.6-97.4-46.7-120-82.8
	C730.1,224.1,755.8,265.1,800,284z"/>
<path fill="#B059B3" stroke="#B059B3" stroke-width="0.5" d="M416.5,83.2L422,83c-0.5,0.9-1.2,1.6-2,2c26.2,2.6,57.5-2.8,81,10
	c-0.7,3-1.4,6-2,9c22.7-0.2,115.6,37.7,114,41c5.4,6,8.7,12.8,10,21c-5,7.6-12.8,6.7-21,0c-4,11.2-11.3,7.4-19-2
	c0.3-1.1-0.6-1.3-2-1c-6-2-9.6-5.4-10.5-11c-21.1,6.3-47.3-11.7-69.5-22c-31.9-14.8-60.2-30.1-105-31c0.5-3.2-0.9-5.1-4-5.5
	c1.6-3.1,3.9-5.4,7-7c-3-0.3-6-0.7-9-1C398.8,83.9,407.4,83.7,416.5,83.2z M558.5,147.2l1.5,0.3C557.8,149.1,556.8,147,558.5,147.2z
	 M591,164.5C596.2,161.7,588.6,165.8,591,164.5z"/>
<path fill="#A84AAC" stroke="#A84AAC" stroke-width="0.5" d="M573,164v-2c14.2,7.2,22,11.1,29,4c46.4,7.4,65.8,29.8,96.5,61
	c-0.3,0-0.7,0.7-0.5,1C655.4,218.4,600.1,190.5,573,164z M638.2,170.8C637.2,168.9,639.3,171.3,638.2,170.8z M640.2,171.8
	C639.2,169.9,641.3,172.3,640.2,171.8z"/>
<path fill="#8B0D90" stroke="#8B0D90" stroke-width="0.5" d="M124.2,248.5c10.1,27.6-6.6,47.5-18.7,70.7
	C97.9,333.8,60.6,462.6,43,463.5c-30.1,1.6,16.9-127.9,27-149.3c4.8-10.1,24.7-56.3,35.9-62.9C109.7,249.1,127.2,244.1,124.2,248.5z
	 M120.8,280.8c0.5-0.4,1.4-0.5,2.2-0.3C119.9,284.5,118.9,285,120.8,280.8z M37.2,408.2C39.1,407.2,36.7,409.3,37.2,408.2z"/>
<path fill="#FACD71" stroke="#FACD71" stroke-width="0.5" d="M1219,453.8c9.3,1.3,18.7,2.5,28,3.7c-2.7,0.4-4.5,1.8-5,4
	c3.8-0.3,7.3,0.6,8,3.5c-7.6-0.8-9.4,1.2-4,6.5c-2.6,0.8-5.3,1.5-8,2c2,0.3,4,0.7,6,1c-4.1-0.3-8,0.6-9,3.5c3.7,0.6,5.9,1.2,9,2.5
	c-20.1,7.2-45,7.2-65,15.5c0.6,0,0.9,0.4,1,1c-3.1-2.4-7.1-5.6-10-8c-1.3,1.1-2.5,1.7-4,2c0.1-1.5,0.7-2.5,2-3.5
	C1170.9,467.5,1192.6,451.2,1219,453.8z"/>
<path fill="#AD54B0" stroke="#AD54B0" stroke-width="0.5" d="M459,165v-3c24.4,7.9,49.5,17.3,72,29c17.5,19.5,197.1,120.8,198.5,120
	c-0.2,0.7-0.4,1.3-0.5,2c0.7,0,1.3,0,2,0c0,0.7,0,1.3,0,2c-88.4-45.2-177.9-117.3-276-143C455.9,169.7,459,167.3,459,165z"/>
<path fill="#9C30A0" stroke="#9C30A0" stroke-width="0.5" d="M497.5,228.2c68,34.8,136.5,75.4,202.1,114
	C733,361.8,796.8,377.4,826,403c-117.7-0.2-234.4-117.7-335-172C493.1,228.6,495.3,229.7,497.5,228.2z"/>
<path fill="#A747AB" stroke="#A747AB" stroke-width="0.5" d="M429,41.8c20.8,9.3,51.9,5.6,75,14.2c36,14.3,86,10.5,123,31
	c-0.2,0.6-0.5,1.1-1,1.5c1.7,0,2.4,0.8,2,2.5c-2-0.8-3.9-1.3-6-1.5c-42.7,18.9-143.4-21.4-198-8c4.3,0.3,8.7,0.7,13,1
	c-21.5,0.7-40.4,6.7-60,5.5c1-1.4,1.8-2.9,2-4C384.2,76.1,429,40.7,429,41.8z M416.8,79.8c6.4,1.7,5.8,1.8-0.8,0.7
	C416.2,80.2,416.5,80,416.8,79.8z M564.2,83.8C563.2,81.9,565.3,84.3,564.2,83.8z M392,85c8.2-0.3,4.7,0-2,0.5L392,85z"/>
<path fill="#BD75C0" stroke="#BD75C0" stroke-width="0.5" d="M577.5,2.8C600.9-4.4,641.2,0,669,0c3.8,5.5,6.6,13.6,6,19.5
	c19.8,16,41.3,35.1,58.5,56.5c0,0.3,0,0.7,0,1c-0.1,0-0.8,0.6-0.7,0.8c-5.8,1.7-5.6-1.6-11.3-3.8c4.5,11.1-5.8,5-13.5,0.5
	c0,1-0.9,1.5-2,1.5C692.3,61.6,576.7,7.4,577.5,2.8z M672.5,10.2C674.9,10.7,667.3,9.7,672.5,10.2z M601,16
	C601,13.6,601,19.5,601,16z M661.2,41.8C660.2,39.9,662.3,42.3,661.2,41.8z M692.2,42.8C691.2,40.9,693.3,43.3,692.2,42.8z
	 M712.2,55.8c2.3,1.2,3.9,2.9,4.8,5.2C712.2,58.5,711.3,54,712.2,55.8z M729.2,74.8C728.2,72.9,730.3,75.3,729.2,74.8z"/>
<path fill="#85008A" stroke="#85008A" stroke-width="0.5" d="M106.8,239C107,299.3,26.1,372.7,1.5,433c-0.1-1.6-1-5.1-1.5-6
	c0-27.7,0-55.3,0-83c0.6,0.8,1.4,3.5,1.5,5c1-0.7,2.2-1.1,3.5-1c1.6,4.1,1.2,8.6-1,12.5c2.2-0.1,3.6-1.4,4.5-3.5
	c9.3-4.1,24.1-18.5,34-37c0.2-0.2,18.6-15.9,19-16c-0.3-0.3-0.7-0.7-1-1c-1.3,2.3-1.2,4.7,0,7C68.7,295.6,96.3,239,106.8,239z
	 M101.2,259.2C103.1,258.2,100.7,260.3,101.2,259.2z M58.2,309.2c0.4-0.2,0.7-0.1,0.8,0.3C58.6,309.6,58.4,309.5,58.2,309.2z
	 M42,324h1c-0.1,1.2-0.6,2.3-1.5,3C40.9,325.9,41.1,324.9,42,324z M18.2,392.2C20.1,391.2,17.7,393.3,18.2,392.2z"/>
<path fill="#BD75C0" stroke="#BD75C0" stroke-width="0.5" d="M580,5.5c45.4,23.1,101.2,39.7,132,77c-4.3-1.7-8.7-2.4-14-2
	c0.3,2,1.4,3.8,3,5c-5.8-2.1-10.4-1.5-11.5,4.5c-3-2-5.7-4.3-8-7c5.3,8,9.1,20.3,14,30c-0.2,0.1-0.4,0.3-0.5,0.5
	c-0.7,0.2-1.3,0.4-2,0.5c-25.5-12.5-54.2-30.8-75-50.5C615.6,61.2,565.3,5.5,580,5.5z M592.2,14.8C591.2,12.9,593.3,15.3,592.2,14.8
	z M583.5,20C583.5,21.7,583.5,27.2,583.5,20z M678.2,53.8C677.2,51.9,679.3,54.3,678.2,53.8z M621,63C621,59.4,621,66.6,621,63z
	 M692.8,81.2l-0.3-1.2C694.1,81.6,692.9,82.5,692.8,81.2z M688,103C688,99.4,688,106.6,688,103z M692.2,111.8
	C691.2,109.9,693.3,112.3,692.2,111.8z"/>
<path fill="#9A2B9E" stroke="#9A2B9E" stroke-width="0.5" d="M1332.5,341.2l0.5-0.2c7.9,32.8-55.6,70.2-80,79
	c-19,6.8-63.1-7.2-91-11c-0.6-2-0.1-3.3,2-3.5c-2.1-0.3-4.1-1-6-2c0.9-1.1,2.1-2,3-2.5C1220.5,379.6,1279.1,376.8,1332.5,341.2z"/>
<path fill="#A645A9" stroke="#A645A9" stroke-width="0.5" d="M391,117v-1c36.6-1.4,76.4,24.9,109,13c21.8,4,41.1,16.1,60,18.5
	c-9.8,10.7-0.9,8.9,10.5,4.5c1.6,6,6.1,10,12.5,12c-3.3-0.8-6.6-1.5-10-2c1.2,5.1,6.2,7.8,13,8c-5.8,14.7-5.9,6.4-26.3,4.2
	c-53.7-5.7-116.4-34.3-174.7-49.8c6.7,0.9,16.7-0.4,21-3.5C403.5,120.3,391,117.6,391,117z M545.2,162.8
	C544.2,160.9,546.3,163.3,545.2,162.8z M583.2,171.8C582.2,169.9,584.3,172.3,583.2,171.8z"/>
<path fill="#C280C4" stroke="#C280C4" stroke-width="0.5" d="M1330.5,430.8c10.8,55-48.3,64.5-98.5,56.2c-2.3,0.4-4.7,0.7-7,1
	c3.6-6.7,11.1-8.3,19-7.5c-3-1.5-5.1-2.1-9-2.5c1.2-2.5,4.9-3.6,9-3.5c-2-0.3-4-0.7-6-1c2.7-0.5,5.4-1.2,8-2c-5.4-5.3-3.6-7.3,4-6.5
	c-1-2.5-4.2-3.6-8-3.5c0.4-2.3,2.1-3.6,5-4c-8.4-0.6-16.7-2-25-3.5c0-0.2,0-0.3,0-0.5c14.3-1.6,32.4-8.4,39-14
	C1284.1,435.5,1320,429.6,1330.5,430.8z M1297.8,433.8C1299.8,432.8,1298.1,433.1,1297.8,433.8z M1267.2,439.8
	c-0.3-0.6,0.2-0.6,0.3,0.2L1267.2,439.8z"/>
<path fill="#99299C" stroke="#99299C" stroke-width="0.5" d="M423,0.2V0c5.3,0,10.7,0,16,0c-67.2,29.3-119.8,81.3-182,117.5
	C277.2,84.5,423,10.5,423,0.2z"/>
<path fill="#AF57B2" stroke="#AF57B2" stroke-width="0.5" d="M530.2,193l0.8-2c26.9,13.2,127.8,86.6,144.5,70
	c17.2,21.8,52,37.1,78.5,48.5c-5.6,1.6-2.1,4.2-2,8C726.2,308.7,527.9,198.9,530.2,193z"/>
<path fill="#941F98" stroke="#941F98" stroke-width="0.5" d="M750.8,310.8c14.5,4.1,31.8,14.5,45.7,23.2c26-8.4,111.3,38,144.5,59
	c-25.3,32.1-136.5-22.2-157-38.5c-17.2-12.2-42.1-27.3-54.5-43.5c6.3,1.1,15.4,3.7,22.5,6.5C750.1,315.8,749.8,313.2,750.8,310.8z"
	/>
<path fill="#97269B" stroke="#97269B" stroke-width="0.5" d="M234,0.2V0c5.7,0,11.3,0,17,0c-44.9,25.7-102.2,58-130,102
	c3.5-1.6,6.5-3.1,10-5c-34.8,27-50.3,90.6-87,107.5c4.9-12.4,10.6-24.8,17-37c-3,0.9-6.2,2.1-9,3.5c5.1-7.9,12.1-14,18-22
	c21.2-28.9,39.9-56.4,66.8-80.7C140.1,65.3,234,1.7,234,0.2z M118.2,103.8c-0.3-0.6,0.2-0.6,0.3,0.2L118.2,103.8z"/>
<path fill="#CD96CF" stroke="#CD96CF" stroke-width="0.5" d="M882,232l0.5-1c7.4,4.6,15.2,6,21.5,3c7.9,1.9,16.1,3.3,24,4
	c5.8,11.7,17.8,20.9,30,24c-3.6,12.9,3.5,25.9,16,33c1.3,4.5-0.4,7.2-5,7.5c-10.4,28.4-45.7,1.1-62-17c2,0,4,0,6,0
	c-13.9-10.9-26.7-23.9-40-35.5c1.6-1.5,3.2-1.6,7-1.5c-0.3-0.3-0.7-0.7-1-1c0.7-0.3,1.3-0.7,2-1C878.6,239.9,881.2,233.8,882,232z
	 M967.2,307.8C966.2,305.9,968.3,308.3,967.2,307.8z"/>
<path fill="#C280C4" stroke="#C280C4" stroke-width="0.5" d="M706.8,75.5c9.9,8.9,23,22.1,36.2,30c1.3,15.1,14.7,28.5,25,45.5
	c-1.7,7.1-5.1,12.5-11,15.5c2.7,1.9,4.9,4.6,6,7.5c-2.9-2.7-6.3-3.9-8.5-8c-0.5,2.7,1.2,5.4,3.5,9c-1-0.5-1.8-1.2-2.5-2
	c-2,0.2-6.6-1.8-10.5-4.5c3,2.9,5.7,6.6,7,9.5c-1,0-1.8-0.4-2.5-1c-0.2,0.7-0.4,1.3-0.5,2c-37.2-27.6-36.2-25.5-59-64
	c1.5-2.7,3-3.9,6-2.5c-5.5-10-12.1-21.4-17-29.5c3.8,1.6,7.4,4,10.5,7c-0.1-2.7-1-5.1-2.5-7c4.1,2.3,6.3,1.7,5.5-3
	c2,3.5,4.9,5.5,8.5,5.5c-4.1-3.7-2.3-6.5,2.5-8.5c2.2,3,5.2,5,8.5,5.5c-2.7-2-4.5-4-6-6.5C706.3,76,706.6,75.9,706.8,75.5z
	 M691.5,102.8C690,101,695.5,107.2,691.5,102.8z"/>
<path fill="#9F36A2" stroke="#9F36A2" stroke-width="0.5" d="M100,189.2c3,1.4,7.1,2.5,10.5,2.8c0.4,1.8-1,28,0.5,28
	c-18,0-20.5,16.6-40,27c1.6-1.7,3.1-3.8,4-6c-10,6-20.2,14.6-28,23.5c2.6-0.4,4.9-2.1,6.5-4.5c-4.5,8.4-14.1,16.7-23,21
	c-6.4,2.4-22.2,14-30.5,24c0.1-14.3,1.6-39.5,0-42c10.5-30.4,21-43.9,48-69c-0.8,3.6-2.2,7.3-4,10.5c7.3-0.8,11.8-4.4,14.5-10.5
	c-0.2,2.4-0.7,4.7-1.5,7c10.2-1.9,19.5-6.8,26.5-14c0.2,0.7,0.4,1.3,0.5,2c-1.3,1-2,2.3-2,4C88.8,190,93.7,190.2,100,189.2z
	 M97,214.8l-1,0.2c1.6-1.3,13-15,13-9C109,209.1,99.6,214,97,214.8z M108.2,214.2C110.1,213.2,107.7,215.3,108.2,214.2z M90,227
	c2.5,0-0.2,2-1,2C88.8,228.1,89.1,227.4,90,227z M17.8,230.2l1.7-0.2C18.9,230.5,16.8,230.4,17.8,230.2z"/>
<path fill="#8E1292" stroke="#8E1292" stroke-width="0.5" d="M158.5,427.2l3.5-6.2c23.2,33.3-21,81.7-11.5,103
	c-2.8,12.9-8.6,29.1-12,40c-18-23.8,15-87.6-3-98c0.9-10.9,5.3-22.1,11-23C150.3,437.8,155.3,433,158.5,427.2z"/>
<path fill="#B15CB4" stroke="#B15CB4" stroke-width="0.5" d="M377,84.2c4.1,4.4,9.5,6.1,18,4.8c-0.5,1.7-1.6,3.3-3,4.5
	c6.6,6.8,8.1,13.5,2,19c2.5,1.6,6.1,3,9,3.5c-4,0-8,0-12,0c3.7,1.9,9.9,4,15,5c-4.3,3-14.2,4.3-21,3.5c20.5,5.5,53,10,65,24
	c0.7,0.2,1.3,0.4,2,0.5c0.2,3.7-0.3,6.1-2,7.5c0.3,0.3,0.7,0.7,1,1c-3.7-0.1-6.9-0.9-10-2.5c0,0.7,0,1.3,0,2
	c-17.5-1.4-33.7-1.7-51-1c-5.9,6.2-17.8,7.4-28,4.5c-3.1,6.5-14.5,9.7-26,11.5c-6.9-4.8-15.7-7.5-21-5c-7.6-3.8-15.1-7.3-23-10.5
	c5.9-12.1,14.6-23.5,21-28c-2-0.3-4-0.7-6-1C329.7,115.1,354.1,87.7,377,84.2z M326,117C329.6,117,322.4,117,326,117z"/>
<path fill="#D3A3D5" stroke="#D3A3D5" stroke-width="0.5" d="M1170,409.2V409c12.3,6.9,57,15.4,57,12c0,3.6,27-8.7,27-2.2
	c-8.3,0.7-6.6,7.2-9,9.7c-0.7,0.3-1.3,0.7-2,1c0.7,0.3,1.3,0.7,2,1c-0.3,0.3-0.7,0.7-1,1c8.6-0.5,18.3,1.6,23,6.5
	c-2.2-0.3-4.4,0.2-6,1.5c2.3,0,4.7,0,7,0c-14.4,6-30.9,10.8-46,14.5c-26.2-4.4-53.5,13.8-53,34.5c-3.4,2.1-3.5,0.7-4-1
	c-8.8-7-16.8-15-24-24c4.9-6.4,4.4-14.9-1-21.5c6.2-3.2,7.1-9.1,4-16C1158.4,427.3,1167.6,421.9,1170,409.2z M1166.5,488.8
	c-0.4-0.4-0.4-0.7,0-0.8c0.2,0.3,0.4,0.6,0.5,1L1166.5,488.8z"/>
<path fill="#B15CB4" stroke="#B15CB4" stroke-width="0.5" d="M577,8.2V8c11.1,11.9,16.8,25.1,17,39c-40.8,1.2-86.3-2.2-130-1
	c0,0.7,0,1.3,0,2c7.3,0.1,14.7,0,22,0.5c-1.7,0.1-6,1-7,1.5c-17.7-0.7-36.3-1.2-50-8c0.8-0.2,1.5-0.8,2-1.5c-1-0.3-2-0.7-3-1
	c15.9-15.6,33-13.2,55-18c-2.9,2.8-2.8,5.2-2,7C486.6,29.3,577,37.3,577,8.2z M581.5,21.2C580.8,19.3,584.4,29.8,581.5,21.2z
	 M563,25.2c0.8,0.2,1.5,0.6,2,1.3C562.8,26.9,561.7,25,563,25.2z M587.5,44.5C586.6,43.9,591.7,47.5,587.5,44.5z"/>
<path fill="#B25EB5" stroke="#B25EB5" stroke-width="0.5" d="M493,0.2V0c28.3,0,56.7,0,85,0c-0.7,2-0.7,4.5,0,6
	c-8.6,6.5-15,13.8-13,20.5c-26.2,7-56.2,5.2-84,2c1.9-1.7,0.7-3.9-1.5-6.5c-11.5,3-24.3,5.3-36.5,6.5C451.8,23.5,493,4.5,493,0.2z
	 M482.2,21.8c-0.3-0.6,0.2-0.6,0.3,0.2L482.2,21.8z M555,22C558.1,22,552.1,22,555,22z M557.2,23.8
	C557.4,24.2,560.4,25.4,557.2,23.8z"/>
<path fill="#D19ED2" stroke="#D19ED2" stroke-width="0.5" d="M1330.8,483.8c0.6-0.5,1.4-0.8,2.2-0.8c0,33,0,66,0,99
	c-26.5-15.7-58.7-30.2-82-42c6.5-11.8,1.2-1.5,17.8-10.6c12.7-6.9,28.7-8,40.3-17.3C1318.1,504.9,1321.4,488.5,1330.8,483.8z
	 M1328.2,487.8C1327.2,485.9,1329.3,488.3,1328.2,487.8z M1326.2,492C1325.9,489.6,1327.1,495,1326.2,492z M1319.2,503.8
	C1318.2,501.9,1320.3,504.3,1319.2,503.8z"/>
<path fill="#AC52AF" stroke="#AC52AF" stroke-width="0.5" d="M439,0.2V0c18,0,36,0,54,0c-23,10.9-46.1,24.5-65,39.5c1,0.3,2,0.7,3,1
	c-0.5,0.7-1.2,1.3-2,1.5c-28,11.4-68.3,76.9-98,30C341.7,43.4,439,12.8,439,0.2z M333.2,69.8C332.2,67.9,334.3,70.3,333.2,69.8z"/>
<path fill="#9F36A2" stroke="#9F36A2" stroke-width="0.5" d="M1332.5,364.2l0.5-0.2c0,22.3,0,44.7,0,67c-32.2-5.5-55.9,11.9-89,0.5
	c0.3-0.3,0.7-0.7,1-1c-0.7-0.3-1.3-0.7-2-1c0.7-0.3,1.3-0.7,2-1c-2.2-5.7,0.9-8.5,8-8.5C1277.6,402.2,1305.5,382.2,1332.5,364.2z
	 M1329.5,427.2C1327.4,426.2,1333.2,429.1,1329.5,427.2z"/>
<path fill="#911A95" stroke="#911A95" stroke-width="0.5" d="M688,325.2V325c76.8,25.9,142.2,61.9,224,76c-1,0-2,0-3,0
	c1.1,2.3,1.9,3.9,3,6c0.7,0,1.3,0,2,0c-0.1,1-0.3,2-0.5,3c-1-1.1-2.1-0.4-3,1c0.8,0.8,1.7,1.7,2.5,2.5c-10.4-1.7-15.9-1.7-4,4
	c-3-0.2-5.6,0.7-7,2.5c-26.6-1.1-57.3-6.1-81-16c1.5-0.6,3.2-0.9,5-1c-37.3-31.7-103.1-39.7-144-72c0.4,0.1,0.8-0.1,1-0.5
	c-2-0.5-3.3-1.9-4-4C681.7,326.4,685.7,325.8,688,325.2z"/>
<path fill="#C78AC9" stroke="#C78AC9" stroke-width="0.5" d="M792,124.2l-2-2.2c43.7,20,96,61.7,114,112.5
	c-7.4,2.5-13.3,0.1-21.5-3.5c-0.3,1.3-1.2,2.2-2.5,2.5c-1.4,4.3-1.4,9.3,1,13c-0.7,0.3-1.3,0.7-2,1c0.3,0.3,0.7,0.7,1,1
	c-2.5,1.7-4.5,1.5-6-0.5c-7-3.7-9.5-5.1-15-8.5c1.4,1.2,2.5,2.8,3,4.5c-22.4-19.5-37.8-52.1-58-74c10.2-16.2,1.2-33.9-15-45
	C790.2,125.6,794.8,127.4,792,124.2z M824.2,143.8C823.2,141.9,825.3,144.3,824.2,143.8z M840,158C840,154.4,840,161.6,840,158z
	 M817.2,185.8C816.2,183.9,818.3,186.3,817.2,185.8z M884.2,202l-0.2-1C888.1,205.6,888.3,206,884.2,202z M878.2,230.8
	C877.2,228.9,879.3,231.3,878.2,230.8z"/>
<path fill="#C280C4" stroke="#C280C4" stroke-width="0.5" d="M720.2,73.5C751.6,83,821.6,130.4,805,168c-30.7,8.6-59.9-41.7-62-62.5
	c-12.8-8.4-28.1-19.6-35-31c5.1,2.2,11.1,3.9,17,5C723.9,78.7,718.5,72.8,720.2,73.5z M712,79C712,75.4,712,82.6,712,79z M757.2,93
	C757,91.4,759.3,100.4,757.2,93z M789.2,125.8C788.2,123.9,790.3,126.3,789.2,125.8z M769,153C769,149.4,769,156.6,769,153z
	 M796.2,168.8C795.2,166.9,797.3,169.3,796.2,168.8z"/>
<path fill="#BC73BE" stroke="#BC73BE" stroke-width="0.5" d="M767.8,152.5l0.2-1.5c9.8,13.7,23.4,20.3,37,17
	c18.2,24.1,38.5,57.2,59,76c-0.7,1.6-1.2,3.3-1.5,5c-14.9-10.2-32.4-16.2-47-28c0.7,3.9,2,6.8,4.5,10c-23.8-18.1-48.2-40.6-67-63.5
	c0.2-0.1,1.5-1.4,1.5-1.5C760.7,163.6,766.9,157.2,767.8,152.5z M770.2,155.8C769.2,153.9,771.3,156.3,770.2,155.8z M760.8,170.2
	c1.2,1,1.9,2.2,2.2,3.8C760.7,173.1,756.3,167.9,760.8,170.2z M797.2,171.8C796.2,169.9,798.3,172.3,797.2,171.8z M816.2,186.8
	C815.2,184.9,817.3,187.3,816.2,186.8z M860,243c0-2.5,2,0.2,2,1C861.1,244.2,860.4,243.9,860,243z"/>
<path fill="#AA4DAD" stroke="#AA4DAD" stroke-width="0.5" d="M439.5,156.8c8.9,1.3,10,5.3,19.5,5.2c-0.9,4.3-2.3,6.4-4,10
	c23.1,6.2,44.3,18,66,28c-0.6,2.9-0.5,7.2-3,5c-2.3,0.4-3.7,1.7-4,4c3.2,0.3,5.5,1.6,6,4c-6.8-3-11.8-4-7,3
	c-24.5-1.9-83.4-27.5-90.5-47c-11.8-4.1-21.4-7.4-32.5-11c0-0.7,0-1.3,0-2C406.1,155.5,423.5,153.6,439.5,156.8z"/>
<path fill="#AA4DAD" stroke="#AA4DAD" stroke-width="0.5" d="M499.2,94l-0.2-1c28.5,9.4,58.5,16.4,87,23.5
	c13.6,1.1,47.9,16.5,32,27.5c-18.3-13.8-92.6-40.5-119-40C499.7,100.9,500.1,97,499.2,94z M572.5,116.2
	C571.4,113.4,573.1,117.9,572.5,116.2z"/>
<path fill="#CB91CD" stroke="#CB91CD" stroke-width="0.5" d="M825.8,251.2c20-4.8,10,18.7,25.2,37.3c-10.6,1.8-6.5,9.3,1,17
	c-1.8-0.6-3.4-0.6-4,0.5c-21.4-14.9-43.3-33.2-60-53.5c0.9-0.2,1.8-0.1,2.5,0.5c0.3-0.7,0.7-1.3,1-2c2.5,2.6,5.2,4.9,8,7
	c-5.5-7.2-13.4-17-18.5-23C798,238,809.7,243.2,825.8,251.2z M794.2,249C794.3,249.6,797.1,259.2,794.2,249z M795.5,257.8
	C794.1,256.2,802.1,264.8,795.5,257.8z"/>
<path fill="#B15CB4" stroke="#B15CB4" stroke-width="0.5" d="M619.5,92.5c4.3,0.4,4.8-0.7,2.5-3c1.7-0.5,3.7-1.5,5-2.5
	c19.2,11.9,32.2,21.6,23,39c-2.8,0-6.1-0.4-8.5-1c-0.1,1.7,0,3.4,0.5,5c-14.3-4.6-46.8-6.2-57.2-14.8c-8.7-7.2,0.6-18.1-11.8-28.2
	C588.7,87.1,604.1,92.5,619.5,92.5z M626,90c0.4-0.9,1.1-1.2,2-1c0,0.7,0,1.3,0,2C627.1,91.2,626.4,90.9,626,90z M649.5,108.8
	C648.7,106.5,651.6,114.5,649.5,108.8z M643.2,124.8c-0.3-0.6,0.2-0.6,0.3,0.2L643.2,124.8z"/>
<path fill="#C78AC9" stroke="#C78AC9" stroke-width="0.5" d="M745.2,168.8l-0.2-0.3c25.5,10.8,86.5,55.8,101,80c-1.3,0-2.7,0-4,0
	c1.8,1.9,3.5,3.9,5,6c-2.8-1-5-2.7-7.5-5.5c-0.1,1.2-0.8,2.5-1.5,3c-2.6-4.5-5.9-4.3-9,1c-26.1-15.8-65.6-16.9-77-44
	c3.9,2.3,7.4,5.3,10.5,9c-1-2.9-2.9-5.7-5.5-8c0.2,0,0.3,0,0.5,0c1.3-12.5-4-29-8-33C749.5,173.5,748,170.7,745.2,168.8z
	 M759.2,206.8C758.2,204.9,760.3,207.3,759.2,206.8z M815,223c2,2.7,3.4,4.9,5,8C812.6,226.8,814.7,222.2,815,223z M802,238
	C805.5,238,799.6,238,802,238z M804.2,240.8C803.2,238.9,805.3,241.3,804.2,240.8z"/>
<path fill="#8E1292" stroke="#8E1292" stroke-width="0.5" d="M168.8,246.5l1.2-1.5c-1.7,4-17.2,159.6-33.5,97c-3.3,0.5-5.5,2-6,5
	c-1-1.6-2.1-2.2-3.5-1C138.4,304.3,143.4,274.7,168.8,246.5z"/>
<path fill="#A440A7" stroke="#A440A7" stroke-width="0.5" d="M705,176c1.3,0.5,2.5,1.2,3.5,2c-0.5-6.8-0.5-14,0-22
	c-3.1-1.6-3.2-3.8-0.5-6c7.8,7,15.6,14.4,22,21c-0.7,0-1.3,0-2,0c0,0.7,0,1.3,0,2c-11,6.9-27.5,16.7-40,22c-1.1-2.4-2.8-4.1-4-4
	c-1.5-0.7-3.3-1-5-1c0.2,5.4-1.2,9.4-4,12c-6-6.7-14-13.8-22-19.5c8.3-6.7-34.1-15.3-40-37.5C644.3,135.5,677,164,705,176z
	 M634.2,167C635.1,163.8,633.7,170.8,634.2,167z M716.2,178.8C715.2,176.9,717.3,179.3,716.2,178.8z"/>
<path fill="#A84AAC" stroke="#A84AAC" stroke-width="0.5" d="M572.5,89c16.4,1.3,17.8,12.8,13.5,27.5c-34.2-5.5-72.8-19.8-109-29
	c1.7-0.3,3.3-0.7,5-1c-20.6,0.6-42.4,0.4-62-1.5c4.2-2.4,11-3.3,17-2.5c-7-0.1-14.1-0.8-21-2C467.6,75.3,523.7,89,572.5,89z
	 M563.2,85.8C562.2,83.9,564.3,86.3,563.2,85.8z"/>
<path fill="#AF57B2" stroke="#AF57B2" stroke-width="0.5" d="M504.8,55.8c27.6,2.5,118.3-7.3,125.7,30.2c-1-0.6-2-1.3-3-2
	c-0.2,1.1,0,2.1,0.5,3C604.4,75.4,521.6,47.4,504.8,55.8z"/>
<path fill="#AF57B2" stroke="#AF57B2" stroke-width="0.5" d="M592.5,46.2L593,46c14,6.1,26.5,15,29,22c-47.1-4.6-98.5-5.6-143-18
	c1-0.5,5.3-1.4,7-1.5c-7.3-0.5-14.7-0.4-22-0.5c0-0.7,0-1.3,0-2C494.7,45.2,574,58.6,592.5,46.2z M603,55C603,51.4,603,58.6,603,55z
	"/>
<path fill="#BC73BE" stroke="#BC73BE" stroke-width="0.5" d="M450.2,146l-0.2-1c35.5,7,85.8,9.6,111,30c0,0.2,0,0.3,0,0.5
	c-2.4,0-4.7-0.3-7-1c2.9,3.1,5.9,6.1,9,9c-9-0.1-9,2.1-2,6c-37-5.3-76.8-28-110-35.5c0.2-1.7,0.6-3.4,1-5c-0.7-0.1-1.3-0.3-2-0.5
	C450.8,147.8,450.5,147.2,450.2,146z"/>
<path fill="#9C30A0" stroke="#9C30A0" stroke-width="0.5" d="M246.5,176.8c1.6-0.3,2.6,0.1,3.5,1.2c-10,23.8-33.1,45.4-52,52.5
	c-4.4-9-13.8-3-20.5,0.5c0,0.9-0.3,1.8-1,2C185.5,199.3,209.7,172.5,246.5,176.8z M216.2,181.8C215.2,179.9,217.3,182.3,216.2,181.8
	z M211,183C214.6,183,207.4,183,211,183z M203.2,190.8C202.2,188.9,204.3,191.3,203.2,190.8z"/>
<path fill="#D6A8D7" stroke="#D6A8D7" stroke-width="0.5" d="M714.5,158c22.8,11.2,49.3,24.9,45.5,49c-1,0.1-2,0.3-3,0.5
	c0.6,0.7,0.7,1.6,0.5,2.5c-2.5-1.5-5-3.6-7-6c0.1,1.8,0.6,3.3,1.5,5c-11.9,8.6-63.5-0.7-68-18.5c17-2.8,30.3-9.6,44-18
	C725,168.9,713.8,159.6,714.5,158z M727.2,167.8C730.9,169.9,728.2,167.6,727.2,167.8z"/>
<path fill="#AC52AF" stroke="#AC52AF" stroke-width="0.5" d="M636.5,129.8c21.6,10.1,48,16.9,74.5,26.2c-4,10.2-4.1,17.1,0,23
	c-38.7-19.6-81.8-29.9-109-58C614.2,120.2,624.1,128.7,636.5,129.8z M689.2,149.8C688.2,147.9,690.3,150.3,689.2,149.8z"/>
<path fill="#C78AC9" stroke="#C78AC9" stroke-width="0.5" d="M626,75.5V72c38.3,24,77.6,36,82,84c-20.5-11.4-50.6-11.8-68-26
	c0.7,0,1.3,0,2,0c-0.5-1.6-0.6-3.3-0.5-5c1,0.6,1.8,0.6,2,0c2.2,0.2,4.4,0.5,6.5,1c4.1-18.5-11.3-30.9-25-43c2,0.7,3.9,1.7,5.5,3
	C629.6,82.9,626,78.5,626,75.5z M628.2,77.8C627.2,75.9,629.3,78.3,628.2,77.8z M639,82C639,78.4,639,85.6,639,82z M654,108
	C650,108.7,652.4,104.2,654,108z M690.2,115.8C689.2,113.9,691.3,116.3,690.2,115.8z M698.2,124.8
	C697.2,122.9,699.3,125.3,698.2,124.8z"/>
<path fill="#8F1493" stroke="#8F1493" stroke-width="0.5" d="M295.5,209.8c-9.4,31.6-40.7,121.6-77.5,106.2
	C223,304.3,275.8,196.7,295.5,209.8z"/>
<path fill="#AC52AF" stroke="#AC52AF" stroke-width="0.5" d="M395.5,100.5c38-3.7,77,8.4,104.5,28.5c0,0.6,0.4,0.9,1,1
	c-34.7,7.8-72.4-7.8-107-17.5C401.4,107.9,393.7,106.6,395.5,100.5z"/>
</svg>
