<?xml version="1.0" encoding="utf-8"?>
<!-- Generator: Adobe Illustrator 20.1.0, SVG Export Plug-In . SVG Version: 6.00 Build 0)  -->
<svg version="1.1" id="Layer_1" xmlns="http://www.w3.org/2000/svg" xmlns:xlink="http://www.w3.org/1999/xlink" x="0px" y="0px"
	 viewBox="0 0 129.6 129.6" style="enable-background:new 0 0 129.6 129.6;" xml:space="preserve">
<style type="text/css">
	.st0{fill:#F37E26;}
	.st1{fill:#F7BE99;}
</style>
<g>
	<g>
		<g>
			<path class="st0" d="M32.807,76.191c0.103,0,0.191,0.039,0.266,0.119l0.742,0.805c-0.411,0.509-0.916,0.898-1.516,1.169
				S30.98,78.69,30.14,78.69c-0.752,0-1.427-0.129-2.026-0.386c-0.6-0.256-1.112-0.613-1.537-1.07
				c-0.425-0.458-0.75-1.004-0.977-1.639c-0.227-0.634-0.339-1.327-0.339-2.078c0-0.761,0.126-1.458,0.378-2.09
				c0.252-0.633,0.606-1.177,1.063-1.635c0.458-0.457,1.005-0.812,1.642-1.067c0.637-0.254,1.341-0.382,2.11-0.382
				c0.752,0,1.408,0.12,1.971,0.361c0.562,0.24,1.044,0.559,1.445,0.955l-0.63,0.875c-0.037,0.056-0.085,0.104-0.144,0.146
				c-0.059,0.043-0.139,0.063-0.241,0.063c-0.107,0-0.217-0.042-0.329-0.126s-0.254-0.175-0.427-0.273
				c-0.173-0.098-0.391-0.188-0.654-0.272s-0.599-0.126-1.005-0.126c-0.476,0-0.913,0.083-1.312,0.248
				c-0.399,0.166-0.742,0.402-1.029,0.711c-0.287,0.308-0.511,0.683-0.672,1.123c-0.161,0.441-0.241,0.938-0.241,1.488
				c0,0.569,0.08,1.075,0.241,1.519s0.379,0.816,0.654,1.12s0.6,0.535,0.974,0.696c0.373,0.161,0.774,0.241,1.204,0.241
				c0.256,0,0.488-0.014,0.696-0.042c0.207-0.027,0.398-0.072,0.574-0.133c0.175-0.061,0.34-0.139,0.497-0.234
				c0.156-0.096,0.312-0.214,0.465-0.354c0.047-0.042,0.096-0.076,0.147-0.102C32.689,76.204,32.746,76.191,32.807,76.191z"/>
			<path class="st0" d="M39.31,77.059c0.363,0,0.689-0.062,0.976-0.183c0.287-0.121,0.53-0.291,0.729-0.511s0.35-0.485,0.455-0.798
				c0.104-0.312,0.157-0.663,0.157-1.05v-6.062h1.883v6.062c0,0.602-0.097,1.158-0.29,1.669s-0.473,0.952-0.837,1.323
				c-0.363,0.371-0.805,0.66-1.322,0.868c-0.519,0.207-1.102,0.312-1.75,0.312c-0.649,0-1.232-0.104-1.75-0.312
				c-0.519-0.208-0.958-0.497-1.32-0.868c-0.361-0.371-0.639-0.812-0.833-1.323c-0.193-0.511-0.29-1.067-0.29-1.669v-6.062h1.883
				v6.055c0,0.388,0.053,0.737,0.157,1.051c0.105,0.312,0.256,0.579,0.452,0.801c0.195,0.222,0.438,0.394,0.725,0.515
				S38.945,77.059,39.31,77.059z"/>
			<path class="st0" d="M50.852,70.296c-0.051,0.103-0.11,0.175-0.178,0.217s-0.148,0.063-0.242,0.063
				c-0.093,0-0.198-0.036-0.314-0.108c-0.117-0.072-0.255-0.153-0.413-0.241c-0.159-0.089-0.345-0.17-0.557-0.242
				s-0.463-0.108-0.752-0.108c-0.262,0-0.489,0.031-0.683,0.095c-0.194,0.062-0.357,0.15-0.49,0.263
				c-0.133,0.111-0.232,0.246-0.298,0.402s-0.098,0.328-0.098,0.515c0,0.237,0.066,0.437,0.199,0.595
				c0.133,0.159,0.31,0.294,0.528,0.406c0.22,0.111,0.47,0.212,0.749,0.301c0.28,0.089,0.566,0.184,0.857,0.283
				c0.292,0.101,0.578,0.218,0.857,0.351c0.28,0.133,0.53,0.301,0.749,0.504c0.22,0.203,0.396,0.451,0.529,0.745
				c0.133,0.294,0.199,0.651,0.199,1.071c0,0.457-0.078,0.886-0.234,1.284c-0.156,0.399-0.385,0.747-0.687,1.043
				c-0.301,0.297-0.668,0.53-1.103,0.7c-0.434,0.17-0.931,0.256-1.49,0.256c-0.322,0-0.64-0.032-0.952-0.095
				s-0.612-0.153-0.899-0.27s-0.556-0.257-0.806-0.42c-0.249-0.163-0.472-0.346-0.668-0.546l0.546-0.903
				c0.051-0.065,0.113-0.12,0.186-0.164c0.072-0.045,0.152-0.066,0.241-0.066c0.117,0,0.243,0.048,0.378,0.143
				c0.136,0.096,0.295,0.202,0.479,0.319c0.185,0.116,0.401,0.223,0.651,0.318c0.249,0.096,0.55,0.144,0.899,0.144
				c0.536,0,0.952-0.127,1.246-0.382c0.294-0.254,0.44-0.619,0.44-1.096c0-0.266-0.066-0.482-0.199-0.65s-0.309-0.31-0.528-0.424
				s-0.469-0.211-0.749-0.29c-0.28-0.08-0.564-0.166-0.854-0.26c-0.289-0.093-0.573-0.205-0.854-0.336
				c-0.28-0.13-0.529-0.301-0.749-0.511s-0.396-0.473-0.528-0.787c-0.133-0.315-0.199-0.704-0.199-1.166
				c0-0.368,0.073-0.728,0.22-1.078c0.147-0.35,0.362-0.66,0.645-0.931s0.629-0.487,1.039-0.651c0.411-0.163,0.88-0.245,1.407-0.245
				c0.598,0,1.148,0.094,1.652,0.28s0.933,0.448,1.288,0.784L50.852,70.296z"/>
			<path class="st0" d="M60.071,68.456v1.547h-3.045v8.575h-1.883v-8.575h-3.06v-1.547H60.071z"/>
			<path class="st0" d="M70.431,73.517c0,0.741-0.123,1.429-0.371,2.062c-0.247,0.632-0.595,1.179-1.043,1.641
				c-0.447,0.462-0.986,0.823-1.616,1.082c-0.631,0.259-1.328,0.389-2.094,0.389c-0.765,0-1.464-0.13-2.096-0.389
				c-0.633-0.259-1.174-0.62-1.624-1.082c-0.451-0.462-0.8-1.009-1.047-1.641c-0.247-0.633-0.371-1.32-0.371-2.062
				s0.124-1.43,0.371-2.062c0.247-0.633,0.596-1.18,1.047-1.642c0.45-0.462,0.991-0.823,1.624-1.082
				c0.632-0.259,1.331-0.389,2.096-0.389c0.766,0,1.463,0.131,2.094,0.393c0.63,0.261,1.169,0.622,1.616,1.081
				c0.448,0.46,0.796,1.006,1.043,1.639C70.308,72.087,70.431,72.775,70.431,73.517z M68.499,73.517
				c0-0.556-0.073-1.054-0.221-1.495c-0.146-0.44-0.358-0.815-0.634-1.123c-0.275-0.309-0.609-0.544-1.004-0.707
				s-0.839-0.245-1.334-0.245c-0.494,0-0.94,0.082-1.337,0.245s-0.733,0.398-1.012,0.707c-0.277,0.308-0.491,0.683-0.64,1.123
				c-0.149,0.441-0.225,0.939-0.225,1.495c0,0.555,0.075,1.053,0.225,1.494c0.148,0.44,0.362,0.814,0.64,1.12
				s0.615,0.54,1.012,0.703s0.843,0.245,1.337,0.245c0.495,0,0.939-0.082,1.334-0.245s0.729-0.397,1.004-0.703
				s0.487-0.68,0.634-1.12C68.426,74.57,68.499,74.072,68.499,73.517z"/>
			<path class="st0" d="M77.218,74.843c0.067,0.161,0.134,0.323,0.199,0.486c0.065-0.168,0.134-0.334,0.203-0.497
				c0.07-0.163,0.145-0.319,0.225-0.469l2.995-5.607c0.038-0.069,0.076-0.126,0.116-0.168c0.039-0.042,0.084-0.072,0.133-0.091
				s0.104-0.03,0.164-0.035c0.061-0.004,0.134-0.007,0.218-0.007h1.421v10.122h-1.659V72.04c0-0.121,0.003-0.254,0.011-0.398
				c0.007-0.146,0.018-0.292,0.031-0.441l-3.06,5.74c-0.069,0.131-0.16,0.231-0.272,0.304s-0.243,0.109-0.392,0.109h-0.26
				c-0.149,0-0.279-0.036-0.392-0.109c-0.112-0.072-0.203-0.173-0.273-0.304l-3.101-5.762c0.019,0.154,0.031,0.305,0.038,0.452
				c0.008,0.146,0.011,0.283,0.011,0.409v6.538h-1.659V68.456h1.421c0.084,0,0.156,0.003,0.218,0.007
				c0.061,0.005,0.115,0.017,0.164,0.035s0.095,0.049,0.137,0.091s0.081,0.099,0.119,0.168l3.023,5.621
				C77.076,74.527,77.15,74.682,77.218,74.843z"/>
			<path class="st0" d="M91.318,68.456v1.498h-4.486v2.807h3.535v1.449h-3.535v2.863h4.486v1.505h-6.384V68.456H91.318z"/>
			<path class="st0" d="M94.896,74.623v3.955h-1.883V68.456H96.1c0.691,0,1.282,0.071,1.774,0.214
				c0.493,0.143,0.896,0.342,1.212,0.599c0.314,0.256,0.546,0.563,0.692,0.92c0.147,0.357,0.221,0.75,0.221,1.18
				c0,0.341-0.05,0.663-0.15,0.966c-0.101,0.304-0.245,0.579-0.435,0.826c-0.188,0.247-0.422,0.465-0.699,0.651
				c-0.278,0.187-0.595,0.336-0.949,0.447c0.238,0.136,0.443,0.329,0.616,0.581l2.534,3.738h-1.694
				c-0.163,0-0.302-0.032-0.416-0.098s-0.211-0.159-0.291-0.28l-2.128-3.241c-0.079-0.121-0.167-0.207-0.263-0.259
				s-0.236-0.077-0.423-0.077C95.701,74.623,94.896,74.623,94.896,74.623z M94.896,73.272h1.177c0.354,0,0.663-0.045,0.927-0.134
				c0.264-0.088,0.481-0.211,0.651-0.367s0.298-0.342,0.382-0.557c0.084-0.214,0.126-0.45,0.126-0.707
				c0-0.513-0.169-0.907-0.508-1.183c-0.338-0.275-0.855-0.413-1.551-0.413h-1.204V73.272z"/>
			<path class="st0" d="M41.192,84.391c-0.052,0.103-0.111,0.175-0.179,0.217s-0.148,0.063-0.241,0.063
				c-0.094,0-0.198-0.036-0.315-0.108c-0.116-0.072-0.254-0.153-0.413-0.241c-0.158-0.089-0.344-0.17-0.556-0.242
				c-0.213-0.072-0.464-0.108-0.753-0.108c-0.262,0-0.489,0.031-0.683,0.095c-0.193,0.062-0.356,0.15-0.49,0.263
				c-0.133,0.111-0.231,0.246-0.297,0.402s-0.099,0.328-0.099,0.515c0,0.237,0.066,0.437,0.2,0.595
				c0.133,0.159,0.309,0.294,0.528,0.406c0.219,0.111,0.469,0.212,0.749,0.301s0.565,0.184,0.857,0.283
				c0.291,0.101,0.577,0.218,0.857,0.351s0.529,0.301,0.749,0.504s0.396,0.451,0.528,0.745s0.199,0.651,0.199,1.071
				c0,0.457-0.078,0.886-0.234,1.284c-0.156,0.399-0.385,0.747-0.686,1.043c-0.301,0.297-0.669,0.53-1.103,0.7
				c-0.435,0.17-0.931,0.256-1.491,0.256c-0.322,0-0.64-0.032-0.952-0.095s-0.612-0.153-0.899-0.27s-0.556-0.257-0.805-0.42
				c-0.25-0.163-0.473-0.346-0.669-0.546l0.546-0.903c0.052-0.065,0.113-0.12,0.186-0.164c0.072-0.045,0.153-0.066,0.242-0.066
				c0.116,0,0.242,0.048,0.378,0.143c0.135,0.096,0.295,0.202,0.479,0.319c0.184,0.116,0.401,0.223,0.65,0.318
				c0.25,0.096,0.55,0.144,0.899,0.144c0.537,0,0.952-0.127,1.246-0.382c0.294-0.254,0.441-0.619,0.441-1.096
				c0-0.266-0.066-0.482-0.199-0.65c-0.134-0.168-0.31-0.31-0.529-0.424c-0.219-0.114-0.469-0.211-0.749-0.29
				c-0.279-0.08-0.564-0.166-0.854-0.26c-0.289-0.093-0.574-0.205-0.854-0.336c-0.279-0.13-0.529-0.301-0.748-0.511
				c-0.22-0.21-0.396-0.473-0.529-0.787c-0.133-0.315-0.199-0.704-0.199-1.166c0-0.368,0.073-0.728,0.221-1.078
				c0.146-0.35,0.361-0.66,0.644-0.931s0.629-0.487,1.04-0.651c0.41-0.163,0.879-0.245,1.407-0.245c0.597,0,1.147,0.094,1.651,0.28
				s0.934,0.448,1.288,0.784L41.192,84.391z"/>
			<path class="st0" d="M49.662,82.55v1.498h-4.486v2.807h3.535v1.449h-3.535v2.863h4.486v1.505h-6.384V82.55H49.662z"/>
			<path class="st0" d="M53.239,88.717v3.955h-1.883V82.55h3.087c0.69,0,1.282,0.071,1.774,0.214s0.896,0.342,1.211,0.599
				c0.315,0.256,0.546,0.563,0.693,0.92c0.146,0.357,0.22,0.75,0.22,1.18c0,0.341-0.05,0.663-0.15,0.966
				c-0.1,0.304-0.245,0.579-0.434,0.826c-0.189,0.247-0.423,0.465-0.7,0.651s-0.594,0.336-0.948,0.447
				c0.238,0.136,0.443,0.329,0.616,0.581l2.533,3.738h-1.693c-0.164,0-0.303-0.032-0.417-0.098s-0.211-0.159-0.29-0.28l-2.128-3.241
				c-0.08-0.121-0.167-0.207-0.263-0.259s-0.237-0.077-0.424-0.077C54.043,88.717,53.239,88.717,53.239,88.717z M53.239,87.367
				h1.176c0.354,0,0.664-0.045,0.928-0.134c0.264-0.088,0.48-0.211,0.651-0.367c0.17-0.156,0.297-0.342,0.381-0.557
				c0.084-0.214,0.126-0.45,0.126-0.707c0-0.513-0.169-0.907-0.507-1.183c-0.339-0.275-0.855-0.413-1.551-0.413h-1.204
				C53.239,84.006,53.239,87.367,53.239,87.367z"/>
			<path class="st0" d="M59.469,82.55h1.52c0.163,0,0.296,0.04,0.398,0.119c0.104,0.079,0.18,0.182,0.231,0.308l2.38,6.174
				c0.079,0.201,0.155,0.422,0.228,0.662s0.142,0.493,0.207,0.76c0.106-0.537,0.24-1.011,0.398-1.422l2.373-6.174
				c0.042-0.107,0.116-0.205,0.224-0.294c0.107-0.088,0.241-0.133,0.399-0.133h1.519l-4.088,10.122h-1.7L59.469,82.55z"/>
			<path class="st0" d="M72.524,92.672h-1.891V82.55h1.891V92.672z"/>
			<path class="st0" d="M81.757,90.286c0.103,0,0.191,0.039,0.267,0.119l0.741,0.805c-0.41,0.509-0.915,0.898-1.515,1.169
				c-0.601,0.271-1.32,0.406-2.16,0.406c-0.751,0-1.427-0.129-2.026-0.386c-0.6-0.256-1.111-0.613-1.536-1.07
				c-0.425-0.458-0.75-1.004-0.977-1.639c-0.227-0.634-0.34-1.327-0.34-2.078c0-0.761,0.126-1.458,0.378-2.09
				c0.252-0.633,0.606-1.177,1.064-1.635c0.457-0.457,1.004-0.812,1.642-1.067c0.637-0.254,1.34-0.382,2.11-0.382
				c0.751,0,1.408,0.12,1.971,0.361c0.562,0.24,1.044,0.559,1.445,0.955l-0.63,0.875c-0.038,0.056-0.086,0.104-0.144,0.146
				c-0.059,0.043-0.139,0.063-0.242,0.063c-0.107,0-0.217-0.042-0.328-0.126c-0.112-0.084-0.255-0.175-0.428-0.273
				c-0.173-0.098-0.391-0.188-0.654-0.272s-0.599-0.126-1.005-0.126c-0.476,0-0.913,0.083-1.312,0.248
				C77.68,84.456,77.337,84.692,77.05,85c-0.287,0.308-0.511,0.683-0.672,1.123c-0.161,0.441-0.242,0.938-0.242,1.488
				c0,0.569,0.081,1.075,0.242,1.519s0.379,0.816,0.654,1.12s0.6,0.535,0.973,0.696s0.774,0.241,1.204,0.241
				c0.257,0,0.489-0.014,0.696-0.042c0.208-0.027,0.399-0.072,0.574-0.133c0.175-0.061,0.341-0.139,0.497-0.234
				s0.312-0.214,0.466-0.354c0.046-0.042,0.096-0.076,0.146-0.102C81.641,90.298,81.696,90.286,81.757,90.286z"/>
			<path class="st0" d="M90.569,82.55v1.498h-4.486v2.807h3.535v1.449h-3.535v2.863h4.486v1.505h-6.384V82.55H90.569z"/>
		</g>
	</g>
	<path class="st0" d="M64.8,129.6C29.069,129.6,0,100.531,0,64.8S29.069,0,64.8,0s64.8,29.069,64.8,64.8S100.53,129.6,64.8,129.6z
		 M64.8,1.5C29.896,1.5,1.5,29.896,1.5,64.8c0,34.903,28.396,63.3,63.3,63.3s63.3-28.396,63.3-63.3S99.703,1.5,64.8,1.5z"/>
	<path class="st0" d="M64.8,125.191C31.5,125.191,4.409,98.1,4.409,64.8S31.5,4.41,64.8,4.41s60.39,27.09,60.39,60.39
		S98.1,125.191,64.8,125.191z M64.8,5.91C32.327,5.91,5.909,32.328,5.909,64.8s26.418,58.891,58.891,58.891
		s58.89-26.418,58.89-58.891S97.272,5.91,64.8,5.91z"/>
	<g>
		<g>
			<polygon class="st1" points="66.707,9.901 66.003,18.284 63.666,18.276 62.962,9.887 			"/>
			<path class="st1" d="M60.488,10.019l0.216,8.418c-0.78,0.067-1.555,0.154-2.324,0.263l-1.615-8.254
				C57.993,10.262,59.233,10.116,60.488,10.019L60.488,10.019z"/>
			<path class="st1" d="M53.832,10.968l1.207,8.327c-0.766,0.167-1.525,0.353-2.278,0.558l-2.576-7.987
				C51.386,11.527,52.602,11.226,53.832,10.968L53.832,10.968z"/>
			<path class="st1" d="M47.387,12.746l2.172,8.11c-0.74,0.263-1.472,0.545-2.194,0.845l-3.491-7.6
				C45.026,13.611,46.197,13.158,47.387,12.746L47.387,12.746z"/>
			<path class="st1" d="M41.273,15.295l3.093,7.78c-0.703,0.352-1.396,0.725-2.079,1.114l-4.345-7.108
				C39.031,16.447,40.14,15.851,41.273,15.295L41.273,15.295z"/>
			<path class="st1" d="M35.346,18.69l3.993,7.325c-0.654,0.44-1.298,0.898-1.93,1.372l-5.155-6.497
				C33.26,20.123,34.29,19.388,35.346,18.69L35.346,18.69z"/>
			<path class="st1" d="M29.747,22.924l4.853,6.743c-0.596,0.522-1.18,1.061-1.75,1.612l-5.905-5.769
				C27.851,24.616,28.785,23.753,29.747,22.924L29.747,22.924z"/>
			<path class="st1" d="M24.646,27.924l5.639,6.041c-0.528,0.597-1.042,1.206-1.54,1.83l-6.563-4.935
				C22.972,29.851,23.793,28.873,24.646,27.924L24.646,27.924z"/>
			<path class="st1" d="M20.685,32.859c-0.744,1.042-1.457,2.109-2.133,3.204l7.063,4.138c0.428-0.679,0.872-1.345,1.33-2
				L20.685,32.859L20.685,32.859z"/>
			<path class="st1" d="M17.285,38.225c-0.627,1.121-1.216,2.268-1.769,3.436l7.464,3.283c0.353-0.725,0.72-1.441,1.106-2.145
				L17.285,38.225L17.285,38.225z"/>
			<path class="st1" d="M14.49,43.959c-0.5,1.187-0.963,2.394-1.385,3.622l7.77,2.385c0.271-0.763,0.561-1.518,0.867-2.262
				L14.49,43.959L14.49,43.959z"/>
			<path class="st1" d="M12.335,49.984c-0.368,1.237-0.695,2.491-0.98,3.763l7.983,1.46c0.186-0.791,0.391-1.575,0.613-2.35
				L12.335,49.984L12.335,49.984z"/>
			<path class="st1" d="M10.855,56.226c-0.227,1.27-0.414,2.556-0.561,3.854l8.084,0.513c0.098-0.808,0.216-1.61,0.353-2.406
				L10.855,56.226L10.855,56.226z"/>
			<path class="st1" d="M10.064,62.601c-0.089,1.287-0.137,2.586-0.142,3.894l8.092-0.437c0.012-0.815,0.042-1.626,0.09-2.432
				L10.064,62.601L10.064,62.601z"/>
			<path class="st1" d="M69.181,10.019c1.255,0.097,2.495,0.243,3.724,0.427L71.29,18.7c-0.77-0.108-1.544-0.195-2.324-0.263
				L69.181,10.019L69.181,10.019z"/>
			<path class="st1" d="M75.837,10.968c1.231,0.257,2.446,0.559,3.646,0.898l-2.576,7.987c-0.753-0.205-1.512-0.392-2.278-0.558
				L75.837,10.968L75.837,10.968z"/>
			<path class="st1" d="M82.282,12.746c1.19,0.412,2.361,0.864,3.514,1.355l-3.491,7.6c-0.722-0.3-1.454-0.583-2.194-0.845
				L82.282,12.746L82.282,12.746z"/>
			<path class="st1" d="M88.396,15.295c1.133,0.556,2.242,1.152,3.331,1.786l-4.345,7.108c-0.683-0.389-1.376-0.762-2.079-1.114
				L88.396,15.295L88.396,15.295z"/>
			<path class="st1" d="M94.323,18.69c1.056,0.698,2.086,1.433,3.092,2.201l-5.155,6.497c-0.632-0.474-1.276-0.932-1.93-1.372
				L94.323,18.69L94.323,18.69z"/>
			<path class="st1" d="M99.922,22.924c0.962,0.829,1.896,1.692,2.802,2.586l-5.905,5.769c-0.57-0.552-1.154-1.09-1.75-1.612
				L99.922,22.924L99.922,22.924z"/>
			<path class="st1" d="M105.023,27.924c0.853,0.949,1.674,1.927,2.463,2.936l-6.563,4.935c-0.498-0.624-1.012-1.233-1.54-1.83
				L105.023,27.924L105.023,27.924z"/>
			<path class="st1" d="M108.984,32.859l-6.261,5.342c0.459,0.655,0.902,1.321,1.33,2l7.063-4.138
				C110.44,34.968,109.728,33.9,108.984,32.859L108.984,32.859z"/>
			<path class="st1" d="M112.384,38.225l-6.801,4.574c0.386,0.703,0.754,1.42,1.106,2.145l7.464-3.283
				C113.6,40.493,113.011,39.346,112.384,38.225L112.384,38.225z"/>
			<path class="st1" d="M115.179,43.959l-7.252,3.746c0.306,0.744,0.596,1.499,0.867,2.262l7.77-2.385
				C116.142,46.353,115.679,45.145,115.179,43.959L115.179,43.959z"/>
			<path class="st1" d="M117.334,49.984l-7.615,2.873c0.222,0.775,0.427,1.559,0.613,2.35l7.983-1.46
				C118.028,52.475,117.701,51.221,117.334,49.984L117.334,49.984z"/>
			<path class="st1" d="M118.814,56.226l-7.876,1.961c0.137,0.796,0.255,1.598,0.353,2.406l8.084-0.513
				C119.228,58.782,119.041,57.496,118.814,56.226L118.814,56.226z"/>
			<path class="st1" d="M119.605,62.601l-8.04,1.025c0.049,0.806,0.079,1.617,0.09,2.432l8.092,0.437
				C119.742,65.187,119.694,63.887,119.605,62.601L119.605,62.601z"/>
		</g>
		<g>
			<polygon class="st1" points="66.707,9.901 66.003,18.284 63.666,18.276 62.962,9.887 			"/>
			<path class="st1" d="M60.488,10.019l0.216,8.418c-0.78,0.067-1.555,0.154-2.324,0.263l-1.615-8.254
				C57.993,10.262,59.233,10.116,60.488,10.019L60.488,10.019z"/>
			<path class="st1" d="M53.832,10.968l1.207,8.327c-0.766,0.167-1.525,0.353-2.278,0.558l-2.576-7.987
				C51.386,11.527,52.602,11.226,53.832,10.968L53.832,10.968z"/>
			<path class="st1" d="M47.387,12.746l2.172,8.11c-0.74,0.263-1.472,0.545-2.194,0.845l-3.491-7.6
				C45.026,13.611,46.197,13.158,47.387,12.746L47.387,12.746z"/>
			<path class="st1" d="M41.273,15.295l3.093,7.78c-0.703,0.352-1.396,0.725-2.079,1.114l-4.345-7.108
				C39.031,16.447,40.14,15.851,41.273,15.295L41.273,15.295z"/>
			<path class="st1" d="M35.346,18.69l3.993,7.325c-0.654,0.44-1.298,0.898-1.93,1.372l-5.155-6.497
				C33.26,20.123,34.29,19.388,35.346,18.69L35.346,18.69z"/>
			<path class="st1" d="M29.747,22.924l4.853,6.743c-0.596,0.522-1.18,1.061-1.75,1.612l-5.905-5.769
				C27.851,24.616,28.785,23.753,29.747,22.924L29.747,22.924z"/>
			<path class="st1" d="M24.646,27.924l5.639,6.041c-0.528,0.597-1.042,1.206-1.54,1.83l-6.563-4.935
				C22.972,29.851,23.793,28.873,24.646,27.924L24.646,27.924z"/>
			<path class="st1" d="M20.685,32.859c-0.744,1.042-1.457,2.109-2.133,3.204l7.063,4.138c0.428-0.679,0.872-1.345,1.33-2
				L20.685,32.859L20.685,32.859z"/>
			<path class="st1" d="M17.285,38.225c-0.627,1.121-1.216,2.268-1.769,3.436l7.464,3.283c0.353-0.725,0.72-1.441,1.106-2.145
				L17.285,38.225L17.285,38.225z"/>
			<path class="st1" d="M14.49,43.959c-0.5,1.187-0.963,2.394-1.385,3.622l7.77,2.385c0.271-0.763,0.561-1.518,0.867-2.262
				L14.49,43.959L14.49,43.959z"/>
			<path class="st1" d="M12.335,49.984c-0.368,1.237-0.695,2.491-0.98,3.763l7.983,1.46c0.186-0.791,0.391-1.575,0.613-2.35
				L12.335,49.984L12.335,49.984z"/>
			<path class="st1" d="M10.855,56.226c-0.227,1.27-0.414,2.556-0.561,3.854l8.084,0.513c0.098-0.808,0.216-1.61,0.353-2.406
				L10.855,56.226L10.855,56.226z"/>
			<path class="st1" d="M10.064,62.601c-0.089,1.287-0.137,2.586-0.142,3.894l8.092-0.437c0.012-0.815,0.042-1.626,0.09-2.432
				L10.064,62.601L10.064,62.601z"/>
			<path class="st1" d="M69.181,10.019c1.255,0.097,2.495,0.243,3.724,0.427L71.29,18.7c-0.77-0.108-1.544-0.195-2.324-0.263
				L69.181,10.019L69.181,10.019z"/>
			<path class="st1" d="M75.837,10.968c1.231,0.257,2.446,0.559,3.646,0.898l-2.576,7.987c-0.753-0.205-1.512-0.392-2.278-0.558
				L75.837,10.968L75.837,10.968z"/>
			<path class="st1" d="M82.282,12.746c1.19,0.412,2.361,0.864,3.514,1.355l-3.491,7.6c-0.722-0.3-1.454-0.583-2.194-0.845
				L82.282,12.746L82.282,12.746z"/>
			<path class="st1" d="M88.396,15.295c1.133,0.556,2.242,1.152,3.331,1.786l-4.345,7.108c-0.683-0.389-1.376-0.762-2.079-1.114
				L88.396,15.295L88.396,15.295z"/>
			<path class="st1" d="M94.323,18.69c1.056,0.698,2.086,1.433,3.092,2.201l-5.155,6.497c-0.632-0.474-1.276-0.932-1.93-1.372
				L94.323,18.69L94.323,18.69z"/>
			<path class="st1" d="M99.922,22.924c0.962,0.829,1.896,1.692,2.802,2.586l-5.905,5.769c-0.57-0.552-1.154-1.09-1.75-1.612
				L99.922,22.924L99.922,22.924z"/>
			<path class="st1" d="M105.023,27.924c0.853,0.949,1.674,1.927,2.463,2.936l-6.563,4.935c-0.498-0.624-1.012-1.233-1.54-1.83
				L105.023,27.924L105.023,27.924z"/>
			<path class="st1" d="M108.984,32.859l-6.261,5.342c0.459,0.655,0.902,1.321,1.33,2l7.063-4.138
				C110.44,34.968,109.728,33.9,108.984,32.859L108.984,32.859z"/>
			<path class="st1" d="M112.384,38.225l-6.801,4.574c0.386,0.703,0.754,1.42,1.106,2.145l7.464-3.283
				C113.6,40.493,113.011,39.346,112.384,38.225L112.384,38.225z"/>
			<path class="st1" d="M115.179,43.959l-7.252,3.746c0.306,0.744,0.596,1.499,0.867,2.262l7.77-2.385
				C116.142,46.353,115.679,45.145,115.179,43.959L115.179,43.959z"/>
			<path class="st1" d="M117.334,49.984l-7.615,2.873c0.222,0.775,0.427,1.559,0.613,2.35l7.983-1.46
				C118.028,52.475,117.701,51.221,117.334,49.984L117.334,49.984z"/>
			<path class="st1" d="M118.814,56.226l-7.876,1.961c0.137,0.796,0.255,1.598,0.353,2.406l8.084-0.513
				C119.228,58.782,119.041,57.496,118.814,56.226L118.814,56.226z"/>
			<path class="st1" d="M119.605,62.601l-8.04,1.025c0.049,0.806,0.079,1.617,0.09,2.432l8.092,0.437
				C119.742,65.187,119.694,63.887,119.605,62.601L119.605,62.601z"/>
		</g>
		<g>
			<polygon class="st1" points="62.962,119.699 63.666,111.316 66.003,111.324 66.707,119.713 			"/>
			<path class="st1" d="M69.181,119.581l-0.216-8.418c0.78-0.067,1.555-0.154,2.324-0.263l1.615,8.254
				C71.676,119.338,70.436,119.484,69.181,119.581L69.181,119.581z"/>
			<path class="st1" d="M75.837,118.632l-1.207-8.326c0.766-0.167,1.525-0.353,2.278-0.558l2.576,7.987
				C78.283,118.073,77.067,118.374,75.837,118.632L75.837,118.632z"/>
			<path class="st1" d="M82.282,116.854l-2.172-8.11c0.74-0.263,1.472-0.545,2.194-0.845l3.491,7.6
				C84.643,115.989,83.472,116.442,82.282,116.854L82.282,116.854z"/>
			<path class="st1" d="M88.396,114.305l-3.093-7.78c0.703-0.352,1.396-0.725,2.079-1.114l4.345,7.108
				C90.638,113.153,89.529,113.749,88.396,114.305L88.396,114.305z"/>
			<path class="st1" d="M94.323,110.91l-3.993-7.325c0.654-0.44,1.298-0.898,1.93-1.372l5.155,6.497
				C96.409,109.477,95.379,110.212,94.323,110.91L94.323,110.91z"/>
			<path class="st1" d="M99.922,106.676l-4.853-6.743c0.596-0.522,1.18-1.061,1.75-1.612l5.905,5.769
				C101.818,104.984,100.884,105.847,99.922,106.676L99.922,106.676z"/>
			<path class="st1" d="M105.023,101.676l-5.639-6.041c0.528-0.597,1.042-1.206,1.54-1.83l6.563,4.935
				C106.697,99.749,105.876,100.727,105.023,101.676L105.023,101.676z"/>
			<path class="st1" d="M108.984,96.741c0.744-1.042,1.457-2.109,2.133-3.204l-7.063-4.138c-0.428,0.679-0.872,1.345-1.33,2
				L108.984,96.741L108.984,96.741z"/>
			<path class="st1" d="M112.384,91.375c0.627-1.121,1.216-2.268,1.769-3.436l-7.464-3.283c-0.353,0.725-0.72,1.441-1.106,2.145
				L112.384,91.375L112.384,91.375z"/>
			<path class="st1" d="M115.179,85.641c0.5-1.186,0.963-2.394,1.385-3.622l-7.77-2.385c-0.271,0.763-0.561,1.518-0.867,2.262
				L115.179,85.641L115.179,85.641z"/>
			<path class="st1" d="M117.334,79.616c0.368-1.237,0.695-2.491,0.98-3.763l-7.983-1.46c-0.186,0.791-0.391,1.575-0.613,2.35
				L117.334,79.616L117.334,79.616z"/>
			<path class="st1" d="M118.814,73.375c0.227-1.27,0.414-2.556,0.561-3.854l-8.084-0.513c-0.098,0.808-0.215,1.61-0.353,2.406
				L118.814,73.375L118.814,73.375z"/>
			<path class="st1" d="M60.488,119.581c-1.255-0.097-2.495-0.243-3.724-0.427l1.615-8.254c0.77,0.108,1.544,0.195,2.324,0.263
				L60.488,119.581L60.488,119.581z"/>
			<path class="st1" d="M53.832,118.632c-1.231-0.257-2.446-0.559-3.646-0.898l2.576-7.987c0.753,0.205,1.512,0.392,2.278,0.558
				L53.832,118.632L53.832,118.632z"/>
			<path class="st1" d="M47.387,116.854c-1.19-0.412-2.361-0.864-3.514-1.355l3.491-7.6c0.722,0.3,1.454,0.583,2.194,0.845
				L47.387,116.854L47.387,116.854z"/>
			<path class="st1" d="M41.273,114.305c-1.133-0.556-2.242-1.152-3.331-1.786l4.345-7.108c0.683,0.389,1.376,0.762,2.079,1.114
				L41.273,114.305L41.273,114.305z"/>
			<path class="st1" d="M35.346,110.91c-1.056-0.698-2.086-1.433-3.092-2.201l5.155-6.497c0.632,0.474,1.276,0.932,1.93,1.372
				L35.346,110.91L35.346,110.91z"/>
			<path class="st1" d="M29.747,106.676c-0.962-0.829-1.896-1.692-2.802-2.586l5.905-5.769c0.57,0.552,1.154,1.09,1.75,1.612
				L29.747,106.676L29.747,106.676z"/>
			<path class="st1" d="M24.646,101.676c-0.853-0.949-1.674-1.927-2.463-2.936l6.563-4.935c0.498,0.624,1.012,1.233,1.54,1.83
				L24.646,101.676L24.646,101.676z"/>
			<path class="st1" d="M20.685,96.741l6.261-5.342c-0.459-0.655-0.902-1.321-1.33-2l-7.063,4.138
				C19.229,94.632,19.941,95.7,20.685,96.741L20.685,96.741z"/>
			<path class="st1" d="M17.285,91.375l6.801-4.574c-0.386-0.703-0.754-1.42-1.106-2.145l-7.464,3.283
				C16.069,89.107,16.658,90.254,17.285,91.375L17.285,91.375z"/>
			<path class="st1" d="M14.49,85.641l7.252-3.746c-0.306-0.744-0.596-1.499-0.867-2.262l-7.77,2.385
				C13.527,83.247,13.99,84.455,14.49,85.641L14.49,85.641z"/>
			<path class="st1" d="M12.335,79.616l7.615-2.873c-0.222-0.775-0.427-1.559-0.613-2.35l-7.983,1.46
				C11.641,77.125,11.968,78.379,12.335,79.616L12.335,79.616z"/>
			<path class="st1" d="M10.855,73.375l7.876-1.961c-0.137-0.796-0.255-1.598-0.353-2.406l-8.084,0.513
				C10.441,70.818,10.628,72.104,10.855,73.375L10.855,73.375z"/>
		</g>
	</g>
	<g>
		<path class="st0" d="M67.238,38.494h-9.797c-1.907,0-2.582-2.526-0.929-3.477l4.952-2.85c0,0,2.847-1.898,4.666-1.898
			s7.909,3.48,10.045,3.48c2.135,0,5.695-1.898,5.695-1.898l8.542,13.129l-6.802,4.429c0,0-3.638,1.582-7.672-2.452
			S67.238,38.494,67.238,38.494z"/>
		<path class="st0" d="M45.566,43.278c-0.161,0-0.324-0.052-0.461-0.159l-0.812-0.636c-0.841-0.658-1.374-1.635-1.463-2.679
			c-0.576-6.751,3.026-10.46,5.226-12.07c1.049-0.766,2.407-0.938,3.637-0.456l7.909,3.082c0.386,0.15,0.577,0.586,0.427,0.972
			c-0.151,0.386-0.585,0.574-0.972,0.427l-7.909-3.083c-0.75-0.295-1.574-0.191-2.206,0.27c-1.944,1.424-5.131,4.711-4.617,10.732
			c0.054,0.63,0.379,1.223,0.893,1.624l0.812,0.636c0.326,0.256,0.384,0.727,0.129,1.053C46.01,43.179,45.79,43.278,45.566,43.278z"
			/>
		<path class="st0" d="M45.725,50.595c0,0-2.926-1.265-1.661-4.034s3.796-3.796,4.904-2.768s0.475,2.531,0.475,2.531
			s2.452-1.819,4.113-0.079s0,3.796,0,3.796s5.774-3.717,3.085,4.508c0,0,1.186-1.028,2.056-0.633s1.463,3.282-1.186,5.932
			c-2.65,2.65-4.271-1.265-3.796-2.373c0,0-4.745,0.87-4.35-3.401C49.364,54.075,45.725,53.996,45.725,50.595z"/>
		<path class="st0" d="M63.629,62.709c-0.828,0-1.66-0.277-2.336-0.841l-1.732-1.444c-0.318-0.266-0.36-0.738-0.096-1.057
			c0.266-0.318,0.737-0.361,1.057-0.096l1.732,1.444c0.858,0.715,2.142,0.649,2.922-0.151l1.209-1.24
			c0.29-0.295,0.765-0.304,1.061-0.014c0.297,0.289,0.303,0.764,0.014,1.061l-1.209,1.24C65.541,62.339,64.587,62.709,63.629,62.709
			z"/>
		<path class="st0" d="M70.323,62.04c-0.934,0-1.867-0.334-2.606-1.004l-6.36-5.772c-0.307-0.278-0.33-0.753-0.052-1.06
			s0.752-0.33,1.06-0.052l6.36,5.772c0.93,0.844,2.363,0.817,3.262-0.06l1.135-1.107c0.297-0.288,0.771-0.283,1.061,0.014
			c0.289,0.296,0.283,0.771-0.014,1.061l-1.135,1.107C72.283,61.67,71.304,62.04,70.323,62.04z"/>
		<path class="st0" d="M74.952,60.021c-0.845,0-1.69-0.312-2.343-0.934l-8.262-7.87c-0.3-0.285-0.312-0.761-0.025-1.061
			c0.285-0.299,0.759-0.313,1.061-0.025l8.262,7.87c0.715,0.682,1.849,0.692,2.579,0.027c0.149-0.135,1.363-1.304,0.28-2.9
			c-0.232-0.343-0.295-0.658,0.048-0.89c0.343-0.232,0.809-0.143,1.042,0.2c1.482,2.186,0.458,3.983-0.37,4.708
			C76.585,59.73,75.77,60.021,74.952,60.021z"/>
		<path class="st0" d="M77.691,55.67c-0.865,0-1.722-0.324-2.39-0.966l-8.069-7.761c-0.299-0.287-0.309-0.763-0.021-1.061
			c0.289-0.3,0.764-0.307,1.061-0.021l8.069,7.761c0.766,0.736,1.967,0.738,2.734,0.006l0.645-0.755
			c0.072-0.091,0.325-0.443,0.083-0.649c-0.316-0.268-0.354-0.741-0.086-1.057c0.27-0.316,0.743-0.354,1.057-0.086
			c1.032,0.876,0.618,2.133,0.089,2.764l-0.701,0.815C79.455,55.336,78.569,55.67,77.691,55.67z"/>
	</g>
	<path class="st1" d="M64.8,106.561c9.248,0,17.717-3.317,24.298-8.818c0.624-0.522,0.246-1.545-0.568-1.545H41.07
		c-0.814,0-1.192,1.023-0.568,1.545C47.082,103.245,55.551,106.561,64.8,106.561z"/>
</g>
</svg>
