<svg id="f5cd4ab5-8d09-4118-8d48-fa3cfddf49e7" data-name="svg" xmlns="http://www.w3.org/2000/svg" viewBox="0 0 312.86 231.39"><title>logo_solo</title><g id="fdb8d150-d82a-418c-ade9-4bf32bf26a8d" data-name="svgg"><path id="6c2e1b74-9ff5-484a-b0f7-53638f4fd57d" data-name="path0" d="M148,47C63.61,69,7.09,105.68,5,139.8,2.91,173,51.71,216.26,147.36,265.9l17.91,9.3,8.32-2.93c39.28-13.85,80.31-42,103.67-71.12,7.86-9.8,18-26.13,17.1-27.57s-33.21-1.38-103.53-.24l-52.25.85,4,3.37a116.29,116.29,0,0,0,12,8.1l8,4.73h50.24c33.55,0,50.24.44,50.24,1.32,0,.72-5.61,6.95-12.47,13.83-17.88,17.94-36.25,29.49-65.19,41-20,7.92-18.17,8-36.34-2.52C72.84,199.62,29.56,151.1,55.1,138.6c23.38-11.44,134.45-14.08,234.21-5.57,15.38,1.31,16.68,1.25,17.91-.85a54.5,54.5,0,0,1,6.12-7.1c7.77-7.85,8.63-7.25-25.73-18-18.86-5.87-23.06-7.66-27.79-11.79-3.07-2.68-10.05-6.82-15.53-9.2C233.15,81.3,230.56,77.46,233.37,70c1.76-4.67.75-4.64-5.87.15L222.2,74V70.75a25.52,25.52,0,0,1,1.92-7.84c3.12-7.46,2.49-7.38-10.37,1.4C206,69.63,200.18,72.7,198,72.7c-5.83,0-18.57-10.66-28.6-23.95C164.58,42.45,165.29,42.5,148,47m99.75,48.21c2.82,1.13,4.82,2.57,4.43,3.2-1.37,2.22-6.54,1.1-9.51-2.05-3.48-3.71-2.11-4,5.08-1.14" transform="translate(-4.91 -43.8)"/></g></svg>