<?xml version="1.0" encoding="utf-8"?>
<!-- Generator: Adobe Illustrator 21.0.0, SVG Export Plug-In . SVG Version: 6.00 Build 0)  -->
<svg version="1.1" id="svg" xmlns="http://www.w3.org/2000/svg" xmlns:xlink="http://www.w3.org/1999/xlink" x="0px" y="0px"
	 viewBox="0 0 500 500" style="enable-background:new 0 0 500 500;" xml:space="preserve">
<style type="text/css">
	.st0{fill:none;}
	.st1{fill:#8EC514;}
	.st2{fill:#2AA3E2;}
</style>
<g id="svgg">
	<path id="path0" class="st0" d="M0.9-6"/>
	<path id="path1" class="st1" d="M269.2,21.1c0,1.5-20.1,3.1-23.2,4.1c-3,0.9-6.3,1.7-9.2,2.5c-1.9,0.5-4.3,0.5-6.3,1
		c-2.2,0.6-3.8,2.1-5.9,2.7c-7,2-13.9,3-20.9,4.9c-3.9,1.1-8,2.3-11.8,3.7c-2,0.7-3.8,1.2-5.7,2.1c-1.8,0.9-3.4,2.2-5.2,2.9
		c-3.6,1.5-8.3,2.2-12,3.3c-3.9,1.2-7.7,2.9-11.5,4.2c-6.3,2.2-12.6,5.7-18.4,8.7c-5,2.6-10.4,5.2-15,8c-2.8,1.7-5.9,3.9-8.9,5.7
		c-2.3,1.4-5,2.4-7.4,4c-5.1,3.4-10.1,8.4-15.3,12.1c-4.8,3.4-7.6,8.5-11.6,12.3c-1.7,1.7-4.2,2.7-5.9,4.7c-1,1.1-1.7,2.4-2.7,3.4
		c-0.7,0.6-1.9,0.8-2.2,1.2c-1.7,1.8-2,4.9-3.5,6.8c-1.8,2.2-4.5,3.8-6.2,6.5c-4,6.2-8,12.6-11.8,18.1c-1.2,1.8-1.7,3.1-2.9,5.5
		c-1.4,2.9-3.1,5.4-4.1,8c-0.4,1-1.3,3-1.7,4.3c-0.5,1.3-1,3.5-1.7,4.8c-0.4,0.8-1.8,1-2.4,2.2c-0.6,1.1-0.2,2.4-0.6,3.6
		c-0.3,1-1.3,1.2-1.6,2.2c-1.4,4-2.3,8-3.4,12.1c-0.9,3.1-2,6.3-2.8,9.3c-0.9,3.3-1.1,7-1.9,10.1c-0.7,2.6-1.3,6.4,1.8,6.5
		c3.1,0.1,5.8-7.2,7-9.4c2.9-4.8,6.1-9.4,9.5-13.9c5.5-7.3,11.7-15.1,19.2-20.5c2.5-1.8,4.5-1.9,7.1-2.9c4.1-1.6,6.8-5.5,10.2-8.1
		c5.1-3.9,10.2-8.1,15.6-11.8c3.5-2.4,7-4.6,10.4-6.9c2.7-1.9,5.6-3,8.4-4.9c2.2-1.5,4.3-3.2,6.3-4.5c2.3-1.5,5-2.5,7.3-4
		c2.1-1.4,4.7-2.9,6.9-4c1.3-0.6,2.7-1.1,3.8-1.7c1.5-0.8,3.1-2.1,4.7-2.8c10.4-4.9,19.8-9.2,30.3-14.9c11.1-6,22.6-9.4,34-15.2
		c5.9-3,12.7-5,19.1-7.2c7.9-2.7,15.6-7,23.4-9.2c1.9-0.5,4-1,5.9-1.5c1.2-0.4,0.6-1.3,1.5-1.6c3.5-1.1,7-1.3,10.5-2.8
		c3.5-1.4,7-2.6,10.5-3.8c1.5-0.5,2.8-1.6,4-2.1c2-0.8,4.1-0.6,6.2-1.3c12.5-4.1,24.9-9.7,37.9-13.6c6.3-1.8,12.5-4.5,18-7.8
		c3-1.8,7.1-2.9,5.2-7.7c-1.6-4-6.3-4.9-9.8-6.1c-8-2.7-17.1-1.9-25.5-2c-12.7-0.1-25.5-0.2-38.2,0.3
		C276.1,20.5,269.2,20.5,269.2,21.1 M369,99.2c-1.7,1.7-8.9,1.2-10.9,1.3c-4.5,0.3-9.1,0.4-13.6,0.9c-3.7,0.4-3.9,1.8-7.5,2.1
		c-8.3,0.7-17.1,1.1-25.2,3c-3.7,0.9-8,0.5-11.6,1.5c-2.3,0.7-3.5,1.6-6.9,1.8c-5.5,0.3-10.5,2.3-16,3.1c-4.1,0.6-7.1,1.5-10.7,2.8
		c-2.4,0.9-5,0.7-7.4,1.4c-1.4,0.4-1.6,1.2-2.3,1.5c-6.1,2.1-13.5,3.8-19.6,4.7c-1.2,0.2-2.4,0.8-3.2,1c-1.2,0.4-3.1,0.9-4.7,1.4
		c-3.2,0.9-6.5,1.9-9.7,2.8c-3.9,1.1-7.3,2.8-11,4.3c-3.9,1.6-7.9,2.9-12,4.3c-3.9,1.3-7.9,2.5-11.5,4c-1.5,0.6-2.9,1.5-4.4,2.2
		c-2.5,1.2-2.7,0.8-3.7,2.7c0.2-0.3-11,3.6-11.4,3.8c-3.1,1.1-4.8,2.3-7.9,3.2c-7.1,2.2-13,6.6-19.7,9.5c-5.1,2.2-9.7,5.5-14.5,7.7
		c-6.7,3.1-13.6,6.8-19.9,10c-2.1,1.1-4.9,4.1-7.2,5.5c-3.2,1.9-5.8,2.8-8.2,6.1c-6.1,8.4-16.1,13.5-24.2,20.5
		c-8.6,7.5-16.5,15.9-22.8,25.4c-2.4,3.7-4.6,7.6-6.4,11.7c-0.9,2.1-1.6,4.7-3.1,6.4c-1.1,1.2-2.8,1.4-3.8,2.5
		c-2.6,2.8-2.7,9-2.9,12.7c-0.3,6.8-0.3,13.6-0.2,20.4c0.2,13,3.2,23.5,6.5,35.5c2.2,8,6.3,15.5,9.4,22.5c1.3,2.9,2.5,5.9,4,8.6
		c1.6,2.7,2.9,6.5,4.5,9.2c2,3.2,4.9,6.4,6.8,10c0.8,1.4,4.6,9.5,6.5,8.9c0.5-0.2-2.2-17.1-2.2-19c0-7.6,0.7-15.7,2.9-23
		c1.9-6.2,7.2-8.2,9.5-14c2.4-6.1,6-10.1,10.3-15.4c2.6-3.3,4.9-6,5.9-9.9c0.3-1.2,0.4-2,1-3.2c4.7-9.4,17.5-17,25.6-23
		c12.3-9.1,25.1-17.5,38.6-24.8c5.1-2.8,10.4-5.6,16-7.4c6.7-2.2,13.8-2.3,20.1-6c12.8-7.5,27.4-12.7,40.8-19.2
		c3.8-1.8,5.9-3.3,9.8-4.5c3.7-1.1,6.8-2.8,10.2-4.2c2.2-0.9,4.4-2.5,6.5-3.6c3-1.5,6.6-2.2,9.7-3.7c2.3-1.2,4.4-2.4,6.6-3.5
		c3.5-1.6,7.6-2.2,10.9-4.2c6-3.7,14-5.4,20.5-9.2c2.7-1.6,5.6-2.5,8.7-3.6c3.8-1.3,7.7-3.5,11.2-4.7c1.8-0.6,3.7-1,5.5-1.7
		c0.8-0.3,2.1-0.4,2.9-0.9c0.6-0.4,1.1-1.6,1.5-1.8c3.5-1.8,8-2.6,11.9-3.9c6.7-2.2,13.3-5.6,20.3-8.3c3.7-1.4,7.3-2.8,10.5-4.6
		c3.5-2.1,8-2.8,12-4.2c3.3-1.1,6.2-2.9,9.1-4c3.1-1.2,7.4-1.7,10.1-3c4.8-2.2,11.6-4.6,17.3-6.9c6.4-2.6,13.6-5.3,20.5-7.4
		c3.6-1.1,7.1-2.3,10.5-3.8c3-1.4,7.1-2.4,8-6.4c0.8-3.6-1.6-7-3.8-9.6c-1.3-1.5-2.8-2.3-4.2-3.6c-1.5-1.3-0.5-0.3-1.3-2.1
		c0.2,0.4-5.9-1.5-6.2-1.6c-2.3-0.8-4.6-1.8-6.8-2.5c-2.7-0.9-5.4-1.7-8.3-2.4c-7.1-1.7-15-1.6-22.3-2.1c-9.2-0.6-18.5-1-27.7-1.1
		C381.7,98.4,371.4,96.8,369,99.2 M381.5,235.2c-1.8,2.9-14,1-17.4,1.8c-2.8,0.7-5.4,1.5-8.4,1.9c-11.3,1.4-22.4,2.9-33.3,5.7
		c-10.5,2.7-20.4,5.7-30.8,7.4c-4.2,0.7-8.4,2.6-12.5,3.8c-5.5,1.7-11.6,2.4-16.9,4.7c-4,1.7-5.9,4.8-9.1,7.2
		c-4.8,3.6-12.2,5-17.7,7.2c-13.9,5.6-27.5,12-40.8,18.8c-12.8,6.5-25.4,13.5-37.6,21.1c-5.1,3.2-9.9,6.9-15.8,8.4
		c-5,1.3-6.1,2.4-10,4.9c-6.7,4.2-13.5,9.2-19.1,15c-2.9,3-5.7,6.2-8.1,9.6c-2.5,3.6-2.6,7-4.5,10.9c-6.3,12.9-11,24.2-7.8,39
		c1.2,5.7,3.5,10.9,6.9,15.7c1.2,1.7,3.6,4,4.2,6c0.3,1.3-0.6,2-0.4,2.9c0.7,3.4,3.7,6.2,6.3,8.3c3.8,3.1,7.5,6.3,11.5,9.3
		c2.1,1.6,4.2,2.2,6.3,3.5c2.4,1.5,4,4.2,6.6,5.5c1.1,0.5,2.3,0.4,3.3,1c1.4,0.7,2.8,2.8,4.2,3.6c3.3,1.7,7.3,2.5,10.4,4.5
		c3.3,2.2,6.5,3.7,10.4,5.5c0.8,0.4,0.8,1.3,1.6,1.6c1.2,0.5,2.7,0.6,4,1.1c2.6,0.9,5.1,2.3,7.7,3.4c5.2,2.2,10.6,2.8,15.8,4.6
		c18.2,6.2,38.4,9.9,57.9,10.6c3.8,0.1,46.2,1.1,46.2-0.6c0-2.4-33.2-4.9-36-5.1c-16.8-1.7-33.7-3.8-49.9-8.8
		c-20.2-6.2-43-18.8-42-43c0.5-12.1,6.2-25.5,16.4-32.4c4.6-3.1,10-2.4,14.5-5.1c4.6-2.7,8.7-5.5,12.9-8.1
		c16.9-10.5,37.2-20.5,55.4-28.9c9.8-4.5,20.2-9.1,30-13.5c9.3-4.2,18.6-6.4,27.2-11.7c4.1-2.5,9.6-3.9,14.3-5.4
		c4.4-1.4,9.5-3.5,14-5.5c11.7-5.2,23.8-9,35.6-13.3c9.5-3.5,19.5-7.1,28.7-10.4c3.8-1.4,8.4-2.7,12.5-4.3c2-0.8,3.9-1.9,5.9-2.8
		c0.6-0.3-0.1-0.5,1.4-1c1.5-0.2,2.9-0.4,4.4-0.6c0.6-0.4,1.1-0.9,1.6-1.5c10.2-3.2,19.7-6.9,29-11.8c3.8-2,8.3-3.8,12.5-5.2
		c4.3-1.4,11.1-4.1,14.6-7.3c8.5-7.8-6.6-19.8-12.6-22.9c-0.4-0.2-1.3-1.1-1.4-1.1c-1.1-0.4-2.6-0.5-4.3-0.9
		c-2.3-0.6-2.5-1.5-4.7-2.2c-3.2-0.9-7.2-1.4-10.7-1.6c-16.3-1.1-32.8-0.6-49.1-0.5c-8.1,0-16.2,0.1-24.3,0.3
		C389.2,234.6,382.2,234,381.5,235.2 M375.3,385.5c-1.5,2.4-13,1-15.5,1.3c-2.2,0.3-3.4,1-5.3,1.5c-4.3,1.1-9.1,1.5-13.4,2.4
		c-2.4,0.5-4.8,0.1-7.2,1c-1.6,0.6-2.3,1.7-4.4,2.1c-8.1,1.6-15.4,2.7-23.2,4.8c-7.7,2.1-14.5,5.7-21.9,8.5c0.7-0.3-2.4,0.1-3,0.4
		c-2.1,0.7-4.3,1.6-6.4,2.4c-0.6,0.2-0.5,1.2-1.4,1.5c-1,0.4-2.3,0-3.3,0.4c-1.7,0.7-4.2,1.8-5.5,3.3c-1,1-1.2,2.9-2.2,4
		c-1.5,1.7-3.7,3-5.5,4.2c-5.1,3.4-10.2,6.6-14.8,10.8c-12.4,11.4-17.5,28.2-0.9,38.3c14.8,9,35.9,9.6,52.8,8.4
		c1.8-0.1,7.8-0.3,7.6-3.3c-0.2-1.9-5.5-3.5-6.6-5.7c-2.9-6.3,11.9-12.1,16.3-13.8c15.9-6.3,31.2-13.1,48.3-17
		c7.2-1.6,13.7-4.9,20.9-7.1c8.8-2.7,17.9-4.2,26.7-6.8c4.1-1.2,8.5-2.4,12.7-3.7c1.7-0.5,3-1.4,4.5-2c2.2-0.9,4.4-0.7,6.7-1.5
		c2.7-0.8,5.9-2.6,7.9-3.4c3.2-1.2,7.2-1.6,10.7-2.7c2.9-0.9,5.5-2,8.1-3.3c1.1-0.5,2.3-1.3,3.2-1.9c0.6-0.4,0.7-1.4,1.3-1.9
		c0.9-0.7,2-0.2,3-1.1c9.2-8-7.3-15.8-13.2-16.8c-13.3-2.2-26-3.9-39.7-4.1c-8-0.1-15.9-0.1-23.9,0
		C387,384.8,376.3,383.8,375.3,385.5"/>
	<path id="path2" class="st2" d="M62.3,169.2C48,180.7,38,197.5,27.7,212.3c-4.7,6.8-3.1,20.6-3,28.8c0,4-0.3,8.6,0.9,12.5
		c3.1,9.6,7.5-0.3,9.8-5.2c8.8-18.8,24.7-33.9,41.4-45.9c3.8-2.7,11.9-6,10.6-11.9c-0.7-2.9-4-6.5-6-8.7c-3.3-3.6-5.8-7.1-8.3-11.2
		C70.2,166,67.3,165.1,62.3,169.2 M171.1,246c-20.7,5.6-40.2,21-56.8,34c-7.6,5.9-15.5,12.2-21.6,19.6c-2.7,3.3-5.6,6.4-1.4,8.7
		c4.3,2.3,9.9,4.1,14.8,5.7c6.2,2,11.9,3.7,17.9,5.5c8.6,2.6,14.1,6,22.9,1.4c8-4.1,15.4-9.6,23.2-14c15.9-9.1,32.2-17.5,48.8-25
		c6.8-3.1,13.7-6,20.6-8.7c3.3-1.3,17.3-4.3,16.8-9.4c-0.3-3.1-5.3-3.2-7.5-3.4c-4-0.4-7.2-1.3-11.1-1.9c-6.8-1.1-13.1-2.7-19.7-4.3
		c-6.3-1.6-13.1-3.1-19.3-4.3C189,247.9,181.5,243.2,171.1,246 M65.9,338.4c-3.4,2.2-3.7,11-4.2,14.5c-0.9,6.9-1.5,14-0.9,20.9
		c0.2,2.2,0.5,4.2,1.2,6.2c0.9,2.8,0.8,5,1.5,7.8c1.7,6.4,7.5,12.7,11.5,17.8c4.8,6.1,10.7,11.8,16.8,16.6c2.1,1.7,4.8,4.9,7.7,5
		c5.2,0.1,2.6-3.6,0.9-6.2c-12.3-18.5-12.6-37-1.7-56.4c1-1.8,3.3-5.3,2.4-7.6c-0.9-2.2-2.6-1.2-4.4-2c-3-1.4-6.7-4.4-9.6-6.4
		c-3.1-2-6.4-4.9-9.5-6.6c-1.8-1-3.4-1.8-5.2-2.9C70.3,337.8,68.2,336.9,65.9,338.4 M187.8,397.8c-13.7,6-22,20.1-21.6,34.9
		c0.4,14.4,8.9,26.4,21,33.6c31.2,18.7,69.4,14.3,103.6,21.8c5.1,1.1,8.6,2.3,13.4-0.4c3.4-1.9,3-4.9,0.9-7.9
		c-2.6-3.9-1.8-1.9-3.7-1.2c-10.8,3.7-22.1,3.1-33.6,1.6c-12.4-1.6-30.2-4.3-36-17.2c-6.9-15.1,9.9-29.5,20.8-36.8
		c4.8-3.2,17.7-10.2,5.9-12.1c-7.4-1.2-15.3-3.1-22.6-5.2c-7.8-2.2-15.3-4.6-23.3-6.7C204.6,400,196.1,394.2,187.8,397.8"/>
</g>
</svg>
