<?xml version="1.0" encoding="utf-8"?>
<!-- Generator: Adobe Illustrator 21.0.0, SVG Export Plug-In . SVG Version: 6.00 Build 0)  -->
<svg version="1.1" id="svg" xmlns="http://www.w3.org/2000/svg" xmlns:xlink="http://www.w3.org/1999/xlink" x="0px" y="0px"
	 viewBox="0 0 527 500" style="enable-background:new 0 0 527 500;" xml:space="preserve">
<style type="text/css">
	.st0{fill:#FCFCFC;}
	.st1{fill:#F6A503;}
	.st2{fill:#49C6CC;}
</style>
<g id="svgg">
	<path id="path0" d="M259,500 M259.5,497"/>
	<path id="path1" class="st0" d="M387.6,33.4c0.8,0.8,1.9,1.5,2.5,1.5c0.6,0,1.1,0.5,1.1,1.1c0,0.6,0.7,1.7,1.5,2.5
		c1.9,1.9,1.9,9.9,0,13.2c-0.8,1.4-1.4,3.4-1.4,4.6c0,1.2-0.7,2.4-1.5,2.7c-0.8,0.3-1.5,1.5-1.5,2.6c0,1.1-0.3,2-0.8,2
		c-0.4,0-1.5,1.4-2.5,3.2c-1,1.8-3.3,5-5.1,7.2c-4.9,5.8-5.4,6.3-5.4,6.9c0,0.7-3,4.4-5.2,6.4c-0.9,0.9-1.7,2.1-1.7,2.8
		c0,0.7-0.5,1.3-1.1,1.3s-2.1,1.1-3.4,2.5c-1.3,1.4-2.7,2.5-3.3,2.5c-0.6,0-1,0.7-1,1.5s-0.4,1.5-1,1.5c-0.5,0-1-0.5-1-1
		c0-1.2-0.2-0.9,8.4-11c1.1-1.3,2.3-3,2.7-3.8c0.4-0.8,1.6-2.8,2.6-4.4c1.1-1.6,2.4-4.1,3-5.4c0.6-1.4,1.5-3.2,2-4.2
		c1.7-3.3,1-12.5-1-14.6c-3.9-3.9-20.9-3.9-31.5-0.1c-7.5,2.7-11.4,4-12.9,4c-0.9,0-2.1,0.7-2.8,1.5c-0.7,0.8-2.2,1.5-3.4,1.5
		c-1.2,0-2.8,0.7-3.4,1.5c-0.7,0.8-1.7,1.5-2.3,1.5c-1.5,0-9.4,4-10.1,5c-0.3,0.5-1.4,0.9-2.5,0.9c-1.1,0-2.2,0.7-2.5,1.5
		c-0.3,0.8-1.3,1.5-2.1,1.5c-2.2,0-10,3.9-10,5c0,0.5-0.9,0.9-2,0.9s-2.2,0.7-2.6,1.5c-0.3,0.8-1.4,1.5-2.3,1.5
		c-1,0-1.9,0.3-2.1,0.7c-0.5,1.1-6.5,5.2-7.7,5.2c-0.6,0-1,0.4-1,0.9c0,0.5-1.3,1.4-2.9,1.9c-1.6,0.6-2.9,1.5-2.9,2.1s-0.7,1-1.5,1
		c-0.8,0-2.2,0.6-2.9,1.2c-4.4,4-6.4,5.4-10.3,7.3c-0.8,0.4-2.3,1.6-3.4,2.8c-1.1,1.1-3.2,2.7-4.7,3.4c-1.5,0.8-2.7,1.8-2.7,2.2
		c0,0.5-0.7,0.8-1.5,0.8c-0.8,0-1.5,0.5-1.5,1c0,0.6-0.8,1.3-1.7,1.7c-0.9,0.4-2.9,1.8-4.3,3.2c-4.1,4-6.7,6-7.7,6c-0.5,0-1,0.5-1,1
		c0,0.6-0.8,1.3-1.7,1.7c-2,0.8-8.1,7-8.1,8.3c0,0.5-0.4,0.9-0.9,0.9c-1.6,0-13.9,11.6-17.3,16.2c-3.8,5.2-6,7.5-7.2,7.5
		c-0.7,0-1.2,0.5-1.2,1.1s-1.1,2.2-2.5,3.4c-1.4,1.3-2.5,2.7-2.5,3.3c0,0.5-0.6,1.6-1.2,2.3c-0.7,0.7-2.3,3.4-3.7,6
		c-1.3,2.6-2.7,4.7-3.1,4.7c-1.1,0-2,10.5-1.3,14.3c0.4,2,1.2,3.5,1.9,3.5s1.5,0.7,1.8,1.5c0.8,2.1,17.9,2.1,22.9,0
		c1.9-0.8,4.7-1.5,6.2-1.5c1.5,0,3.5-0.7,4.5-1.5c2.2-1.7,6.3-2,6.3-0.5c0,0.5-0.9,1-1.9,1s-2.6,0.7-3.4,1.5
		c-0.8,0.8-2.9,1.8-4.7,2.2c-1.8,0.4-3.8,1.2-4.5,2c-0.7,0.7-2.4,1.3-3.7,1.3s-2.4,0.4-2.4,1c0,0.5-0.8,1-1.8,1c-1,0-4.6,0.9-8,2
		c-4.7,1.5-8.9,2-17.7,2h-11.6l-3.5-3.3c-3.5-3.3-5.6-16.5-2.6-16.5c0.5,0,1.2-1.4,1.6-3.2c0.4-1.8,1-3.4,1.3-3.7
		c0.3-0.3,1.4-1.9,2.4-3.7l1.8-3.2l-3.2-0.1l-3.2-0.1l3.7-1c2-0.5,3.7-1.6,3.7-2.4c0-0.8,0.7-1.4,1.5-1.4c0.8,0,1.5-0.4,1.5-0.9
		c0-1,3.3-5.1,9.8-12c6.2-6.6,7.9-8.7,7.9-9.9c0-0.5,0.7-1,1.5-1c0.8,0,1.5-0.5,1.5-1.1s1.6-2.5,3.6-4.2c2-1.7,6.6-6,10.3-9.6
		c7.9-7.6,9.5-8.9,10.2-8.9c0.3,0,2.5-2,5-4.5c2.4-2.4,4.9-4.5,5.4-4.5c0.5,0,1-0.4,1-0.9c0-0.5,1.9-2.1,4.2-3.7
		c2.3-1.6,4.3-3.2,4.5-3.6c0.2-0.4,0.8-0.8,1.5-0.8c0.6,0,2.3-1.2,3.6-2.6c1.4-1.4,4.1-3.7,6.1-5.1c2-1.4,3.7-2.8,3.7-3.2
		c0-0.4,1.1-1,2.5-1.4c1.4-0.3,2.5-1.1,2.5-1.6c0-0.5,0.5-1,1.1-1c0.6,0,2.7-1.3,4.7-2.8c2-1.5,4.4-3.1,5.3-3.4
		c0.9-0.3,1.7-1,1.7-1.5c0-0.5,0.8-1.2,1.7-1.5c2.6-1,5.5-2.8,8.1-5.4c1.3-1.3,3.6-2.5,5.1-2.8c1.5-0.3,2.9-1.2,3.2-1.9
		c0.3-0.8,1.4-1.4,2.5-1.4c1.1,0,2-0.5,2-1s1-1.5,2.2-2c4.8-2.2,7.6-4,7.6-4.9c0-0.5,1.1-0.9,2.5-0.9c1.4,0,2.7-0.7,3.1-1.5
		c0.3-0.8,1.6-1.5,2.8-1.5c1.2,0,2.5-0.7,2.8-1.5c0.3-0.8,1.4-1.5,2.5-1.5s2.5-0.6,3.3-1.2c2.2-2.1,7.7-4.7,9.7-4.7
		c1.1,0,2.2-0.7,2.5-1.5c0.3-0.8,1.6-1.5,2.9-1.5s2.4-0.4,2.4-1c0-0.5,1.2-1.3,2.7-1.6s3.6-1.3,4.6-2c1.1-0.7,2.9-1.3,4-1.3
		s2.9-0.7,4-1.5c1-0.8,3.1-1.5,4.5-1.5c1.4,0,3.9-0.7,5.4-1.5c1.5-0.8,3.7-1.5,4.8-1.6c1.1,0,3.5-0.7,5.4-1.4
		C366.7,31.4,385.7,31.4,387.6,33.4 M355.8,101.7c0,0.8-0.4,1.5-1,1.5c-0.5,0-1-0.7-1-1.5s0.4-1.5,1-1.5
		C355.4,100.2,355.8,100.9,355.8,101.7 M367.6,127.8c0,0.5,2,1.2,4.4,1.6c2.4,0.4,4.4,1,4.4,1.4c0,0.4,1.3,1.2,2.9,1.8
		c1.6,0.6,2.9,1.5,2.9,2.1s0.6,1,1.4,1c0.8,0,1.7,1.3,2,3c0.4,1.6,1.1,3,1.6,3c0.5,0,0.9,0.7,0.9,1.5c0,0.8-0.4,1.5-0.8,1.5
		c-0.5,0-1.3,1.7-2,3.8c-0.6,2.1-2.2,5-3.6,6.5c-1.4,1.5-2.5,3.1-2.5,3.6c0,0.5-0.5,0.9-1,0.9c-0.6,0-2.9,1.8-5.1,4
		c-2.2,2.2-4.4,4-4.7,4c-0.3,0-1.7,0.9-3,2c-3.7,3.1-4.1,3.3-9.3,6c-2.7,1.4-5.5,3-6.2,3.7c-0.7,0.7-2.2,1.2-3.2,1.2
		c-1,0-1.9,0.4-1.9,0.9c0,0.5-1,1.2-2.2,1.6s-2.4,1-2.7,1.4c-0.6,0.8-9.1,5-10.2,5c-0.4,0-1.4,0.7-2.2,1.5c-0.8,0.8-2.8,1.5-4.4,1.5
		c-1.6,0-2.9,0.3-2.9,0.8c0,0.4-2.3,1.6-5.2,2.6c-2.8,1-6.9,2.6-9.1,3.6c-9.1,4.1-11.2,4.9-13.2,4.9c-1.1,0-2.1,0.4-2.1,1
		c0,0.5-1,1-2.2,1c-1.2,0-4,0.9-6.1,1.9c-2.2,1.1-5.5,1.9-7.4,2c-1.9,0-4.3,0.7-5.3,1.5c-1,0.8-3.4,1.5-5.2,1.5
		c-1.8,0-3.3,0.4-3.3,0.9s-2.1,1.2-4.6,1.6c-2.5,0.4-5.3,1.1-6.1,1.6c-1.7,0.9-11.7,3.6-18.3,4.9c-2.2,0.4-5.5,1.3-7.4,1.9
		c-1.9,0.6-5.1,1.1-7.1,1.1c-2,0-3.7,0.4-3.7,0.8c0,0.5-3.9,1.1-8.6,1.4c-4.7,0.3-10.6,1-13,1.6c-18.4,4.4-61.8,4.1-70.5-0.5
		c-1.5-0.8-3.7-1.4-4.9-1.4c-1.2,0-2.2-0.5-2.2-1c0-0.5-0.6-1-1.3-1c-6,0-7.1-14.2-1.6-20c1.9-1.9,4.3-4.6,5.4-5.9
		c2.3-2.7,7.1-6.8,7.8-6.8c0.4,0,4.7-3.1,11.7-8.4c1.1-0.8,2.5-1.5,3.2-1.5c0.7,0,1.3-0.4,1.3-1c0-0.5,0.6-1,1.4-1
		c0.7,0,1.9-0.7,2.6-1.5c1.3-1.6,6.9-2.1,6.9-0.6c0,0.5-1,1.2-2.1,1.6c-2.3,0.7-3,1.2-8,5.9c-1.8,1.6-4.5,4.1-6.1,5.6
		c-7.7,7-9,15.3-3,19.4c1.8,1.2,3.8,2.2,4.4,2.2s1.2,0.4,1.2,0.9c0,4.3,68,4.3,69.6,0c0.2-0.5,2.6-0.9,5.4-0.9c2.8,0,6.8-0.7,9-1.5
		c2.2-0.8,5.8-1.4,8.1-1.4c2.3,0,5.7-0.7,7.6-1.4c1.9-0.8,5.4-1.7,7.8-2.1c2.5-0.4,4.5-1,4.5-1.4c0-0.4,2.4-1.1,5.4-1.4
		c3-0.4,5.4-1.1,5.4-1.6s1.2-0.9,2.7-0.9c1.5,0,4-0.7,5.5-1.5c1.5-0.8,3.5-1.5,4.4-1.5c0.9,0,2.8-0.7,4.4-1.4
		c1.5-0.8,4.3-1.7,6.1-2.1c1.9-0.4,3.4-1,3.4-1.5c0-0.5,1.2-0.9,2.7-0.9c1.5,0,4-0.7,5.5-1.5c1.5-0.8,3.6-1.5,4.7-1.5
		s1.9-0.4,1.9-0.8c0-0.5,3.2-2.1,7.1-3.7s7.3-3.2,7.5-3.6c0.2-0.4,1.2-0.8,2.2-0.8c1,0,1.9-0.4,1.9-0.9c0-0.5,1.4-1.4,3.2-2
		c5.8-2,10.6-4.4,10.6-5.2c0-0.4,0.7-0.8,1.5-0.8c0.8,0,1.7-0.6,2-1.4c0.3-0.8,1.6-1.7,2.9-2c1.3-0.3,2.4-1,2.4-1.6
		c0-0.5,0.6-1,1.3-1c0.7,0,2-0.8,2.9-1.7c2.8-3,4.6-4.2,6.1-4.2c0.8,0,1.5-0.4,1.5-0.9c0-0.5,1-2,2.2-3.3c2.6-2.8,6.6-10.2,6.6-12.1
		c0-2.1-3.3-7.4-4.7-7.4c-0.7,0-1.2-0.4-1.2-0.9c0-2-12.1-5.2-22.1-5.8c-5.7-0.3-10-1-9.8-1.4C327.6,126.6,367.6,126.7,367.6,127.8
		 M179.2,245.2c1.2,0.5,1.4,6.3,1.6,36.9c0.2,42.1,0,45.2-4,49.6c-1.6,1.7-2.8,3.5-2.8,4.1c0,0.5-0.7,0.9-1.5,0.9
		c-0.8,0-1.5,0.4-1.5,0.9c0,0.5-1.9,2.1-4.2,3.7c-2.3,1.6-4.4,3.2-4.7,3.5c-0.3,0.4-1.7,1-3.2,1.3c-1.5,0.4-2.7,1.1-2.7,1.6
		c0,0.5-0.8,0.9-1.7,0.9s-2.6,0.6-3.7,1.3c-1.1,0.7-5,2.4-8.8,3.7c-3.8,1.3-7.1,2.6-7.4,3c-0.3,0.3-2.9,0.9-5.8,1.2
		c-2.9,0.3-5.8,1.1-6.3,1.6c-1.3,1.3-9.1,1.3-9.9,0.1c-0.3-0.5-1.9-1.2-3.5-1.6c-1.8-0.4-2.9-1.3-3-2.3c0-0.9-0.7-2.5-1.5-3.6
		c-1.9-2.5-1.9-10.5,0-15.1c0.8-2,1.5-4.5,1.5-5.6c0-4.3,3.4-9.5,7.6-11.8c2.3-1.2,4.2-2.5,4.2-2.8c0-0.3,2-1.4,4.4-2.5
		c2.4-1.1,4.4-2.3,4.4-2.6c0-0.4,1.3-1,3-1.3c1.6-0.4,2.9-1,2.9-1.5s1.3-1.1,2.9-1.5c1.6-0.4,2.9-1.1,2.9-1.5c0-0.5,1.1-1.2,2.5-1.5
		c1.4-0.3,2.5-0.9,2.5-1.3c0-1.8,11-6.3,11.9-4.9c3.6,5.7,0.3,16.9-5.5,18.3c-1.4,0.3-2.5,1-2.5,1.4c0,0.4-1.3,1.1-2.9,1.5
		c-1.6,0.4-2.9,1-2.9,1.5c0,0.5-1.3,1.1-2.9,1.5c-1.6,0.4-2.9,1-2.9,1.5s-1.3,1.1-2.9,1.5c-1.6,0.4-2.9,1.1-2.9,1.6
		c0,0.5-0.5,0.9-1,0.9c-5.3,0-12.2,5.6-13.7,11.2c-0.6,2.1-1.3,4.4-1.6,5.1c-0.7,1.8,5.2,3.4,8.3,2.3c1.3-0.5,3.4-0.8,4.7-0.8
		c1.3,0,2.4-0.4,2.4-0.9s1.3-1.2,2.9-1.5c1.6-0.4,3.4-1.3,4.1-2.1c0.6-0.8,2-1.4,3-1.4s2.1-0.7,2.4-1.5c0.3-0.8,1.4-1.5,2.4-1.5
		c1,0,1.9-0.4,1.9-0.9c0-0.5,1-1.2,2.2-1.6c1.2-0.4,2.4-1,2.7-1.3s3-1.9,6.1-3.4c3.1-1.6,5.6-3.2,5.6-3.7c0-0.5,0.5-0.9,1.1-0.9
		c3.5,0,3.7-2.8,3.8-38.6c0-37.2,0-37.1,4.2-38.1c1.5-0.4,2.7-1,2.7-1.5c0-0.4,0.8-1,1.7-1.3c0.9-0.2,1.8-0.5,1.9-0.6
		C177.7,244.7,178.4,244.9,179.2,245.2 M252.4,284c0.2,34.7,0.4,38.8,1.8,38.8c0.9,0,1.8-0.9,2.1-2c0.3-1.1,0.9-2,1.4-2
		s0.9-0.6,0.9-1.3c0-1.4,4-6.5,10.3-13.1c3.7-3.9,5.1-6.5,7.6-14.1c1.4-4.4,2.6-4.1,8.9,2c3,2.9,8.2,7.9,11.6,11.1l6.2,5.9l0.3,8.2
		c0.4,10-0.2,12.8-3,13.7c-2,0.6-3,1.3-6,4c-0.7,0.6-2.2,1.4-3.4,1.8c-1.2,0.4-2.2,1.1-2.2,1.6c0,0.5-0.6,0.9-1.3,0.9s-2,0.9-2.9,2
		c-0.9,1.1-2.3,2-3.2,2c-0.8,0-1.5,0.4-1.5,1c0,0.5-0.6,1-1.2,1c-0.7,0-2.6,0.7-4.2,1.6c-5.8,3.2-17.7,2.4-21.1-1.3
		c-3.1-3.3-4.4-14.1-2-15.6c1.3-0.8,1.3-5.4,0-5.4c-0.5,0-2.6,0.9-4.7,2c-4.1,2.2-8.1,2.6-8.1,0.7c-1-64.2,0-79.9,5.2-79.9
		c0.5,0,1.6-0.7,2.4-1.5c0.8-0.8,2.5-1.4,3.6-1.2C252.1,245.2,252.2,245.3,252.4,284 M324.1,282.9c0.3,42.4,0.4,40.9-3.9,43.1
		c-11.1,5.7-10.6,7.6-10.6-36v-37.6l2.5-2.3c1.4-1.3,3.1-2.3,3.9-2.3c0.8,0,1.4-0.4,1.4-0.9c0-0.9,3.5-1.9,5.4-1.6
		C323.5,245.3,324,258.9,324.1,282.9 M361.5,246.8c0.2,0.5,0.8,0.9,1.4,0.9c1,0,16.5,15.5,16.5,16.5c0,0.3,1.4,2,3.2,3.8
		c5.5,5.6,5.9,6.4,5.9,12c0,5.4-3.2,10.4-8.1,12.6c-0.8,0.4-2.1,1.1-2.9,1.6c-3,1.9-10.8,5-12.7,5c-1.7,0-2,0.6-2,4
		c0,4.4,2.5,5.5,5.5,2.5c0.8-0.8,2.3-1.5,3.4-1.5s1.9-0.4,1.9-0.9c0-0.5,1.3-1.2,2.9-1.6c1.6-0.4,2.9-1.1,2.9-1.6
		c0-0.5,0.6-0.9,1.2-0.9c0.7,0,3-0.9,5.1-1.9c5-2.4,5.4-2,5.4,4.1c0,8.6-1.6,10.6-13.6,16.4c-5.9,2.9-11.2,5.2-11.8,5.2
		c-0.6,0-1.1,0.4-1.1,1c0,0.5-0.9,1-1.9,1s-2.5,0.6-3.2,1.3c-0.7,0.7-4.2,2.3-7.7,3.6c-3.5,1.3-6.6,2.7-6.9,3.1
		c-0.3,0.4-1.7,1-3.2,1.4c-1.5,0.4-2.7,1-2.7,1.5c0,0.4-1.3,1.1-2.9,1.5c-1.6,0.4-2.9,1.1-2.9,1.6c0,0.5-0.5,0.9-1.1,0.9
		c-1.3,0-9.9,4.1-10.7,5.1c-0.3,0.3-1.9,0.9-3.7,1.3s-3.2,1.1-3.2,1.6c0,0.5-0.7,0.9-1.7,0.9c-1.6,0-16,6.8-17,8
		c-0.3,0.3-1.9,0.9-3.7,1.3c-1.8,0.4-3.2,1.1-3.2,1.6c0,0.5-1.3,0.9-2.9,0.9h-2.9v-6.9c0-6.5,0.1-6.9,2.5-7.5c1.4-0.3,2.5-1,2.5-1.5
		c0-0.5,0.6-0.9,1.2-0.9c0.7,0,2.4-0.6,3.8-1.4c1.4-0.8,4.2-1.9,6.1-2.5c1.9-0.6,3.5-1.6,3.5-2.1s1.1-0.9,2.5-0.9
		c1.4,0,2.5-0.4,2.5-0.9c0-0.5,1.5-1.2,3.4-1.6c1.9-0.4,3.4-1,3.4-1.5c0-0.5,0.6-0.9,1.2-0.9c0.7,0,3-0.9,5.2-1.9
		c2.2-1.1,4.6-1.9,5.4-2c0.8,0,2.3-0.7,3.4-1.5c1-0.8,2.7-1.5,3.7-1.5c1,0,1.8-0.4,1.8-1c0-0.5,0.5-1,1-1c0.6,0,3.1-0.9,5.7-2.1
		c2.5-1.1,6.3-2.8,8.3-3.7c3.6-1.6,4.7-4,3-6.8c-0.4-0.6-4.2-1.6-8.6-2.2c-5-0.7-8.1-1.6-8.6-2.6c-0.4-0.8-1.5-1.5-2.2-1.5
		c-0.8,0-1.4-0.7-1.4-1.5c0-0.8-0.4-1.5-1-1.5c-0.5,0-1-1.7-1-3.7c0-4,2.7-12.2,4.1-12.2c0.5,0,0.8-0.9,0.8-2s0.7-2.3,1.5-2.6
		s1.5-1,1.5-1.5c0-1.7,4.3-7.2,11.1-14l6.6-6.7v-6.2c0-3.4,0.3-6.5,0.7-6.9C357.3,244.5,361.1,245.6,361.5,246.8 M363.9,272.9
		c-1.3,1.5-1.7,13.9-0.5,14.7c2,1.2,11.1-6,11.1-8.7C374.5,274.3,366.6,269.8,363.9,272.9 M212.3,282.1c0.3,0.5,1.6,1.2,2.8,1.6
		c1.2,0.4,4,2.4,6.2,4.6c2.2,2.1,4.4,3.9,4.9,3.9c0.5,0,0.9,0.6,0.9,1.4c0,0.8,0.7,1.6,1.5,1.9c0.8,0.3,1.5,1.2,1.5,2
		c0,0.8,0.6,1.6,1.2,1.8c2.4,0.8,2.2,18.8-0.2,23.9c-2,4.2-7.9,8.5-11.6,8.5c-0.6,0-1.2,0.4-1.2,0.9s-1.3,1.2-2.9,1.6
		s-2.9,1-2.9,1.5s-1.5,1.1-3.4,1.5c-1.9,0.4-3.4,1.1-3.4,1.6c0,0.5-0.8,0.9-1.7,0.9c-0.9,0-3.2,0.9-4.9,2c-1.8,1.1-3.9,2-4.7,2
		c-0.8,0-1.4,0.4-1.4,0.9c0,0.5-1.7,1.1-3.8,1.5c-2.1,0.3-4.1,1.2-4.3,1.9c-0.8,2.2-3.6-2.5-3.6-6.2c0-4,2.9-7.9,5.9-7.9
		c1.1,0,1.9-0.4,1.9-0.9c0-0.5,1.3-1.2,2.9-1.6c1.6-0.4,2.9-1,2.9-1.5c0-0.5,1.5-1.2,3.4-1.5c1.9-0.4,3.9-1.3,4.5-2
		c0.6-0.8,2.2-1.4,3.5-1.4c1.3,0,2.3-0.4,2.3-0.9c0-0.5,1.2-1.4,2.7-2c8.8-3.6,15-7.9,15-10.5c0-1.8-6.6-1.5-7.8,0.4
		c-0.3,0.5-1.7,1.2-3,1.7c-1.4,0.4-2.7,1-2.9,1.4c-3.1,3.8-18.6,5.1-21.9,1.8c-4.6-4.6-2.4-26.3,2.9-29.7c0.7-0.4,1.2-1.4,1.2-2.2
		c0-0.8,0.7-1.4,1.5-1.4c0.8,0,1.5-0.4,1.5-0.9C197.6,280.3,211,280,212.3,282.1 M349.9,282.1c0,0.4-1.8,2.7-3.9,5
		c-5.8,6.3-5.4,8.2,1.7,7.8l5.6-0.3l0.3-6.7c0.3-6.2,0.1-6.7-1.7-6.7C350.8,281.3,349.9,281.6,349.9,282.1 M203.5,294.2
		c0,0.5-0.6,1-1.3,1c-0.7,0-2.1,0.9-3.1,2c-1,1.1-2.4,2-3.1,2c-0.8,0-1.3,1.1-1.3,2.5c0,1.5,0.6,2.5,1.5,2.5c0.8,0,1.5-0.4,1.5-1
		s1.2-1,2.6-1c2.6,0,11.2-3.8,11.2-4.9c0-0.3-0.9-1.4-2-2.3C207.3,293,203.5,292.6,203.5,294.2 M273.5,318.4
		c-2.8,3.1-5.2,5.9-5.2,6.3c0,0.7-1.1,2.2-4.9,6.7c-2,2.4-1.2,5.2,1.5,5.2c1.4,0,2.5-0.4,2.5-1c0-0.5,0.6-1,1.2-1
		c0.7,0,2.3-0.6,3.7-1.3c1.4-0.7,5.6-2.4,9.3-3.7c3.8-1.3,7.5-3,8.2-3.7c0.7-0.7,1.9-1.2,2.7-1.2c0.9,0,1.4-1.1,1.4-3
		c0-3-1.9-5.9-3.8-5.9c-0.5,0-1.1-0.5-1.3-1.1C287.4,310.8,278.7,312.8,273.5,318.4 M117.9,424.5c-0.1,1,0,6.9,0.1,13.1l0.2,11.4
		l-3.5,3.2c-3.4,3.1-10.4,4.7-10.4,2.3c0-0.5-0.9-1.2-2-1.6c-1.6-0.5-2-1.5-2-5.5c0-5.4-1-6.6-3.9-4.7c-2.6,1.6-3,12.7-0.5,12.7
		c0.8,0,1.5,0.7,1.5,1.5c0,0.8,0.9,1.5,1.9,1.5c1,0,2.1,0.4,2.4,0.9c1.6,2.7,16.3,0.4,16.3-2.6c0-0.7,0.7-1.3,1.5-1.3
		c0.8,0,1.5-0.9,1.5-2c0-1.1,0.4-2,1-2c0.6,0,1-5.4,1-14.3v-14.3h-2.5C118.9,422.8,118,423.4,117.9,424.5 M153.7,424.4
		c-1,2.6,0.4,25.5,1.7,28.4c2.5,5.6,3.4,2.4,3.6-14l0.3-16h-2.5C155.5,422.8,154.1,423.5,153.7,424.4 M203,423.8
		c-0.9,1.5,0.7,31.7,1.7,31.7c3.1,0,3.7-2.9,3.7-17.7v-14.9H206C204.7,422.8,203.4,423.3,203,423.8 M327,423.5
		c-1.3,2.2,0.6,6.3,2.6,5.6c2.7-0.8,2.5-0.6,2.8-3.4C332.7,423.3,328.3,421.5,327,423.5 M368.4,424.5c-1.2,15,1.4,27.5,5.8,28.4
		c4.4,0.9,22.3,0.5,23.5-0.5c0.7-0.5,2.2-0.5,3.7,0.1c8.4,3.2,17.4-4.7,11.7-10.3c-2.3-2.3-3.8-1.4-4.1,2.8
		c-0.4,4.5-4.1,5.2-5.9,1.2c-1.1-2.5-6.1-3.7-6.1-1.4c0,4-4.5,4.7-7.5,1.2c-2.2-2.5-2.5-2.6-3.7-1c-0.7,1-1.8,1.7-2.4,1.7
		s-1.1,0.4-1.1,0.9c0,1.9-4.4,2-6.1,0.2c-1.4-1.5-1.8-4-2-13.1l-0.3-11.2l-2.7-0.3C369.2,422.8,368.5,423.1,368.4,424.5
		 M397.1,428.7c0,2.3-0.4,3-1.9,3c-2.9,0-3.5,2-1.2,4.3l2.1,2.1l1.2-3.2c1.2-3.2,2.7-4.3,2.8-2c0.1,2.7,4.7,4.9,5.8,2.8
		c1.4-2.7,1.3-3-1.2-3.9c-1.4-0.5-2.2-1.7-2.2-3.2c0-1.8-0.6-2.4-2.7-2.7C397.3,425.7,397.1,426,397.1,428.7 M323.4,432.1
		c0,1.9,0.5,2.5,2,2.5c1.5,0,2-0.5,1.7-2.2C326.7,429.2,323.4,428.9,323.4,432.1 M332.9,430.4c-1.7,1.7-0.6,4.3,1.8,4.3
		c2.5,0,2.9-0.7,1.9-3.4C335.9,429.7,334,429.2,332.9,430.4 M274.6,433.9c-0.4,0.7-0.8,2.9-0.9,5c0,2.1-0.5,4.1-1.1,4.5
		c-0.6,0.4-1.3,1.7-1.7,2.9c-1.2,4-7.2,2.8-13.1-2.5c-2.5-2.3-7.1-3.1-7.1-1.2c0,0.5-0.7,1-1.5,1c-0.8,0-1.5,0.4-1.5,0.9
		c0,3-10.7,5.8-11.6,3.1c-2.3-7-7-6.5-7,0.7c0,2.3-0.5,4.2-1,4.2c-0.5,0-1,0.7-1,1.5c0,0.8-0.6,1.5-1.4,1.5c-0.8,0-1.6,0.7-1.9,1.5
		c-0.3,0.8-1.3,1.5-2.1,1.5c-0.9,0-3,1-4.7,2.2c-1.7,1.2-3.4,2.4-3.6,2.5c-1.4,0.9,2.9,2.1,5.8,1.6c4.6-0.8,12.7-6.8,13.9-10.2
		c0.5-1.5,15.8-1.8,16.3-0.3c0.5,1.7,10.1,1.6,10.1,0c0-1.7,22.2-1.6,23.8,0.1c2,2,7.7,1.4,9.8-1.1c2.3-2.7,1.9-7.6-0.9-10.4
		c-3.5-3.6-10-8.1-11.5-8.1c-0.9,0-1.6-0.4-1.6-1C279.2,432.3,275.5,432.5,274.6,433.9 M181.6,435.8c-1.2,0.7-1.7,2-1.5,4.2
		c0.1,1.7-0.1,4.8-0.6,6.9c-0.7,3.4-0.5,4.1,1.7,6.2c2.6,2.4,9.5,3.4,9.5,1.4c0-0.5,0.6-1,1.3-1c2.1,0,4.6-3.8,4.6-6.9
		c0-1.6-0.4-3-1-3c-0.5,0-1-0.6-1-1.3c0-1.6-3.5-4.7-5.2-4.7c-0.7,0-2.1-0.7-3.2-1.5C184,434.5,183.9,434.5,181.6,435.8
		 M135.7,437.9c-5.8,3.1-5.2,11.3,1,12.2c2.2,0.3,3.9,1,3.9,1.5c0,1.5-6.2,6.7-8.1,6.7c-1.9,0-5.7,3.3-5.7,4.9c0,1.6,6.2,1.1,10-0.8
		c3.6-1.8,6.7-4.4,6.7-5.6c0-0.3,0.9-1.6,2-2.7C152.2,447,144.1,433.5,135.7,437.9 M329.1,440.4c-0.8,1-1.7,3.8-2,6.3
		c-0.5,4.6-3.3,8.8-6,8.8c-0.7,0-1.9,0.7-2.6,1.5c-0.7,0.8-2.3,1.5-3.6,1.5c-2.9,0-3.4,4.5-0.5,5.4c1.9,0.6,12.6-4.5,14.5-7
		c0.6-0.8,1.6-1.4,2.1-1.4c0.6,0,1.3-1.3,1.7-3c0.4-1.6,1.1-3,1.6-3c1.6,0,1-6.8-0.8-8.9C331.4,438.2,331,438.2,329.1,440.4
		 M358.5,439.4c-2,0.5-1.9,0.2-2.3,6.4c-0.3,4.4-3.6,9.7-6,9.7c-1.8,0-9.2,4.3-9.2,5.3c0,3.3,1.7,4.1,5.4,2.3c1.9-0.9,4.2-1.7,5-1.7
		c0.8,0,1.7-0.7,2-1.5c0.3-0.8,1.2-1.5,1.9-1.5c0.8,0,1.4-0.4,1.4-0.8c0-0.5,1.1-2.1,2.5-3.6C364,448.9,363.4,438.2,358.5,439.4
		 M141,443.2c0.9,2.5,0.7,3.4-0.8,3.4c-1.9,0-2.7-1.4-1.9-3.4C139,441.2,140.3,441.2,141,443.2 M280.7,443c2.2,2.2,1.6,3.5-1.5,3.5
		c-3,0-3.4-0.6-2.4-3.4C277.6,441.2,278.9,441.2,280.7,443 M188.8,445.6c1.2,2.3,0.5,3.9-1.6,3.9c-1.7,0-2.8-2.4-2-4.5
		C186,443,187.5,443.2,188.8,445.6 M255.6,448.4c0,2.6-1,3.2-3.1,2.1c-2.7-1.5-2.3-3.9,0.6-3.9C254.9,446.6,255.6,447.1,255.6,448.4
		 M289.5,447.2c1.3,0.5,1.4,0.8,0.3,1.5c-2,1.3-3.8,1-3.8-0.6C286,446.4,286.9,446.2,289.5,447.2"/>
	<path id="path2" class="st1" d="M361.7,33.4c-1.9,0.7-4.3,1.4-5.4,1.4c-1.1,0-3.2,0.7-4.8,1.6c-1.5,0.8-4,1.5-5.4,1.5
		c-1.4,0-3.4,0.7-4.5,1.5c-1,0.8-2.8,1.5-4,1.5s-2.9,0.6-4,1.3c-1.1,0.7-3.2,1.6-4.6,2s-2.7,1.1-2.7,1.6c0,0.5-1.1,1-2.4,1
		s-2.6,0.7-2.9,1.5c-0.3,0.8-1.4,1.5-2.5,1.5c-2,0-7.5,2.6-9.7,4.7c-0.7,0.7-2.2,1.2-3.3,1.2s-2.2,0.7-2.5,1.5
		c-0.3,0.8-1.6,1.5-2.8,1.5c-1.2,0-2.5,0.7-2.8,1.5c-0.3,0.8-1.7,1.5-3.1,1.5c-1.4,0-2.5,0.4-2.5,0.9c0,0.9-2.8,2.7-7.6,4.9
		c-1.2,0.6-2.2,1.5-2.2,2s-0.9,1-2,1c-1.1,0-2.2,0.6-2.5,1.4c-0.3,0.8-1.7,1.6-3.2,1.9c-1.5,0.3-3.7,1.6-5.1,2.8
		c-2.7,2.5-5.5,4.4-8.1,5.4c-0.9,0.3-1.7,1-1.7,1.5c0,0.5-0.8,1.2-1.7,1.5c-0.9,0.3-3.3,1.9-5.3,3.4c-2,1.5-4.1,2.8-4.7,2.8
		c-0.6,0-1.1,0.4-1.1,1c0,0.5-1.1,1.3-2.5,1.6c-1.4,0.3-2.5,1-2.5,1.4c0,0.4-1.7,1.9-3.7,3.2c-2,1.4-4.8,3.6-6.1,5.1
		c-1.4,1.4-3,2.6-3.6,2.6c-0.6,0-1.3,0.4-1.5,0.8c-0.2,0.4-2.2,2-4.5,3.6c-2.3,1.6-4.2,3.2-4.2,3.7c0,0.5-0.4,0.9-1,0.9
		c-0.5,0-2.9,2-5.4,4.5c-2.4,2.4-4.7,4.5-5,4.5c-0.8,0-2.3,1.3-10.2,8.9c-3.7,3.5-8.3,7.8-10.3,9.6c-2,1.7-3.6,3.6-3.6,4.2
		s-0.7,1.1-1.5,1.1c-0.8,0-1.5,0.4-1.5,1c0,1.1-1.7,3.3-7.9,9.9c-6.4,6.8-9.8,11-9.8,12c0,0.4-0.6,1.4-1.2,2.2
		c-1.7,1.8-4.7,6.8-5.3,8.9c-0.3,1-0.9,1.7-1.3,1.7c-0.4,0-1,1.6-1.4,3.5c-0.4,1.9-1.1,3.5-1.6,3.5c-3,0-0.9,13.1,2.6,16.5l3.5,3.3
		h11.6c8.9,0,13-0.5,17.7-2c3.4-1.1,7-2,8-2c1,0,1.8-0.4,1.8-1c0-0.5,1.1-1,2.4-1s3-0.6,3.7-1.3c0.7-0.7,2.8-1.6,4.5-2
		c1.8-0.4,3.9-1.3,4.7-2.2c0.8-0.8,2.3-1.5,3.4-1.5s1.9-0.4,1.9-1c0-1.5-4.1-1.1-6.3,0.5c-1,0.8-3.1,1.5-4.5,1.5
		c-1.5,0-4.2,0.7-6.2,1.5c-5,2.1-22.1,2.1-22.9,0c-0.3-0.8-1.1-1.5-1.8-1.5s-1.6-1.6-1.9-3.5c-0.7-3.8,0.3-14.3,1.3-14.3
		c0.4,0,1.7-2.1,3.1-4.7c1.3-2.6,3-5.3,3.7-6c0.7-0.7,1.2-1.8,1.2-2.3c0-0.5,1.1-2,2.5-3.3c1.4-1.3,2.5-2.8,2.5-3.4s0.5-1.1,1.2-1.1
		c1.2,0,3.4-2.3,7.2-7.5c3.4-4.7,15.7-16.2,17.3-16.2c0.5,0,0.9-0.4,0.9-0.9c0-1.3,6.1-7.5,8.1-8.3c0.9-0.4,1.7-1.1,1.7-1.7
		c0-0.6,0.4-1,1-1c1.1,0,3.7-2,7.7-6c1.4-1.4,3.4-2.8,4.3-3.2c0.9-0.4,1.7-1.1,1.7-1.7c0-0.6,0.7-1,1.5-1c0.8,0,1.5-0.4,1.5-0.8
		c0-0.5,1.2-1.4,2.7-2.2c1.5-0.8,3.6-2.3,4.7-3.4c1.1-1.1,2.6-2.4,3.4-2.8c3.9-1.9,5.9-3.4,10.3-7.3c0.8-0.7,2.1-1.2,2.9-1.2
		c0.8,0,1.5-0.5,1.5-1s1.3-1.5,2.9-2.1c1.6-0.6,2.9-1.4,2.9-1.9c0-0.5,0.5-0.9,1-0.9c1.2,0,7.2-4.1,7.7-5.2c0.2-0.4,1.1-0.7,2.1-0.7
		c1,0,2-0.7,2.3-1.5c0.3-0.8,1.5-1.5,2.6-1.5s2-0.4,2-0.9c0-1.1,7.9-5,10-5c0.9,0,1.8-0.7,2.1-1.5c0.3-0.8,1.4-1.5,2.5-1.5
		c1.1,0,2.2-0.4,2.5-0.9c0.7-1.1,8.6-5,10.1-5c0.6,0,1.6-0.7,2.3-1.5c0.7-0.8,2.2-1.5,3.4-1.5c1.2,0,2.8-0.7,3.4-1.5
		c0.7-0.8,1.9-1.5,2.8-1.5c1.5,0,5.5-1.2,12.9-4c10.5-3.9,27.6-3.8,31.5,0.1c2.1,2.1,2.7,11.2,1,14.6c-0.5,0.9-1.4,2.8-2,4.2
		c-0.6,1.4-2,3.8-3,5.4c-1.1,1.6-2.3,3.6-2.6,4.4c-0.4,0.8-1.6,2.5-2.7,3.8c-8.7,10.1-8.4,9.8-8.4,11c0,0.6,0.4,1,1,1
		c0.5,0,1-0.7,1-1.5s0.5-1.5,1-1.5c0.6,0,2.1-1.1,3.3-2.5c1.3-1.4,2.8-2.5,3.4-2.5s1.1-0.6,1.1-1.3c0-0.7,0.8-2,1.7-2.8
		c2.2-2,5.2-5.7,5.2-6.4c0-0.6,0.4-1.1,5.4-6.9c1.9-2.2,4.2-5.4,5.1-7.2c1-1.8,2.1-3.2,2.5-3.2c0.4,0,0.8-0.9,0.8-2
		c0-1.1,0.7-2.3,1.5-2.6c0.8-0.3,1.5-1.5,1.5-2.7c0-1.2,0.7-3.2,1.4-4.6c1.9-3.3,1.9-11.3,0-13.2c-0.8-0.8-1.5-2-1.5-2.5
		c0-0.6-0.5-1.1-1.1-1.1c-0.6,0-1.7-0.7-2.5-1.5C385.7,31.4,366.7,31.4,361.7,33.4 M353.8,101.7c0,0.8,0.4,1.5,1,1.5
		c0.5,0,1-0.7,1-1.5s-0.4-1.5-1-1.5C354.3,100.2,353.8,100.9,353.8,101.7"/>
	<path id="path3" class="st2" d="M259.5,497 M326.9,127.8c-0.3,0.5,4.1,1.1,9.8,1.4c10,0.6,22.1,3.7,22.1,5.8c0,0.5,0.6,0.9,1.2,0.9
		c1.3,0,4.7,5.3,4.7,7.4c0,1.9-4,9.2-6.6,12.1c-1.2,1.3-2.2,2.8-2.2,3.3c0,0.5-0.7,0.9-1.5,0.9c-1.6,0-3.3,1.2-6.1,4.2
		c-0.9,1-2.2,1.7-2.9,1.7c-0.7,0-1.3,0.4-1.3,1c0,0.5-1.1,1.2-2.4,1.6c-1.3,0.3-2.6,1.2-2.9,2c-0.3,0.8-1.2,1.4-2,1.4
		c-0.8,0-1.5,0.4-1.5,0.8c0,0.8-4.8,3.2-10.6,5.2c-1.7,0.6-3.2,1.5-3.2,2c0,0.5-0.8,0.9-1.9,0.9c-1,0-2,0.3-2.2,0.8
		c-0.2,0.4-3.5,2-7.5,3.6s-7.1,3.2-7.1,3.7c0,0.5-0.8,0.8-1.9,0.8s-3.1,0.7-4.7,1.5c-1.5,0.8-4,1.5-5.5,1.5c-1.5,0-2.7,0.4-2.7,0.9
		c0,0.5-1.5,1.2-3.4,1.5c-1.9,0.4-4.6,1.3-6.1,2.1c-1.5,0.8-3.5,1.4-4.4,1.4c-0.9,0-2.9,0.7-4.4,1.5c-1.5,0.8-4,1.5-5.5,1.5
		c-1.5,0-2.7,0.4-2.7,0.9s-2.4,1.2-5.4,1.6c-3,0.4-5.4,1-5.4,1.4c0,0.4-2,1.1-4.5,1.4c-2.5,0.4-6,1.3-7.8,2.1
		c-1.9,0.8-5.3,1.4-7.6,1.4c-2.3,0-6,0.7-8.1,1.4c-2.2,0.8-6.2,1.4-9,1.5c-2.8,0-5.2,0.4-5.4,0.9c-1.6,4.3-69.6,4.3-69.6,0
		c0-0.5-0.5-0.9-1.2-0.9s-2.6-1-4.4-2.2c-6-4.1-4.7-12.5,3-19.4c1.6-1.4,4.3-3.9,6.1-5.6c5.1-4.7,5.8-5.2,8-5.9
		c1.2-0.4,2.1-1.1,2.1-1.6c0-1.5-5.5-1-6.9,0.6c-0.7,0.8-1.8,1.5-2.6,1.5c-0.7,0-1.4,0.4-1.4,1c0,0.5-0.6,1-1.3,1
		c-0.7,0-2.1,0.7-3.2,1.5c-7.1,5.4-11.3,8.4-11.7,8.4c-0.7,0-5.5,4.1-7.8,6.8c-1.1,1.3-3.6,3.9-5.4,5.9c-5.5,5.8-4.4,20,1.6,20
		c0.7,0,1.3,0.4,1.3,1c0,0.5,1,1,2.2,1c1.2,0,3.4,0.6,4.9,1.4c8.7,4.6,52.1,4.8,70.5,0.5c2.4-0.6,8.3-1.3,13-1.6
		c4.7-0.3,8.6-0.9,8.6-1.4c0-0.5,1.7-0.8,3.7-0.8c2,0,5.2-0.5,7.1-1.1c1.9-0.6,5.2-1.4,7.4-1.9c6.5-1.3,16.6-4,18.3-4.9
		c0.9-0.5,3.6-1.2,6.1-1.6c2.5-0.4,4.6-1.1,4.6-1.6s1.5-0.9,3.3-0.9c1.8,0,4.1-0.7,5.2-1.5c1-0.8,3.5-1.5,5.3-1.5
		c1.9,0,5.2-0.9,7.4-2c2.2-1.1,4.9-1.9,6.1-1.9c1.2,0,2.2-0.5,2.2-1c0-0.5,0.9-1,2.1-1c2,0,4.1-0.8,13.2-4.9c2.2-1,6.3-2.6,9.1-3.6
		c2.8-1,5.2-2.2,5.2-2.6c0-0.4,1.3-0.8,2.9-0.8c1.6,0,3.5-0.7,4.4-1.5c0.8-0.8,1.8-1.5,2.2-1.5c1.1,0,9.6-4.2,10.2-5
		c0.3-0.4,1.5-1,2.7-1.4s2.2-1.1,2.2-1.6c0-0.5,0.9-0.9,1.9-0.9c1,0,2.5-0.6,3.2-1.2c0.7-0.7,3.5-2.4,6.2-3.7c5.1-2.6,5.5-2.9,9.3-6
		c1.3-1.1,2.6-2,3-2c0.3,0,2.5-1.8,4.7-4c2.2-2.2,4.5-4,5.1-4c0.6,0,1-0.4,1-0.9c0-0.5,1.1-2.1,2.5-3.6c1.4-1.5,3-4.4,3.6-6.5
		c0.6-2.1,1.5-3.8,2-3.8c0.5,0,0.8-0.7,0.8-1.5c0-0.8-0.4-1.5-0.9-1.5c-0.5,0-1.2-1.3-1.6-3c-0.4-1.6-1.3-3-2-3
		c-0.8,0-1.4-0.5-1.4-1s-1.3-1.5-2.9-2.1c-1.6-0.6-2.9-1.4-2.9-1.8c0-0.4-2-1.1-4.4-1.4c-2.4-0.4-4.4-1.1-4.4-1.6
		C367.6,126.7,327.6,126.6,326.9,127.8 M154.4,175.4c-2.2,0.7-2.1,0.8,1.2,0.9c2,0.1,3.7-0.3,3.7-0.9
		C159.3,174.3,157.9,174.3,154.4,175.4 M175.8,245.4c-0.9,0.2-1.7,0.8-1.7,1.3c0,0.4-1.2,1.1-2.7,1.5c-4.2,1.1-4.2,0.9-4.2,38.1
		c0,35.8-0.3,38.6-3.8,38.6c-0.6,0-1.1,0.4-1.1,0.9c0,0.5-2.5,2.1-5.6,3.7c-3.1,1.6-5.9,3.1-6.1,3.4s-1.5,0.9-2.7,1.3
		c-1.2,0.4-2.2,1.1-2.2,1.6c0,0.5-0.8,0.9-1.9,0.9c-1,0-2.1,0.7-2.4,1.5c-0.3,0.8-1.4,1.5-2.4,1.5s-2.4,0.6-3,1.4
		c-0.6,0.8-2.5,1.7-4.1,2.1c-1.6,0.3-2.9,1-2.9,1.5s-1.1,0.9-2.4,0.9c-1.3,0-3.4,0.4-4.7,0.8c-3.1,1.1-9-0.5-8.3-2.3
		c0.3-0.8,1-3.1,1.6-5.1c1.6-5.6,8.4-11.2,13.7-11.2c0.6,0,1-0.4,1-0.9c0-0.5,1.3-1.2,2.9-1.6c1.6-0.4,2.9-1,2.9-1.5
		s1.3-1.1,2.9-1.5c1.6-0.4,2.9-1,2.9-1.5c0-0.5,1.3-1.1,2.9-1.5c1.6-0.4,2.9-1,2.9-1.5c0-0.4,1.1-1.1,2.5-1.4
		c5.8-1.5,9.1-12.6,5.5-18.3c-0.9-1.4-11.9,3.1-11.9,4.9c0,0.4-1.1,1-2.5,1.3c-1.4,0.3-2.5,1-2.5,1.5c0,0.5-1.3,1.2-2.9,1.5
		c-1.6,0.4-2.9,1-2.9,1.5s-1.3,1.1-2.9,1.5c-1.6,0.4-3,1-3,1.3c0,0.4-2,1.5-4.4,2.6c-2.4,1.1-4.4,2.2-4.4,2.5c0,0.3-1.9,1.5-4.2,2.8
		c-4.2,2.3-7.6,7.5-7.6,11.8c0,1.1-0.7,3.6-1.5,5.6c-1.9,4.5-1.9,12.6,0,15.1c0.8,1.1,1.5,2.7,1.5,3.6c0,1,1.2,1.9,3,2.3
		c1.6,0.4,3.2,1.1,3.5,1.6c0.8,1.2,8.6,1.2,9.9-0.1c0.6-0.6,3.4-1.3,6.3-1.6c2.9-0.3,5.5-0.9,5.8-1.2c0.3-0.3,3.6-1.7,7.4-3
		c3.8-1.3,7.7-3,8.8-3.7c1.1-0.7,2.7-1.3,3.7-1.3s1.7-0.4,1.7-0.9c0-0.5,1.2-1.2,2.7-1.6c1.5-0.4,2.9-1,3.2-1.3
		c0.3-0.4,2.4-2,4.7-3.5c2.3-1.6,4.2-3.2,4.2-3.7c0-0.5,0.7-0.9,1.5-0.9c0.8,0,1.5-0.4,1.5-0.9c0-0.5,1.3-2.3,2.8-4.1
		c3.9-4.4,4.2-7.4,4-49.6c-0.2-35.5-0.5-39.2-3.2-37.4C177.6,244.9,176.7,245.1,175.8,245.4 M246.4,246.1c-0.8,0.8-1.9,1.5-2.4,1.5
		c-5.1,0-6.1,15.7-5.2,79.9c0,1.9,4,1.5,8.1-0.7c2-1.1,4.1-2,4.7-2c1.3,0,1.3,4.6,0,5.4c-2.5,1.5-1.1,12.3,2,15.6
		c3.5,3.7,15.3,4.5,21.1,1.3c1.6-0.9,3.5-1.6,4.2-1.6c0.7,0,1.2-0.5,1.2-1c0-0.5,0.7-1,1.5-1c0.8,0,2.2-0.9,3.2-2
		c0.9-1.1,2.2-2,2.9-2s1.3-0.4,1.3-0.9c0-0.5,1-1.2,2.2-1.6c1.2-0.4,2.7-1.2,3.4-1.8c3-2.7,4-3.4,6-4c2.8-0.9,3.4-3.7,3-13.7
		l-0.3-8.2l-6.2-5.9c-3.4-3.3-8.6-8.3-11.6-11.1c-6.3-6.1-7.5-6.3-8.9-2c-2.5,7.6-3.9,10.2-7.6,14.1c-6.3,6.6-10.3,11.7-10.3,13.1
		c0,0.7-0.4,1.3-0.9,1.3s-1.1,0.9-1.4,2c-0.3,1.1-1.2,2-2.1,2c-1.4,0-1.6-4.2-1.8-38.8c-0.3-38.8-0.3-38.8-2.3-39.1
		C248.9,244.7,247.3,245.3,246.4,246.1 M319.7,245.4c-1.2,0.2-2.2,0.8-2.2,1.3c0,0.5-0.6,0.9-1.4,0.9c-0.8,0-2.6,1.1-3.9,2.3
		l-2.5,2.3V290c0,34,0.2,37.7,1.6,38.3c3.2,1.2,12-2.8,12.7-5.9c0.9-3.9,0-77-1.1-77.2C322.4,245,320.9,245.2,319.7,245.4
		 M356.5,245.3c-0.4,0.4-0.7,3.5-0.7,6.9v6.2l-6.6,6.7c-6.7,6.8-11.1,12.3-11.1,14c0,0.5-0.7,1.2-1.5,1.5s-1.5,1.5-1.5,2.6
		s-0.4,2-0.8,2c-1.4,0-4.1,8.1-4.1,12.2c0,2,0.4,3.7,1,3.7c0.5,0,1,0.7,1,1.5c0,0.8,0.6,1.5,1.4,1.5c0.8,0,1.8,0.7,2.2,1.5
		c0.5,0.9,3.7,1.9,8.6,2.6c4.3,0.6,8.2,1.6,8.6,2.2c1.7,2.7,0.7,5.1-3,6.8c-2,0.9-5.7,2.6-8.3,3.7c-2.5,1.1-5.1,2.1-5.7,2.1
		c-0.6,0-1,0.4-1,1c0,0.5-0.8,1-1.8,1c-1,0-2.6,0.7-3.7,1.5c-1,0.8-2.6,1.5-3.4,1.5c-0.8,0-3.2,0.9-5.4,2c-2.2,1.1-4.5,1.9-5.2,1.9
		c-0.7,0-1.2,0.4-1.2,0.9c0,0.5-1.5,1.2-3.4,1.5c-1.9,0.4-3.4,1.1-3.4,1.6c0,0.5-1.1,0.9-2.5,0.9c-1.4,0-2.5,0.4-2.5,0.9
		s-1.6,1.4-3.5,2.1c-1.9,0.6-4.7,1.8-6.1,2.5c-1.4,0.8-3.2,1.4-3.8,1.4c-0.7,0-1.2,0.4-1.2,0.9c0,0.5-1.1,1.2-2.5,1.5
		c-2.3,0.6-2.5,1-2.5,7.5v6.9h2.9c1.6,0,2.9-0.4,2.9-0.9c0-0.5,1.4-1.2,3.2-1.6c1.8-0.4,3.4-1,3.7-1.3c1-1.2,15.4-8,17-8
		c0.9,0,1.7-0.4,1.7-0.9c0-0.5,1.4-1.2,3.2-1.6s3.4-1,3.7-1.3c0.8-1,9.4-5.1,10.7-5.1c0.6,0,1.1-0.4,1.1-0.9c0-0.5,1.3-1.2,2.9-1.6
		c1.6-0.4,2.9-1,2.9-1.5c0-0.4,1.2-1.1,2.7-1.5c1.5-0.4,2.9-1,3.2-1.4c0.3-0.4,3.4-1.8,6.9-3.1c3.5-1.3,7-2.9,7.7-3.6
		c0.7-0.7,2.2-1.3,3.2-1.3s1.9-0.4,1.9-1c0-0.5,0.5-1,1.1-1c0.6,0,5.9-2.3,11.8-5.2c12-5.9,13.6-7.8,13.6-16.4
		c0-6.1-0.5-6.4-5.4-4.1c-2.2,1-4.5,1.9-5.1,1.9c-0.7,0-1.2,0.4-1.2,0.9c0,0.5-1.3,1.2-2.9,1.6c-1.6,0.4-2.9,1.1-2.9,1.6
		c0,0.5-0.9,0.9-1.9,0.9s-2.6,0.7-3.4,1.5c-3,3-5.5,1.9-5.5-2.5c0-3.3,0.3-4,2-4c2,0,9.8-3.1,12.7-5c0.8-0.5,2.1-1.3,2.9-1.6
		c4.8-2.2,8-7.2,8.1-12.6c0-5.6-0.3-6.4-5.9-12c-1.8-1.8-3.2-3.5-3.2-3.8c0-1-15.5-16.5-16.5-16.5c-0.6,0-1.2-0.4-1.4-0.9
		C361.1,245.6,357.3,244.5,356.5,245.3 M371.8,274.5c3.5,4,3.4,5-0.8,9c-6.8,6.4-8.3,5.9-8.3-2.7
		C362.7,271.1,366.6,268.4,371.8,274.5 M199.3,280.9c-0.9,0.3-1.7,0.9-1.7,1.4c0,0.5-0.7,0.9-1.5,0.9c-0.8,0-1.5,0.6-1.5,1.4
		c0,0.8-0.6,1.8-1.2,2.2c-5.4,3.5-7.5,25.1-2.9,29.7c3.3,3.3,18.8,2,21.9-1.8c0.3-0.3,1.6-1,2.9-1.4c1.4-0.4,2.7-1.2,3-1.7
		c1.2-1.9,7.8-2.2,7.8-0.4c0,2.6-6.1,6.9-15,10.5c-1.5,0.6-2.7,1.5-2.7,2c0,0.5-1.1,0.9-2.3,0.9c-1.3,0-2.8,0.6-3.5,1.4
		c-0.6,0.8-2.7,1.7-4.5,2c-1.9,0.4-3.4,1-3.4,1.5c0,0.5-1.3,1.2-2.9,1.5c-1.6,0.4-2.9,1.1-2.9,1.6c0,0.5-0.9,0.9-1.9,0.9
		c-3,0-5.9,3.9-5.9,7.9c0,3.7,2.8,8.5,3.6,6.2c0.3-0.7,2.2-1.5,4.3-1.9c2.1-0.3,3.8-1,3.8-1.5c0-0.5,0.7-0.9,1.4-0.9
		c0.8,0,2.9-0.9,4.7-2c1.8-1.1,4-2,4.9-2c0.9,0,1.7-0.4,1.7-0.9c0-0.5,1.5-1.2,3.4-1.6c1.9-0.4,3.4-1,3.4-1.5s1.3-1.1,2.9-1.5
		s2.9-1.1,2.9-1.6s0.5-0.9,1.2-0.9c3.7,0,9.6-4.3,11.6-8.5c2.5-5.1,2.6-23.1,0.2-23.9c-0.7-0.2-1.2-1.1-1.2-1.8c0-0.8-0.7-1.7-1.5-2
		c-0.8-0.3-1.5-1.2-1.5-1.9c0-0.8-0.4-1.4-0.9-1.4c-0.5,0-2.7-1.8-4.9-3.9c-2.2-2.1-5-4.2-6.2-4.6c-1.2-0.4-2.5-1.1-2.8-1.6
		C211.6,281,201.9,280.2,199.3,280.9 M353.6,288l-0.3,6.7l-5.6,0.3c-7.1,0.4-7.5-1.5-1.7-7.8c2.2-2.3,3.9-4.6,3.9-5
		c0-0.4,0.9-0.8,2-0.8C353.8,281.3,353.9,281.8,353.6,288 M209.4,294.9c1.1,0.9,2,2,2,2.3c0,1.1-8.6,4.9-11.2,4.9
		c-1.4,0-2.6,0.4-2.6,1s-0.7,1-1.5,1c-0.9,0-1.5-0.9-1.5-2.5c0-1.4,0.6-2.5,1.3-2.5c0.7,0,2.1-0.9,3.1-2c1-1.1,2.4-2,3.1-2
		c0.7,0,1.3-0.4,1.3-1C203.5,292.6,207.3,293,209.4,294.9 M288.8,314.8c0.2,0.6,0.8,1.1,1.3,1.1c1.9,0,3.8,2.9,3.8,5.9
		c0,2-0.5,3-1.4,3c-0.8,0-2,0.6-2.7,1.2c-0.7,0.7-4.4,2.3-8.2,3.7c-3.8,1.3-8,3-9.3,3.7c-1.4,0.7-3,1.3-3.7,1.3
		c-0.7,0-1.2,0.5-1.2,1c0,0.5-1.1,1-2.5,1c-2.6,0-3.4-2.9-1.5-5.2c3.8-4.5,4.9-6,4.9-6.7c0-0.4,2.3-3.3,5.2-6.3
		C278.7,312.8,287.4,310.8,288.8,314.8 M123,437.2c0,8.9-0.4,14.3-1,14.3c-0.5,0-1,0.9-1,2c0,1.1-0.7,2-1.5,2
		c-0.8,0-1.5,0.6-1.5,1.3c0,2.9-14.6,5.3-16.3,2.6c-0.3-0.5-1.4-0.9-2.4-0.9c-1,0-1.9-0.7-1.9-1.5c0-0.8-0.7-1.5-1.5-1.5
		c-2.5,0-2-11,0.5-12.7c2.9-1.8,3.9-0.7,3.9,4.7c0,4,0.4,4.9,2,5.5c1.1,0.3,2,1,2,1.6c0,2.4,7,0.8,10.4-2.3l3.5-3.2l-0.2-11.4
		c-0.3-15.3-0.4-14.8,2.5-14.8h2.5V437.2 M159.1,438.8c-0.4,23-4.4,22.4-5.4-0.8c-0.6-13.7-0.3-15.2,3.2-15.2h2.5L159.1,438.8
		 M208.4,437.7c0,14.8-0.6,17.7-3.7,17.7c-1,0-2.6-30.1-1.7-31.7c0.3-0.5,1.7-1,3-1h2.4V437.7 M332.5,425.7
		c-0.3,2.8-0.1,2.6-2.8,3.4c-2.1,0.6-4-3.4-2.6-5.6C328.3,421.5,332.7,423.3,332.5,425.7 M374.3,434.5c0.2,9.1,0.6,11.6,2,13.1
		c1.7,1.9,6.1,1.7,6.1-0.2c0-0.5,0.5-0.9,1.1-0.9s1.7-0.8,2.4-1.7c1.2-1.6,1.5-1.5,3.7,1c3.1,3.5,7.5,2.9,7.5-1.2
		c0-2.2,4.9-1.1,6.1,1.4c1.8,4.1,5.5,3.4,5.9-1.2c0.3-4.1,1.8-5.1,4.1-2.8c5.6,5.7-3.3,13.6-11.7,10.3c-1.6-0.6-3.1-0.7-3.7-0.1
		c-1.2,1-19,1.3-23.5,0.5c-3.9-0.7-5.3-5.1-5.7-16.8c-0.4-13.8-0.4-13.5,2.7-13.1l2.7,0.3L374.3,434.5 M402.5,428.6
		c0,1.5,0.8,2.7,2.2,3.2c2.5,0.9,2.6,1.3,1.2,3.9c-1.1,2.1-5.8-0.1-5.8-2.8c-0.1-2.3-1.6-1.2-2.8,2l-1.2,3.2L394,436
		c-2.3-2.3-1.8-4.3,1.2-4.3c1.5,0,1.9-0.7,1.9-3c0-2.7,0.3-3,2.7-2.7C401.9,426.2,402.5,426.8,402.5,428.6 M327.1,432.5
		c0.2,1.7-0.2,2.2-1.7,2.2c-1.5,0-2-0.6-2-2.5C323.4,428.9,326.7,429.2,327.1,432.5 M336.5,431.3c1,2.7,0.7,3.4-1.9,3.4
		c-1.7,0-2.5-0.5-2.5-1.8C332.2,429.6,335.4,428.4,336.5,431.3 M279.2,433.7c0,0.5,0.7,1,1.6,1c1.5,0,8,4.5,11.5,8.1
		c2.8,2.8,3.2,7.8,0.9,10.4c-2.1,2.4-7.8,3.1-9.8,1.1c-1.7-1.7-23.8-1.8-23.8-0.1c0,1.7-9.5,1.7-10.1,0c-0.5-1.5-15.8-1.2-16.3,0.3
		c-1.2,3.5-9.3,9.4-13.9,10.2c-2.9,0.5-7.2-0.7-5.8-1.6c0.3-0.2,1.9-1.3,3.6-2.5c1.7-1.2,3.8-2.2,4.7-2.2c0.8,0,1.8-0.7,2.1-1.5
		c0.3-0.8,1.2-1.5,1.9-1.5c0.8,0,1.4-0.7,1.4-1.5c0-0.8,0.4-1.5,1-1.5c0.5,0,1-1.9,1-4.2c0-7.2,4.7-7.7,7-0.7
		c0.9,2.7,11.6-0.1,11.6-3.1c0-0.5,0.7-0.9,1.5-0.9c0.8,0,1.5-0.4,1.5-1c0-1.8,4.6-1,7.1,1.2c5.9,5.3,11.9,6.5,13.1,2.5
		c0.4-1.2,1.2-2.5,1.7-2.9c0.6-0.4,1.1-2.4,1.1-4.5c0-2.1,0.4-4.3,0.9-5C275.5,432.5,279.2,432.3,279.2,433.7 M186.3,436.2
		c1,0.8,2.5,1.5,3.2,1.5c1.7,0,5.2,3.1,5.2,4.7c0,0.7,0.4,1.3,1,1.3c0.5,0,1,1.3,1,3c0,3.1-2.5,6.9-4.6,6.9c-0.7,0-1.3,0.4-1.3,1
		c0,2-6.9,1-9.5-1.4c-2.3-2.1-2.4-2.8-1.7-6.2c0.4-2.1,0.7-5.2,0.6-6.9c-0.2-2.2,0.3-3.4,1.5-4.2C183.9,434.5,184,434.5,186.3,436.2
		 M145.6,439.9c2.6,3.2,2.6,11.5,0,14.4c-1.1,1.2-2,2.4-2,2.7c0,1.1-3.1,3.7-6.7,5.6c-3.8,2-10,2.5-10,0.8c0-1.6,3.8-4.9,5.7-4.9
		c1.9,0,8.1-5.2,8.1-6.7c0-0.5-1.8-1.2-3.9-1.5c-3.2-0.5-4-1.1-4.6-3.2C130.1,438.7,140.2,433.4,145.6,439.9 M333.5,440.6
		c1.8,2.1,2.4,8.9,0.8,8.9c-0.5,0-1.2,1.3-1.6,3c-0.4,1.6-1.1,3-1.7,3c-0.6,0-1.5,0.6-2.1,1.4c-1.9,2.4-12.6,7.6-14.5,7
		c-2.9-0.9-2.4-5.4,0.5-5.4c1.3,0,2.9-0.7,3.6-1.5c0.7-0.8,1.8-1.5,2.6-1.5c2.7,0,5.5-4.2,6-8.8
		C327.8,439.7,330.5,437.2,333.5,440.6 M362.3,446.7c-0.3,3-1.4,5.5-3,7.3c-1.4,1.5-2.5,3.1-2.5,3.6c0,0.5-0.6,0.8-1.4,0.8
		c-0.8,0-1.6,0.7-1.9,1.5c-0.3,0.8-1.2,1.5-2,1.5c-0.8,0-3.1,0.8-5,1.7c-3.6,1.7-5.3,1-5.4-2.3c0-1,7.4-5.3,9.2-5.3
		c2.4,0,5.7-5.3,6-9.7c0.4-6.3,0.3-6,2.3-6.4C361.4,438.7,362.9,441.6,362.3,446.7 M138.3,443.2c-0.7,2,0.1,3.4,1.9,3.4
		c1.5,0,1.8-0.9,0.8-3.4C140.3,441.2,139,441.2,138.3,443.2 M276.8,443.2c-1.1,2.8-0.6,3.4,2.4,3.4c3.2,0,3.8-1.3,1.5-3.5
		C278.9,441.2,277.6,441.2,276.8,443.2 M185.2,445.1c-0.8,2.1,0.3,4.5,2,4.5c2.1,0,2.8-1.7,1.6-3.9C187.5,443.2,186,443,185.2,445.1
		 M250.7,448c0,1.6,3.3,3.8,4.3,2.8c1.6-1.7,0.5-4.3-1.8-4.3C251.6,446.6,250.7,447.1,250.7,448 M286,448c0,1.6,1.7,1.9,3.8,0.6
		c1-0.7,1-1-0.3-1.5C286.9,446.2,286,446.4,286,448"/>
</g>
</svg>
