<!DOCTYPE svg PUBLIC "-//W3C//DTD SVG 20010904//EN" "http://www.w3.org/TR/2001/REC-SVG-20010904/DTD/svg10.dtd">
<svg version="1.0" xmlns="http://www.w3.org/2000/svg" width="555px" height="556px" viewBox="0 0 5550 5560" preserveAspectRatio="xMidYMid meet">
<g id="layer1" fill="#555555" stroke="none">
 <path d="M2575 5514 c-444 -44 -774 -142 -1120 -332 -495 -273 -889 -686 -1141 -1197 -431 -876 -363 -1919 177 -2724 363 -541 879 -924 1499 -1112 419 -127 921 -147 1358 -54 498 106 957 350 1324 703 642 620 942 1489 817 2367 -83 587 -355 1131 -774 1550 -421 421 -947 686 -1540 776 -124 19 -497 33 -600 23z m555 -209 c734 -113 1362 -510 1765 -1115 291 -437 429 -894 428 -1415 0 -227 -13 -348 -58 -550 -183 -827 -783 -1523 -1578 -1829 -443 -171 -950 -214 -1417 -120 -541 109 -1061 414 -1420 832 -334 390 -535 834 -607 1347 -22 156 -22 494 1 650 59 410 187 749 411 1085 289 435 712 775 1200 966 227 88 445 139 730 168 86 9 444 -4 545 -19z"/>
 <path d="M1257 3815 c-55 -15 -147 -68 -182 -105 -43 -45 -92 -138 -104 -197 -9 -43 -11 -262 -9 -848 l3 -790 23 -58 c47 -116 172 -219 300 -246 38 -8 462 -11 1485 -11 1544 0 1485 -2 1589 51 58 29 130 100 161 157 57 106 57 99 57 924 0 519 -4 774 -11 810 -27 129 -129 252 -246 300 l-58 23 -1480 2 c-1203 1 -1489 -1 -1528 -12z m2973 -185 c47 -13 106 -63 133 -113 l22 -42 0 -781 0 -781 -30 -49 c-19 -30 -49 -60 -79 -79 l-49 -30 -1456 0 -1456 0 -42 22 c-51 27 -96 82 -112 132 -8 27 -11 257 -11 795 0 834 -3 795 63 865 18 18 50 42 72 52 38 18 98 19 1475 19 901 0 1448 -4 1470 -10z"/>
 <path d="M1373 2870 c-64 -38 -83 -99 -63 -196 7 -32 21 -77 32 -98 30 -60 111 -139 168 -166 l50 -24 -34 -35 c-46 -48 -66 -98 -66 -168 1 -137 99 -233 241 -233 100 0 195 67 223 158 25 78 -3 192 -60 249 -14 14 -24 26 -22 27 175 81 257 190 261 346 2 54 -2 71 -21 98 -44 61 -50 62 -379 62 -278 0 -300 -1 -330 -20z m587 -142 c0 -66 -75 -164 -147 -195 -48 -20 -179 -17 -229 6 -69 32 -134 124 -134 194 0 16 19 17 255 17 l255 0 0 -22z m-197 -489 c37 -40 35 -73 -8 -116 -31 -31 -40 -35 -68 -29 -70 14 -101 83 -63 141 35 53 92 55 139 4z"/>
 <path d="M2290 2450 l0 -80 310 0 310 0 0 80 0 80 -310 0 -310 0 0 -80z"/>
 <path d="M3040 2450 l0 -80 205 0 205 0 0 80 0 80 -205 0 -205 0 0 -80z"/>
 <path d="M2290 2170 l0 -80 385 0 385 0 0 80 0 80 -385 0 -385 0 0 -80z"/>
 <path d="M3190 2170 l0 -80 310 0 310 0 0 80 0 80 -310 0 -310 0 0 -80z"/>
 </g>

</svg>