<svg version="1" xmlns="http://www.w3.org/2000/svg" width="1669.333" height="1669.333" viewBox="0 0 1252.000000 1252.000000"><path d="M616.4 165.2c-10.5 2.2-11.1 2.3-15.8 3.6-2 .6-3.6.8-3.6.6 0-.3-.8 0-1.7.5-1 .5-3.1 1.2-4.8 1.5-1.6.3-9.1 2.1-16.5 4.1-7.4 2-14.2 3.7-15 3.9-8.2 2.1-15.2 4-18.7 5.1-2.3.8-5.2 1.7-6.5 1.9-2.7.5-33.6 9.4-35.8 10.3-.8.3-1.9.7-2.5.9-2.3.5-18.2 5.5-21 6.5-1.6.6-3.7 1.2-4.5 1.4-.8.2-1.5.4-1.5.5 0 .1-.7.3-1.5.5-7.2 1.6-74.2 25.1-94.5 33.1-2.2.9-4.9 2-6 2.4-2.3.9-16.9 6.8-20.5 8.3-1.4.5-3 1.1-3.5 1.2-.6.2-3.1 1.2-5.5 2.3-2.5 1.1-6.6 2.9-9.2 4.1-2.6 1.1-5.1 2.1-5.6 2.1s-3.6 1.3-7 3c-3.4 1.6-6.4 3-6.6 3-.4 0-10.2 4.4-21.1 9.5-15.8 7.3-51.1 25-51.7 25.9-.4.6-.8.7-.8.2 0-.5-.6-.4-1.2.2-1.3.9-8.4 4.9-18.3 10-2.7 1.5-5.2 2.9-5.5 3.2-.3.3-2.4 1.6-4.7 2.7-5.9 3.1-8.7 4.7-9.3 5.4-.3.3-3.2 2.1-6.5 3.9-3.3 1.7-7.6 4.2-9.5 5.5-8.8 5.6-22 14.2-26.9 17.4-2.9 2-6.1 4-7 4.6-.9.5-1.8 1.2-2.1 1.5-.3.3-2.5 1.9-5 3.5s-4.9 3.6-5.3 4.2c-.4.7-1.2 1.3-1.8 1.3-1 0-1.7.5-6.3 4.5-1.6 1.4-4.4 3.5-6.3 4.6-1.8 1.1-3.3 2.5-3.3 3s-.5.9-1.1.9c-1.1 0-8.8 6.2-20.9 16.8-17.8 15.6-29.3 27.2-44.5 44.7-7.5 8.6-21.7 28.8-26.7 38-4.5 8-11.8 23.6-11.8 24.9 0 .7-.4 1.6-.9 2.1-.5.6-1.9 4.4-3.2 8.5-2.4 8-2.4 8-3.2 12.5-.3 1.6-.9 4.1-1.2 5.5-2 8.1-2.6 28.1-1.1 40.5.4 3.8.9 8.1 1 9.5.2 1.4.6 3.5 1 4.7.4 1.2.8 3 1 4 .2 1 1 3.8 1.7 6.3s1.3 4.7 1.4 5c.4 1.7 4.1 12.2 5.6 15.8 1 2.3 1.9 4.4 1.9 4.7 0 .8 11.5 23.3 15.1 29.5 1.7 3 3.5 5.6 4 5.8.5.2.9.8.9 1.4 0 1.3 13 20.2 14.2 20.6.4.2.8.8.8 1.3 0 .8 11.9 16.3 16.5 21.6.5.6 2.8 3.3 5 5.8 2.2 2.6 6.3 7.2 9 10.3 7.1 8 41.8 42.5 49.9 49.7 3.8 3.3 8.5 7.6 10.6 9.5 2.1 1.9 5.8 5.1 8.1 7 2.3 1.9 4.7 4 5.3 4.5.6.6 4.9 4.2 9.6 8 4.7 3.8 8.7 7.2 9 7.6.3.3 3.7 3 7.5 5.9 3.9 3 12 9.3 18 14 6.1 4.7 15.3 11.7 20.5 15.5 5.2 3.9 10 7.3 10.5 7.7.6.4 2.4 1.9 4.1 3.3 1.8 1.4 3.5 2.5 3.9 2.5.3 0 1.3.6 2 1.2 3 2.7 4.4 3.8 5 3.8.3 0 1.1.5 1.8 1.1 2.2 1.9 18.1 12.9 31.2 21.7 7.2 4.8 13.2 8.9 13.5 9.2.3.3 1.7 1.1 3.3 1.9 1.5.8 2.7 1.8 2.7 2.3 0 .4.5.8 1.1.8.6 0 4.3 2.2 8.2 4.8 8.8 6 19.1 12.6 27.7 17.8 3.6 2.1 6.7 4.2 7 4.5.3.4 2.3 1.6 4.5 2.8 2.2 1.2 6 3.5 8.5 5.1 2.5 1.6 7 4.3 10 6.1 3 1.8 5.7 3.6 5.8 4.1.2.4.7.8 1.1.8.9 0 16.9 9.4 18.8 11 .7.5 1.4 1 1.7 1 .2 0 5 2.7 10.5 6 5.6 3.3 10.6 6 11.1 6 .6 0 1 .3 1 .7 0 .5 1 1.3 2.3 1.9 3.5 1.7 9.2 4.9 9.7 5.4.4.4 3.9 2.4 9.5 5.4 1.1.6 2.2 1.3 2.5 1.6.6.6 4.3 2.7 14.5 8.1 4.4 2.3 8.2 4.5 8.5 4.8.3.3 2.8 1.7 5.5 3.1 2.8 1.4 5.3 2.9 5.7 3.5.4.5.8.6.8.1s.8-.2 1.7.6c1 .8 4.3 2.8 7.3 4.4 3 1.6 5.7 3.1 6 3.4.3.3 3.2 1.9 6.5 3.5 3.3 1.7 6.2 3.3 6.5 3.6.3.3 1.9 1.2 3.5 2.1 11.4 5.7 20.1 10.2 20.5 10.7.3.3 4.3 2.5 9 4.9 17.7 9 24.5 12.7 25.2 13.7.4.5.8.6.8.1s.7-.3 1.5.4 5.2 3.1 9.8 5.5c22 11.2 38.3 19.8 39.5 20.7.6.6 1.2.7 1.2.2 0-.5.4-.5.8.1.4.5 7 4.2 14.8 8.2l14.1 7.2 11.9-4c6.5-2.2 12.8-4.4 13.9-4.9 1.1-.5 9-3.4 17.5-6.5s16.9-6.3 18.7-7.1c1.7-.7 3.4-1.4 3.8-1.4.4 0 2.1-.6 3.8-1.4 14.1-6.4 19.5-8.5 20.1-7.8.3.3.6 0 .6-.6 0-.7.9-1.2 2-1.2s2-.5 2-1.2c0-.6.3-.9.6-.5.3.3 3.2-.8 6.4-2.4 3.1-1.6 6.1-2.9 6.5-2.9.9 0 46.9-22.8 57-28.3 14.2-7.7 19.9-10.9 23.5-13.1 6.7-4 11.5-6.7 13.3-7.3.9-.3 1.7-.9 1.7-1.4 0-.5.4-.9.9-.9s4.7-2.3 9.3-5.1c4.6-2.9 9.9-6.1 11.8-7.3 1.9-1.1 3.7-2.3 4-2.7.3-.4 1.7-1.3 3-1.8 2.7-1.2 6.2-3.3 7-4.2.3-.3 3.9-2.8 8-5.5 4.1-2.6 7.7-5.2 7.8-5.6.2-.5.9-.8 1.5-.8.7 0 3.6-1.8 6.5-4s5.5-4 5.8-4c.3 0 1.9-1 3.4-2.2 1.5-1.3 3.7-3 5-3.8 1.2-.8 4.5-3.2 7.3-5.3 2.9-2 6.3-4.5 7.6-5.5 3.7-2.6 28.4-21.4 29.8-22.6.7-.6 1.8-1.6 2.5-2.1 4.6-3.6 11.5-9.2 12.5-10 .6-.6 3-2.6 5.4-4.5 2.3-1.9 5.6-4.7 7.3-6.3 1.7-1.5 3.7-3.3 4.5-3.9 17.9-15.1 44.2-40.4 62.6-60.2 14.1-15.2 15.8-17.1 19-21.2 1.7-2 3.5-4.2 4-4.8.6-.6 3-3.6 5.5-6.6 2.5-3 4.7-5.7 5-6 .3-.3 3.9-5 8-10.5s7.7-10.2 8-10.5c.3-.3 1-1.2 1.5-2.2.6-.9 4.6-6.9 9-13.3 8.9-13 18.1-27.2 22.9-35.3 1.7-3 3.8-6.6 4.7-8 .8-1.5 2.9-5.2 4.5-8.2 1.6-3 3.3-5.8 3.9-6.2.5-.4.7-.8.3-.8-.4 0 .4-2.6 1.8-5.7 2.4-5.4 2.5-5.8.8-7-1-.7-2.9-1.4-4.3-1.5-1.4-.1-4.2-.2-6.1-.4-1.9-.1-3.7-.3-4-.4-1.4-.5-13.6-.9-42.8-1.4-17.7-.3-32.7-.8-33.2-1.1-.6-.3-1-.2-1 .2 0 .5-1.7.7-3.7.5-5-.4-11.5-.2-12.4.4-.4.2-1 0-1.4-.6-.4-.6-1.1-.8-1.6-.4-.6.3-33.5.8-73.2 1-39.7.3-80.7.7-91.2.9-22.8.6-20 .6-26 .2-2.7-.2-5.4-.1-5.9.2-.9.4-6.8.5-8.3.1-.5-.1-1.2-.2-1.7-.1s-16.3.4-35 .7c-40.3.5-78.5 1.1-132.6 2-21.7.4-51.1.7-65.2.8-14.2 0-25.8.3-25.8.6s-9.3.5-20.8.5c-11.4 0-21.9.2-23.4.4l-2.8.3 2.8 2.2c3.7 2.9 7.2 5.8 9.2 7.6 3.3 3.1 13 10 14 10 .5 0 1 .4 1 1 0 .5 1.2 1.6 2.8 2.4 1.5.8 4 2.5 5.6 3.9 1.6 1.4 4.1 3.1 5.5 3.9 1.4.7 3.1 1.7 3.6 2.1 2.4 1.9 19.7 12.7 25.1 15.6 3.2 1.8 7 4.1 8.5 5.2 1.5 1 3.2 1.9 3.8 1.9.6 0 1.1.4 1.1 1 0 .5.4 1 1 1 .5 0 3.3 1.5 6.2 3.2l5.3 3.3 136 .1c124.5.2 201.6.8 230 2 15.1.6 26.9 1.2 27.5 1.4.5.2 3 .5 6.7.8 4.2.4 2.6 2.7-17 24.7-8.2 9.2-49.7 50.7-57 57-3.2 2.7-7.8 6.8-10.2 9-2.4 2.2-6.1 5.3-8.1 7-2 1.6-4.7 3.9-5.9 5-1.3 1.1-3.6 2.9-5.1 4-1.5 1.1-5.2 4-8.4 6.5-3.1 2.5-6.9 5.5-8.6 6.7-1.6 1.2-4.9 3.6-7.4 5.5-4.5 3.4-14.7 10.5-17.8 12.3-.9.5-1.9 1.2-2.2 1.5-1.2 1.3-17 11-17.9 11-.5 0-1.1.4-1.3.8-.4 1.1-17.5 11.2-18.8 11.2-.6 0-1 .4-1 .8s-1.2 1.3-2.7 1.9c-1.6.7-5.3 2.6-8.3 4.4-6.4 3.7-44.4 22.9-45.3 22.9-.3 0-5.9 2.5-12.4 5.6-6.5 3.1-17.2 7.9-23.8 10.6-6.6 2.7-13.1 5.5-14.5 6.1-1.4.5-2.7 1.1-3 1.2-.3.1-2.1.8-4 1.6-1.9.9-5.7 2.4-8.5 3.4-2.7 1-5.4 2.1-6 2.5-.5.4-3.9 1.7-7.5 3s-6.9 2.6-7.5 3c-.5.4-3.9 1.7-7.5 2.9s-7.4 2.6-8.5 3.1c-11 4.6-24 7.7-33.2 7.8-14 .3-26.3-4.6-56.8-22.4-2.2-1.3-4.9-2.8-6-3.4-1.1-.6-2.9-1.6-4-2.3-1.1-.7-5.8-3.4-10.5-6.2-4.7-2.7-9.3-5.4-10.2-6-13.2-7.8-16.2-9.5-16.9-9.5-.5 0-.9-.4-.9-.8 0-.5-1.2-1.4-2.6-2.1-2.2-1-12.6-7.3-28.4-17.2-2.5-1.6-5-3.3-5.7-3.9-.7-.5-1.5-1-1.9-1-.4 0-2.2-1.1-4-2.5-1.8-1.4-3.5-2.5-3.8-2.5-.2 0-5.2-3.2-11-7-5.8-3.9-11-7-11.6-7-.5 0-1-.4-1-.8 0-.5-1.2-1.5-2.7-2.3-1.6-.8-3.2-1.8-3.8-2.2-2.2-1.8-28.7-19.7-29.1-19.7-.3 0-1-.4-1.7-1-5.7-4.6-7.6-6-8.5-6-.6 0-1.2-.4-1.4-.8-.1-.4-3.2-2.8-6.8-5.2-3.6-2.5-7.1-5-7.8-5.7-.7-.7-2.6-2-4.2-3-1.7-.9-3-2.1-3-2.5 0-.4-.7-.8-1.5-.8s-1.5-.4-1.5-.8-1.5-1.6-3.2-2.7c-1.8-1-3.5-2.1-3.8-2.5-.3-.3-5.9-4.6-12.5-9.5-6.6-5-12.5-9.5-13.1-10-.6-.6-2.6-2.1-4.4-3.5-3.5-2.6-22.6-17.7-24.7-19.5-.7-.5-1.8-1.5-2.5-2-2.9-2.2-20.2-16.7-27.2-22.8-11.6-10.1-18.5-16.3-30-27.1-15-13.9-40.7-40.3-49.8-51.1-1.8-2.1-5.5-6.4-8.2-9.4-2.6-3.1-5.6-6.7-6.5-8.1-.8-1.4-2.2-3.1-2.9-3.9-3.1-3.2-22.2-30.3-22.2-31.5 0-.2-2.3-4.2-5-9-2.8-4.8-5-9.3-5-9.9 0-.7-.4-1.7-.9-2.3-1.1-1.2-6.9-16.3-7.5-19.7-.2-1.5-.7-3-.9-3.4-1.6-2.7-2.7-24.1-1.3-26.1.5-.6.6-1.2.3-1.2s.3-2.6 1.4-5.7c2-6 7.5-15.3 9-15.3.5 0 .9-.7.9-1.5s.4-1.5.9-1.5c.4 0 2.4-1.3 4.2-3 1.9-1.6 4.2-3.2 5.2-3.6.9-.3 1.7-1 1.7-1.5 0-.6.4-.8.9-.5.5.3 1.4-.1 2.1-.9.7-.8 2.1-1.5 3.1-1.5 1.1 0 1.9-.4 1.9-.9s1-1.1 2.3-1.4c2.1-.5 6.8-2.1 11.2-3.8 2.4-.9 9.1-3 10.8-3.3.7-.2 3.2-.8 5.7-1.5s5.3-1.5 6.3-1.7c1-.2 2.6-.5 3.5-.8.9-.3 3.3-.8 5.2-1.2 4.4-.8 6.5-1.2 6.5-1.4 0-.1 1.6-.3 3.5-.6 1.9-.2 5.5-.8 8-1.4 2.5-.5 6.1-1.2 8-1.5 1.9-.3 6-1 9-1.5 5.1-.8 13-1.9 19-2.5 1.4-.2 2.5-.4 2.5-.5 0-.1 1.8-.3 4-.5 2.2-.1 5.8-.6 8-1 2.2-.3 5.6-.8 7.5-1 1.9-.2 5.8-.6 8.5-.9 5.1-.6 10.8-1.2 20.5-2 3-.3 7.1-.8 9-1 1.9-.3 6.9-.8 11-1.1 4.1-.3 10-.7 13-1 3-.3 9.6-.7 14.5-1.1 5-.3 11.5-.7 14.5-.9 3-.2 9.2-.6 13.8-.9 4.5-.4 13.1-.8 19-1.1 11.2-.5 26.6-1.3 38.9-2 4-.2 16.8-.7 28.5-1 11.7-.4 26.5-.8 32.8-1.1 6.3-.2 39.3-.6 73.2-.9 33.9-.2 62-.5 62.5-.6.4-.1 1 0 1.3.1 1.5.6 7.7.5 9.1-.2.9-.4 1.9-.5 2.2-.1.4.3 15.2.7 32.9.9 17.8.2 41.8.6 53.3.9 53 1.3 60.9 1.5 74 2 7.7.2 18.1.7 23 .9 10 .6 37.8 1.7 49.8 2.1 4.2.1 8 .5 8.4.8.3.4 1.2.2 2-.4.7-.6 1.3-.8 1.3-.3s2.6.9 5.8.8c3.1 0 6.7.3 8 .8 1.2.4 2.2.4 2.2-.1s.8-.8 1.8-.6c.9.2 1.7.4 1.7.5 0 .1 3.4.3 7.5.5 10.4.4 29.2 1.5 37 2.1 3.6.3 9.9.7 14 .9 4.1.3 10.7.7 14.5 1 3.9.2 11.3.7 16.5 1 5.2.2 11.5.7 14 .9 4.9.5 18.7 1.6 26.5 2.1 2.8.2 8.6.6 13 1 4.4.3 10.9.8 14.5 1.1 3.6.3 8.5.7 11 .9 2.5.2 8.6.6 13.5 1 5 .4 10.4.8 12 1 23.5 2.1 40.1 2.5 45.8 1 4.5-1.1 8.7-4.2 8.7-6.4 0-.5.3-1.1.8-1.3.4-.2 2.3-2.3 4.2-4.8 5.1-6.5 8.3-10.1 19.9-22.1 11.6-12.1 15.6-17.3 16.6-21.1 1.9-7.6-7.3-13.3-39.5-24.6-7.6-2.7-15.6-5.4-17-5.7-.7-.2-4-1.4-6.8-2.6-1.3-.5-2.8-.7-3.3-.4-.5.4-.9.1-.9-.4 0-.6-.3-1-.7-.9-1.3.3-12.7-3.3-14-4.4-.7-.6-1.3-.8-1.3-.5 0 .4-1.9-.1-4.2-.9-2.4-.9-5-1.7-5.8-1.9-.8-.2-4.6-1.4-8.5-2.6-3.8-1.3-7.2-2.3-7.5-2.4-1.9-.4-22.1-6.9-24.5-7.8-1.6-.6-3.6-1.3-4.2-1.4-.7-.2-1.9-.4-2.5-.6-1.5-.4-14.7-4.6-16.8-5.4-.8-.3-2.1-.8-2.7-1-.7-.1-1.9-.5-2.5-.6-.7-.2-2-.6-2.8-1-2.4-.9-5.5-1.8-5.7-1.8-.2 0-2.3-.8-4.8-1.9-2.5-1.1-4.5-1.7-4.5-1.3 0 .3-.6.1-1.2-.4-.7-.5-3.5-1.8-6.3-2.8-9-3.2-27.4-11.9-28.5-13.4-.3-.4-2.2-1.7-4.3-3-2.1-1.3-4.3-2.8-5-3.5-.6-.6-4.1-3.4-7.7-6.1-3.6-2.7-7.1-5.5-7.8-6.2-.7-.7-1.7-1.3-2.2-1.3-.5 0-1.5-.6-2.2-1.3-1.6-1.4-3.1-2.3-10.8-6.9-3-1.7-5.8-3.6-6.1-4.1-.3-.4-1.2-.9-2-1-.8-.2-3-1.2-4.9-2.4-6.8-4.1-25.8-13.2-26.4-12.6-.3.4-.6.1-.6-.5 0-.7-.6-1.2-1.2-1.2-1.3 0-10.8-4.7-18.3-9-10.9-6.2-18.5-13.3-22.6-21.1-3.4-6.5-3.2-18.5.6-29.4 3.3-9.4 4.1-15 2.5-16-1.4-.8-8.6 2.2-11.4 4.7-1.1 1-2.6 1.8-3.3 1.8-.7 0-1.3.3-1.3.8 0 .4-1.6 1.6-3.5 2.6-1.9 1.1-3.5 2.3-3.5 2.8 0 .4-.7.8-1.5.8-.7 0-1.9.8-2.4 1.7-.6 1-1.1 1.4-1.1 1 0-.4-1.2.4-2.7 1.8-1.5 1.4-3.3 2.5-4 2.5-.6 0-1.3.4-1.5.8-.1.5-2.6 2.5-5.3 4.5l-5.1 3.6.2-7.2c.2-14.4 2.9-26.5 8.6-39.5 3.1-7.1 5.7-16.8 4.8-18.1-.9-1.5-9.3.4-11.1 2.5-.6.8-1.5 1.4-2 1.4s-11.1 6.7-23.5 15c-12.5 8.2-23 15-23.4 15-.5 0-1 .4-1.2.8-.3.8-13.4 9.2-14.3 9.2-.2 0-2.8 1.5-5.7 3.3-7.1 4.5-18.2 9.7-24.2 11.3-10.4 2.8-21.7-2-47.6-20.3-1.4-1-2.9-2.3-3.3-3-.4-.7-1.2-1.3-1.6-1.3-.4 0-3.2-2.1-6.2-4.8-6.3-5.5-37.3-36.2-36.5-36.2.2 0-1-1.5-2.7-3.3-1.8-1.8-5-5.5-7.2-8.2-2.2-2.8-4.4-5.5-5-6.1-.5-.6-2.3-2.9-4-5-5.7-7.3-15.9-19.9-17.2-21.2-.7-.7-3.3-2.2-5.8-3.3-5.5-2.4-11.5-2.3-24.1.3zm339.7 197.9c.9.5 3.9 1.6 6.5 2.4 7.9 2.6 19.4 7.7 19.4 8.6 0 .5.6.9 1.3.9 2.2.1 6.7 4.8 6.1 6.5-1.4 3.6-8.7 5.4-16.2 4-9.9-1.9-23.1-11.3-27.8-19.8-2-3.6-.7-4.9 4.5-4.1 2.5.4 5.3 1 6.2 1.5z"/></svg>