<svg xmlns="http://www.w3.org/2000/svg" viewBox="0 0 500 500" height="500" width="500"><defs><style>.a{isolation:isolate;}.b{fill:#d1c8bf;}.c{fill:#fff;}.d{mix-blend-mode:multiply;}.e{fill:#dc1431;}</style></defs><title>SVG Icon Masters-v3</title><g class="a"><path class="b" d="M368.12,221.569a14.8,14.8,0,0,1-14.788,14.8H83.612a14.782,14.782,0,0,1-14.776-14.8V62.712A14.782,14.782,0,0,1,83.612,47.933h269.72A14.8,14.8,0,0,1,368.12,62.712V221.569Z"/><rect class="c" x="94.004" y="182.704" width="47.542" height="16.236"/><rect class="c" x="161.129" y="182.704" width="47.547" height="16.236"/><rect class="c" x="228.273" y="182.704" width="47.542" height="16.236"/><rect class="c" x="295.393" y="182.704" width="47.542" height="16.236"/><path class="c" d="M141.157,163.077a7.282,7.282,0,0,1-7.3,7.287H100.912a7.288,7.288,0,0,1-7.292-7.287V141.739a7.292,7.292,0,0,1,7.292-7.292H133.86a7.286,7.286,0,0,1,7.3,7.292v21.337Z"/><g class="d"><path class="e" d="M425,157.373H396.259V29.861H425a5.231,5.231,0,0,1,5.237,5.227V152.146A5.237,5.237,0,0,1,425,157.373"/><path class="e" d="M358.851,29.861V17.919A11.4,11.4,0,0,0,347.434,6.513H316.653a11.4,11.4,0,0,0-11.4,11.407V29.861H288.029V157.373h92.518V29.861h-21.7Zm-4.936-1.3a1.775,1.775,0,0,1-.262,1.3h-43.2a1.741,1.741,0,0,1-.253-1.3v-3.8c0-5.548,3.226-10.178,7.511-11.2a7.506,7.506,0,0,1,1.787-.209h25.107c5.14,0,9.308,5.111,9.308,11.412v3.8Z"/><path class="e" d="M272.318,157.373H243.586a5.246,5.246,0,0,1-5.247-5.227V35.088a5.239,5.239,0,0,1,5.247-5.227h28.731V157.373"/></g></g></svg>